M48
; DRILL file KiCad 10.0.5 date 2026-09-02T13:59:42
; FORMAT={-:-/ absolute / metric / decimal}
; #@! TF.CreationDate,2026-09-02T13:59:42-07:00
; #@! TF.GenerationSoftware,Kicad,Pcbnew,10.0.5
; #@! TF.FileFunction,Plated,1,2,PTH
FMAT,2
METRIC
; #@! TA.AperFunction,Plated,PTH,ViaDrill
T1C0.300
; #@! TA.AperFunction,Plated,PTH,ComponentDrill
T2C0.800
; #@! TA.AperFunction,Plated,PTH,ComponentDrill
T3C1.000
; #@! TA.AperFunction,Plated,PTH,ComponentDrill
T4C1.010
; #@! TA.AperFunction,Plated,PTH,ComponentDrill
T5C1.300
%
G90
G05
T1
X64.5Y-124.5
X75.5Y-104.0
X75.5Y-112.5
T2
X67.0Y-85.5
X69.5Y-85.5
X80.5Y-118.5
X84.0Y-118.5
T3
X60.0Y-116.61
X60.0Y-119.15
X60.0Y-121.69
X60.0Y-124.23
X60.0Y-126.77
X60.0Y-129.31
X60.0Y-131.85
X60.0Y-134.39
X68.96Y-97.48
X68.96Y-100.02
X68.96Y-102.56
X68.96Y-105.1
X68.96Y-107.64
X68.96Y-110.18
X68.96Y-112.72
X68.96Y-115.26
X68.96Y-117.8
X68.96Y-120.34
X68.96Y-122.88
X68.96Y-125.42
X68.96Y-127.96
X68.96Y-130.5
X68.96Y-133.04
X68.96Y-135.58
X68.96Y-138.12
X68.96Y-140.66
X68.96Y-143.2
X68.96Y-145.74
X71.5Y-97.48
X71.5Y-100.02
X71.5Y-102.56
X71.5Y-105.1
X71.5Y-107.64
X71.5Y-110.18
X71.5Y-112.72
X71.5Y-115.26
X71.5Y-117.8
X71.5Y-120.34
X71.5Y-122.88
X71.5Y-125.42
X71.5Y-127.96
X71.5Y-130.5
X71.5Y-133.04
X71.5Y-135.58
X71.5Y-138.12
X71.5Y-140.66
X71.5Y-143.2
X71.5Y-145.74
X93.5Y-84.22
X93.5Y-86.76
X93.5Y-89.3
X93.5Y-91.84
X93.5Y-94.38
X93.5Y-96.92
X93.5Y-99.46
X93.5Y-102.0
X108.5Y-84.22
X108.5Y-86.76
X108.5Y-89.3
X108.5Y-91.84
X108.5Y-94.38
X108.5Y-96.92
X108.5Y-99.46
X108.5Y-102.0
X114.0Y-85.82
X114.0Y-88.36
X114.0Y-90.9
X114.0Y-93.44
X114.0Y-95.98
X114.0Y-98.52
X114.0Y-101.06
X114.0Y-103.6
X114.0Y-106.14
X114.0Y-108.68
X114.0Y-111.22
X114.0Y-113.76
X114.0Y-116.3
X114.0Y-118.84
X114.0Y-121.38
X114.0Y-123.92
X114.0Y-126.46
X114.0Y-129.0
X114.0Y-131.54
X114.0Y-134.08
X114.0Y-136.62
X114.0Y-139.16
X114.0Y-141.7
X114.0Y-144.24
X137.0Y-85.82
X137.0Y-88.36
X137.0Y-90.9
X137.0Y-93.44
X137.0Y-95.98
X137.0Y-98.52
X137.0Y-101.06
X137.0Y-103.6
X137.0Y-106.14
X137.0Y-108.68
X137.0Y-111.22
X137.0Y-113.76
X137.0Y-116.3
X137.0Y-118.84
X137.0Y-121.38
X137.0Y-123.92
X137.0Y-126.46
X137.0Y-129.0
X137.0Y-131.54
X137.0Y-134.08
X137.0Y-136.62
X137.0Y-139.16
X137.0Y-141.7
X137.0Y-144.24
T4
X79.9Y-132.3
X85.0Y-133.5
T5
X72.672Y-154.465
X72.672Y-159.545
X82.828Y-87.455
X82.828Y-92.535
X83.5Y-100.42
X83.5Y-105.5
X92.42Y-156.672
X97.5Y-156.672
X106.5Y-156.5
X111.58Y-156.5
M30
