%TF.GenerationSoftware,KiCad,Pcbnew,10.0.5*%
%TF.CreationDate,2026-09-02T13:59:07-07:00*%
%TF.ProjectId,Kevin_PCB,4b657669-6e5f-4504-9342-2e6b69636164,rev?*%
%TF.SameCoordinates,Original*%
%TF.FileFunction,Soldermask,Bot*%
%TF.FilePolarity,Negative*%
%FSLAX46Y46*%
G04 Gerber Fmt 4.6, Leading zero omitted, Abs format (unit mm)*
G04 Created by KiCad (PCBNEW 10.0.5) date 2026-09-02 13:59:07*
%MOMM*%
%LPD*%
G01*
G04 APERTURE LIST*
G04 Aperture macros list*
%AMRoundRect*
0 Rectangle with rounded corners*
0 $1 Rounding radius*
0 $2 $3 $4 $5 $6 $7 $8 $9 X,Y pos of 4 corners*
0 Add a 4 corners polygon primitive as box body*
4,1,4,$2,$3,$4,$5,$6,$7,$8,$9,$2,$3,0*
0 Add four circle primitives for the rounded corners*
1,1,$1+$1,$2,$3*
1,1,$1+$1,$4,$5*
1,1,$1+$1,$6,$7*
1,1,$1+$1,$8,$9*
0 Add four rect primitives between the rounded corners*
20,1,$1+$1,$2,$3,$4,$5,0*
20,1,$1+$1,$4,$5,$6,$7,0*
20,1,$1+$1,$6,$7,$8,$9,0*
20,1,$1+$1,$8,$9,$2,$3,0*%
G04 Aperture macros list end*
%ADD10R,1.700000X1.700000*%
%ADD11C,1.700000*%
%ADD12RoundRect,0.250000X-1.050000X-1.050000X1.050000X-1.050000X1.050000X1.050000X-1.050000X1.050000X0*%
%ADD13C,2.600000*%
%ADD14RoundRect,0.250000X1.050000X-1.050000X1.050000X1.050000X-1.050000X1.050000X-1.050000X-1.050000X0*%
%ADD15C,2.010000*%
%ADD16RoundRect,0.250000X-0.550000X-0.550000X0.550000X-0.550000X0.550000X0.550000X-0.550000X0.550000X0*%
%ADD17C,1.600000*%
%ADD18C,2.700000*%
%ADD19R,2.000000X2.000000*%
%ADD20RoundRect,0.250000X0.550000X0.550000X-0.550000X0.550000X-0.550000X-0.550000X0.550000X-0.550000X0*%
%ADD21RoundRect,0.250000X-1.050000X1.050000X-1.050000X-1.050000X1.050000X-1.050000X1.050000X1.050000X0*%
G04 APERTURE END LIST*
D10*
%TO.C,J17*%
X60000000Y-116610000D03*
D11*
X60000000Y-119150000D03*
X60000000Y-121690000D03*
X60000000Y-124230000D03*
X60000000Y-126770000D03*
X60000000Y-129310000D03*
X60000000Y-131850000D03*
X60000000Y-134390000D03*
%TD*%
D12*
%TO.C,J16*%
X106500000Y-156500000D03*
D13*
X111580000Y-156500000D03*
%TD*%
D14*
%TO.C,J15*%
X72672500Y-159545000D03*
D13*
X72672500Y-154465000D03*
%TD*%
D12*
%TO.C,J14*%
X92420000Y-156672500D03*
D13*
X97500000Y-156672500D03*
%TD*%
D15*
%TO.C,F1*%
X85000000Y-133500000D03*
X79900000Y-132300000D03*
%TD*%
D16*
%TO.C,C4*%
X80500000Y-118500000D03*
D17*
X84000000Y-118500000D03*
%TD*%
D18*
%TO.C,23*%
X136000000Y-159500000D03*
%TD*%
%TO.C,21*%
X56000000Y-83000000D03*
%TD*%
%TO.C,22*%
X56000000Y-159500000D03*
%TD*%
D19*
%TO.C,J6*%
X93500000Y-84220000D03*
X108500000Y-84220000D03*
X93500000Y-86760000D03*
X108500000Y-86760000D03*
X93500000Y-89300000D03*
X108500000Y-89300000D03*
X93500000Y-91840000D03*
X108500000Y-91840000D03*
X93500000Y-94380000D03*
X108500000Y-94380000D03*
X93500000Y-96920000D03*
X108500000Y-96920000D03*
X93500000Y-99460000D03*
X108500000Y-99460000D03*
X93500000Y-102000000D03*
X108500000Y-102000000D03*
%TD*%
D14*
%TO.C,J3*%
X83500000Y-105500000D03*
D13*
X83500000Y-100420000D03*
%TD*%
D19*
%TO.C,J5*%
X114000000Y-85820000D03*
X137000000Y-85820000D03*
X114000000Y-88360000D03*
X137000000Y-88360000D03*
X114000000Y-90900000D03*
X137000000Y-90900000D03*
X114000000Y-93440000D03*
X137000000Y-93440000D03*
X114000000Y-95980000D03*
X137000000Y-95980000D03*
X114000000Y-98520000D03*
X137000000Y-98520000D03*
X114000000Y-101060000D03*
X137000000Y-101060000D03*
X114000000Y-103600000D03*
X137000000Y-103600000D03*
X114000000Y-106140000D03*
X137000000Y-106140000D03*
X114000000Y-108680000D03*
X137000000Y-108680000D03*
X114000000Y-111220000D03*
X137000000Y-111220000D03*
X114000000Y-113760000D03*
X137000000Y-113760000D03*
X114000000Y-116300000D03*
X137000000Y-116300000D03*
X114000000Y-118840000D03*
X137000000Y-118840000D03*
X114000000Y-121380000D03*
X137000000Y-121380000D03*
X114000000Y-123920000D03*
X137000000Y-123920000D03*
X114000000Y-126460000D03*
X137000000Y-126460000D03*
X114000000Y-129000000D03*
X137000000Y-129000000D03*
X114000000Y-131540000D03*
X137000000Y-131540000D03*
X114000000Y-134080000D03*
X137000000Y-134080000D03*
X114000000Y-136620000D03*
X137000000Y-136620000D03*
X114000000Y-139160000D03*
X137000000Y-139160000D03*
X114000000Y-141700000D03*
X137000000Y-141700000D03*
X114000000Y-144240000D03*
X137000000Y-144240000D03*
%TD*%
D20*
%TO.C,C3*%
X69500000Y-85500000D03*
D17*
X67000000Y-85500000D03*
%TD*%
D10*
%TO.C,J1*%
X71500000Y-97480000D03*
D11*
X68960000Y-97480000D03*
X71500000Y-100020000D03*
X68960000Y-100020000D03*
X71500000Y-102560000D03*
X68960000Y-102560000D03*
X71500000Y-105100000D03*
X68960000Y-105100000D03*
X71500000Y-107640000D03*
X68960000Y-107640000D03*
X71500000Y-110180000D03*
X68960000Y-110180000D03*
X71500000Y-112720000D03*
X68960000Y-112720000D03*
X71500000Y-115260000D03*
X68960000Y-115260000D03*
X71500000Y-117800000D03*
X68960000Y-117800000D03*
X71500000Y-120340000D03*
X68960000Y-120340000D03*
X71500000Y-122880000D03*
X68960000Y-122880000D03*
X71500000Y-125420000D03*
X68960000Y-125420000D03*
X71500000Y-127960000D03*
X68960000Y-127960000D03*
X71500000Y-130500000D03*
X68960000Y-130500000D03*
X71500000Y-133040000D03*
X68960000Y-133040000D03*
X71500000Y-135580000D03*
X68960000Y-135580000D03*
X71500000Y-138120000D03*
X68960000Y-138120000D03*
X71500000Y-140660000D03*
X68960000Y-140660000D03*
X71500000Y-143200000D03*
X68960000Y-143200000D03*
X71500000Y-145740000D03*
X68960000Y-145740000D03*
%TD*%
D21*
%TO.C,J2*%
X82827500Y-87455000D03*
D13*
X82827500Y-92535000D03*
%TD*%
M02*
