%TF.GenerationSoftware,KiCad,Pcbnew,10.0.5*%
%TF.CreationDate,2026-09-02T13:59:06-07:00*%
%TF.ProjectId,Kevin_PCB,4b657669-6e5f-4504-9342-2e6b69636164,rev?*%
%TF.SameCoordinates,Original*%
%TF.FileFunction,Copper,L1,Top*%
%TF.FilePolarity,Positive*%
%FSLAX46Y46*%
G04 Gerber Fmt 4.6, Leading zero omitted, Abs format (unit mm)*
G04 Created by KiCad (PCBNEW 10.0.5) date 2026-09-02 13:59:06*
%MOMM*%
%LPD*%
G01*
G04 APERTURE LIST*
G04 Aperture macros list*
%AMRoundRect*
0 Rectangle with rounded corners*
0 $1 Rounding radius*
0 $2 $3 $4 $5 $6 $7 $8 $9 X,Y pos of 4 corners*
0 Add a 4 corners polygon primitive as box body*
4,1,4,$2,$3,$4,$5,$6,$7,$8,$9,$2,$3,0*
0 Add four circle primitives for the rounded corners*
1,1,$1+$1,$2,$3*
1,1,$1+$1,$4,$5*
1,1,$1+$1,$6,$7*
1,1,$1+$1,$8,$9*
0 Add four rect primitives between the rounded corners*
20,1,$1+$1,$2,$3,$4,$5,0*
20,1,$1+$1,$4,$5,$6,$7,0*
20,1,$1+$1,$6,$7,$8,$9,0*
20,1,$1+$1,$8,$9,$2,$3,0*%
G04 Aperture macros list end*
%TA.AperFunction,ComponentPad*%
%ADD10R,1.700000X1.700000*%
%TD*%
%TA.AperFunction,ComponentPad*%
%ADD11C,1.700000*%
%TD*%
%TA.AperFunction,ComponentPad*%
%ADD12RoundRect,0.250000X-1.050000X-1.050000X1.050000X-1.050000X1.050000X1.050000X-1.050000X1.050000X0*%
%TD*%
%TA.AperFunction,ComponentPad*%
%ADD13C,2.600000*%
%TD*%
%TA.AperFunction,ComponentPad*%
%ADD14RoundRect,0.250000X1.050000X-1.050000X1.050000X1.050000X-1.050000X1.050000X-1.050000X-1.050000X0*%
%TD*%
%TA.AperFunction,ComponentPad*%
%ADD15C,2.010000*%
%TD*%
%TA.AperFunction,ComponentPad*%
%ADD16RoundRect,0.250000X-0.550000X-0.550000X0.550000X-0.550000X0.550000X0.550000X-0.550000X0.550000X0*%
%TD*%
%TA.AperFunction,ComponentPad*%
%ADD17C,1.600000*%
%TD*%
%TA.AperFunction,SMDPad,CuDef*%
%ADD18RoundRect,0.250000X-0.250000X-0.475000X0.250000X-0.475000X0.250000X0.475000X-0.250000X0.475000X0*%
%TD*%
%TA.AperFunction,ComponentPad*%
%ADD19R,2.000000X2.000000*%
%TD*%
%TA.AperFunction,ComponentPad*%
%ADD20RoundRect,0.250000X0.550000X0.550000X-0.550000X0.550000X-0.550000X-0.550000X0.550000X-0.550000X0*%
%TD*%
%TA.AperFunction,ComponentPad*%
%ADD21RoundRect,0.250000X-1.050000X1.050000X-1.050000X-1.050000X1.050000X-1.050000X1.050000X1.050000X0*%
%TD*%
%TA.AperFunction,ViaPad*%
%ADD22C,0.600000*%
%TD*%
%TA.AperFunction,Conductor*%
%ADD23C,0.500000*%
%TD*%
%TA.AperFunction,Conductor*%
%ADD24C,1.500000*%
%TD*%
%TA.AperFunction,Conductor*%
%ADD25C,1.000000*%
%TD*%
%TA.AperFunction,Conductor*%
%ADD26C,0.300000*%
%TD*%
%TA.AperFunction,Conductor*%
%ADD27C,0.400000*%
%TD*%
%TA.AperFunction,Conductor*%
%ADD28C,0.200000*%
%TD*%
%TA.AperFunction,Conductor*%
%ADD29C,3.000000*%
%TD*%
%TA.AperFunction,Conductor*%
%ADD30C,0.800000*%
%TD*%
G04 APERTURE END LIST*
D10*
%TO.P,J17,1,Pin_1_1*%
%TO.N,/LCD_3V3*%
X60000000Y-116610000D03*
D11*
%TO.P,J17,2,Pin_2_2*%
%TO.N,/GND*%
X60000000Y-119150000D03*
%TO.P,J17,3,Pin_3_3*%
%TO.N,/LCD_MOSI*%
X60000000Y-121690000D03*
%TO.P,J17,4,Pin_4_4*%
%TO.N,/LCD_SCLK*%
X60000000Y-124230000D03*
%TO.P,J17,5,Pin_5_5*%
%TO.N,/LCD_CS*%
X60000000Y-126770000D03*
%TO.P,J17,6,Pin_6_6*%
%TO.N,/LCD_DC*%
X60000000Y-129310000D03*
%TO.P,J17,7,Pin_7_7*%
%TO.N,/LCD_RST*%
X60000000Y-131850000D03*
%TO.P,J17,8,Pin_8_8*%
%TO.N,/LCD_BL*%
X60000000Y-134390000D03*
%TD*%
D12*
%TO.P,J16,1,Pin_1_1*%
%TO.N,/MAIN_5V*%
X106500000Y-156500000D03*
D13*
%TO.P,J16,2,Pin_2_2*%
%TO.N,/GND*%
X111580000Y-156500000D03*
%TD*%
D14*
%TO.P,J15,1,Pin_1_1*%
%TO.N,/MAIN_5V*%
X72672500Y-159545000D03*
D13*
%TO.P,J15,2,Pin_2_2*%
%TO.N,/GND*%
X72672500Y-154465000D03*
%TD*%
D12*
%TO.P,J14,1,Pin_1_1*%
%TO.N,/BAT_5V_IN*%
X92420000Y-156672500D03*
D13*
%TO.P,J14,2,Pin_2_2*%
%TO.N,/GND*%
X97500000Y-156672500D03*
%TD*%
D15*
%TO.P,F1,1*%
%TO.N,/BAT_5V_IN*%
X85000000Y-133500000D03*
%TO.P,F1,2*%
%TO.N,/MAIN_5V*%
X79900000Y-132300000D03*
%TD*%
D16*
%TO.P,C4,1*%
%TO.N,/MAIN_5V*%
X80500000Y-118500000D03*
D17*
%TO.P,C4,2*%
%TO.N,/GND*%
X84000000Y-118500000D03*
%TD*%
D18*
%TO.P,C1,1*%
%TO.N,/VCC*%
X99500000Y-107000000D03*
%TO.P,C1,2*%
%TO.N,/GND*%
X101400000Y-107000000D03*
%TD*%
D19*
%TO.P,J6,1,Pin_1_1*%
%TO.N,/MAIN_5V*%
X93500000Y-84220000D03*
%TO.P,J6,2,Pin_2_2*%
%TO.N,/PWMA*%
X108500000Y-84220000D03*
%TO.P,J6,3,Pin_3_3*%
%TO.N,/VCC*%
X93500000Y-86760000D03*
%TO.P,J6,4,Pin_4_4*%
%TO.N,/AIN2*%
X108500000Y-86760000D03*
%TO.P,J6,5,Pin_5_5*%
%TO.N,/GND*%
X93500000Y-89300000D03*
%TO.P,J6,6,Pin_6_6*%
%TO.N,/AIN1*%
X108500000Y-89300000D03*
%TO.P,J6,7,Pin_7_7*%
%TO.N,/A01*%
X93500000Y-91840000D03*
%TO.P,J6,8,Pin_8_8*%
%TO.N,/STBY*%
X108500000Y-91840000D03*
%TO.P,J6,9,Pin_9_9*%
%TO.N,/A02*%
X93500000Y-94380000D03*
%TO.P,J6,10,Pin_10_10*%
%TO.N,/BIN1*%
X108500000Y-94380000D03*
%TO.P,J6,11,Pin_11_11*%
%TO.N,/B02*%
X93500000Y-96920000D03*
%TO.P,J6,12,Pin_12_12*%
%TO.N,/BIN2*%
X108500000Y-96920000D03*
%TO.P,J6,13,Pin_13_13*%
%TO.N,/B01*%
X93500000Y-99460000D03*
%TO.P,J6,14,Pin_14_14*%
%TO.N,/PWMB*%
X108500000Y-99460000D03*
%TO.P,J6,15,Pin_15_15*%
%TO.N,/GND*%
X93500000Y-102000000D03*
%TO.P,J6,16,Pin_16_16*%
X108500000Y-102000000D03*
%TD*%
D14*
%TO.P,J3,1,Pin_1_1*%
%TO.N,/B01*%
X83500000Y-105500000D03*
D13*
%TO.P,J3,2,Pin_2_2*%
%TO.N,/B02*%
X83500000Y-100420000D03*
%TD*%
D19*
%TO.P,J5,1,Pin_1_1*%
%TO.N,unconnected-(J5-Pin_1-Pad1)*%
X114000000Y-85820000D03*
%TO.P,J5,2,Pin_2_2*%
%TO.N,unconnected-(J5-Pin_2-Pad2)*%
X137000000Y-85820000D03*
%TO.P,J5,3,Pin_3_3*%
%TO.N,unconnected-(J5-Pin_3-Pad3)*%
X114000000Y-88360000D03*
%TO.P,J5,4,Pin_4_4*%
%TO.N,unconnected-(J5-Pin_4-Pad4)*%
X137000000Y-88360000D03*
%TO.P,J5,5,Pin_5_5*%
%TO.N,unconnected-(J5-Pin_5-Pad5)*%
X114000000Y-90900000D03*
%TO.P,J5,6,Pin_6_6*%
%TO.N,unconnected-(J5-Pin_6-Pad6)*%
X137000000Y-90900000D03*
%TO.P,J5,7,Pin_7_7*%
%TO.N,unconnected-(J5-Pin_7-Pad7)*%
X114000000Y-93440000D03*
%TO.P,J5,8,Pin_8_8*%
%TO.N,unconnected-(J5-Pin_8-Pad8)*%
X137000000Y-93440000D03*
%TO.P,J5,9,Pin_9_9*%
%TO.N,/PI_TX*%
X114000000Y-95980000D03*
%TO.P,J5,10,Pin_10_10*%
%TO.N,unconnected-(J5-Pin_10-Pad10)*%
X137000000Y-95980000D03*
%TO.P,J5,11,Pin_11_11*%
%TO.N,/PI_RX*%
X114000000Y-98520000D03*
%TO.P,J5,12,Pin_12_12*%
%TO.N,unconnected-(J5-Pin_12-Pad12)*%
X137000000Y-98520000D03*
%TO.P,J5,13,Pin_13_13*%
%TO.N,/AIN1*%
X114000000Y-101060000D03*
%TO.P,J5,14,Pin_14_14*%
%TO.N,unconnected-(J5-Pin_14-Pad14)*%
X137000000Y-101060000D03*
%TO.P,J5,15,Pin_15_15*%
%TO.N,/AIN2*%
X114000000Y-103600000D03*
%TO.P,J5,16,Pin_16_16*%
%TO.N,unconnected-(J5-Pin_16-Pad16)*%
X137000000Y-103600000D03*
%TO.P,J5,17,Pin_17_17*%
%TO.N,/PWMA*%
X114000000Y-106140000D03*
%TO.P,J5,18,Pin_18_18*%
%TO.N,unconnected-(J5-Pin_18-Pad18)*%
X137000000Y-106140000D03*
%TO.P,J5,19,Pin_19_19*%
%TO.N,/BIN1*%
X114000000Y-108680000D03*
%TO.P,J5,20,Pin_20_20*%
%TO.N,unconnected-(J5-Pin_20-Pad20)*%
X137000000Y-108680000D03*
%TO.P,J5,21,Pin_21_21*%
%TO.N,/BIN2*%
X114000000Y-111220000D03*
%TO.P,J5,22,Pin_22_22*%
%TO.N,unconnected-(J5-Pin_22-Pad22)*%
X137000000Y-111220000D03*
%TO.P,J5,23,Pin_23_23*%
%TO.N,/PWMB*%
X114000000Y-113760000D03*
%TO.P,J5,24,Pin_24_24*%
%TO.N,unconnected-(J5-Pin_24-Pad24)*%
X137000000Y-113760000D03*
%TO.P,J5,25,Pin_25_25*%
%TO.N,/STBY*%
X114000000Y-116300000D03*
%TO.P,J5,26,Pin_26_26*%
%TO.N,unconnected-(J5-Pin_26-Pad26)*%
X137000000Y-116300000D03*
%TO.P,J5,27,Pin_27_27*%
%TO.N,unconnected-(J5-Pin_27-Pad27)*%
X114000000Y-118840000D03*
%TO.P,J5,28,Pin_28_28*%
%TO.N,unconnected-(J5-Pin_28-Pad28)*%
X137000000Y-118840000D03*
%TO.P,J5,29,Pin_29_29*%
%TO.N,unconnected-(J5-Pin_29-Pad29)*%
X114000000Y-121380000D03*
%TO.P,J5,30,Pin_30_30*%
%TO.N,unconnected-(J5-Pin_30-Pad30)*%
X137000000Y-121380000D03*
%TO.P,J5,31,Pin_31_31*%
%TO.N,unconnected-(J5-Pin_31-Pad31)*%
X114000000Y-123920000D03*
%TO.P,J5,32,Pin_32_32*%
%TO.N,unconnected-(J5-Pin_32-Pad32)*%
X137000000Y-123920000D03*
%TO.P,J5,33,Pin_33_33*%
%TO.N,unconnected-(J5-Pin_33-Pad33)*%
X114000000Y-126460000D03*
%TO.P,J5,34,Pin_34_34*%
%TO.N,unconnected-(J5-Pin_34-Pad34)*%
X137000000Y-126460000D03*
%TO.P,J5,35,Pin_35_35*%
%TO.N,unconnected-(J5-Pin_35-Pad35)*%
X114000000Y-129000000D03*
%TO.P,J5,36,Pin_36_36*%
%TO.N,unconnected-(J5-Pin_36-Pad36)*%
X137000000Y-129000000D03*
%TO.P,J5,37,Pin_37_37*%
%TO.N,unconnected-(J5-Pin_37-Pad37)*%
X114000000Y-131540000D03*
%TO.P,J5,38,Pin_38_38*%
%TO.N,unconnected-(J5-Pin_38-Pad38)*%
X137000000Y-131540000D03*
%TO.P,J5,39,Pin_39_39*%
%TO.N,unconnected-(J5-Pin_39-Pad39)*%
X114000000Y-134080000D03*
%TO.P,J5,40,Pin_40_40*%
%TO.N,unconnected-(J5-Pin_40-Pad40)*%
X137000000Y-134080000D03*
%TO.P,J5,41,Pin_41_41*%
%TO.N,unconnected-(J5-Pin_41-Pad41)*%
X114000000Y-136620000D03*
%TO.P,J5,42,Pin_42_42*%
%TO.N,unconnected-(J5-Pin_42-Pad42)*%
X137000000Y-136620000D03*
%TO.P,J5,43,Pin_43_43*%
%TO.N,unconnected-(J5-Pin_43-Pad43)*%
X114000000Y-139160000D03*
%TO.P,J5,44,Pin_44_44*%
%TO.N,unconnected-(J5-Pin_44-Pad44)*%
X137000000Y-139160000D03*
%TO.P,J5,45,Pin_45_45*%
%TO.N,unconnected-(J5-Pin_45-Pad45)*%
X114000000Y-141700000D03*
%TO.P,J5,46,Pin_46_46*%
%TO.N,/GND*%
X137000000Y-141700000D03*
%TO.P,J5,47,Pin_47_47*%
%TO.N,unconnected-(J5-Pin_47-Pad47)*%
X114000000Y-144240000D03*
%TO.P,J5,48,Pin_48_48*%
%TO.N,unconnected-(J5-Pin_48-Pad48)*%
X137000000Y-144240000D03*
%TD*%
D20*
%TO.P,C3,1*%
%TO.N,/MAIN_5V*%
X69500000Y-85500000D03*
D17*
%TO.P,C3,2*%
%TO.N,/GND*%
X67000000Y-85500000D03*
%TD*%
D10*
%TO.P,J1,1,Pin_1_1*%
%TO.N,/VCC*%
X71500000Y-97480000D03*
D11*
%TO.P,J1,2,Pin_2_2*%
%TO.N,unconnected-(J1-Pin_2-Pad2)*%
X68960000Y-97480000D03*
%TO.P,J1,3,Pin_3_3*%
%TO.N,unconnected-(J1-Pin_3-Pad3)*%
X71500000Y-100020000D03*
%TO.P,J1,4,Pin_4_4*%
%TO.N,unconnected-(J1-Pin_4-Pad4)*%
X68960000Y-100020000D03*
%TO.P,J1,5,Pin_5_5*%
%TO.N,unconnected-(J1-Pin_5-Pad5)*%
X71500000Y-102560000D03*
%TO.P,J1,6,Pin_6_6*%
%TO.N,/GND*%
X68960000Y-102560000D03*
%TO.P,J1,7,Pin_7_7*%
%TO.N,unconnected-(J1-Pin_7-Pad7)*%
X71500000Y-105100000D03*
%TO.P,J1,8,Pin_8_8*%
%TO.N,/PI_TX*%
X68960000Y-105100000D03*
%TO.P,J1,9,Pin_9_9*%
%TO.N,unconnected-(J1-Pin_9-Pad9)*%
X71500000Y-107640000D03*
%TO.P,J1,10,Pin_10_10*%
%TO.N,/PI_RX*%
X68960000Y-107640000D03*
%TO.P,J1,11,Pin_11_11*%
%TO.N,unconnected-(J1-Pin_11-Pad11)*%
X71500000Y-110180000D03*
%TO.P,J1,12,Pin_12_12*%
%TO.N,unconnected-(J1-Pin_12-Pad12)*%
X68960000Y-110180000D03*
%TO.P,J1,13,Pin_13_13*%
%TO.N,unconnected-(J1-Pin_13-Pad13)*%
X71500000Y-112720000D03*
%TO.P,J1,14,Pin_14_14*%
%TO.N,unconnected-(J1-Pin_14-Pad14)*%
X68960000Y-112720000D03*
%TO.P,J1,15,Pin_15_15*%
%TO.N,unconnected-(J1-Pin_15-Pad15)*%
X71500000Y-115260000D03*
%TO.P,J1,16,Pin_16_16*%
%TO.N,unconnected-(J1-Pin_16-Pad16)*%
X68960000Y-115260000D03*
%TO.P,J1,17,Pin_17_17*%
%TO.N,/LCD_3V3*%
X71500000Y-117800000D03*
%TO.P,J1,18,Pin_18_18*%
%TO.N,unconnected-(J1-Pin_18-Pad18)*%
X68960000Y-117800000D03*
%TO.P,J1,19,Pin_19_19*%
%TO.N,/LCD_MOSI*%
X71500000Y-120340000D03*
%TO.P,J1,20,Pin_20_20*%
%TO.N,/GND*%
X68960000Y-120340000D03*
%TO.P,J1,21,Pin_21_21*%
%TO.N,unconnected-(J1-Pin_21-Pad21)*%
X71500000Y-122880000D03*
%TO.P,J1,22,Pin_22_22*%
%TO.N,/LCD_DC*%
X68960000Y-122880000D03*
%TO.P,J1,23,Pin_23_23*%
%TO.N,/LCD_SCLK*%
X71500000Y-125420000D03*
%TO.P,J1,24,Pin_24_24*%
%TO.N,/LCD_CS*%
X68960000Y-125420000D03*
%TO.P,J1,25,Pin_25_25*%
%TO.N,unconnected-(J1-Pin_25-Pad25)*%
X71500000Y-127960000D03*
%TO.P,J1,26,Pin_26_26*%
%TO.N,unconnected-(J1-Pin_26-Pad26)*%
X68960000Y-127960000D03*
%TO.P,J1,27,Pin_27_27*%
%TO.N,unconnected-(J1-Pin_27-Pad27)*%
X71500000Y-130500000D03*
%TO.P,J1,28,Pin_28_28*%
%TO.N,unconnected-(J1-Pin_28-Pad28)*%
X68960000Y-130500000D03*
%TO.P,J1,29,Pin_29_29*%
%TO.N,/LCD_RST*%
X71500000Y-133040000D03*
%TO.P,J1,30,Pin_30_30*%
%TO.N,unconnected-(J1-Pin_30-Pad30)*%
X68960000Y-133040000D03*
%TO.P,J1,31,Pin_31_31*%
%TO.N,/LCD_BL*%
X71500000Y-135580000D03*
%TO.P,J1,32,Pin_32_32*%
%TO.N,unconnected-(J1-Pin_32-Pad32)*%
X68960000Y-135580000D03*
%TO.P,J1,33,Pin_33_33*%
%TO.N,unconnected-(J1-Pin_33-Pad33)*%
X71500000Y-138120000D03*
%TO.P,J1,34,Pin_34_34*%
%TO.N,unconnected-(J1-Pin_34-Pad34)*%
X68960000Y-138120000D03*
%TO.P,J1,35,Pin_35_35*%
%TO.N,unconnected-(J1-Pin_35-Pad35)*%
X71500000Y-140660000D03*
%TO.P,J1,36,Pin_36_36*%
%TO.N,unconnected-(J1-Pin_36-Pad36)*%
X68960000Y-140660000D03*
%TO.P,J1,37,Pin_37_37*%
%TO.N,unconnected-(J1-Pin_37-Pad37)*%
X71500000Y-143200000D03*
%TO.P,J1,38,Pin_38_38*%
%TO.N,unconnected-(J1-Pin_38-Pad38)*%
X68960000Y-143200000D03*
%TO.P,J1,39,Pin_39_39*%
%TO.N,unconnected-(J1-Pin_39-Pad39)*%
X71500000Y-145740000D03*
%TO.P,J1,40,Pin_40_40*%
%TO.N,unconnected-(J1-Pin_40-Pad40)*%
X68960000Y-145740000D03*
%TD*%
D21*
%TO.P,J2,1,Pin_1_1*%
%TO.N,/A01*%
X82827500Y-87455000D03*
D13*
%TO.P,J2,2,Pin_2_2*%
%TO.N,/A02*%
X82827500Y-92535000D03*
%TD*%
D18*
%TO.P,C2,1*%
%TO.N,/MAIN_5V*%
X59000000Y-144500000D03*
%TO.P,C2,2*%
%TO.N,/GND*%
X60900000Y-144500000D03*
%TD*%
D22*
%TO.N,/LCD_DC*%
X64500000Y-124500000D03*
%TO.N,/PI_RX*%
X75500000Y-104000000D03*
X75500000Y-112500000D03*
%TD*%
%TO.N,/GND*%
D23*
X101400000Y-108900000D02*
X101400000Y-107000000D01*
X98500000Y-110000000D02*
X100300000Y-110000000D01*
X93500000Y-105000000D02*
X98500000Y-110000000D01*
X93500000Y-102000000D02*
X93500000Y-105000000D01*
X100300000Y-110000000D02*
X101400000Y-108900000D01*
X64500000Y-107020000D02*
X64500000Y-120340000D01*
X68960000Y-102560000D02*
X64500000Y-107020000D01*
X64500000Y-120340000D02*
X68960000Y-120340000D01*
X93500000Y-109000000D02*
X84000000Y-118500000D01*
X93500000Y-102000000D02*
X93500000Y-109000000D01*
D24*
X70535000Y-154465000D02*
X72672500Y-154465000D01*
X70500000Y-154500000D02*
X70535000Y-154465000D01*
X60900000Y-147900000D02*
X67500000Y-154500000D01*
X60900000Y-144500000D02*
X60900000Y-147900000D01*
X67500000Y-154500000D02*
X70500000Y-154500000D01*
%TO.N,/MAIN_5V*%
D25*
X79900000Y-156600000D02*
X79900000Y-132300000D01*
X77455000Y-159045000D02*
X79900000Y-156600000D01*
X69545000Y-159045000D02*
X77455000Y-159045000D01*
X59000000Y-148500000D02*
X69545000Y-159045000D01*
X59000000Y-144500000D02*
X59000000Y-148500000D01*
%TO.N,/GND*%
D23*
X61000000Y-144400000D02*
X60900000Y-144500000D01*
X59500000Y-143000000D02*
X61000000Y-143000000D01*
X56000000Y-139500000D02*
X59500000Y-143000000D01*
X57350000Y-119150000D02*
X56000000Y-120500000D01*
X56000000Y-120500000D02*
X56000000Y-139500000D01*
X60000000Y-119150000D02*
X57350000Y-119150000D01*
X61000000Y-143000000D02*
X61000000Y-144400000D01*
X61190000Y-120340000D02*
X64500000Y-120340000D01*
X60000000Y-119150000D02*
X61190000Y-120340000D01*
%TO.N,/MAIN_5V*%
D25*
X54500000Y-140000000D02*
X59000000Y-144500000D01*
X54500000Y-104500000D02*
X54500000Y-140000000D01*
X69500000Y-89500000D02*
X54500000Y-104500000D01*
X69500000Y-85500000D02*
X69500000Y-89500000D01*
%TO.N,/LCD_MOSI*%
D26*
X74340000Y-120340000D02*
X71500000Y-120340000D01*
X74500000Y-120500000D02*
X74340000Y-120340000D01*
X75000000Y-120500000D02*
X74500000Y-120500000D01*
X76500000Y-122000000D02*
X75000000Y-120500000D01*
X65000000Y-149500000D02*
X76500000Y-149500000D01*
X76500000Y-149500000D02*
X76500000Y-122000000D01*
X65000000Y-144000000D02*
X65000000Y-149500000D01*
X61500000Y-140500000D02*
X65000000Y-144000000D01*
X59000000Y-140500000D02*
X61500000Y-140500000D01*
X57000000Y-138500000D02*
X59000000Y-140500000D01*
X57000000Y-124690000D02*
X57000000Y-138500000D01*
X60000000Y-121690000D02*
X57000000Y-124690000D01*
%TO.N,/LCD_SCLK*%
X73920000Y-125420000D02*
X71500000Y-125420000D01*
X75000000Y-126500000D02*
X73920000Y-125420000D01*
X66500000Y-143500000D02*
X66500000Y-148500000D01*
X62000000Y-139000000D02*
X66500000Y-143500000D01*
X58000000Y-137000000D02*
X60000000Y-139000000D01*
X75000000Y-148500000D02*
X75000000Y-126500000D01*
X60000000Y-139000000D02*
X62000000Y-139000000D01*
X58000000Y-126230000D02*
X58000000Y-137000000D01*
X66500000Y-148500000D02*
X75000000Y-148500000D01*
X60000000Y-124230000D02*
X58000000Y-126230000D01*
%TO.N,/LCD_DC*%
X64190000Y-129310000D02*
X60000000Y-129310000D01*
X64500000Y-129000000D02*
X64190000Y-129310000D01*
X64500000Y-124500000D02*
X64500000Y-129000000D01*
%TO.N,/PI_RX*%
X75500000Y-112500000D02*
X75500000Y-104000000D01*
%TO.N,/MAIN_5V*%
D25*
X92280000Y-83000000D02*
X93500000Y-84220000D01*
X73000000Y-83000000D02*
X92280000Y-83000000D01*
X70500000Y-85500000D02*
X73000000Y-83000000D01*
X69500000Y-85500000D02*
X70500000Y-85500000D01*
%TO.N,/AIN2*%
D27*
X116900000Y-103600000D02*
X114000000Y-103600000D01*
X119500000Y-82000000D02*
X119500000Y-101000000D01*
X119500000Y-101000000D02*
X116900000Y-103600000D01*
X111000000Y-82000000D02*
X119500000Y-82000000D01*
X111000000Y-86000000D02*
X111000000Y-82000000D01*
X108500000Y-86760000D02*
X110240000Y-86760000D01*
X110240000Y-86760000D02*
X111000000Y-86000000D01*
%TO.N,/AIN1*%
X118000000Y-100000000D02*
X116940000Y-101060000D01*
X118000000Y-83500000D02*
X118000000Y-100000000D01*
X112000000Y-89000000D02*
X112000000Y-83500000D01*
X116940000Y-101060000D02*
X114000000Y-101060000D01*
X111700000Y-89300000D02*
X112000000Y-89000000D01*
X108500000Y-89300000D02*
X111700000Y-89300000D01*
X112000000Y-83500000D02*
X118000000Y-83500000D01*
%TO.N,/PWMA*%
X118360000Y-106140000D02*
X114000000Y-106140000D01*
X121000000Y-103500000D02*
X118360000Y-106140000D01*
X121000000Y-80500000D02*
X121000000Y-103500000D01*
X109000000Y-80500000D02*
X121000000Y-80500000D01*
X108500000Y-81000000D02*
X109000000Y-80500000D01*
X108500000Y-84220000D02*
X108500000Y-81000000D01*
%TO.N,/STBY*%
X105000000Y-94000000D02*
X105000000Y-113000000D01*
X108300000Y-116300000D02*
X114000000Y-116300000D01*
X108500000Y-91840000D02*
X107160000Y-91840000D01*
X107160000Y-91840000D02*
X105000000Y-94000000D01*
X105000000Y-113000000D02*
X108300000Y-116300000D01*
%TO.N,/BIN1*%
X112000000Y-108000000D02*
X112000000Y-95500000D01*
X112000000Y-95500000D02*
X110880000Y-94380000D01*
X110880000Y-94380000D02*
X108500000Y-94380000D01*
X112680000Y-108680000D02*
X112000000Y-108000000D01*
X114000000Y-108680000D02*
X112680000Y-108680000D01*
%TO.N,/BIN2*%
X111220000Y-111220000D02*
X114000000Y-111220000D01*
X110500000Y-97500000D02*
X110500000Y-110500000D01*
X109920000Y-96920000D02*
X110500000Y-97500000D01*
X108500000Y-96920000D02*
X109920000Y-96920000D01*
X110500000Y-110500000D02*
X111220000Y-111220000D01*
%TO.N,/PWMB*%
X106000000Y-111000000D02*
X108760000Y-113760000D01*
X108760000Y-113760000D02*
X114000000Y-113760000D01*
X106000000Y-100500000D02*
X106000000Y-111000000D01*
X107040000Y-99460000D02*
X106000000Y-100500000D01*
X108500000Y-99460000D02*
X107040000Y-99460000D01*
%TO.N,/VCC*%
X99500000Y-88500000D02*
X99500000Y-107000000D01*
X97760000Y-86760000D02*
X99500000Y-88500000D01*
X93500000Y-86760000D02*
X97760000Y-86760000D01*
%TO.N,/MAIN_5V*%
D25*
X106500000Y-144500000D02*
X80500000Y-118500000D01*
X106500000Y-156500000D02*
X106500000Y-144500000D01*
D28*
X80500000Y-131700000D02*
X79900000Y-132300000D01*
D25*
X80500000Y-118500000D02*
X80500000Y-131700000D01*
%TO.N,/BAT_5V_IN*%
D29*
X92420000Y-140920000D02*
X92420000Y-156672500D01*
X85000000Y-133500000D02*
X92420000Y-140920000D01*
%TO.N,/VCC*%
D27*
X71500000Y-91500000D02*
X71500000Y-97480000D01*
X77980000Y-85020000D02*
X71500000Y-91500000D01*
%TO.N,/A01*%
D30*
X85455000Y-87455000D02*
X89840000Y-91840000D01*
X89840000Y-91840000D02*
X93500000Y-91840000D01*
X82827500Y-87455000D02*
X85455000Y-87455000D01*
%TO.N,/VCC*%
D27*
X90260000Y-86760000D02*
X93500000Y-86760000D01*
X88520000Y-85020000D02*
X90260000Y-86760000D01*
X77980000Y-85020000D02*
X88520000Y-85020000D01*
%TO.N,/B01*%
D30*
X90040000Y-99460000D02*
X93500000Y-99460000D01*
X84000000Y-105500000D02*
X90040000Y-99460000D01*
X83500000Y-105500000D02*
X84000000Y-105500000D01*
%TO.N,/B02*%
X83500000Y-100420000D02*
X87000000Y-96920000D01*
X87000000Y-96920000D02*
X93500000Y-96920000D01*
%TO.N,/A02*%
X84672500Y-94380000D02*
X93500000Y-94380000D01*
X82827500Y-92535000D02*
X84672500Y-94380000D01*
%TD*%
%TA.AperFunction,Conductor*%
%TO.N,/GND*%
G36*
X70075270Y-121101717D02*
G01*
X70075270Y-121101716D01*
X70114622Y-121047555D01*
X70119232Y-121038507D01*
X70167205Y-120987709D01*
X70235025Y-120970912D01*
X70301161Y-120993447D01*
X70340204Y-121038504D01*
X70344949Y-121047817D01*
X70469890Y-121219786D01*
X70620213Y-121370109D01*
X70792182Y-121495050D01*
X70800946Y-121499516D01*
X70851742Y-121547491D01*
X70868536Y-121615312D01*
X70845998Y-121681447D01*
X70800946Y-121720484D01*
X70792182Y-121724949D01*
X70620213Y-121849890D01*
X70469890Y-122000213D01*
X70344949Y-122172182D01*
X70340484Y-122180946D01*
X70292509Y-122231742D01*
X70224688Y-122248536D01*
X70158553Y-122225998D01*
X70119516Y-122180946D01*
X70115050Y-122172182D01*
X69990109Y-122000213D01*
X69839786Y-121849890D01*
X69667817Y-121724949D01*
X69658504Y-121720204D01*
X69607707Y-121672230D01*
X69590912Y-121604409D01*
X69613449Y-121538274D01*
X69658507Y-121499232D01*
X69667555Y-121494622D01*
X69721716Y-121455270D01*
X69721717Y-121455270D01*
X69089408Y-120822962D01*
X69152993Y-120805925D01*
X69267007Y-120740099D01*
X69360099Y-120647007D01*
X69425925Y-120532993D01*
X69442962Y-120469408D01*
X70075270Y-121101717D01*
G37*
%TD.AperFunction*%
%TA.AperFunction,Conductor*%
G36*
X70301444Y-118453999D02*
G01*
X70340486Y-118499056D01*
X70344951Y-118507820D01*
X70469890Y-118679786D01*
X70620213Y-118830109D01*
X70792182Y-118955050D01*
X70800946Y-118959516D01*
X70851742Y-119007491D01*
X70868536Y-119075312D01*
X70845998Y-119141447D01*
X70800946Y-119180484D01*
X70792182Y-119184949D01*
X70620213Y-119309890D01*
X70469890Y-119460213D01*
X70344949Y-119632182D01*
X70340202Y-119641499D01*
X70292227Y-119692293D01*
X70224405Y-119709087D01*
X70158271Y-119686548D01*
X70119234Y-119641495D01*
X70114626Y-119632452D01*
X70075270Y-119578282D01*
X70075269Y-119578282D01*
X69442962Y-120210590D01*
X69425925Y-120147007D01*
X69360099Y-120032993D01*
X69267007Y-119939901D01*
X69152993Y-119874075D01*
X69089409Y-119857037D01*
X69721716Y-119224728D01*
X69667547Y-119185373D01*
X69667547Y-119185372D01*
X69658500Y-119180763D01*
X69607706Y-119132788D01*
X69590912Y-119064966D01*
X69613451Y-118998832D01*
X69658508Y-118959793D01*
X69667816Y-118955051D01*
X69822052Y-118842993D01*
X69839786Y-118830109D01*
X69839788Y-118830106D01*
X69839792Y-118830104D01*
X69990104Y-118679792D01*
X69990106Y-118679788D01*
X69990109Y-118679786D01*
X70115048Y-118507820D01*
X70115047Y-118507820D01*
X70115051Y-118507816D01*
X70119514Y-118499054D01*
X70167488Y-118448259D01*
X70235308Y-118431463D01*
X70301444Y-118453999D01*
G37*
%TD.AperFunction*%
%TA.AperFunction,Conductor*%
G36*
X70075270Y-103321717D02*
G01*
X70075270Y-103321716D01*
X70114622Y-103267555D01*
X70119232Y-103258507D01*
X70167205Y-103207709D01*
X70235025Y-103190912D01*
X70301161Y-103213447D01*
X70340204Y-103258504D01*
X70344949Y-103267817D01*
X70469890Y-103439786D01*
X70620213Y-103590109D01*
X70792182Y-103715050D01*
X70800946Y-103719516D01*
X70851742Y-103767491D01*
X70868536Y-103835312D01*
X70845998Y-103901447D01*
X70800946Y-103940484D01*
X70792182Y-103944949D01*
X70620213Y-104069890D01*
X70469890Y-104220213D01*
X70344949Y-104392182D01*
X70340484Y-104400946D01*
X70292509Y-104451742D01*
X70224688Y-104468536D01*
X70158553Y-104445998D01*
X70119516Y-104400946D01*
X70115050Y-104392182D01*
X69990109Y-104220213D01*
X69839786Y-104069890D01*
X69667817Y-103944949D01*
X69658504Y-103940204D01*
X69607707Y-103892230D01*
X69590912Y-103824409D01*
X69613449Y-103758274D01*
X69658507Y-103719232D01*
X69667555Y-103714622D01*
X69721716Y-103675270D01*
X69721717Y-103675270D01*
X69089408Y-103042962D01*
X69152993Y-103025925D01*
X69267007Y-102960099D01*
X69360099Y-102867007D01*
X69425925Y-102752993D01*
X69442962Y-102689408D01*
X70075270Y-103321717D01*
G37*
%TD.AperFunction*%
%TA.AperFunction,Conductor*%
G36*
X70301444Y-100673999D02*
G01*
X70340486Y-100719056D01*
X70344951Y-100727820D01*
X70469890Y-100899786D01*
X70620213Y-101050109D01*
X70792182Y-101175050D01*
X70800946Y-101179516D01*
X70851742Y-101227491D01*
X70868536Y-101295312D01*
X70845998Y-101361447D01*
X70800946Y-101400484D01*
X70792182Y-101404949D01*
X70620213Y-101529890D01*
X70469890Y-101680213D01*
X70344949Y-101852182D01*
X70340202Y-101861499D01*
X70292227Y-101912293D01*
X70224405Y-101929087D01*
X70158271Y-101906548D01*
X70119234Y-101861495D01*
X70114626Y-101852452D01*
X70075270Y-101798282D01*
X70075269Y-101798282D01*
X69442962Y-102430590D01*
X69425925Y-102367007D01*
X69360099Y-102252993D01*
X69267007Y-102159901D01*
X69152993Y-102094075D01*
X69089409Y-102077037D01*
X69721716Y-101444728D01*
X69667547Y-101405373D01*
X69667547Y-101405372D01*
X69658500Y-101400763D01*
X69607706Y-101352788D01*
X69590912Y-101284966D01*
X69613451Y-101218832D01*
X69658508Y-101179793D01*
X69667816Y-101175051D01*
X69747007Y-101117515D01*
X69839786Y-101050109D01*
X69839788Y-101050106D01*
X69839792Y-101050104D01*
X69990104Y-100899792D01*
X69990106Y-100899788D01*
X69990109Y-100899786D01*
X70115048Y-100727820D01*
X70115047Y-100727820D01*
X70115051Y-100727816D01*
X70119514Y-100719054D01*
X70167488Y-100668259D01*
X70235308Y-100651463D01*
X70301444Y-100673999D01*
G37*
%TD.AperFunction*%
%TA.AperFunction,Conductor*%
G36*
X88245520Y-85740185D02*
G01*
X88266162Y-85756819D01*
X89813453Y-87304111D01*
X89813454Y-87304112D01*
X89928192Y-87380777D01*
X90055667Y-87433578D01*
X90055672Y-87433580D01*
X90055676Y-87433580D01*
X90055677Y-87433581D01*
X90191003Y-87460500D01*
X90191006Y-87460500D01*
X90191007Y-87460500D01*
X91875501Y-87460500D01*
X91942540Y-87480185D01*
X91988295Y-87532989D01*
X91999501Y-87584500D01*
X91999501Y-87807876D01*
X92005908Y-87867483D01*
X92050628Y-87987380D01*
X92055612Y-88057071D01*
X92050628Y-88074046D01*
X92006403Y-88192619D01*
X92006401Y-88192627D01*
X92000000Y-88252155D01*
X92000000Y-89050000D01*
X93066988Y-89050000D01*
X93034075Y-89107007D01*
X93000000Y-89234174D01*
X93000000Y-89365826D01*
X93034075Y-89492993D01*
X93066988Y-89550000D01*
X92000000Y-89550000D01*
X92000000Y-90347844D01*
X92006401Y-90407372D01*
X92006403Y-90407382D01*
X92050627Y-90525953D01*
X92055611Y-90595644D01*
X92050627Y-90612617D01*
X92005909Y-90732514D01*
X92005908Y-90732516D01*
X91999501Y-90792116D01*
X91999501Y-90792123D01*
X91999500Y-90792135D01*
X91999500Y-90815500D01*
X91979815Y-90882539D01*
X91927011Y-90928294D01*
X91875500Y-90939500D01*
X90264361Y-90939500D01*
X90197322Y-90919815D01*
X90176680Y-90903181D01*
X86029039Y-86755538D01*
X86029038Y-86755537D01*
X86004730Y-86739295D01*
X85932461Y-86691007D01*
X85932459Y-86691006D01*
X85932459Y-86691005D01*
X85881544Y-86656985D01*
X85881542Y-86656984D01*
X85794124Y-86620775D01*
X85794123Y-86620775D01*
X85717666Y-86589105D01*
X85717658Y-86589103D01*
X85543696Y-86554500D01*
X85543692Y-86554500D01*
X85543691Y-86554500D01*
X84751999Y-86554500D01*
X84684960Y-86534815D01*
X84639205Y-86482011D01*
X84627999Y-86430500D01*
X84627999Y-86354998D01*
X84627998Y-86354981D01*
X84617499Y-86252203D01*
X84617498Y-86252200D01*
X84601127Y-86202797D01*
X84562314Y-86085666D01*
X84470212Y-85936344D01*
X84466049Y-85932181D01*
X84432564Y-85870858D01*
X84437548Y-85801166D01*
X84479420Y-85745233D01*
X84544884Y-85720816D01*
X84553730Y-85720500D01*
X88178481Y-85720500D01*
X88245520Y-85740185D01*
G37*
%TD.AperFunction*%
%TA.AperFunction,Conductor*%
G36*
X139442539Y-79520185D02*
G01*
X139488294Y-79572989D01*
X139499500Y-79624500D01*
X139499500Y-162875500D01*
X139479815Y-162942539D01*
X139427011Y-162988294D01*
X139375500Y-162999500D01*
X52624500Y-162999500D01*
X52557461Y-162979815D01*
X52511706Y-162927011D01*
X52500500Y-162875500D01*
X52500500Y-159374038D01*
X54399500Y-159374038D01*
X54399500Y-159625962D01*
X54430571Y-159822136D01*
X54438910Y-159874785D01*
X54516760Y-160114383D01*
X54631132Y-160338848D01*
X54779201Y-160542649D01*
X54779205Y-160542654D01*
X54957345Y-160720794D01*
X54957350Y-160720798D01*
X55135117Y-160849952D01*
X55161155Y-160868870D01*
X55304184Y-160941747D01*
X55385616Y-160983239D01*
X55385618Y-160983239D01*
X55385621Y-160983241D01*
X55625215Y-161061090D01*
X55874038Y-161100500D01*
X55874039Y-161100500D01*
X56125961Y-161100500D01*
X56125962Y-161100500D01*
X56374785Y-161061090D01*
X56614379Y-160983241D01*
X56838845Y-160868870D01*
X57042656Y-160720793D01*
X57220793Y-160542656D01*
X57368870Y-160338845D01*
X57483241Y-160114379D01*
X57561090Y-159874785D01*
X57600500Y-159625962D01*
X57600500Y-159374038D01*
X57561090Y-159125215D01*
X57483241Y-158885621D01*
X57483239Y-158885618D01*
X57483239Y-158885616D01*
X57441747Y-158804184D01*
X57368870Y-158661155D01*
X57232168Y-158473000D01*
X57220798Y-158457350D01*
X57220794Y-158457345D01*
X57042654Y-158279205D01*
X57042649Y-158279201D01*
X56838848Y-158131132D01*
X56838847Y-158131131D01*
X56838845Y-158131130D01*
X56768747Y-158095413D01*
X56614383Y-158016760D01*
X56374785Y-157938910D01*
X56364468Y-157937276D01*
X56125962Y-157899500D01*
X55874038Y-157899500D01*
X55749626Y-157919205D01*
X55625214Y-157938910D01*
X55385616Y-158016760D01*
X55161151Y-158131132D01*
X54957350Y-158279201D01*
X54957345Y-158279205D01*
X54779205Y-158457345D01*
X54779201Y-158457350D01*
X54631132Y-158661151D01*
X54516760Y-158885616D01*
X54438910Y-159125214D01*
X54438910Y-159125215D01*
X54399500Y-159374038D01*
X52500500Y-159374038D01*
X52500500Y-140098543D01*
X53499499Y-140098543D01*
X53537947Y-140291829D01*
X53537950Y-140291839D01*
X53613364Y-140473907D01*
X53613371Y-140473920D01*
X53722860Y-140637781D01*
X53722863Y-140637785D01*
X53866537Y-140781459D01*
X53866559Y-140781479D01*
X57963181Y-144878101D01*
X57996666Y-144939424D01*
X57999500Y-144965782D01*
X57999500Y-148598541D01*
X57999500Y-148598543D01*
X57999499Y-148598543D01*
X58037947Y-148791829D01*
X58037950Y-148791839D01*
X58113364Y-148973907D01*
X58113371Y-148973920D01*
X58222860Y-149137781D01*
X58222863Y-149137785D01*
X58366537Y-149281459D01*
X58366559Y-149281479D01*
X68764735Y-159679655D01*
X68764764Y-159679686D01*
X68907214Y-159822136D01*
X68907218Y-159822139D01*
X69071079Y-159931628D01*
X69071092Y-159931635D01*
X69199833Y-159984961D01*
X69242744Y-160002735D01*
X69253164Y-160007051D01*
X69349812Y-160026275D01*
X69398135Y-160035887D01*
X69446458Y-160045500D01*
X69446459Y-160045500D01*
X69446460Y-160045500D01*
X69643540Y-160045500D01*
X70748001Y-160045500D01*
X70815040Y-160065185D01*
X70860795Y-160117989D01*
X70872001Y-160169500D01*
X70872001Y-160645018D01*
X70882500Y-160747796D01*
X70882501Y-160747799D01*
X70922620Y-160868867D01*
X70937686Y-160914334D01*
X71029788Y-161063656D01*
X71153844Y-161187712D01*
X71303166Y-161279814D01*
X71469703Y-161334999D01*
X71572491Y-161345500D01*
X73772508Y-161345499D01*
X73875297Y-161334999D01*
X74041834Y-161279814D01*
X74191156Y-161187712D01*
X74315212Y-161063656D01*
X74407314Y-160914334D01*
X74462499Y-160747797D01*
X74473000Y-160645009D01*
X74473000Y-160169500D01*
X74492685Y-160102461D01*
X74545489Y-160056706D01*
X74597000Y-160045500D01*
X77553542Y-160045500D01*
X77572870Y-160041655D01*
X77650188Y-160026275D01*
X77746836Y-160007051D01*
X77800165Y-159984961D01*
X77928914Y-159931632D01*
X78092782Y-159822139D01*
X78232139Y-159682782D01*
X78232140Y-159682779D01*
X78239206Y-159675714D01*
X78239209Y-159675710D01*
X78540881Y-159374038D01*
X134399500Y-159374038D01*
X134399500Y-159625962D01*
X134430571Y-159822136D01*
X134438910Y-159874785D01*
X134516760Y-160114383D01*
X134631132Y-160338848D01*
X134779201Y-160542649D01*
X134779205Y-160542654D01*
X134957345Y-160720794D01*
X134957350Y-160720798D01*
X135135117Y-160849952D01*
X135161155Y-160868870D01*
X135304184Y-160941747D01*
X135385616Y-160983239D01*
X135385618Y-160983239D01*
X135385621Y-160983241D01*
X135625215Y-161061090D01*
X135874038Y-161100500D01*
X135874039Y-161100500D01*
X136125961Y-161100500D01*
X136125962Y-161100500D01*
X136374785Y-161061090D01*
X136614379Y-160983241D01*
X136838845Y-160868870D01*
X137042656Y-160720793D01*
X137220793Y-160542656D01*
X137368870Y-160338845D01*
X137483241Y-160114379D01*
X137561090Y-159874785D01*
X137600500Y-159625962D01*
X137600500Y-159374038D01*
X137561090Y-159125215D01*
X137483241Y-158885621D01*
X137483239Y-158885618D01*
X137483239Y-158885616D01*
X137441747Y-158804184D01*
X137368870Y-158661155D01*
X137232168Y-158473000D01*
X137220798Y-158457350D01*
X137220794Y-158457345D01*
X137042654Y-158279205D01*
X137042649Y-158279201D01*
X136838848Y-158131132D01*
X136838847Y-158131131D01*
X136838845Y-158131130D01*
X136768747Y-158095413D01*
X136614383Y-158016760D01*
X136374785Y-157938910D01*
X136364468Y-157937276D01*
X136125962Y-157899500D01*
X135874038Y-157899500D01*
X135749626Y-157919205D01*
X135625214Y-157938910D01*
X135385616Y-158016760D01*
X135161151Y-158131132D01*
X134957350Y-158279201D01*
X134957345Y-158279205D01*
X134779205Y-158457345D01*
X134779201Y-158457350D01*
X134631132Y-158661151D01*
X134516760Y-158885616D01*
X134438910Y-159125214D01*
X134438910Y-159125215D01*
X134399500Y-159374038D01*
X78540881Y-159374038D01*
X80537778Y-157377141D01*
X80537782Y-157377139D01*
X80677139Y-157237782D01*
X80786632Y-157073914D01*
X80862051Y-156891835D01*
X80900500Y-156698541D01*
X80900500Y-133479960D01*
X80909143Y-133450525D01*
X80915661Y-133420546D01*
X80919421Y-133415522D01*
X80920185Y-133412921D01*
X80936803Y-133392294D01*
X80960218Y-133368879D01*
X82999501Y-133368879D01*
X82999501Y-133631120D01*
X83033728Y-133891112D01*
X83101602Y-134144419D01*
X83201954Y-134386690D01*
X83201958Y-134386700D01*
X83333075Y-134613801D01*
X83492715Y-134821849D01*
X83492721Y-134821856D01*
X90383181Y-141712315D01*
X90416666Y-141773638D01*
X90419500Y-141799996D01*
X90419500Y-156803627D01*
X90434078Y-156914351D01*
X90453730Y-157063616D01*
X90521602Y-157316918D01*
X90521605Y-157316928D01*
X90610061Y-157530479D01*
X90619500Y-157577931D01*
X90619500Y-157772500D01*
X90619501Y-157772519D01*
X90630000Y-157875296D01*
X90630001Y-157875299D01*
X90677506Y-158018657D01*
X90685186Y-158041834D01*
X90777288Y-158191156D01*
X90901344Y-158315212D01*
X91050666Y-158407314D01*
X91217203Y-158462499D01*
X91319991Y-158473000D01*
X91514567Y-158472999D01*
X91562021Y-158482438D01*
X91638680Y-158514191D01*
X91775581Y-158570898D01*
X92028884Y-158638770D01*
X92288880Y-158673000D01*
X92288887Y-158673000D01*
X92551113Y-158673000D01*
X92551120Y-158673000D01*
X92811116Y-158638770D01*
X93064419Y-158570898D01*
X93277979Y-158482437D01*
X93325432Y-158472999D01*
X93520002Y-158472999D01*
X93520008Y-158472999D01*
X93622797Y-158462499D01*
X93789334Y-158407314D01*
X93938656Y-158315212D01*
X94062712Y-158191156D01*
X94154814Y-158041834D01*
X94209999Y-157875297D01*
X94220500Y-157772509D01*
X94220499Y-157577930D01*
X94229938Y-157530477D01*
X94241659Y-157502181D01*
X94318398Y-157316919D01*
X94386270Y-157063616D01*
X94420500Y-156803620D01*
X94420500Y-156554514D01*
X95700000Y-156554514D01*
X95700000Y-156790485D01*
X95730799Y-157024414D01*
X95791870Y-157252337D01*
X95882160Y-157470319D01*
X95882165Y-157470328D01*
X96000144Y-157674671D01*
X96000145Y-157674672D01*
X96062721Y-157756223D01*
X96898958Y-156919987D01*
X96923978Y-156980390D01*
X96995112Y-157086851D01*
X97085649Y-157177388D01*
X97192110Y-157248522D01*
X97252511Y-157273541D01*
X96416275Y-158109777D01*
X96497827Y-158172354D01*
X96497828Y-158172355D01*
X96702171Y-158290334D01*
X96702180Y-158290339D01*
X96920163Y-158380629D01*
X96920161Y-158380629D01*
X97148085Y-158441700D01*
X97382014Y-158472499D01*
X97382029Y-158472500D01*
X97617971Y-158472500D01*
X97617985Y-158472499D01*
X97851914Y-158441700D01*
X98079837Y-158380629D01*
X98297819Y-158290339D01*
X98297828Y-158290334D01*
X98502181Y-158172350D01*
X98583723Y-158109779D01*
X98583723Y-158109776D01*
X97747487Y-157273541D01*
X97807890Y-157248522D01*
X97914351Y-157177388D01*
X98004888Y-157086851D01*
X98076022Y-156980390D01*
X98101041Y-156919987D01*
X98937276Y-157756223D01*
X98937279Y-157756223D01*
X98999850Y-157674681D01*
X99117834Y-157470328D01*
X99117839Y-157470319D01*
X99208129Y-157252337D01*
X99269200Y-157024414D01*
X99299999Y-156790485D01*
X99300000Y-156790471D01*
X99300000Y-156554528D01*
X99299999Y-156554514D01*
X99269200Y-156320585D01*
X99208129Y-156092662D01*
X99117839Y-155874680D01*
X99117834Y-155874671D01*
X98999855Y-155670328D01*
X98999854Y-155670327D01*
X98937277Y-155588775D01*
X98101041Y-156425011D01*
X98076022Y-156364610D01*
X98004888Y-156258149D01*
X97914351Y-156167612D01*
X97807890Y-156096478D01*
X97747488Y-156071458D01*
X98583723Y-155235221D01*
X98502172Y-155172645D01*
X98502171Y-155172644D01*
X98297828Y-155054665D01*
X98297819Y-155054660D01*
X98079836Y-154964370D01*
X98079838Y-154964370D01*
X97851914Y-154903299D01*
X97617985Y-154872500D01*
X97382014Y-154872500D01*
X97148085Y-154903299D01*
X96920162Y-154964370D01*
X96702180Y-155054660D01*
X96702171Y-155054665D01*
X96497828Y-155172644D01*
X96497818Y-155172650D01*
X96416275Y-155235220D01*
X96416275Y-155235221D01*
X97252512Y-156071458D01*
X97192110Y-156096478D01*
X97085649Y-156167612D01*
X96995112Y-156258149D01*
X96923978Y-156364610D01*
X96898958Y-156425012D01*
X96062721Y-155588775D01*
X96062720Y-155588775D01*
X96000150Y-155670318D01*
X96000144Y-155670328D01*
X95882165Y-155874671D01*
X95882160Y-155874680D01*
X95791870Y-156092662D01*
X95730799Y-156320585D01*
X95700000Y-156554514D01*
X94420500Y-156554514D01*
X94420500Y-140788880D01*
X94394648Y-140592517D01*
X94386271Y-140528885D01*
X94318398Y-140275581D01*
X94262895Y-140141585D01*
X94218047Y-140033311D01*
X94218042Y-140033302D01*
X94215290Y-140028536D01*
X94211643Y-140022218D01*
X94211643Y-140022217D01*
X94211642Y-140022216D01*
X94086927Y-139806201D01*
X94086926Y-139806199D01*
X93951645Y-139629898D01*
X93951642Y-139629895D01*
X93951638Y-139629890D01*
X93927283Y-139598149D01*
X93927280Y-139598146D01*
X93927276Y-139598141D01*
X86321856Y-131992721D01*
X86321849Y-131992715D01*
X86113801Y-131833075D01*
X85886700Y-131701958D01*
X85886690Y-131701954D01*
X85644419Y-131601602D01*
X85391116Y-131533729D01*
X85391115Y-131533728D01*
X85391112Y-131533728D01*
X85131121Y-131499501D01*
X85131120Y-131499501D01*
X84868880Y-131499501D01*
X84868879Y-131499501D01*
X84608887Y-131533728D01*
X84355580Y-131601602D01*
X84113309Y-131701954D01*
X84113299Y-131701958D01*
X83886198Y-131833075D01*
X83678150Y-131992715D01*
X83678143Y-131992721D01*
X83492721Y-132178143D01*
X83492715Y-132178150D01*
X83333075Y-132386198D01*
X83201958Y-132613299D01*
X83201954Y-132613309D01*
X83101602Y-132855580D01*
X83033728Y-133108887D01*
X82999501Y-133368879D01*
X80960218Y-133368879D01*
X81048331Y-133280767D01*
X81187619Y-133089054D01*
X81295201Y-132877911D01*
X81368429Y-132652539D01*
X81405500Y-132418485D01*
X81405500Y-132181515D01*
X81405500Y-132181510D01*
X81404882Y-132177610D01*
X81412792Y-132110755D01*
X81462051Y-131991835D01*
X81484200Y-131880484D01*
X81500500Y-131798543D01*
X81500500Y-121214782D01*
X81520185Y-121147743D01*
X81572989Y-121101988D01*
X81642147Y-121092044D01*
X81705703Y-121121069D01*
X81712181Y-121127101D01*
X105463181Y-144878101D01*
X105496666Y-144939424D01*
X105499500Y-144965782D01*
X105499500Y-154577357D01*
X105479815Y-154644396D01*
X105427011Y-154690151D01*
X105388102Y-154700715D01*
X105297202Y-154710001D01*
X105297200Y-154710001D01*
X105130668Y-154765185D01*
X105130663Y-154765187D01*
X104981342Y-154857289D01*
X104857289Y-154981342D01*
X104765187Y-155130663D01*
X104765185Y-155130668D01*
X104751274Y-155172650D01*
X104710001Y-155297203D01*
X104710001Y-155297204D01*
X104710000Y-155297204D01*
X104699500Y-155399983D01*
X104699500Y-157600001D01*
X104699501Y-157600018D01*
X104710000Y-157702796D01*
X104710001Y-157702799D01*
X104758885Y-157850319D01*
X104765186Y-157869334D01*
X104857288Y-158018656D01*
X104981344Y-158142712D01*
X105130666Y-158234814D01*
X105297203Y-158289999D01*
X105399991Y-158300500D01*
X107600008Y-158300499D01*
X107702797Y-158289999D01*
X107869334Y-158234814D01*
X108018656Y-158142712D01*
X108142712Y-158018656D01*
X108234814Y-157869334D01*
X108289999Y-157702797D01*
X108300500Y-157600009D01*
X108300499Y-156382014D01*
X109780000Y-156382014D01*
X109780000Y-156617985D01*
X109810799Y-156851914D01*
X109871870Y-157079837D01*
X109962160Y-157297819D01*
X109962165Y-157297828D01*
X110080144Y-157502171D01*
X110080145Y-157502172D01*
X110142721Y-157583723D01*
X110978958Y-156747487D01*
X111003978Y-156807890D01*
X111075112Y-156914351D01*
X111165649Y-157004888D01*
X111272110Y-157076022D01*
X111332511Y-157101041D01*
X110496275Y-157937277D01*
X110577827Y-157999854D01*
X110577828Y-157999855D01*
X110782171Y-158117834D01*
X110782180Y-158117839D01*
X111000163Y-158208129D01*
X111000161Y-158208129D01*
X111228085Y-158269200D01*
X111462014Y-158299999D01*
X111462029Y-158300000D01*
X111697971Y-158300000D01*
X111697985Y-158299999D01*
X111931914Y-158269200D01*
X112159837Y-158208129D01*
X112377819Y-158117839D01*
X112377828Y-158117834D01*
X112582181Y-157999850D01*
X112663723Y-157937279D01*
X112663723Y-157937276D01*
X111827487Y-157101041D01*
X111887890Y-157076022D01*
X111994351Y-157004888D01*
X112084888Y-156914351D01*
X112156022Y-156807890D01*
X112181041Y-156747487D01*
X113017276Y-157583723D01*
X113017279Y-157583723D01*
X113079850Y-157502181D01*
X113197834Y-157297828D01*
X113197839Y-157297819D01*
X113288129Y-157079837D01*
X113349200Y-156851914D01*
X113379999Y-156617985D01*
X113380000Y-156617971D01*
X113380000Y-156382028D01*
X113379999Y-156382014D01*
X113349200Y-156148085D01*
X113288129Y-155920162D01*
X113197839Y-155702180D01*
X113197834Y-155702171D01*
X113079855Y-155497828D01*
X113079854Y-155497827D01*
X113017277Y-155416275D01*
X112181041Y-156252511D01*
X112156022Y-156192110D01*
X112084888Y-156085649D01*
X111994351Y-155995112D01*
X111887890Y-155923978D01*
X111827488Y-155898958D01*
X112663723Y-155062721D01*
X112582172Y-155000145D01*
X112582171Y-155000144D01*
X112377828Y-154882165D01*
X112377819Y-154882160D01*
X112159836Y-154791870D01*
X112159838Y-154791870D01*
X111931914Y-154730799D01*
X111697985Y-154700000D01*
X111462014Y-154700000D01*
X111228085Y-154730799D01*
X111000162Y-154791870D01*
X110782180Y-154882160D01*
X110782171Y-154882165D01*
X110577828Y-155000144D01*
X110577818Y-155000150D01*
X110496275Y-155062720D01*
X110496275Y-155062721D01*
X111332512Y-155898958D01*
X111272110Y-155923978D01*
X111165649Y-155995112D01*
X111075112Y-156085649D01*
X111003978Y-156192110D01*
X110978958Y-156252511D01*
X110142721Y-155416275D01*
X110142720Y-155416275D01*
X110080150Y-155497818D01*
X110080144Y-155497828D01*
X109962165Y-155702171D01*
X109962160Y-155702180D01*
X109871870Y-155920162D01*
X109810799Y-156148085D01*
X109780000Y-156382014D01*
X108300499Y-156382014D01*
X108300499Y-155399992D01*
X108289999Y-155297203D01*
X108248726Y-155172650D01*
X108241114Y-155149678D01*
X108241113Y-155149676D01*
X108234816Y-155130672D01*
X108234815Y-155130671D01*
X108234814Y-155130666D01*
X108142712Y-154981344D01*
X108018656Y-154857288D01*
X107912596Y-154791870D01*
X107869336Y-154765187D01*
X107869331Y-154765185D01*
X107867862Y-154764698D01*
X107702797Y-154710001D01*
X107702794Y-154710000D01*
X107611897Y-154700714D01*
X107547205Y-154674317D01*
X107507054Y-154617136D01*
X107500500Y-154577356D01*
X107500500Y-144604675D01*
X107500501Y-144604654D01*
X107500501Y-144401457D01*
X107500500Y-144401455D01*
X107479215Y-144294450D01*
X107462052Y-144208165D01*
X107386632Y-144026086D01*
X107386631Y-144026085D01*
X107386628Y-144026079D01*
X107277140Y-143862219D01*
X107277137Y-143862215D01*
X83277169Y-119862248D01*
X83243684Y-119800925D01*
X83248668Y-119731233D01*
X83290540Y-119675300D01*
X83356004Y-119650883D01*
X83421146Y-119664083D01*
X83500966Y-119704754D01*
X83695582Y-119767990D01*
X83897683Y-119800000D01*
X84102317Y-119800000D01*
X84304417Y-119767990D01*
X84499031Y-119704755D01*
X84681349Y-119611859D01*
X84725921Y-119579474D01*
X84046446Y-118900000D01*
X84052661Y-118900000D01*
X84154394Y-118872741D01*
X84245606Y-118820080D01*
X84320080Y-118745606D01*
X84372741Y-118654394D01*
X84400000Y-118552661D01*
X84400000Y-118546447D01*
X85079474Y-119225921D01*
X85111859Y-119181349D01*
X85204755Y-118999031D01*
X85267990Y-118804417D01*
X85300000Y-118602317D01*
X85300000Y-118397682D01*
X85267990Y-118195582D01*
X85204755Y-118000968D01*
X85111859Y-117818650D01*
X85079474Y-117774077D01*
X85079474Y-117774076D01*
X84400000Y-118453551D01*
X84400000Y-118447339D01*
X84372741Y-118345606D01*
X84320080Y-118254394D01*
X84245606Y-118179920D01*
X84154394Y-118127259D01*
X84052661Y-118100000D01*
X84046446Y-118100000D01*
X84725922Y-117420524D01*
X84725921Y-117420523D01*
X84681359Y-117388147D01*
X84681350Y-117388141D01*
X84499031Y-117295244D01*
X84304417Y-117232009D01*
X84102317Y-117200000D01*
X83897683Y-117200000D01*
X83695582Y-117232009D01*
X83500968Y-117295244D01*
X83318644Y-117388143D01*
X83274077Y-117420523D01*
X83274077Y-117420524D01*
X83953554Y-118100000D01*
X83947339Y-118100000D01*
X83845606Y-118127259D01*
X83754394Y-118179920D01*
X83679920Y-118254394D01*
X83627259Y-118345606D01*
X83600000Y-118447339D01*
X83600000Y-118453553D01*
X82920524Y-117774077D01*
X82920523Y-117774077D01*
X82888143Y-117818644D01*
X82795244Y-118000968D01*
X82732009Y-118195582D01*
X82700000Y-118397682D01*
X82700000Y-118602317D01*
X82732009Y-118804417D01*
X82795244Y-118999031D01*
X82835917Y-119078855D01*
X82848813Y-119147525D01*
X82822536Y-119212265D01*
X82765430Y-119252522D01*
X82695624Y-119255514D01*
X82637751Y-119222831D01*
X81836818Y-118421897D01*
X81803333Y-118360574D01*
X81800499Y-118334216D01*
X81800499Y-117899998D01*
X81800498Y-117899981D01*
X81789999Y-117797203D01*
X81789998Y-117797200D01*
X81768564Y-117732516D01*
X81734814Y-117630666D01*
X81714461Y-117597669D01*
X81674500Y-117532881D01*
X81674499Y-117532880D01*
X81659081Y-117507883D01*
X81642712Y-117481344D01*
X81518656Y-117357288D01*
X81369334Y-117265186D01*
X81202797Y-117210001D01*
X81202795Y-117210000D01*
X81100010Y-117199500D01*
X79899998Y-117199500D01*
X79899981Y-117199501D01*
X79797203Y-117210000D01*
X79797200Y-117210001D01*
X79630668Y-117265185D01*
X79630663Y-117265187D01*
X79481342Y-117357289D01*
X79357289Y-117481342D01*
X79265187Y-117630663D01*
X79265185Y-117630668D01*
X79241437Y-117702335D01*
X79210001Y-117797203D01*
X79210001Y-117797204D01*
X79210000Y-117797204D01*
X79199500Y-117899983D01*
X79199500Y-119100001D01*
X79199501Y-119100018D01*
X79210000Y-119202796D01*
X79210001Y-119202799D01*
X79265185Y-119369331D01*
X79265187Y-119369336D01*
X79357289Y-119518657D01*
X79463181Y-119624549D01*
X79496666Y-119685872D01*
X79499500Y-119712230D01*
X79499500Y-130757063D01*
X79479815Y-130824102D01*
X79427011Y-130869857D01*
X79413822Y-130874992D01*
X79389046Y-130883042D01*
X79322084Y-130904800D01*
X79110945Y-131012381D01*
X79089192Y-131028186D01*
X78919233Y-131151669D01*
X78919231Y-131151671D01*
X78919230Y-131151671D01*
X78751671Y-131319230D01*
X78751671Y-131319231D01*
X78751669Y-131319233D01*
X78742695Y-131331585D01*
X78612381Y-131510945D01*
X78504800Y-131722086D01*
X78431570Y-131947464D01*
X78394500Y-132181515D01*
X78394500Y-132418484D01*
X78425356Y-132613303D01*
X78431571Y-132652539D01*
X78504799Y-132877911D01*
X78612381Y-133089054D01*
X78751669Y-133280767D01*
X78751671Y-133280769D01*
X78863181Y-133392279D01*
X78896666Y-133453602D01*
X78899500Y-133479960D01*
X78899500Y-156134218D01*
X78879815Y-156201257D01*
X78863181Y-156221899D01*
X77076899Y-158008181D01*
X77015576Y-158041666D01*
X76989218Y-158044500D01*
X74384731Y-158044500D01*
X74317692Y-158024815D01*
X74297050Y-158008182D01*
X74288718Y-157999850D01*
X74191156Y-157902288D01*
X74041834Y-157810186D01*
X73875297Y-157755001D01*
X73875295Y-157755000D01*
X73772510Y-157744500D01*
X71572498Y-157744500D01*
X71572481Y-157744501D01*
X71469703Y-157755000D01*
X71469700Y-157755001D01*
X71303168Y-157810185D01*
X71303163Y-157810187D01*
X71153845Y-157902287D01*
X71047950Y-158008182D01*
X70986627Y-158041666D01*
X70960269Y-158044500D01*
X70010782Y-158044500D01*
X69943743Y-158024815D01*
X69923101Y-158008181D01*
X66261934Y-154347014D01*
X70872500Y-154347014D01*
X70872500Y-154582985D01*
X70903299Y-154816914D01*
X70964370Y-155044837D01*
X71054660Y-155262819D01*
X71054665Y-155262828D01*
X71172644Y-155467171D01*
X71172645Y-155467172D01*
X71235221Y-155548723D01*
X72071458Y-154712487D01*
X72096478Y-154772890D01*
X72167612Y-154879351D01*
X72258149Y-154969888D01*
X72364610Y-155041022D01*
X72425011Y-155066041D01*
X71588775Y-155902277D01*
X71670327Y-155964854D01*
X71670328Y-155964855D01*
X71874671Y-156082834D01*
X71874680Y-156082839D01*
X72092663Y-156173129D01*
X72092661Y-156173129D01*
X72320585Y-156234200D01*
X72554514Y-156264999D01*
X72554529Y-156265000D01*
X72790471Y-156265000D01*
X72790485Y-156264999D01*
X73024414Y-156234200D01*
X73252337Y-156173129D01*
X73470319Y-156082839D01*
X73470328Y-156082834D01*
X73674681Y-155964850D01*
X73756223Y-155902279D01*
X73756223Y-155902276D01*
X72919987Y-155066041D01*
X72980390Y-155041022D01*
X73086851Y-154969888D01*
X73177388Y-154879351D01*
X73248522Y-154772890D01*
X73273541Y-154712487D01*
X74109776Y-155548723D01*
X74109779Y-155548723D01*
X74172350Y-155467181D01*
X74290334Y-155262828D01*
X74290339Y-155262819D01*
X74380629Y-155044837D01*
X74441700Y-154816914D01*
X74472499Y-154582985D01*
X74472500Y-154582971D01*
X74472500Y-154347028D01*
X74472499Y-154347014D01*
X74441700Y-154113085D01*
X74380629Y-153885162D01*
X74290339Y-153667180D01*
X74290334Y-153667171D01*
X74172355Y-153462828D01*
X74172354Y-153462827D01*
X74109777Y-153381275D01*
X73273541Y-154217511D01*
X73248522Y-154157110D01*
X73177388Y-154050649D01*
X73086851Y-153960112D01*
X72980390Y-153888978D01*
X72919988Y-153863958D01*
X73756223Y-153027721D01*
X73674672Y-152965145D01*
X73674671Y-152965144D01*
X73470328Y-152847165D01*
X73470319Y-152847160D01*
X73252336Y-152756870D01*
X73252338Y-152756870D01*
X73024414Y-152695799D01*
X72790485Y-152665000D01*
X72554514Y-152665000D01*
X72320585Y-152695799D01*
X72092662Y-152756870D01*
X71874680Y-152847160D01*
X71874671Y-152847165D01*
X71670328Y-152965144D01*
X71670318Y-152965150D01*
X71588775Y-153027720D01*
X71588775Y-153027721D01*
X72425012Y-153863958D01*
X72364610Y-153888978D01*
X72258149Y-153960112D01*
X72167612Y-154050649D01*
X72096478Y-154157110D01*
X72071458Y-154217511D01*
X71235221Y-153381275D01*
X71235220Y-153381275D01*
X71172650Y-153462818D01*
X71172644Y-153462828D01*
X71054665Y-153667171D01*
X71054660Y-153667180D01*
X70964370Y-153885162D01*
X70903299Y-154113085D01*
X70872500Y-154347014D01*
X66261934Y-154347014D01*
X60036819Y-148121899D01*
X60003334Y-148060576D01*
X60000500Y-148034218D01*
X60000500Y-145677753D01*
X60020185Y-145610714D01*
X60072989Y-145564959D01*
X60142147Y-145555015D01*
X60189597Y-145572215D01*
X60330869Y-145659353D01*
X60330880Y-145659358D01*
X60497302Y-145714505D01*
X60497309Y-145714506D01*
X60600019Y-145724999D01*
X61150000Y-145724999D01*
X61199972Y-145724999D01*
X61199986Y-145724998D01*
X61302697Y-145714505D01*
X61469119Y-145659358D01*
X61469124Y-145659356D01*
X61618345Y-145567315D01*
X61742315Y-145443345D01*
X61834356Y-145294124D01*
X61834358Y-145294119D01*
X61889505Y-145127697D01*
X61889506Y-145127690D01*
X61899999Y-145024986D01*
X61900000Y-145024973D01*
X61900000Y-144750000D01*
X61150000Y-144750000D01*
X61150000Y-145724999D01*
X60600019Y-145724999D01*
X60649999Y-145724998D01*
X60650000Y-145724998D01*
X60650000Y-144250000D01*
X61150000Y-144250000D01*
X61899999Y-144250000D01*
X61899999Y-143975028D01*
X61899998Y-143975013D01*
X61889505Y-143872302D01*
X61834358Y-143705880D01*
X61834356Y-143705875D01*
X61742315Y-143556654D01*
X61618345Y-143432684D01*
X61469124Y-143340643D01*
X61469119Y-143340641D01*
X61302697Y-143285494D01*
X61302690Y-143285493D01*
X61199986Y-143275000D01*
X61150000Y-143275000D01*
X61150000Y-144250000D01*
X60650000Y-144250000D01*
X60650000Y-143275000D01*
X60649999Y-143274999D01*
X60600029Y-143275000D01*
X60600011Y-143275001D01*
X60497302Y-143285494D01*
X60330880Y-143340641D01*
X60330875Y-143340643D01*
X60181654Y-143432684D01*
X60057683Y-143556655D01*
X60057679Y-143556660D01*
X60055826Y-143559665D01*
X60054018Y-143561290D01*
X60053202Y-143562323D01*
X60053025Y-143562183D01*
X60003874Y-143606385D01*
X59934911Y-143617601D01*
X59870831Y-143589752D01*
X59844753Y-143559653D01*
X59844737Y-143559628D01*
X59842712Y-143556344D01*
X59718656Y-143432288D01*
X59569334Y-143340186D01*
X59402797Y-143285001D01*
X59402795Y-143285000D01*
X59300016Y-143274500D01*
X59300009Y-143274500D01*
X59240782Y-143274500D01*
X59173743Y-143254815D01*
X59153101Y-143238181D01*
X55536819Y-139621899D01*
X55503334Y-139560576D01*
X55500500Y-139534218D01*
X55500500Y-104965782D01*
X55520185Y-104898743D01*
X55536819Y-104878101D01*
X58053720Y-102361200D01*
X62942786Y-97472135D01*
X70277139Y-90137782D01*
X70317659Y-90077139D01*
X70386632Y-89973914D01*
X70437077Y-89852128D01*
X70462051Y-89791836D01*
X70500500Y-89598541D01*
X70500500Y-89401460D01*
X70500500Y-86712230D01*
X70520185Y-86645192D01*
X70536819Y-86624550D01*
X70647820Y-86513549D01*
X70649686Y-86515415D01*
X70696649Y-86482128D01*
X70712748Y-86477782D01*
X70746826Y-86471004D01*
X70791836Y-86462051D01*
X70845165Y-86439961D01*
X70973914Y-86386632D01*
X71137782Y-86277139D01*
X71277139Y-86137782D01*
X71277140Y-86137779D01*
X71284206Y-86130714D01*
X71284208Y-86130710D01*
X73378101Y-84036819D01*
X73439424Y-84003334D01*
X73465782Y-84000500D01*
X91814218Y-84000500D01*
X91881257Y-84020185D01*
X91901899Y-84036819D01*
X91963181Y-84098101D01*
X91996666Y-84159424D01*
X91999500Y-84185782D01*
X91999500Y-85267870D01*
X91999501Y-85267876D01*
X92005908Y-85327483D01*
X92050361Y-85446667D01*
X92055345Y-85516359D01*
X92050361Y-85533333D01*
X92005908Y-85652517D01*
X91999501Y-85712116D01*
X91999501Y-85712123D01*
X91999500Y-85712135D01*
X91999500Y-85935500D01*
X91979815Y-86002539D01*
X91927011Y-86048294D01*
X91875500Y-86059500D01*
X90601519Y-86059500D01*
X90534480Y-86039815D01*
X90513838Y-86023181D01*
X88966546Y-84475888D01*
X88966545Y-84475887D01*
X88851807Y-84399222D01*
X88724332Y-84346421D01*
X88724322Y-84346418D01*
X88588996Y-84319500D01*
X88588994Y-84319500D01*
X88588993Y-84319500D01*
X78048994Y-84319500D01*
X77911006Y-84319500D01*
X77911004Y-84319500D01*
X77775677Y-84346418D01*
X77775667Y-84346421D01*
X77648192Y-84399222D01*
X77533454Y-84475887D01*
X70955887Y-91053454D01*
X70879222Y-91168192D01*
X70826421Y-91295667D01*
X70826420Y-91295671D01*
X70826420Y-91295672D01*
X70810857Y-91373914D01*
X70810857Y-91373915D01*
X70799500Y-91431005D01*
X70799500Y-96005500D01*
X70779815Y-96072539D01*
X70727011Y-96118294D01*
X70675502Y-96129500D01*
X70602130Y-96129500D01*
X70602123Y-96129501D01*
X70542516Y-96135908D01*
X70407671Y-96186202D01*
X70407664Y-96186206D01*
X70292455Y-96272452D01*
X70292452Y-96272455D01*
X70206206Y-96387664D01*
X70206203Y-96387669D01*
X70157189Y-96519083D01*
X70115317Y-96575016D01*
X70049853Y-96599433D01*
X69981580Y-96584581D01*
X69953326Y-96563430D01*
X69839786Y-96449890D01*
X69667820Y-96324951D01*
X69478414Y-96228444D01*
X69478413Y-96228443D01*
X69478412Y-96228443D01*
X69276243Y-96162754D01*
X69276241Y-96162753D01*
X69276240Y-96162753D01*
X69114957Y-96137208D01*
X69066287Y-96129500D01*
X68853713Y-96129500D01*
X68805042Y-96137208D01*
X68643760Y-96162753D01*
X68441585Y-96228444D01*
X68252179Y-96324951D01*
X68080213Y-96449890D01*
X67929890Y-96600213D01*
X67804951Y-96772179D01*
X67708444Y-96961585D01*
X67642753Y-97163760D01*
X67609500Y-97373713D01*
X67609500Y-97586287D01*
X67642754Y-97796243D01*
X67698523Y-97967883D01*
X67708444Y-97998414D01*
X67804951Y-98187820D01*
X67929890Y-98359785D01*
X67929894Y-98359790D01*
X68080213Y-98510109D01*
X68252182Y-98635050D01*
X68260946Y-98639516D01*
X68311742Y-98687491D01*
X68328536Y-98755312D01*
X68305998Y-98821447D01*
X68260946Y-98860484D01*
X68252182Y-98864949D01*
X68080213Y-98989890D01*
X67929890Y-99140213D01*
X67804951Y-99312179D01*
X67708444Y-99501585D01*
X67642753Y-99703760D01*
X67609500Y-99913713D01*
X67609500Y-100126286D01*
X67637329Y-100301995D01*
X67642754Y-100336243D01*
X67708310Y-100538004D01*
X67708444Y-100538414D01*
X67804951Y-100727820D01*
X67929890Y-100899786D01*
X68080213Y-101050109D01*
X68252179Y-101175048D01*
X68252181Y-101175049D01*
X68252184Y-101175051D01*
X68261493Y-101179794D01*
X68312290Y-101227766D01*
X68329087Y-101295587D01*
X68306552Y-101361722D01*
X68261505Y-101400760D01*
X68252446Y-101405376D01*
X68252440Y-101405380D01*
X68198282Y-101444727D01*
X68198282Y-101444728D01*
X68830591Y-102077037D01*
X68767007Y-102094075D01*
X68652993Y-102159901D01*
X68559901Y-102252993D01*
X68494075Y-102367007D01*
X68477037Y-102430591D01*
X67844728Y-101798282D01*
X67844727Y-101798282D01*
X67805380Y-101852439D01*
X67708904Y-102041782D01*
X67643242Y-102243869D01*
X67643242Y-102243872D01*
X67610000Y-102453753D01*
X67610000Y-102666246D01*
X67643242Y-102876127D01*
X67643242Y-102876130D01*
X67708904Y-103078217D01*
X67805375Y-103267550D01*
X67844728Y-103321716D01*
X68477037Y-102689408D01*
X68494075Y-102752993D01*
X68559901Y-102867007D01*
X68652993Y-102960099D01*
X68767007Y-103025925D01*
X68830590Y-103042962D01*
X68198282Y-103675269D01*
X68198282Y-103675270D01*
X68252452Y-103714626D01*
X68252451Y-103714626D01*
X68261495Y-103719234D01*
X68312292Y-103767208D01*
X68329087Y-103835029D01*
X68306550Y-103901164D01*
X68261499Y-103940202D01*
X68252182Y-103944949D01*
X68080213Y-104069890D01*
X67929890Y-104220213D01*
X67804951Y-104392179D01*
X67708444Y-104581585D01*
X67642753Y-104783760D01*
X67633269Y-104843642D01*
X67609500Y-104993713D01*
X67609500Y-105206287D01*
X67642754Y-105416243D01*
X67656101Y-105457322D01*
X67708444Y-105618414D01*
X67804951Y-105807820D01*
X67929890Y-105979786D01*
X68080213Y-106130109D01*
X68252182Y-106255050D01*
X68260946Y-106259516D01*
X68311742Y-106307491D01*
X68328536Y-106375312D01*
X68305998Y-106441447D01*
X68260946Y-106480484D01*
X68252182Y-106484949D01*
X68080213Y-106609890D01*
X67929890Y-106760213D01*
X67804951Y-106932179D01*
X67708444Y-107121585D01*
X67642753Y-107323760D01*
X67633269Y-107383642D01*
X67609500Y-107533713D01*
X67609500Y-107746287D01*
X67617110Y-107794334D01*
X67640760Y-107943657D01*
X67642754Y-107956243D01*
X67679389Y-108068994D01*
X67708444Y-108158414D01*
X67804951Y-108347820D01*
X67929890Y-108519786D01*
X68080213Y-108670109D01*
X68252182Y-108795050D01*
X68260946Y-108799516D01*
X68311742Y-108847491D01*
X68328536Y-108915312D01*
X68305998Y-108981447D01*
X68260946Y-109020484D01*
X68252182Y-109024949D01*
X68080213Y-109149890D01*
X67929890Y-109300213D01*
X67804951Y-109472179D01*
X67708444Y-109661585D01*
X67642753Y-109863760D01*
X67609500Y-110073713D01*
X67609500Y-110286286D01*
X67637415Y-110462539D01*
X67642754Y-110496243D01*
X67666392Y-110568994D01*
X67708444Y-110698414D01*
X67804951Y-110887820D01*
X67929890Y-111059786D01*
X68080213Y-111210109D01*
X68252182Y-111335050D01*
X68260946Y-111339516D01*
X68311742Y-111387491D01*
X68328536Y-111455312D01*
X68305998Y-111521447D01*
X68260946Y-111560484D01*
X68252182Y-111564949D01*
X68080213Y-111689890D01*
X67929890Y-111840213D01*
X67804951Y-112012179D01*
X67708444Y-112201585D01*
X67642753Y-112403760D01*
X67609500Y-112613713D01*
X67609500Y-112826286D01*
X67638643Y-113010292D01*
X67642754Y-113036243D01*
X67699015Y-113209397D01*
X67708444Y-113238414D01*
X67804951Y-113427820D01*
X67929890Y-113599786D01*
X68080213Y-113750109D01*
X68252182Y-113875050D01*
X68260946Y-113879516D01*
X68311742Y-113927491D01*
X68328536Y-113995312D01*
X68305998Y-114061447D01*
X68260946Y-114100484D01*
X68252182Y-114104949D01*
X68080213Y-114229890D01*
X67929890Y-114380213D01*
X67804951Y-114552179D01*
X67708444Y-114741585D01*
X67642753Y-114943760D01*
X67633269Y-115003642D01*
X67609500Y-115153713D01*
X67609500Y-115366287D01*
X67619534Y-115429644D01*
X67637415Y-115542539D01*
X67642754Y-115576243D01*
X67686908Y-115712135D01*
X67708444Y-115778414D01*
X67804951Y-115967820D01*
X67929890Y-116139786D01*
X68080213Y-116290109D01*
X68252182Y-116415050D01*
X68260946Y-116419516D01*
X68311742Y-116467491D01*
X68328536Y-116535312D01*
X68305998Y-116601447D01*
X68260946Y-116640484D01*
X68252182Y-116644949D01*
X68080213Y-116769890D01*
X67929890Y-116920213D01*
X67804951Y-117092179D01*
X67708444Y-117281585D01*
X67642753Y-117483760D01*
X67633269Y-117543642D01*
X67609500Y-117693713D01*
X67609500Y-117906287D01*
X67642754Y-118116243D01*
X67687642Y-118254394D01*
X67708444Y-118318414D01*
X67804951Y-118507820D01*
X67929890Y-118679786D01*
X68080213Y-118830109D01*
X68252179Y-118955048D01*
X68252181Y-118955049D01*
X68252184Y-118955051D01*
X68261493Y-118959794D01*
X68312290Y-119007766D01*
X68329087Y-119075587D01*
X68306552Y-119141722D01*
X68261505Y-119180760D01*
X68252446Y-119185376D01*
X68252440Y-119185380D01*
X68198282Y-119224727D01*
X68198282Y-119224728D01*
X68830591Y-119857037D01*
X68767007Y-119874075D01*
X68652993Y-119939901D01*
X68559901Y-120032993D01*
X68494075Y-120147007D01*
X68477037Y-120210591D01*
X67844728Y-119578282D01*
X67844727Y-119578282D01*
X67805380Y-119632439D01*
X67708904Y-119821782D01*
X67643242Y-120023869D01*
X67643242Y-120023872D01*
X67610000Y-120233753D01*
X67610000Y-120446246D01*
X67643242Y-120656127D01*
X67643242Y-120656130D01*
X67708904Y-120858217D01*
X67805375Y-121047550D01*
X67844728Y-121101716D01*
X68477037Y-120469408D01*
X68494075Y-120532993D01*
X68559901Y-120647007D01*
X68652993Y-120740099D01*
X68767007Y-120805925D01*
X68830590Y-120822962D01*
X68198282Y-121455269D01*
X68198282Y-121455270D01*
X68252452Y-121494626D01*
X68252451Y-121494626D01*
X68261495Y-121499234D01*
X68312292Y-121547208D01*
X68329087Y-121615029D01*
X68306550Y-121681164D01*
X68261499Y-121720202D01*
X68252182Y-121724949D01*
X68080213Y-121849890D01*
X67929890Y-122000213D01*
X67804951Y-122172179D01*
X67708444Y-122361585D01*
X67642753Y-122563760D01*
X67633269Y-122623642D01*
X67609500Y-122773713D01*
X67609500Y-122986287D01*
X67642754Y-123196243D01*
X67692780Y-123350208D01*
X67708444Y-123398414D01*
X67804951Y-123587820D01*
X67929890Y-123759786D01*
X68080213Y-123910109D01*
X68252182Y-124035050D01*
X68260946Y-124039516D01*
X68311742Y-124087491D01*
X68328536Y-124155312D01*
X68305998Y-124221447D01*
X68260946Y-124260484D01*
X68252182Y-124264949D01*
X68080213Y-124389890D01*
X67929890Y-124540213D01*
X67804951Y-124712179D01*
X67708444Y-124901585D01*
X67642753Y-125103760D01*
X67609500Y-125313713D01*
X67609500Y-125526286D01*
X67630607Y-125659554D01*
X67642754Y-125736243D01*
X67692780Y-125890208D01*
X67708444Y-125938414D01*
X67804951Y-126127820D01*
X67929890Y-126299786D01*
X68080213Y-126450109D01*
X68252182Y-126575050D01*
X68260946Y-126579516D01*
X68311742Y-126627491D01*
X68328536Y-126695312D01*
X68305998Y-126761447D01*
X68260946Y-126800484D01*
X68252182Y-126804949D01*
X68080213Y-126929890D01*
X67929890Y-127080213D01*
X67804951Y-127252179D01*
X67708444Y-127441585D01*
X67642753Y-127643760D01*
X67633269Y-127703642D01*
X67609500Y-127853713D01*
X67609500Y-128066287D01*
X67642754Y-128276243D01*
X67692782Y-128430214D01*
X67708444Y-128478414D01*
X67804951Y-128667820D01*
X67929890Y-128839786D01*
X68080213Y-128990109D01*
X68252182Y-129115050D01*
X68260946Y-129119516D01*
X68311742Y-129167491D01*
X68328536Y-129235312D01*
X68305998Y-129301447D01*
X68260946Y-129340484D01*
X68252182Y-129344949D01*
X68080213Y-129469890D01*
X67929890Y-129620213D01*
X67804951Y-129792179D01*
X67708444Y-129981585D01*
X67642753Y-130183760D01*
X67633269Y-130243642D01*
X67609500Y-130393713D01*
X67609500Y-130606287D01*
X67642754Y-130816243D01*
X67706483Y-131012381D01*
X67708444Y-131018414D01*
X67804951Y-131207820D01*
X67929890Y-131379786D01*
X68080213Y-131530109D01*
X68252182Y-131655050D01*
X68260946Y-131659516D01*
X68311742Y-131707491D01*
X68328536Y-131775312D01*
X68305998Y-131841447D01*
X68260946Y-131880484D01*
X68252182Y-131884949D01*
X68080213Y-132009890D01*
X67929890Y-132160213D01*
X67804951Y-132332179D01*
X67708444Y-132521585D01*
X67642753Y-132723760D01*
X67633269Y-132783642D01*
X67609500Y-132933713D01*
X67609500Y-133146287D01*
X67642754Y-133356243D01*
X67692782Y-133510214D01*
X67708444Y-133558414D01*
X67804951Y-133747820D01*
X67929890Y-133919786D01*
X68080213Y-134070109D01*
X68252182Y-134195050D01*
X68260946Y-134199516D01*
X68311742Y-134247491D01*
X68328536Y-134315312D01*
X68305998Y-134381447D01*
X68260946Y-134420484D01*
X68252182Y-134424949D01*
X68080213Y-134549890D01*
X67929890Y-134700213D01*
X67804951Y-134872179D01*
X67708444Y-135061585D01*
X67642753Y-135263760D01*
X67609500Y-135473713D01*
X67609500Y-135686286D01*
X67642753Y-135896239D01*
X67708444Y-136098414D01*
X67804951Y-136287820D01*
X67929890Y-136459786D01*
X68080213Y-136610109D01*
X68252182Y-136735050D01*
X68260946Y-136739516D01*
X68311742Y-136787491D01*
X68328536Y-136855312D01*
X68305998Y-136921447D01*
X68260946Y-136960484D01*
X68252182Y-136964949D01*
X68080213Y-137089890D01*
X67929890Y-137240213D01*
X67804951Y-137412179D01*
X67708444Y-137601585D01*
X67642753Y-137803760D01*
X67609500Y-138013713D01*
X67609500Y-138226286D01*
X67632974Y-138374499D01*
X67642754Y-138436243D01*
X67684287Y-138564069D01*
X67708444Y-138638414D01*
X67804951Y-138827820D01*
X67929890Y-138999786D01*
X68080213Y-139150109D01*
X68252182Y-139275050D01*
X68260946Y-139279516D01*
X68311742Y-139327491D01*
X68328536Y-139395312D01*
X68305998Y-139461447D01*
X68260946Y-139500484D01*
X68252182Y-139504949D01*
X68080213Y-139629890D01*
X67929890Y-139780213D01*
X67804951Y-139952179D01*
X67708444Y-140141585D01*
X67642753Y-140343760D01*
X67615228Y-140517546D01*
X67609500Y-140553713D01*
X67609500Y-140766287D01*
X67613079Y-140788886D01*
X67633001Y-140914669D01*
X67642754Y-140976243D01*
X67691251Y-141125502D01*
X67708444Y-141178414D01*
X67804951Y-141367820D01*
X67929890Y-141539786D01*
X68080213Y-141690109D01*
X68252182Y-141815050D01*
X68260946Y-141819516D01*
X68311742Y-141867491D01*
X68328536Y-141935312D01*
X68305998Y-142001447D01*
X68260946Y-142040484D01*
X68252182Y-142044949D01*
X68080213Y-142169890D01*
X67929890Y-142320213D01*
X67804951Y-142492179D01*
X67708444Y-142681585D01*
X67642753Y-142883760D01*
X67624919Y-142996359D01*
X67609500Y-143093713D01*
X67609500Y-143306287D01*
X67642754Y-143516243D01*
X67704369Y-143705875D01*
X67708444Y-143718414D01*
X67804951Y-143907820D01*
X67929890Y-144079786D01*
X68080213Y-144230109D01*
X68252182Y-144355050D01*
X68260946Y-144359516D01*
X68311742Y-144407491D01*
X68328536Y-144475312D01*
X68305998Y-144541447D01*
X68260946Y-144580484D01*
X68252182Y-144584949D01*
X68080213Y-144709890D01*
X67929890Y-144860213D01*
X67804951Y-145032179D01*
X67708444Y-145221585D01*
X67642753Y-145423760D01*
X67609500Y-145633713D01*
X67609500Y-145846286D01*
X67642753Y-146056239D01*
X67708444Y-146258414D01*
X67804951Y-146447820D01*
X67929890Y-146619786D01*
X68080213Y-146770109D01*
X68252179Y-146895048D01*
X68252181Y-146895049D01*
X68252184Y-146895051D01*
X68441588Y-146991557D01*
X68643757Y-147057246D01*
X68853713Y-147090500D01*
X68853714Y-147090500D01*
X69066286Y-147090500D01*
X69066287Y-147090500D01*
X69276243Y-147057246D01*
X69478412Y-146991557D01*
X69667816Y-146895051D01*
X69689789Y-146879086D01*
X69839786Y-146770109D01*
X69839788Y-146770106D01*
X69839792Y-146770104D01*
X69990104Y-146619792D01*
X69990106Y-146619788D01*
X69990109Y-146619786D01*
X70115048Y-146447820D01*
X70115047Y-146447820D01*
X70115051Y-146447816D01*
X70119514Y-146439054D01*
X70167488Y-146388259D01*
X70235308Y-146371463D01*
X70301444Y-146393999D01*
X70340486Y-146439056D01*
X70344951Y-146447820D01*
X70469890Y-146619786D01*
X70620213Y-146770109D01*
X70792179Y-146895048D01*
X70792181Y-146895049D01*
X70792184Y-146895051D01*
X70981588Y-146991557D01*
X71183757Y-147057246D01*
X71393713Y-147090500D01*
X71393714Y-147090500D01*
X71606286Y-147090500D01*
X71606287Y-147090500D01*
X71816243Y-147057246D01*
X72018412Y-146991557D01*
X72207816Y-146895051D01*
X72229789Y-146879086D01*
X72379786Y-146770109D01*
X72379788Y-146770106D01*
X72379792Y-146770104D01*
X72530104Y-146619792D01*
X72530106Y-146619788D01*
X72530109Y-146619786D01*
X72655048Y-146447820D01*
X72655047Y-146447820D01*
X72655051Y-146447816D01*
X72751557Y-146258412D01*
X72817246Y-146056243D01*
X72850500Y-145846287D01*
X72850500Y-145633713D01*
X72817246Y-145423757D01*
X72751557Y-145221588D01*
X72655051Y-145032184D01*
X72655049Y-145032181D01*
X72655048Y-145032179D01*
X72530109Y-144860213D01*
X72379786Y-144709890D01*
X72207820Y-144584951D01*
X72207115Y-144584591D01*
X72199054Y-144580485D01*
X72148259Y-144532512D01*
X72131463Y-144464692D01*
X72153999Y-144398556D01*
X72199054Y-144359515D01*
X72207816Y-144355051D01*
X72291227Y-144294450D01*
X72379786Y-144230109D01*
X72379788Y-144230106D01*
X72379792Y-144230104D01*
X72530104Y-144079792D01*
X72530106Y-144079788D01*
X72530109Y-144079786D01*
X72655048Y-143907820D01*
X72655047Y-143907820D01*
X72655051Y-143907816D01*
X72751557Y-143718412D01*
X72817246Y-143516243D01*
X72850500Y-143306287D01*
X72850500Y-143093713D01*
X72817246Y-142883757D01*
X72751557Y-142681588D01*
X72655051Y-142492184D01*
X72655049Y-142492181D01*
X72655048Y-142492179D01*
X72530109Y-142320213D01*
X72379786Y-142169890D01*
X72207820Y-142044951D01*
X72207115Y-142044591D01*
X72199054Y-142040485D01*
X72148259Y-141992512D01*
X72131463Y-141924692D01*
X72153999Y-141858556D01*
X72199054Y-141819515D01*
X72207816Y-141815051D01*
X72299232Y-141748634D01*
X72379786Y-141690109D01*
X72379788Y-141690106D01*
X72379792Y-141690104D01*
X72530104Y-141539792D01*
X72530106Y-141539788D01*
X72530109Y-141539786D01*
X72655048Y-141367820D01*
X72655047Y-141367820D01*
X72655051Y-141367816D01*
X72751557Y-141178412D01*
X72817246Y-140976243D01*
X72850500Y-140766287D01*
X72850500Y-140553713D01*
X72817246Y-140343757D01*
X72751557Y-140141588D01*
X72655051Y-139952184D01*
X72655049Y-139952181D01*
X72655048Y-139952179D01*
X72530109Y-139780213D01*
X72379786Y-139629890D01*
X72207820Y-139504951D01*
X72207115Y-139504591D01*
X72199054Y-139500485D01*
X72148259Y-139452512D01*
X72131463Y-139384692D01*
X72153999Y-139318556D01*
X72199054Y-139279515D01*
X72207816Y-139275051D01*
X72229789Y-139259086D01*
X72379786Y-139150109D01*
X72379788Y-139150106D01*
X72379792Y-139150104D01*
X72530104Y-138999792D01*
X72530106Y-138999788D01*
X72530109Y-138999786D01*
X72655048Y-138827820D01*
X72655047Y-138827820D01*
X72655051Y-138827816D01*
X72751557Y-138638412D01*
X72817246Y-138436243D01*
X72850500Y-138226287D01*
X72850500Y-138013713D01*
X72817246Y-137803757D01*
X72751557Y-137601588D01*
X72655051Y-137412184D01*
X72655049Y-137412181D01*
X72655048Y-137412179D01*
X72530109Y-137240213D01*
X72379786Y-137089890D01*
X72207820Y-136964951D01*
X72207115Y-136964591D01*
X72199054Y-136960485D01*
X72148259Y-136912512D01*
X72131463Y-136844692D01*
X72153999Y-136778556D01*
X72199054Y-136739515D01*
X72207816Y-136735051D01*
X72284700Y-136679192D01*
X72379786Y-136610109D01*
X72379788Y-136610106D01*
X72379792Y-136610104D01*
X72530104Y-136459792D01*
X72530106Y-136459788D01*
X72530109Y-136459786D01*
X72655048Y-136287820D01*
X72655047Y-136287820D01*
X72655051Y-136287816D01*
X72751557Y-136098412D01*
X72817246Y-135896243D01*
X72850500Y-135686287D01*
X72850500Y-135473713D01*
X72817246Y-135263757D01*
X72751557Y-135061588D01*
X72655051Y-134872184D01*
X72655049Y-134872181D01*
X72655048Y-134872179D01*
X72530109Y-134700213D01*
X72379786Y-134549890D01*
X72207820Y-134424951D01*
X72207115Y-134424591D01*
X72199054Y-134420485D01*
X72148259Y-134372512D01*
X72131463Y-134304692D01*
X72153999Y-134238556D01*
X72199054Y-134199515D01*
X72207816Y-134195051D01*
X72229789Y-134179086D01*
X72379786Y-134070109D01*
X72379788Y-134070106D01*
X72379792Y-134070104D01*
X72530104Y-133919792D01*
X72530106Y-133919788D01*
X72530109Y-133919786D01*
X72655048Y-133747820D01*
X72655047Y-133747820D01*
X72655051Y-133747816D01*
X72751557Y-133558412D01*
X72817246Y-133356243D01*
X72850500Y-133146287D01*
X72850500Y-132933713D01*
X72817246Y-132723757D01*
X72751557Y-132521588D01*
X72655051Y-132332184D01*
X72655049Y-132332181D01*
X72655048Y-132332179D01*
X72530109Y-132160213D01*
X72379786Y-132009890D01*
X72207820Y-131884951D01*
X72207115Y-131884591D01*
X72199054Y-131880485D01*
X72148259Y-131832512D01*
X72131463Y-131764692D01*
X72153999Y-131698556D01*
X72199054Y-131659515D01*
X72207816Y-131655051D01*
X72281383Y-131601602D01*
X72379786Y-131530109D01*
X72379788Y-131530106D01*
X72379792Y-131530104D01*
X72530104Y-131379792D01*
X72530106Y-131379788D01*
X72530109Y-131379786D01*
X72655048Y-131207820D01*
X72655047Y-131207820D01*
X72655051Y-131207816D01*
X72751557Y-131018412D01*
X72817246Y-130816243D01*
X72850500Y-130606287D01*
X72850500Y-130393713D01*
X72817246Y-130183757D01*
X72751557Y-129981588D01*
X72655051Y-129792184D01*
X72655049Y-129792181D01*
X72655048Y-129792179D01*
X72530109Y-129620213D01*
X72379786Y-129469890D01*
X72207820Y-129344951D01*
X72207115Y-129344591D01*
X72199054Y-129340485D01*
X72148259Y-129292512D01*
X72131463Y-129224692D01*
X72153999Y-129158556D01*
X72199054Y-129119515D01*
X72207816Y-129115051D01*
X72277987Y-129064069D01*
X72379786Y-128990109D01*
X72379788Y-128990106D01*
X72379792Y-128990104D01*
X72530104Y-128839792D01*
X72530106Y-128839788D01*
X72530109Y-128839786D01*
X72655048Y-128667820D01*
X72655047Y-128667820D01*
X72655051Y-128667816D01*
X72751557Y-128478412D01*
X72817246Y-128276243D01*
X72850500Y-128066287D01*
X72850500Y-127853713D01*
X72817246Y-127643757D01*
X72751557Y-127441588D01*
X72655051Y-127252184D01*
X72655049Y-127252181D01*
X72655048Y-127252179D01*
X72530109Y-127080213D01*
X72379786Y-126929890D01*
X72207820Y-126804951D01*
X72207115Y-126804591D01*
X72199054Y-126800485D01*
X72148259Y-126752512D01*
X72131463Y-126684692D01*
X72153999Y-126618556D01*
X72199054Y-126579515D01*
X72207816Y-126575051D01*
X72229789Y-126559086D01*
X72379786Y-126450109D01*
X72379788Y-126450106D01*
X72379792Y-126450104D01*
X72530104Y-126299792D01*
X72530106Y-126299788D01*
X72530109Y-126299786D01*
X72657915Y-126123875D01*
X72659259Y-126124851D01*
X72705705Y-126082834D01*
X72759618Y-126070500D01*
X73599192Y-126070500D01*
X73666231Y-126090185D01*
X73686873Y-126106819D01*
X74313181Y-126733127D01*
X74346666Y-126794450D01*
X74349500Y-126820808D01*
X74349500Y-147725500D01*
X74329815Y-147792539D01*
X74277011Y-147838294D01*
X74225500Y-147849500D01*
X67274500Y-147849500D01*
X67207461Y-147829815D01*
X67161706Y-147777011D01*
X67150500Y-147725500D01*
X67150500Y-143435928D01*
X67125502Y-143310261D01*
X67125501Y-143310260D01*
X67125501Y-143310256D01*
X67076465Y-143191873D01*
X67036805Y-143132517D01*
X67036805Y-143132516D01*
X67005275Y-143085328D01*
X62414673Y-138494726D01*
X62327140Y-138436239D01*
X62308127Y-138423535D01*
X62189744Y-138374499D01*
X62189738Y-138374497D01*
X62064071Y-138349500D01*
X62064069Y-138349500D01*
X60320807Y-138349500D01*
X60253768Y-138329815D01*
X60233126Y-138313181D01*
X58686819Y-136766873D01*
X58653334Y-136705550D01*
X58650500Y-136679192D01*
X58650500Y-135211813D01*
X58670185Y-135144774D01*
X58722989Y-135099019D01*
X58792147Y-135089075D01*
X58855703Y-135118100D01*
X58874816Y-135138924D01*
X58927772Y-135211813D01*
X58969896Y-135269792D01*
X59120213Y-135420109D01*
X59292179Y-135545048D01*
X59292181Y-135545049D01*
X59292184Y-135545051D01*
X59481588Y-135641557D01*
X59683757Y-135707246D01*
X59893713Y-135740500D01*
X59893714Y-135740500D01*
X60106286Y-135740500D01*
X60106287Y-135740500D01*
X60316243Y-135707246D01*
X60518412Y-135641557D01*
X60707816Y-135545051D01*
X60806005Y-135473713D01*
X60879786Y-135420109D01*
X60879788Y-135420106D01*
X60879792Y-135420104D01*
X61030104Y-135269792D01*
X61030106Y-135269788D01*
X61030109Y-135269786D01*
X61155048Y-135097820D01*
X61155047Y-135097820D01*
X61155051Y-135097816D01*
X61251557Y-134908412D01*
X61317246Y-134706243D01*
X61350500Y-134496287D01*
X61350500Y-134283713D01*
X61317246Y-134073757D01*
X61251557Y-133871588D01*
X61155051Y-133682184D01*
X61155049Y-133682181D01*
X61155048Y-133682179D01*
X61030109Y-133510213D01*
X60879786Y-133359890D01*
X60707820Y-133234951D01*
X60707115Y-133234591D01*
X60699054Y-133230485D01*
X60648259Y-133182512D01*
X60631463Y-133114692D01*
X60653999Y-133048556D01*
X60699054Y-133009515D01*
X60707816Y-133005051D01*
X60806005Y-132933713D01*
X60879786Y-132880109D01*
X60879788Y-132880106D01*
X60879792Y-132880104D01*
X61030104Y-132729792D01*
X61030106Y-132729788D01*
X61030109Y-132729786D01*
X61155048Y-132557820D01*
X61155047Y-132557820D01*
X61155051Y-132557816D01*
X61251557Y-132368412D01*
X61317246Y-132166243D01*
X61350500Y-131956287D01*
X61350500Y-131743713D01*
X61317246Y-131533757D01*
X61251557Y-131331588D01*
X61155051Y-131142184D01*
X61155049Y-131142181D01*
X61155048Y-131142179D01*
X61030109Y-130970213D01*
X60879786Y-130819890D01*
X60707820Y-130694951D01*
X60707115Y-130694591D01*
X60699054Y-130690485D01*
X60648259Y-130642512D01*
X60631463Y-130574692D01*
X60653999Y-130508556D01*
X60699054Y-130469515D01*
X60707816Y-130465051D01*
X60806005Y-130393713D01*
X60879786Y-130340109D01*
X60879788Y-130340106D01*
X60879792Y-130340104D01*
X61030104Y-130189792D01*
X61030106Y-130189788D01*
X61030109Y-130189786D01*
X61157915Y-130013875D01*
X61159259Y-130014851D01*
X61205705Y-129972834D01*
X61259618Y-129960500D01*
X64254071Y-129960500D01*
X64338615Y-129943682D01*
X64379744Y-129935501D01*
X64498127Y-129886465D01*
X64604669Y-129815277D01*
X65005276Y-129414669D01*
X65076465Y-129308127D01*
X65125501Y-129189744D01*
X65139323Y-129120256D01*
X65150500Y-129064069D01*
X65150500Y-125004935D01*
X65170185Y-124937896D01*
X65171366Y-124936090D01*
X65209394Y-124879179D01*
X65269737Y-124733497D01*
X65300500Y-124578842D01*
X65300500Y-124421158D01*
X65300500Y-124421155D01*
X65300499Y-124421153D01*
X65269737Y-124266503D01*
X65267244Y-124260484D01*
X65209397Y-124120827D01*
X65209390Y-124120814D01*
X65121789Y-123989711D01*
X65121786Y-123989707D01*
X65010292Y-123878213D01*
X65010288Y-123878210D01*
X64879185Y-123790609D01*
X64879172Y-123790602D01*
X64733501Y-123730264D01*
X64733489Y-123730261D01*
X64578845Y-123699500D01*
X64578842Y-123699500D01*
X64421158Y-123699500D01*
X64421155Y-123699500D01*
X64266510Y-123730261D01*
X64266498Y-123730264D01*
X64120827Y-123790602D01*
X64120814Y-123790609D01*
X63989711Y-123878210D01*
X63989707Y-123878213D01*
X63878213Y-123989707D01*
X63878210Y-123989711D01*
X63790609Y-124120814D01*
X63790602Y-124120827D01*
X63730264Y-124266498D01*
X63730261Y-124266510D01*
X63699500Y-124421153D01*
X63699500Y-124578846D01*
X63730261Y-124733489D01*
X63730264Y-124733501D01*
X63790602Y-124879172D01*
X63790606Y-124879179D01*
X63828602Y-124936044D01*
X63849480Y-125002721D01*
X63849500Y-125004935D01*
X63849500Y-128535500D01*
X63829815Y-128602539D01*
X63777011Y-128648294D01*
X63725500Y-128659500D01*
X61259618Y-128659500D01*
X61192579Y-128639815D01*
X61158900Y-128605408D01*
X61157915Y-128606125D01*
X61030109Y-128430213D01*
X60879786Y-128279890D01*
X60707820Y-128154951D01*
X60707115Y-128154591D01*
X60699054Y-128150485D01*
X60648259Y-128102512D01*
X60631463Y-128034692D01*
X60653999Y-127968556D01*
X60699054Y-127929515D01*
X60707816Y-127925051D01*
X60806005Y-127853713D01*
X60879786Y-127800109D01*
X60879788Y-127800106D01*
X60879792Y-127800104D01*
X61030104Y-127649792D01*
X61030106Y-127649788D01*
X61030109Y-127649786D01*
X61155048Y-127477820D01*
X61155047Y-127477820D01*
X61155051Y-127477816D01*
X61251557Y-127288412D01*
X61317246Y-127086243D01*
X61350500Y-126876287D01*
X61350500Y-126663713D01*
X61317246Y-126453757D01*
X61251557Y-126251588D01*
X61155051Y-126062184D01*
X61155049Y-126062181D01*
X61155048Y-126062179D01*
X61030109Y-125890213D01*
X60879786Y-125739890D01*
X60707820Y-125614951D01*
X60707115Y-125614591D01*
X60699054Y-125610485D01*
X60648259Y-125562512D01*
X60631463Y-125494692D01*
X60653999Y-125428556D01*
X60699054Y-125389515D01*
X60707816Y-125385051D01*
X60806005Y-125313713D01*
X60879786Y-125260109D01*
X60879788Y-125260106D01*
X60879792Y-125260104D01*
X61030104Y-125109792D01*
X61030106Y-125109788D01*
X61030109Y-125109786D01*
X61155048Y-124937820D01*
X61155047Y-124937820D01*
X61155051Y-124937816D01*
X61251557Y-124748412D01*
X61317246Y-124546243D01*
X61350500Y-124336287D01*
X61350500Y-124123713D01*
X61317246Y-123913757D01*
X61251557Y-123711588D01*
X61155051Y-123522184D01*
X61155049Y-123522181D01*
X61155048Y-123522179D01*
X61030109Y-123350213D01*
X60879786Y-123199890D01*
X60707820Y-123074951D01*
X60707115Y-123074591D01*
X60699054Y-123070485D01*
X60648259Y-123022512D01*
X60631463Y-122954692D01*
X60653999Y-122888556D01*
X60699054Y-122849515D01*
X60707816Y-122845051D01*
X60806005Y-122773713D01*
X60879786Y-122720109D01*
X60879788Y-122720106D01*
X60879792Y-122720104D01*
X61030104Y-122569792D01*
X61030106Y-122569788D01*
X61030109Y-122569786D01*
X61155048Y-122397820D01*
X61155047Y-122397820D01*
X61155051Y-122397816D01*
X61251557Y-122208412D01*
X61317246Y-122006243D01*
X61350500Y-121796287D01*
X61350500Y-121583713D01*
X61317246Y-121373757D01*
X61251557Y-121171588D01*
X61155051Y-120982184D01*
X61155049Y-120982181D01*
X61155048Y-120982179D01*
X61030109Y-120810213D01*
X60879786Y-120659890D01*
X60707817Y-120534949D01*
X60698504Y-120530204D01*
X60647707Y-120482230D01*
X60630912Y-120414409D01*
X60653358Y-120348403D01*
X60732408Y-120235961D01*
X60129408Y-119632962D01*
X60192993Y-119615925D01*
X60307007Y-119550099D01*
X60400099Y-119457007D01*
X60465925Y-119342993D01*
X60482962Y-119279409D01*
X61115270Y-119911717D01*
X61115270Y-119911716D01*
X61154622Y-119857554D01*
X61251095Y-119668217D01*
X61316757Y-119466130D01*
X61316757Y-119466127D01*
X61350000Y-119256246D01*
X61350000Y-119043753D01*
X61316757Y-118833872D01*
X61316757Y-118833869D01*
X61251095Y-118631782D01*
X61154624Y-118442449D01*
X61115270Y-118388282D01*
X61115269Y-118388282D01*
X60482962Y-119020590D01*
X60465925Y-118957007D01*
X60400099Y-118842993D01*
X60307007Y-118749901D01*
X60192993Y-118684075D01*
X60129409Y-118667037D01*
X60799627Y-117996818D01*
X60860950Y-117963333D01*
X60887307Y-117960499D01*
X60897872Y-117960499D01*
X60957483Y-117954091D01*
X61092331Y-117903796D01*
X61207546Y-117817546D01*
X61293796Y-117702331D01*
X61344091Y-117567483D01*
X61350500Y-117507873D01*
X61350499Y-115712128D01*
X61344091Y-115652517D01*
X61320137Y-115588294D01*
X61293797Y-115517671D01*
X61293793Y-115517664D01*
X61207547Y-115402455D01*
X61207544Y-115402452D01*
X61092335Y-115316206D01*
X61092328Y-115316202D01*
X60957482Y-115265908D01*
X60957483Y-115265908D01*
X60897883Y-115259501D01*
X60897881Y-115259500D01*
X60897873Y-115259500D01*
X60897864Y-115259500D01*
X59102129Y-115259500D01*
X59102123Y-115259501D01*
X59042516Y-115265908D01*
X58907671Y-115316202D01*
X58907664Y-115316206D01*
X58792455Y-115402452D01*
X58792452Y-115402455D01*
X58706206Y-115517664D01*
X58706202Y-115517671D01*
X58655908Y-115652517D01*
X58649501Y-115712116D01*
X58649501Y-115712123D01*
X58649500Y-115712135D01*
X58649500Y-117507870D01*
X58649501Y-117507876D01*
X58655908Y-117567483D01*
X58706202Y-117702328D01*
X58706206Y-117702335D01*
X58792452Y-117817544D01*
X58792455Y-117817547D01*
X58907664Y-117903793D01*
X58907671Y-117903797D01*
X58952618Y-117920561D01*
X59042517Y-117954091D01*
X59102127Y-117960500D01*
X59112685Y-117960499D01*
X59179723Y-117980179D01*
X59200372Y-117996818D01*
X59870591Y-118667037D01*
X59807007Y-118684075D01*
X59692993Y-118749901D01*
X59599901Y-118842993D01*
X59534075Y-118957007D01*
X59517037Y-119020591D01*
X58884728Y-118388282D01*
X58884727Y-118388282D01*
X58845380Y-118442439D01*
X58748904Y-118631782D01*
X58683242Y-118833869D01*
X58683242Y-118833872D01*
X58650000Y-119043753D01*
X58650000Y-119256246D01*
X58683242Y-119466127D01*
X58683242Y-119466130D01*
X58748904Y-119668217D01*
X58845375Y-119857550D01*
X58884728Y-119911716D01*
X59517037Y-119279408D01*
X59534075Y-119342993D01*
X59599901Y-119457007D01*
X59692993Y-119550099D01*
X59807007Y-119615925D01*
X59870590Y-119632962D01*
X59238282Y-120265269D01*
X59238282Y-120265270D01*
X59292452Y-120304626D01*
X59292451Y-120304626D01*
X59301495Y-120309234D01*
X59352292Y-120357208D01*
X59369087Y-120425029D01*
X59346550Y-120491164D01*
X59301499Y-120530202D01*
X59292182Y-120534949D01*
X59120213Y-120659890D01*
X58969890Y-120810213D01*
X58844951Y-120982179D01*
X58748444Y-121171585D01*
X58748443Y-121171587D01*
X58748443Y-121171588D01*
X58715598Y-121272672D01*
X58682753Y-121373760D01*
X58656697Y-121538274D01*
X58649500Y-121583713D01*
X58649500Y-121796287D01*
X58651713Y-121810261D01*
X58683516Y-122011055D01*
X58681877Y-122011314D01*
X58678738Y-122073883D01*
X58649342Y-122120710D01*
X56494726Y-124275326D01*
X56423534Y-124381874D01*
X56374499Y-124500255D01*
X56374497Y-124500261D01*
X56349500Y-124625928D01*
X56349500Y-124625931D01*
X56349500Y-138564069D01*
X56349500Y-138564071D01*
X56349499Y-138564071D01*
X56364288Y-138638414D01*
X56373771Y-138686086D01*
X56374318Y-138688836D01*
X56374499Y-138689745D01*
X56423534Y-138808125D01*
X56423535Y-138808127D01*
X56494723Y-138914669D01*
X56494726Y-138914673D01*
X56494727Y-138914674D01*
X58494724Y-140914669D01*
X58556294Y-140976239D01*
X58585332Y-141005277D01*
X58691866Y-141076461D01*
X58691872Y-141076464D01*
X58691873Y-141076465D01*
X58810256Y-141125501D01*
X58810260Y-141125501D01*
X58810261Y-141125502D01*
X58935928Y-141150500D01*
X58935931Y-141150500D01*
X61179192Y-141150500D01*
X61246231Y-141170185D01*
X61266873Y-141186819D01*
X64313181Y-144233127D01*
X64346666Y-144294450D01*
X64349500Y-144320808D01*
X64349500Y-149564069D01*
X64349500Y-149564071D01*
X64349499Y-149564071D01*
X64374497Y-149689738D01*
X64374499Y-149689744D01*
X64423533Y-149808124D01*
X64423538Y-149808133D01*
X64494723Y-149914668D01*
X64494726Y-149914672D01*
X64585327Y-150005273D01*
X64585331Y-150005276D01*
X64691866Y-150076461D01*
X64691872Y-150076464D01*
X64691873Y-150076465D01*
X64810256Y-150125501D01*
X64810260Y-150125501D01*
X64810261Y-150125502D01*
X64935928Y-150150500D01*
X64935931Y-150150500D01*
X76564071Y-150150500D01*
X76648615Y-150133682D01*
X76689744Y-150125501D01*
X76808127Y-150076465D01*
X76914669Y-150005276D01*
X77005276Y-149914669D01*
X77076465Y-149808127D01*
X77125501Y-149689744D01*
X77150500Y-149564069D01*
X77150500Y-121935931D01*
X77150500Y-121935928D01*
X77125502Y-121810261D01*
X77125501Y-121810260D01*
X77125501Y-121810256D01*
X77076465Y-121691873D01*
X77076464Y-121691872D01*
X77076460Y-121691864D01*
X77053329Y-121657247D01*
X77053328Y-121657245D01*
X77005277Y-121585331D01*
X77005271Y-121585324D01*
X75414673Y-119994726D01*
X75343968Y-119947483D01*
X75308127Y-119923535D01*
X75189744Y-119874499D01*
X75189738Y-119874497D01*
X75064071Y-119849500D01*
X75064069Y-119849500D01*
X74814399Y-119849500D01*
X74747360Y-119829815D01*
X74745540Y-119828623D01*
X74648127Y-119763535D01*
X74529744Y-119714499D01*
X74529738Y-119714497D01*
X74404071Y-119689500D01*
X74404069Y-119689500D01*
X72759618Y-119689500D01*
X72692579Y-119669815D01*
X72658900Y-119635408D01*
X72657915Y-119636125D01*
X72530109Y-119460213D01*
X72379786Y-119309890D01*
X72207820Y-119184951D01*
X72207115Y-119184591D01*
X72199054Y-119180485D01*
X72148259Y-119132512D01*
X72131463Y-119064692D01*
X72153999Y-118998556D01*
X72199054Y-118959515D01*
X72207816Y-118955051D01*
X72362052Y-118842993D01*
X72379786Y-118830109D01*
X72379788Y-118830106D01*
X72379792Y-118830104D01*
X72530104Y-118679792D01*
X72530106Y-118679788D01*
X72530109Y-118679786D01*
X72655048Y-118507820D01*
X72655047Y-118507820D01*
X72655051Y-118507816D01*
X72751557Y-118318412D01*
X72817246Y-118116243D01*
X72850500Y-117906287D01*
X72850500Y-117693713D01*
X72817246Y-117483757D01*
X72751557Y-117281588D01*
X72655051Y-117092184D01*
X72655049Y-117092181D01*
X72655048Y-117092179D01*
X72530109Y-116920213D01*
X72379786Y-116769890D01*
X72207820Y-116644951D01*
X72207115Y-116644591D01*
X72199054Y-116640485D01*
X72148259Y-116592512D01*
X72131463Y-116524692D01*
X72153999Y-116458556D01*
X72199054Y-116419515D01*
X72207816Y-116415051D01*
X72229789Y-116399086D01*
X72379786Y-116290109D01*
X72379788Y-116290106D01*
X72379792Y-116290104D01*
X72530104Y-116139792D01*
X72530106Y-116139788D01*
X72530109Y-116139786D01*
X72655048Y-115967820D01*
X72655047Y-115967820D01*
X72655051Y-115967816D01*
X72751557Y-115778412D01*
X72817246Y-115576243D01*
X72850500Y-115366287D01*
X72850500Y-115153713D01*
X72817246Y-114943757D01*
X72751557Y-114741588D01*
X72655051Y-114552184D01*
X72655049Y-114552181D01*
X72655048Y-114552179D01*
X72530109Y-114380213D01*
X72379786Y-114229890D01*
X72207820Y-114104951D01*
X72207115Y-114104591D01*
X72199054Y-114100485D01*
X72148259Y-114052512D01*
X72131463Y-113984692D01*
X72153999Y-113918556D01*
X72199054Y-113879515D01*
X72207816Y-113875051D01*
X72229789Y-113859086D01*
X72379786Y-113750109D01*
X72379788Y-113750106D01*
X72379792Y-113750104D01*
X72530104Y-113599792D01*
X72530106Y-113599788D01*
X72530109Y-113599786D01*
X72655048Y-113427820D01*
X72655047Y-113427820D01*
X72655051Y-113427816D01*
X72751557Y-113238412D01*
X72817246Y-113036243D01*
X72850500Y-112826287D01*
X72850500Y-112613713D01*
X72817246Y-112403757D01*
X72751557Y-112201588D01*
X72655051Y-112012184D01*
X72655049Y-112012181D01*
X72655048Y-112012179D01*
X72530109Y-111840213D01*
X72379786Y-111689890D01*
X72207820Y-111564951D01*
X72207115Y-111564591D01*
X72199054Y-111560485D01*
X72148259Y-111512512D01*
X72131463Y-111444692D01*
X72153999Y-111378556D01*
X72199054Y-111339515D01*
X72207816Y-111335051D01*
X72229789Y-111319086D01*
X72379786Y-111210109D01*
X72379788Y-111210106D01*
X72379792Y-111210104D01*
X72530104Y-111059792D01*
X72530106Y-111059788D01*
X72530109Y-111059786D01*
X72655048Y-110887820D01*
X72655047Y-110887820D01*
X72655051Y-110887816D01*
X72751557Y-110698412D01*
X72817246Y-110496243D01*
X72850500Y-110286287D01*
X72850500Y-110073713D01*
X72817246Y-109863757D01*
X72751557Y-109661588D01*
X72655051Y-109472184D01*
X72655049Y-109472181D01*
X72655048Y-109472179D01*
X72530109Y-109300213D01*
X72379786Y-109149890D01*
X72207820Y-109024951D01*
X72207115Y-109024591D01*
X72199054Y-109020485D01*
X72148259Y-108972512D01*
X72131463Y-108904692D01*
X72153999Y-108838556D01*
X72199054Y-108799515D01*
X72207816Y-108795051D01*
X72229789Y-108779086D01*
X72379786Y-108670109D01*
X72379788Y-108670106D01*
X72379792Y-108670104D01*
X72530104Y-108519792D01*
X72530106Y-108519788D01*
X72530109Y-108519786D01*
X72655048Y-108347820D01*
X72655047Y-108347820D01*
X72655051Y-108347816D01*
X72751557Y-108158412D01*
X72817246Y-107956243D01*
X72850500Y-107746287D01*
X72850500Y-107533713D01*
X72817246Y-107323757D01*
X72751557Y-107121588D01*
X72655051Y-106932184D01*
X72655049Y-106932181D01*
X72655048Y-106932179D01*
X72530109Y-106760213D01*
X72379786Y-106609890D01*
X72207820Y-106484951D01*
X72207115Y-106484591D01*
X72199054Y-106480485D01*
X72148259Y-106432512D01*
X72131463Y-106364692D01*
X72153999Y-106298556D01*
X72199054Y-106259515D01*
X72207816Y-106255051D01*
X72275495Y-106205880D01*
X72379786Y-106130109D01*
X72379788Y-106130106D01*
X72379792Y-106130104D01*
X72530104Y-105979792D01*
X72530106Y-105979788D01*
X72530109Y-105979786D01*
X72655048Y-105807820D01*
X72655047Y-105807820D01*
X72655051Y-105807816D01*
X72751557Y-105618412D01*
X72817246Y-105416243D01*
X72850500Y-105206287D01*
X72850500Y-104993713D01*
X72817246Y-104783757D01*
X72751557Y-104581588D01*
X72655051Y-104392184D01*
X72655049Y-104392181D01*
X72655048Y-104392179D01*
X72530109Y-104220213D01*
X72379792Y-104069896D01*
X72379784Y-104069890D01*
X72207816Y-103944949D01*
X72191497Y-103936634D01*
X72184543Y-103931797D01*
X72175980Y-103921153D01*
X74699500Y-103921153D01*
X74699500Y-104078846D01*
X74730261Y-104233489D01*
X74730264Y-104233501D01*
X74790602Y-104379172D01*
X74790606Y-104379179D01*
X74828602Y-104436044D01*
X74849480Y-104502721D01*
X74849500Y-104504935D01*
X74849500Y-111995064D01*
X74829815Y-112062103D01*
X74828603Y-112063954D01*
X74790608Y-112120817D01*
X74790602Y-112120828D01*
X74730264Y-112266498D01*
X74730261Y-112266510D01*
X74699500Y-112421153D01*
X74699500Y-112578846D01*
X74730261Y-112733489D01*
X74730264Y-112733501D01*
X74790602Y-112879172D01*
X74790609Y-112879185D01*
X74878210Y-113010288D01*
X74878213Y-113010292D01*
X74989707Y-113121786D01*
X74989711Y-113121789D01*
X75120814Y-113209390D01*
X75120827Y-113209397D01*
X75266498Y-113269735D01*
X75266503Y-113269737D01*
X75421153Y-113300499D01*
X75421156Y-113300500D01*
X75421158Y-113300500D01*
X75578844Y-113300500D01*
X75578845Y-113300499D01*
X75733497Y-113269737D01*
X75879179Y-113209394D01*
X76010289Y-113121789D01*
X76063082Y-113068996D01*
X104299499Y-113068996D01*
X104326418Y-113204322D01*
X104326421Y-113204332D01*
X104379222Y-113331807D01*
X104455887Y-113446545D01*
X107853454Y-116844112D01*
X107968192Y-116920777D01*
X108095667Y-116973578D01*
X108095672Y-116973580D01*
X108095676Y-116973580D01*
X108095677Y-116973581D01*
X108231003Y-117000500D01*
X108231006Y-117000500D01*
X108231007Y-117000500D01*
X112375501Y-117000500D01*
X112442540Y-117020185D01*
X112488295Y-117072989D01*
X112499501Y-117124500D01*
X112499501Y-117347876D01*
X112505908Y-117407483D01*
X112550361Y-117526667D01*
X112555345Y-117596359D01*
X112550361Y-117613333D01*
X112505908Y-117732517D01*
X112499501Y-117792116D01*
X112499501Y-117792123D01*
X112499500Y-117792135D01*
X112499500Y-119887870D01*
X112499501Y-119887876D01*
X112505908Y-119947483D01*
X112550361Y-120066667D01*
X112555345Y-120136359D01*
X112550361Y-120153333D01*
X112505908Y-120272517D01*
X112501961Y-120309234D01*
X112499501Y-120332123D01*
X112499500Y-120332135D01*
X112499500Y-122427870D01*
X112499501Y-122427876D01*
X112505908Y-122487483D01*
X112550361Y-122606667D01*
X112555345Y-122676359D01*
X112550361Y-122693333D01*
X112505908Y-122812517D01*
X112502411Y-122845048D01*
X112499501Y-122872123D01*
X112499500Y-122872135D01*
X112499500Y-124967870D01*
X112499501Y-124967876D01*
X112505908Y-125027483D01*
X112550361Y-125146667D01*
X112555345Y-125216359D01*
X112550361Y-125233333D01*
X112505908Y-125352517D01*
X112502411Y-125385048D01*
X112499501Y-125412123D01*
X112499500Y-125412135D01*
X112499500Y-127507870D01*
X112499501Y-127507876D01*
X112505908Y-127567483D01*
X112550361Y-127686667D01*
X112555345Y-127756359D01*
X112550361Y-127773333D01*
X112505908Y-127892517D01*
X112502411Y-127925048D01*
X112499501Y-127952123D01*
X112499500Y-127952135D01*
X112499500Y-130047870D01*
X112499501Y-130047876D01*
X112505908Y-130107483D01*
X112550361Y-130226667D01*
X112555345Y-130296359D01*
X112550361Y-130313333D01*
X112505908Y-130432517D01*
X112502411Y-130465048D01*
X112499501Y-130492123D01*
X112499500Y-130492135D01*
X112499500Y-132587870D01*
X112499501Y-132587876D01*
X112505908Y-132647483D01*
X112550361Y-132766667D01*
X112555345Y-132836359D01*
X112550361Y-132853333D01*
X112505908Y-132972517D01*
X112502411Y-133005048D01*
X112499501Y-133032123D01*
X112499500Y-133032135D01*
X112499500Y-135127870D01*
X112499501Y-135127876D01*
X112505908Y-135187483D01*
X112550361Y-135306667D01*
X112555345Y-135376359D01*
X112550361Y-135393333D01*
X112505908Y-135512517D01*
X112502411Y-135545048D01*
X112499501Y-135572123D01*
X112499500Y-135572135D01*
X112499500Y-137667870D01*
X112499501Y-137667876D01*
X112505908Y-137727483D01*
X112550361Y-137846667D01*
X112555345Y-137916359D01*
X112550361Y-137933333D01*
X112505908Y-138052517D01*
X112499501Y-138112116D01*
X112499501Y-138112123D01*
X112499500Y-138112135D01*
X112499500Y-140207870D01*
X112499501Y-140207876D01*
X112505908Y-140267483D01*
X112550361Y-140386667D01*
X112555345Y-140456359D01*
X112550361Y-140473333D01*
X112505908Y-140592517D01*
X112501042Y-140637781D01*
X112499501Y-140652123D01*
X112499500Y-140652135D01*
X112499500Y-142747870D01*
X112499501Y-142747876D01*
X112505908Y-142807483D01*
X112550361Y-142926667D01*
X112555345Y-142996359D01*
X112550361Y-143013333D01*
X112505908Y-143132517D01*
X112499527Y-143191873D01*
X112499501Y-143192123D01*
X112499500Y-143192135D01*
X112499500Y-145287870D01*
X112499501Y-145287876D01*
X112505908Y-145347483D01*
X112556202Y-145482328D01*
X112556206Y-145482335D01*
X112642452Y-145597544D01*
X112642455Y-145597547D01*
X112757664Y-145683793D01*
X112757671Y-145683797D01*
X112892517Y-145734091D01*
X112892516Y-145734091D01*
X112899444Y-145734835D01*
X112952127Y-145740500D01*
X115047872Y-145740499D01*
X115107483Y-145734091D01*
X115242331Y-145683796D01*
X115357546Y-145597546D01*
X115443796Y-145482331D01*
X115494091Y-145347483D01*
X115500500Y-145287873D01*
X115500499Y-143192128D01*
X115494091Y-143132517D01*
X115449637Y-143013332D01*
X115444654Y-142943642D01*
X115449638Y-142926667D01*
X115494091Y-142807483D01*
X115500500Y-142747873D01*
X115500499Y-140652128D01*
X115494103Y-140592627D01*
X115494091Y-140592516D01*
X115449638Y-140473333D01*
X115444654Y-140403642D01*
X115449638Y-140386667D01*
X115494091Y-140267483D01*
X115500500Y-140207873D01*
X115500499Y-138112128D01*
X115494091Y-138052517D01*
X115449637Y-137933332D01*
X115444654Y-137863642D01*
X115449638Y-137846667D01*
X115494091Y-137727483D01*
X115500500Y-137667873D01*
X115500499Y-135572128D01*
X115494091Y-135512517D01*
X115449637Y-135393332D01*
X115444654Y-135323642D01*
X115449638Y-135306667D01*
X115494091Y-135187483D01*
X115500500Y-135127873D01*
X115500499Y-133032128D01*
X115494091Y-132972517D01*
X115449637Y-132853332D01*
X115444654Y-132783642D01*
X115449638Y-132766667D01*
X115494091Y-132647483D01*
X115500500Y-132587873D01*
X115500499Y-130492128D01*
X115494091Y-130432517D01*
X115449637Y-130313332D01*
X115444654Y-130243642D01*
X115449638Y-130226667D01*
X115494091Y-130107483D01*
X115500500Y-130047873D01*
X115500499Y-127952128D01*
X115494091Y-127892517D01*
X115449637Y-127773332D01*
X115444654Y-127703642D01*
X115449638Y-127686667D01*
X115494091Y-127567483D01*
X115500500Y-127507873D01*
X115500499Y-125412128D01*
X115494091Y-125352517D01*
X115449637Y-125233332D01*
X115444654Y-125163642D01*
X115449638Y-125146667D01*
X115494091Y-125027483D01*
X115500500Y-124967873D01*
X115500499Y-122872128D01*
X115494091Y-122812517D01*
X115449637Y-122693332D01*
X115444654Y-122623642D01*
X115449638Y-122606667D01*
X115494091Y-122487483D01*
X115500500Y-122427873D01*
X115500499Y-120332128D01*
X115494091Y-120272517D01*
X115449637Y-120153332D01*
X115444654Y-120083642D01*
X115449638Y-120066667D01*
X115462198Y-120032993D01*
X115494091Y-119947483D01*
X115500500Y-119887873D01*
X115500499Y-117792128D01*
X115494091Y-117732517D01*
X115482832Y-117702331D01*
X115449638Y-117613333D01*
X115444654Y-117543642D01*
X115449638Y-117526667D01*
X115456651Y-117507864D01*
X115494091Y-117407483D01*
X115500500Y-117347873D01*
X115500499Y-115252128D01*
X115494091Y-115192517D01*
X115449637Y-115073332D01*
X115444654Y-115003642D01*
X115449638Y-114986667D01*
X115494091Y-114867483D01*
X115500500Y-114807873D01*
X115500499Y-112712128D01*
X115494091Y-112652517D01*
X115449637Y-112533332D01*
X115444654Y-112463642D01*
X115449638Y-112446667D01*
X115494091Y-112327483D01*
X115500500Y-112267873D01*
X115500499Y-110172128D01*
X115494091Y-110112517D01*
X115449637Y-109993332D01*
X115444654Y-109923642D01*
X115449638Y-109906667D01*
X115494091Y-109787483D01*
X115500500Y-109727873D01*
X115500499Y-107632128D01*
X115494091Y-107572517D01*
X115476375Y-107525019D01*
X115449638Y-107453333D01*
X115444654Y-107383642D01*
X115449638Y-107366667D01*
X115494091Y-107247483D01*
X115500500Y-107187873D01*
X115500500Y-106964500D01*
X115520185Y-106897461D01*
X115572989Y-106851706D01*
X115624500Y-106840500D01*
X118428996Y-106840500D01*
X118520040Y-106822389D01*
X118564328Y-106813580D01*
X118628069Y-106787177D01*
X118691807Y-106760777D01*
X118691808Y-106760776D01*
X118691811Y-106760775D01*
X118806543Y-106684114D01*
X121544114Y-103946543D01*
X121620775Y-103831811D01*
X121629165Y-103811557D01*
X121667290Y-103719514D01*
X121673580Y-103704328D01*
X121690192Y-103620814D01*
X121700500Y-103568996D01*
X121700500Y-84772135D01*
X135499500Y-84772135D01*
X135499500Y-86867870D01*
X135499501Y-86867876D01*
X135505908Y-86927483D01*
X135550361Y-87046667D01*
X135555345Y-87116359D01*
X135550361Y-87133333D01*
X135505908Y-87252517D01*
X135499501Y-87312116D01*
X135499501Y-87312123D01*
X135499500Y-87312135D01*
X135499500Y-89407870D01*
X135499501Y-89407876D01*
X135505908Y-89467483D01*
X135550361Y-89586667D01*
X135555345Y-89656359D01*
X135550361Y-89673333D01*
X135505908Y-89792517D01*
X135499501Y-89852116D01*
X135499500Y-89852128D01*
X135499500Y-91947870D01*
X135499501Y-91947876D01*
X135505908Y-92007483D01*
X135550361Y-92126667D01*
X135555345Y-92196359D01*
X135550361Y-92213333D01*
X135505908Y-92332517D01*
X135499501Y-92392116D01*
X135499501Y-92392123D01*
X135499500Y-92392135D01*
X135499500Y-94487870D01*
X135499501Y-94487876D01*
X135505908Y-94547483D01*
X135550361Y-94666667D01*
X135555345Y-94736359D01*
X135550361Y-94753333D01*
X135505908Y-94872517D01*
X135499501Y-94932116D01*
X135499501Y-94932123D01*
X135499500Y-94932135D01*
X135499500Y-97027870D01*
X135499501Y-97027876D01*
X135505908Y-97087483D01*
X135550361Y-97206667D01*
X135555345Y-97276359D01*
X135550361Y-97293333D01*
X135505908Y-97412517D01*
X135499501Y-97472116D01*
X135499501Y-97472123D01*
X135499500Y-97472135D01*
X135499500Y-99567870D01*
X135499501Y-99567876D01*
X135505908Y-99627483D01*
X135550361Y-99746667D01*
X135555345Y-99816359D01*
X135550361Y-99833333D01*
X135505908Y-99952517D01*
X135499501Y-100012116D01*
X135499501Y-100012123D01*
X135499500Y-100012135D01*
X135499500Y-102107870D01*
X135499501Y-102107876D01*
X135505908Y-102167483D01*
X135550361Y-102286667D01*
X135555345Y-102356359D01*
X135550361Y-102373333D01*
X135505908Y-102492517D01*
X135505104Y-102500000D01*
X135499501Y-102552123D01*
X135499500Y-102552135D01*
X135499500Y-104647870D01*
X135499501Y-104647876D01*
X135505908Y-104707483D01*
X135550361Y-104826667D01*
X135555345Y-104896359D01*
X135550361Y-104913333D01*
X135505908Y-105032517D01*
X135499501Y-105092116D01*
X135499501Y-105092123D01*
X135499500Y-105092135D01*
X135499500Y-107187870D01*
X135499501Y-107187876D01*
X135505908Y-107247483D01*
X135550361Y-107366667D01*
X135555345Y-107436359D01*
X135550361Y-107453333D01*
X135505908Y-107572517D01*
X135499965Y-107627799D01*
X135499501Y-107632123D01*
X135499500Y-107632135D01*
X135499500Y-109727870D01*
X135499501Y-109727876D01*
X135505908Y-109787483D01*
X135550361Y-109906667D01*
X135555345Y-109976359D01*
X135550361Y-109993333D01*
X135505908Y-110112517D01*
X135500967Y-110158481D01*
X135499501Y-110172123D01*
X135499500Y-110172135D01*
X135499500Y-112267870D01*
X135499501Y-112267876D01*
X135505908Y-112327483D01*
X135550361Y-112446667D01*
X135555345Y-112516359D01*
X135550361Y-112533333D01*
X135505908Y-112652517D01*
X135499501Y-112712116D01*
X135499501Y-112712123D01*
X135499500Y-112712135D01*
X135499500Y-114807870D01*
X135499501Y-114807876D01*
X135505908Y-114867483D01*
X135550361Y-114986667D01*
X135555345Y-115056359D01*
X135550361Y-115073333D01*
X135505908Y-115192517D01*
X135499501Y-115252116D01*
X135499501Y-115252123D01*
X135499500Y-115252135D01*
X135499500Y-117347870D01*
X135499501Y-117347876D01*
X135505908Y-117407483D01*
X135550361Y-117526667D01*
X135555345Y-117596359D01*
X135550361Y-117613333D01*
X135505908Y-117732517D01*
X135499501Y-117792116D01*
X135499501Y-117792123D01*
X135499500Y-117792135D01*
X135499500Y-119887870D01*
X135499501Y-119887876D01*
X135505908Y-119947483D01*
X135550361Y-120066667D01*
X135555345Y-120136359D01*
X135550361Y-120153333D01*
X135505908Y-120272517D01*
X135501961Y-120309234D01*
X135499501Y-120332123D01*
X135499500Y-120332135D01*
X135499500Y-122427870D01*
X135499501Y-122427876D01*
X135505908Y-122487483D01*
X135550361Y-122606667D01*
X135555345Y-122676359D01*
X135550361Y-122693333D01*
X135505908Y-122812517D01*
X135502411Y-122845048D01*
X135499501Y-122872123D01*
X135499500Y-122872135D01*
X135499500Y-124967870D01*
X135499501Y-124967876D01*
X135505908Y-125027483D01*
X135550361Y-125146667D01*
X135555345Y-125216359D01*
X135550361Y-125233333D01*
X135505908Y-125352517D01*
X135502411Y-125385048D01*
X135499501Y-125412123D01*
X135499500Y-125412135D01*
X135499500Y-127507870D01*
X135499501Y-127507876D01*
X135505908Y-127567483D01*
X135550361Y-127686667D01*
X135555345Y-127756359D01*
X135550361Y-127773333D01*
X135505908Y-127892517D01*
X135502411Y-127925048D01*
X135499501Y-127952123D01*
X135499500Y-127952135D01*
X135499500Y-130047870D01*
X135499501Y-130047876D01*
X135505908Y-130107483D01*
X135550361Y-130226667D01*
X135555345Y-130296359D01*
X135550361Y-130313333D01*
X135505908Y-130432517D01*
X135502411Y-130465048D01*
X135499501Y-130492123D01*
X135499500Y-130492135D01*
X135499500Y-132587870D01*
X135499501Y-132587876D01*
X135505908Y-132647483D01*
X135550361Y-132766667D01*
X135555345Y-132836359D01*
X135550361Y-132853333D01*
X135505908Y-132972517D01*
X135502411Y-133005048D01*
X135499501Y-133032123D01*
X135499500Y-133032135D01*
X135499500Y-135127870D01*
X135499501Y-135127876D01*
X135505908Y-135187483D01*
X135550361Y-135306667D01*
X135555345Y-135376359D01*
X135550361Y-135393333D01*
X135505908Y-135512517D01*
X135502411Y-135545048D01*
X135499501Y-135572123D01*
X135499500Y-135572135D01*
X135499500Y-137667870D01*
X135499501Y-137667876D01*
X135505908Y-137727483D01*
X135550361Y-137846667D01*
X135555345Y-137916359D01*
X135550361Y-137933333D01*
X135505908Y-138052517D01*
X135499501Y-138112116D01*
X135499501Y-138112123D01*
X135499500Y-138112135D01*
X135499500Y-140207870D01*
X135499501Y-140207876D01*
X135505908Y-140267483D01*
X135550628Y-140387380D01*
X135555612Y-140457071D01*
X135550628Y-140474046D01*
X135506403Y-140592619D01*
X135506401Y-140592627D01*
X135500000Y-140652155D01*
X135500000Y-141450000D01*
X136566988Y-141450000D01*
X136534075Y-141507007D01*
X136500000Y-141634174D01*
X136500000Y-141765826D01*
X136534075Y-141892993D01*
X136566988Y-141950000D01*
X135500000Y-141950000D01*
X135500000Y-142747844D01*
X135506401Y-142807372D01*
X135506403Y-142807382D01*
X135550627Y-142925953D01*
X135555611Y-142995644D01*
X135550627Y-143012617D01*
X135505909Y-143132514D01*
X135505908Y-143132516D01*
X135499527Y-143191873D01*
X135499501Y-143192123D01*
X135499500Y-143192135D01*
X135499500Y-145287870D01*
X135499501Y-145287876D01*
X135505908Y-145347483D01*
X135556202Y-145482328D01*
X135556206Y-145482335D01*
X135642452Y-145597544D01*
X135642455Y-145597547D01*
X135757664Y-145683793D01*
X135757671Y-145683797D01*
X135892517Y-145734091D01*
X135892516Y-145734091D01*
X135899444Y-145734835D01*
X135952127Y-145740500D01*
X138047872Y-145740499D01*
X138107483Y-145734091D01*
X138242331Y-145683796D01*
X138357546Y-145597546D01*
X138443796Y-145482331D01*
X138494091Y-145347483D01*
X138500500Y-145287873D01*
X138500499Y-143192128D01*
X138494091Y-143132517D01*
X138449370Y-143012615D01*
X138444387Y-142942927D01*
X138449371Y-142925951D01*
X138493597Y-142807376D01*
X138493598Y-142807372D01*
X138499999Y-142747844D01*
X138500000Y-142747827D01*
X138500000Y-141950000D01*
X137433012Y-141950000D01*
X137465925Y-141892993D01*
X137500000Y-141765826D01*
X137500000Y-141634174D01*
X137465925Y-141507007D01*
X137433012Y-141450000D01*
X138500000Y-141450000D01*
X138500000Y-140652172D01*
X138499999Y-140652155D01*
X138493598Y-140592627D01*
X138493597Y-140592623D01*
X138449371Y-140474049D01*
X138444387Y-140404357D01*
X138449367Y-140387393D01*
X138494091Y-140267483D01*
X138500500Y-140207873D01*
X138500499Y-138112128D01*
X138494091Y-138052517D01*
X138449637Y-137933332D01*
X138444654Y-137863642D01*
X138449638Y-137846667D01*
X138494091Y-137727483D01*
X138500500Y-137667873D01*
X138500499Y-135572128D01*
X138494091Y-135512517D01*
X138449637Y-135393332D01*
X138444654Y-135323642D01*
X138449638Y-135306667D01*
X138494091Y-135187483D01*
X138500500Y-135127873D01*
X138500499Y-133032128D01*
X138494091Y-132972517D01*
X138449637Y-132853332D01*
X138444654Y-132783642D01*
X138449638Y-132766667D01*
X138494091Y-132647483D01*
X138500500Y-132587873D01*
X138500499Y-130492128D01*
X138494091Y-130432517D01*
X138449637Y-130313332D01*
X138444654Y-130243642D01*
X138449638Y-130226667D01*
X138494091Y-130107483D01*
X138500500Y-130047873D01*
X138500499Y-127952128D01*
X138494091Y-127892517D01*
X138449637Y-127773332D01*
X138444654Y-127703642D01*
X138449638Y-127686667D01*
X138494091Y-127567483D01*
X138500500Y-127507873D01*
X138500499Y-125412128D01*
X138494091Y-125352517D01*
X138449637Y-125233332D01*
X138444654Y-125163642D01*
X138449638Y-125146667D01*
X138494091Y-125027483D01*
X138500500Y-124967873D01*
X138500499Y-122872128D01*
X138494091Y-122812517D01*
X138449637Y-122693332D01*
X138444654Y-122623642D01*
X138449638Y-122606667D01*
X138494091Y-122487483D01*
X138500500Y-122427873D01*
X138500499Y-120332128D01*
X138494091Y-120272517D01*
X138449637Y-120153332D01*
X138444654Y-120083642D01*
X138449638Y-120066667D01*
X138462198Y-120032993D01*
X138494091Y-119947483D01*
X138500500Y-119887873D01*
X138500499Y-117792128D01*
X138494091Y-117732517D01*
X138482832Y-117702331D01*
X138449638Y-117613333D01*
X138444654Y-117543642D01*
X138449638Y-117526667D01*
X138456651Y-117507864D01*
X138494091Y-117407483D01*
X138500500Y-117347873D01*
X138500499Y-115252128D01*
X138494091Y-115192517D01*
X138449637Y-115073332D01*
X138444654Y-115003642D01*
X138449638Y-114986667D01*
X138494091Y-114867483D01*
X138500500Y-114807873D01*
X138500499Y-112712128D01*
X138494091Y-112652517D01*
X138449637Y-112533332D01*
X138444654Y-112463642D01*
X138449638Y-112446667D01*
X138494091Y-112327483D01*
X138500500Y-112267873D01*
X138500499Y-110172128D01*
X138494091Y-110112517D01*
X138449637Y-109993332D01*
X138444654Y-109923642D01*
X138449638Y-109906667D01*
X138494091Y-109787483D01*
X138500500Y-109727873D01*
X138500499Y-107632128D01*
X138494091Y-107572517D01*
X138476375Y-107525019D01*
X138449638Y-107453333D01*
X138444654Y-107383642D01*
X138449638Y-107366667D01*
X138494091Y-107247483D01*
X138500500Y-107187873D01*
X138500499Y-105092128D01*
X138494091Y-105032517D01*
X138449637Y-104913332D01*
X138444654Y-104843642D01*
X138449638Y-104826667D01*
X138494091Y-104707483D01*
X138500500Y-104647873D01*
X138500499Y-102552128D01*
X138494091Y-102492517D01*
X138449637Y-102373332D01*
X138444654Y-102303642D01*
X138449638Y-102286667D01*
X138463314Y-102250000D01*
X138494091Y-102167483D01*
X138500500Y-102107873D01*
X138500499Y-100012128D01*
X138494091Y-99952517D01*
X138449637Y-99833332D01*
X138444654Y-99763642D01*
X138449638Y-99746667D01*
X138494091Y-99627483D01*
X138500500Y-99567873D01*
X138500499Y-97472128D01*
X138494091Y-97412517D01*
X138449637Y-97293332D01*
X138444654Y-97223642D01*
X138449638Y-97206667D01*
X138494091Y-97087483D01*
X138500500Y-97027873D01*
X138500499Y-94932128D01*
X138494091Y-94872517D01*
X138449637Y-94753332D01*
X138444654Y-94683642D01*
X138449638Y-94666667D01*
X138494091Y-94547482D01*
X138500500Y-94487873D01*
X138500499Y-92392128D01*
X138494091Y-92332517D01*
X138449637Y-92213332D01*
X138444654Y-92143642D01*
X138449638Y-92126667D01*
X138494091Y-92007482D01*
X138500500Y-91947873D01*
X138500499Y-89852128D01*
X138494091Y-89792517D01*
X138487576Y-89775050D01*
X138449638Y-89673333D01*
X138444654Y-89603642D01*
X138449638Y-89586667D01*
X138494091Y-89467482D01*
X138500500Y-89407873D01*
X138500499Y-87312128D01*
X138494091Y-87252517D01*
X138449637Y-87133332D01*
X138444654Y-87063642D01*
X138449638Y-87046667D01*
X138494091Y-86927482D01*
X138495303Y-86916208D01*
X138500500Y-86867873D01*
X138500499Y-84772128D01*
X138494091Y-84712517D01*
X138463563Y-84630668D01*
X138443797Y-84577671D01*
X138443793Y-84577664D01*
X138357547Y-84462455D01*
X138357544Y-84462452D01*
X138242335Y-84376206D01*
X138242328Y-84376202D01*
X138107482Y-84325908D01*
X138107483Y-84325908D01*
X138047883Y-84319501D01*
X138047881Y-84319500D01*
X138047873Y-84319500D01*
X138047864Y-84319500D01*
X135952129Y-84319500D01*
X135952123Y-84319501D01*
X135892516Y-84325908D01*
X135757671Y-84376202D01*
X135757664Y-84376206D01*
X135642455Y-84462452D01*
X135642452Y-84462455D01*
X135556206Y-84577664D01*
X135556202Y-84577671D01*
X135505908Y-84712517D01*
X135499501Y-84772116D01*
X135499501Y-84772123D01*
X135499500Y-84772135D01*
X121700500Y-84772135D01*
X121700500Y-80431004D01*
X121673581Y-80295677D01*
X121673580Y-80295676D01*
X121673580Y-80295672D01*
X121673578Y-80295667D01*
X121620778Y-80168195D01*
X121620771Y-80168182D01*
X121544114Y-80053458D01*
X121544111Y-80053454D01*
X121446545Y-79955888D01*
X121446541Y-79955885D01*
X121331817Y-79879228D01*
X121331804Y-79879221D01*
X121204332Y-79826421D01*
X121204322Y-79826418D01*
X121068995Y-79799500D01*
X121068993Y-79799500D01*
X109068994Y-79799500D01*
X108931006Y-79799500D01*
X108931004Y-79799500D01*
X108795677Y-79826418D01*
X108795667Y-79826421D01*
X108668192Y-79879222D01*
X108553454Y-79955887D01*
X108553453Y-79955888D01*
X107955887Y-80553455D01*
X107955883Y-80553459D01*
X107945506Y-80568992D01*
X107945505Y-80568994D01*
X107879228Y-80668182D01*
X107879221Y-80668195D01*
X107826421Y-80795667D01*
X107826418Y-80795677D01*
X107799500Y-80931004D01*
X107799500Y-82595500D01*
X107779815Y-82662539D01*
X107727011Y-82708294D01*
X107675501Y-82719500D01*
X107452130Y-82719500D01*
X107452123Y-82719501D01*
X107392516Y-82725908D01*
X107257671Y-82776202D01*
X107257664Y-82776206D01*
X107142455Y-82862452D01*
X107142452Y-82862455D01*
X107056206Y-82977664D01*
X107056202Y-82977671D01*
X107005908Y-83112517D01*
X107004463Y-83125962D01*
X106999501Y-83172123D01*
X106999500Y-83172135D01*
X106999500Y-85267870D01*
X106999501Y-85267876D01*
X107005908Y-85327483D01*
X107050361Y-85446667D01*
X107055345Y-85516359D01*
X107050361Y-85533333D01*
X107005908Y-85652517D01*
X106999501Y-85712116D01*
X106999501Y-85712123D01*
X106999500Y-85712135D01*
X106999500Y-87807870D01*
X106999501Y-87807876D01*
X107005908Y-87867483D01*
X107050361Y-87986667D01*
X107055345Y-88056359D01*
X107050361Y-88073333D01*
X107005908Y-88192517D01*
X106999501Y-88252116D01*
X106999501Y-88252123D01*
X106999500Y-88252135D01*
X106999500Y-90347870D01*
X106999501Y-90347876D01*
X107005908Y-90407483D01*
X107050361Y-90526667D01*
X107055345Y-90596359D01*
X107050361Y-90613333D01*
X107005908Y-90732517D01*
X106999501Y-90792116D01*
X106999501Y-90792123D01*
X106999500Y-90792135D01*
X106999500Y-91065411D01*
X106979815Y-91132450D01*
X106927011Y-91178205D01*
X106922953Y-91179972D01*
X106828189Y-91219224D01*
X106786960Y-91246772D01*
X106759412Y-91265180D01*
X106759411Y-91265181D01*
X106713458Y-91295884D01*
X106713453Y-91295888D01*
X104455886Y-93553455D01*
X104443149Y-93572518D01*
X104436823Y-93581987D01*
X104420103Y-93607011D01*
X104379223Y-93668191D01*
X104326421Y-93795667D01*
X104326418Y-93795677D01*
X104299500Y-93931004D01*
X104299500Y-93931007D01*
X104299500Y-112931006D01*
X104299500Y-113068994D01*
X104299500Y-113068996D01*
X104299499Y-113068996D01*
X76063082Y-113068996D01*
X76121789Y-113010289D01*
X76209394Y-112879179D01*
X76269737Y-112733497D01*
X76300500Y-112578842D01*
X76300500Y-112421158D01*
X76300500Y-112421155D01*
X76300499Y-112421153D01*
X76281867Y-112327483D01*
X76269737Y-112266503D01*
X76209394Y-112120821D01*
X76171396Y-112063953D01*
X76150520Y-111997276D01*
X76150500Y-111995064D01*
X76150500Y-104504935D01*
X76170185Y-104437896D01*
X76171366Y-104436090D01*
X76209394Y-104379179D01*
X76269737Y-104233497D01*
X76300500Y-104078842D01*
X76300500Y-103921158D01*
X76300500Y-103921155D01*
X76300499Y-103921153D01*
X76288776Y-103862218D01*
X76269737Y-103766503D01*
X76269192Y-103765187D01*
X76209397Y-103620827D01*
X76209390Y-103620814D01*
X76121789Y-103489711D01*
X76121786Y-103489707D01*
X76010292Y-103378213D01*
X76010288Y-103378210D01*
X75879185Y-103290609D01*
X75879172Y-103290602D01*
X75733501Y-103230264D01*
X75733489Y-103230261D01*
X75578845Y-103199500D01*
X75578842Y-103199500D01*
X75421158Y-103199500D01*
X75421155Y-103199500D01*
X75266510Y-103230261D01*
X75266498Y-103230264D01*
X75120827Y-103290602D01*
X75120814Y-103290609D01*
X74989711Y-103378210D01*
X74989707Y-103378213D01*
X74878213Y-103489707D01*
X74878210Y-103489711D01*
X74790609Y-103620814D01*
X74790602Y-103620827D01*
X74730264Y-103766498D01*
X74730261Y-103766510D01*
X74699500Y-103921153D01*
X72175980Y-103921153D01*
X72167741Y-103910912D01*
X72148259Y-103892512D01*
X72146177Y-103884105D01*
X72140748Y-103877357D01*
X72137905Y-103850706D01*
X72131463Y-103824692D01*
X72134256Y-103816493D01*
X72133338Y-103807881D01*
X72145354Y-103783925D01*
X72153999Y-103758556D01*
X72161217Y-103752301D01*
X72164665Y-103745428D01*
X72178831Y-103737038D01*
X72199054Y-103719515D01*
X72207816Y-103715051D01*
X72262572Y-103675269D01*
X72379786Y-103590109D01*
X72379788Y-103590106D01*
X72379792Y-103590104D01*
X72530104Y-103439792D01*
X72530106Y-103439788D01*
X72530109Y-103439786D01*
X72655048Y-103267820D01*
X72655050Y-103267817D01*
X72655051Y-103267816D01*
X72751557Y-103078412D01*
X72817246Y-102876243D01*
X72850500Y-102666287D01*
X72850500Y-102453713D01*
X72817246Y-102243757D01*
X72751557Y-102041588D01*
X72655051Y-101852184D01*
X72655049Y-101852181D01*
X72655048Y-101852179D01*
X72530109Y-101680213D01*
X72379786Y-101529890D01*
X72207820Y-101404951D01*
X72199600Y-101400763D01*
X72199054Y-101400485D01*
X72148259Y-101352512D01*
X72131463Y-101284692D01*
X72153999Y-101218556D01*
X72199054Y-101179515D01*
X72207816Y-101175051D01*
X72271210Y-101128993D01*
X72379786Y-101050109D01*
X72379788Y-101050106D01*
X72379792Y-101050104D01*
X72530104Y-100899792D01*
X72530106Y-100899788D01*
X72530109Y-100899786D01*
X72655048Y-100727820D01*
X72655047Y-100727820D01*
X72655051Y-100727816D01*
X72751557Y-100538412D01*
X72817246Y-100336243D01*
X72850500Y-100126287D01*
X72850500Y-99913713D01*
X72817246Y-99703757D01*
X72751557Y-99501588D01*
X72655051Y-99312184D01*
X72655049Y-99312181D01*
X72655048Y-99312179D01*
X72530109Y-99140213D01*
X72416569Y-99026673D01*
X72383084Y-98965350D01*
X72388068Y-98895658D01*
X72429940Y-98839725D01*
X72460915Y-98822810D01*
X72592331Y-98773796D01*
X72707546Y-98687546D01*
X72793796Y-98572331D01*
X72844091Y-98437483D01*
X72850500Y-98377873D01*
X72850499Y-96582128D01*
X72844091Y-96522517D01*
X72842810Y-96519083D01*
X72793797Y-96387671D01*
X72793793Y-96387664D01*
X72707547Y-96272455D01*
X72707544Y-96272452D01*
X72592335Y-96186206D01*
X72592328Y-96186202D01*
X72457482Y-96135908D01*
X72457483Y-96135908D01*
X72397883Y-96129501D01*
X72397881Y-96129500D01*
X72397873Y-96129500D01*
X72397865Y-96129500D01*
X72324500Y-96129500D01*
X72257461Y-96109815D01*
X72211706Y-96057011D01*
X72200500Y-96005500D01*
X72200500Y-91841519D01*
X72220185Y-91774480D01*
X72236819Y-91753838D01*
X78233838Y-85756819D01*
X78295161Y-85723334D01*
X78321519Y-85720500D01*
X81101270Y-85720500D01*
X81168309Y-85740185D01*
X81214064Y-85792989D01*
X81224008Y-85862147D01*
X81194983Y-85925703D01*
X81188951Y-85932181D01*
X81184789Y-85936342D01*
X81092687Y-86085663D01*
X81092685Y-86085668D01*
X81075418Y-86137778D01*
X81037501Y-86252203D01*
X81037501Y-86252204D01*
X81037500Y-86252204D01*
X81027000Y-86354983D01*
X81027000Y-88555001D01*
X81027001Y-88555018D01*
X81037500Y-88657796D01*
X81037501Y-88657799D01*
X81069326Y-88753838D01*
X81092686Y-88824334D01*
X81184788Y-88973656D01*
X81308844Y-89097712D01*
X81458166Y-89189814D01*
X81624703Y-89244999D01*
X81727491Y-89255500D01*
X83927508Y-89255499D01*
X84030297Y-89244999D01*
X84196834Y-89189814D01*
X84346156Y-89097712D01*
X84470212Y-88973656D01*
X84562314Y-88824334D01*
X84617499Y-88657797D01*
X84628000Y-88555009D01*
X84628000Y-88479500D01*
X84647685Y-88412461D01*
X84700489Y-88366706D01*
X84752000Y-88355500D01*
X85030638Y-88355500D01*
X85097677Y-88375185D01*
X85118319Y-88391819D01*
X87133873Y-90407372D01*
X89140536Y-92414035D01*
X89265965Y-92539464D01*
X89265966Y-92539465D01*
X89413446Y-92638009D01*
X89413459Y-92638016D01*
X89449683Y-92653020D01*
X89577334Y-92705894D01*
X89577336Y-92705894D01*
X89577341Y-92705896D01*
X89751304Y-92740499D01*
X89751307Y-92740500D01*
X89751309Y-92740500D01*
X91875501Y-92740500D01*
X91942540Y-92760185D01*
X91988295Y-92812989D01*
X91999501Y-92864500D01*
X91999501Y-92887876D01*
X92005908Y-92947483D01*
X92050361Y-93066667D01*
X92055345Y-93136359D01*
X92050361Y-93153333D01*
X92005908Y-93272517D01*
X92003001Y-93299561D01*
X91999501Y-93332123D01*
X91999500Y-93332135D01*
X91999500Y-93355500D01*
X91979815Y-93422539D01*
X91927011Y-93468294D01*
X91875500Y-93479500D01*
X85096862Y-93479500D01*
X85029823Y-93459815D01*
X85009181Y-93443181D01*
X84617347Y-93051347D01*
X84583862Y-92990024D01*
X84585252Y-92931574D01*
X84597193Y-92887014D01*
X84628000Y-92653011D01*
X84628000Y-92416989D01*
X84597193Y-92182986D01*
X84536106Y-91955007D01*
X84445784Y-91736951D01*
X84445782Y-91736948D01*
X84445780Y-91736943D01*
X84403618Y-91663918D01*
X84327773Y-91532550D01*
X84206048Y-91373915D01*
X84184093Y-91345302D01*
X84184087Y-91345295D01*
X84017204Y-91178412D01*
X84017197Y-91178406D01*
X83829954Y-91034730D01*
X83829953Y-91034729D01*
X83829950Y-91034727D01*
X83748457Y-90987677D01*
X83625556Y-90916719D01*
X83625545Y-90916714D01*
X83407493Y-90826394D01*
X83179510Y-90765306D01*
X82945520Y-90734501D01*
X82945517Y-90734500D01*
X82945511Y-90734500D01*
X82709489Y-90734500D01*
X82709483Y-90734500D01*
X82709479Y-90734501D01*
X82475489Y-90765306D01*
X82247506Y-90826394D01*
X82029454Y-90916714D01*
X82029443Y-90916719D01*
X81825045Y-91034730D01*
X81637802Y-91178406D01*
X81637795Y-91178412D01*
X81470912Y-91345295D01*
X81470906Y-91345302D01*
X81327230Y-91532545D01*
X81209219Y-91736943D01*
X81209214Y-91736954D01*
X81118894Y-91955006D01*
X81057806Y-92182989D01*
X81027001Y-92416979D01*
X81027000Y-92416995D01*
X81027000Y-92653004D01*
X81027001Y-92653020D01*
X81041109Y-92760185D01*
X81057807Y-92887014D01*
X81117556Y-93110000D01*
X81118894Y-93114993D01*
X81209214Y-93333045D01*
X81209219Y-93333056D01*
X81260883Y-93422539D01*
X81327227Y-93537450D01*
X81327229Y-93537453D01*
X81327230Y-93537454D01*
X81470906Y-93724697D01*
X81470912Y-93724704D01*
X81637795Y-93891587D01*
X81637801Y-93891592D01*
X81825050Y-94035273D01*
X81956418Y-94111118D01*
X82029443Y-94153280D01*
X82029448Y-94153282D01*
X82029451Y-94153284D01*
X82247507Y-94243606D01*
X82475486Y-94304693D01*
X82709489Y-94335500D01*
X82709496Y-94335500D01*
X82945504Y-94335500D01*
X82945511Y-94335500D01*
X83179514Y-94304693D01*
X83224073Y-94292753D01*
X83293922Y-94294416D01*
X83343847Y-94324847D01*
X84098466Y-95079466D01*
X84157536Y-95118933D01*
X84157539Y-95118936D01*
X84245950Y-95178011D01*
X84245953Y-95178013D01*
X84327893Y-95211953D01*
X84409834Y-95245895D01*
X84583803Y-95280499D01*
X84583807Y-95280500D01*
X84583808Y-95280500D01*
X84583809Y-95280500D01*
X91875501Y-95280500D01*
X91942540Y-95300185D01*
X91988295Y-95352989D01*
X91999501Y-95404500D01*
X91999501Y-95427876D01*
X92005908Y-95487483D01*
X92050361Y-95606667D01*
X92055345Y-95676359D01*
X92050361Y-95693333D01*
X92005908Y-95812517D01*
X91999501Y-95872116D01*
X91999501Y-95872123D01*
X91999500Y-95872135D01*
X91999500Y-95895500D01*
X91979815Y-95962539D01*
X91927011Y-96008294D01*
X91875500Y-96019500D01*
X86911306Y-96019500D01*
X86737341Y-96054103D01*
X86737332Y-96054106D01*
X86573459Y-96121983D01*
X86573446Y-96121990D01*
X86425966Y-96220534D01*
X86425964Y-96220537D01*
X84016346Y-98630152D01*
X83955023Y-98663637D01*
X83896571Y-98662246D01*
X83880874Y-98658039D01*
X83852019Y-98650308D01*
X83852010Y-98650306D01*
X83618020Y-98619501D01*
X83618017Y-98619500D01*
X83618011Y-98619500D01*
X83381989Y-98619500D01*
X83381983Y-98619500D01*
X83381979Y-98619501D01*
X83147989Y-98650306D01*
X82920006Y-98711394D01*
X82701954Y-98801714D01*
X82701943Y-98801719D01*
X82497545Y-98919730D01*
X82310302Y-99063406D01*
X82310295Y-99063412D01*
X82143412Y-99230295D01*
X82143406Y-99230302D01*
X81999730Y-99417545D01*
X81881719Y-99621943D01*
X81881714Y-99621954D01*
X81791394Y-99840006D01*
X81730306Y-100067989D01*
X81699501Y-100301979D01*
X81699500Y-100301995D01*
X81699500Y-100538004D01*
X81699501Y-100538020D01*
X81728339Y-100757071D01*
X81730307Y-100772014D01*
X81731218Y-100775414D01*
X81791394Y-100999993D01*
X81881714Y-101218045D01*
X81881719Y-101218056D01*
X81950534Y-101337246D01*
X81999727Y-101422450D01*
X81999729Y-101422453D01*
X81999730Y-101422454D01*
X82143406Y-101609697D01*
X82143412Y-101609704D01*
X82310295Y-101776587D01*
X82310302Y-101776593D01*
X82408808Y-101852179D01*
X82497550Y-101920273D01*
X82628918Y-101996118D01*
X82701943Y-102038280D01*
X82701948Y-102038282D01*
X82701951Y-102038284D01*
X82920007Y-102128606D01*
X83147986Y-102189693D01*
X83381989Y-102220500D01*
X83381996Y-102220500D01*
X83618004Y-102220500D01*
X83618011Y-102220500D01*
X83852014Y-102189693D01*
X84079993Y-102128606D01*
X84298049Y-102038284D01*
X84502450Y-101920273D01*
X84689699Y-101776592D01*
X84856592Y-101609699D01*
X85000273Y-101422450D01*
X85118284Y-101218049D01*
X85208606Y-100999993D01*
X85269693Y-100772014D01*
X85300500Y-100538011D01*
X85300500Y-100301989D01*
X85269693Y-100067986D01*
X85257753Y-100023425D01*
X85259414Y-99953579D01*
X85289844Y-99903654D01*
X87336680Y-97856819D01*
X87398003Y-97823334D01*
X87424361Y-97820500D01*
X91875501Y-97820500D01*
X91942540Y-97840185D01*
X91988295Y-97892989D01*
X91999501Y-97944500D01*
X91999501Y-97967876D01*
X92005908Y-98027483D01*
X92050361Y-98146667D01*
X92055345Y-98216359D01*
X92050361Y-98233333D01*
X92005908Y-98352517D01*
X91999735Y-98409939D01*
X91999501Y-98412123D01*
X91999500Y-98412135D01*
X91999500Y-98435500D01*
X91979815Y-98502539D01*
X91927011Y-98548294D01*
X91875500Y-98559500D01*
X89951303Y-98559500D01*
X89777341Y-98594103D01*
X89777329Y-98594106D01*
X89695392Y-98628045D01*
X89695393Y-98628046D01*
X89613455Y-98661985D01*
X89539512Y-98711393D01*
X89465961Y-98760537D01*
X84563317Y-103663181D01*
X84501994Y-103696666D01*
X84475636Y-103699500D01*
X82399998Y-103699500D01*
X82399981Y-103699501D01*
X82297203Y-103710000D01*
X82297200Y-103710001D01*
X82130668Y-103765185D01*
X82130663Y-103765187D01*
X81981342Y-103857289D01*
X81857289Y-103981342D01*
X81765187Y-104130663D01*
X81765185Y-104130668D01*
X81739507Y-104208160D01*
X81710001Y-104297203D01*
X81710001Y-104297204D01*
X81710000Y-104297204D01*
X81699500Y-104399983D01*
X81699500Y-106600001D01*
X81699501Y-106600018D01*
X81710000Y-106702796D01*
X81710001Y-106702799D01*
X81746710Y-106813578D01*
X81765186Y-106869334D01*
X81857288Y-107018656D01*
X81981344Y-107142712D01*
X82130666Y-107234814D01*
X82297203Y-107289999D01*
X82399991Y-107300500D01*
X84600008Y-107300499D01*
X84702797Y-107289999D01*
X84869334Y-107234814D01*
X85018656Y-107142712D01*
X85142712Y-107018656D01*
X85234814Y-106869334D01*
X85289999Y-106702797D01*
X85300500Y-106600009D01*
X85300499Y-105524360D01*
X85320183Y-105457322D01*
X85336813Y-105436685D01*
X90376681Y-100396819D01*
X90438004Y-100363334D01*
X90464362Y-100360500D01*
X91875501Y-100360500D01*
X91942540Y-100380185D01*
X91988295Y-100432989D01*
X91999501Y-100484500D01*
X91999501Y-100507876D01*
X92005908Y-100567483D01*
X92050628Y-100687380D01*
X92055612Y-100757071D01*
X92050628Y-100774046D01*
X92006403Y-100892619D01*
X92006401Y-100892627D01*
X92000000Y-100952155D01*
X92000000Y-101750000D01*
X93066988Y-101750000D01*
X93034075Y-101807007D01*
X93000000Y-101934174D01*
X93000000Y-102065826D01*
X93034075Y-102192993D01*
X93066988Y-102250000D01*
X92000000Y-102250000D01*
X92000000Y-103047844D01*
X92006401Y-103107372D01*
X92006403Y-103107379D01*
X92056645Y-103242086D01*
X92056649Y-103242093D01*
X92142809Y-103357187D01*
X92142812Y-103357190D01*
X92257906Y-103443350D01*
X92257913Y-103443354D01*
X92392620Y-103493596D01*
X92392627Y-103493598D01*
X92452155Y-103499999D01*
X92452172Y-103500000D01*
X93250000Y-103500000D01*
X93250000Y-102433012D01*
X93307007Y-102465925D01*
X93434174Y-102500000D01*
X93565826Y-102500000D01*
X93692993Y-102465925D01*
X93750000Y-102433012D01*
X93750000Y-103500000D01*
X94547828Y-103500000D01*
X94547844Y-103499999D01*
X94607372Y-103493598D01*
X94607379Y-103493596D01*
X94742086Y-103443354D01*
X94742093Y-103443350D01*
X94857187Y-103357190D01*
X94857190Y-103357187D01*
X94943350Y-103242093D01*
X94943354Y-103242086D01*
X94993596Y-103107379D01*
X94993598Y-103107372D01*
X94999999Y-103047844D01*
X95000000Y-103047827D01*
X95000000Y-102250000D01*
X93933012Y-102250000D01*
X93965925Y-102192993D01*
X94000000Y-102065826D01*
X94000000Y-101934174D01*
X93965925Y-101807007D01*
X93933012Y-101750000D01*
X95000000Y-101750000D01*
X95000000Y-100952172D01*
X94999999Y-100952155D01*
X94993598Y-100892627D01*
X94993597Y-100892623D01*
X94949371Y-100774049D01*
X94944387Y-100704357D01*
X94949367Y-100687393D01*
X94994091Y-100567483D01*
X95000500Y-100507873D01*
X95000499Y-98412128D01*
X94994091Y-98352517D01*
X94949637Y-98233332D01*
X94944654Y-98163642D01*
X94949638Y-98146667D01*
X94994091Y-98027482D01*
X94997216Y-97998414D01*
X95000500Y-97967873D01*
X95000499Y-95872128D01*
X94994091Y-95812517D01*
X94985751Y-95790157D01*
X94949638Y-95693333D01*
X94944654Y-95623642D01*
X94949638Y-95606667D01*
X94994091Y-95487482D01*
X95000500Y-95427873D01*
X95000499Y-93332128D01*
X94994091Y-93272517D01*
X94949637Y-93153332D01*
X94944654Y-93083642D01*
X94949638Y-93066667D01*
X94994091Y-92947482D01*
X95000500Y-92887873D01*
X95000499Y-90792128D01*
X94994091Y-90732517D01*
X94949370Y-90612615D01*
X94944387Y-90542927D01*
X94949371Y-90525951D01*
X94993597Y-90407376D01*
X94993598Y-90407372D01*
X94999999Y-90347844D01*
X95000000Y-90347827D01*
X95000000Y-89550000D01*
X93933012Y-89550000D01*
X93965925Y-89492993D01*
X94000000Y-89365826D01*
X94000000Y-89234174D01*
X93965925Y-89107007D01*
X93933012Y-89050000D01*
X95000000Y-89050000D01*
X95000000Y-88252172D01*
X94999999Y-88252155D01*
X94993598Y-88192627D01*
X94993597Y-88192623D01*
X94949371Y-88074049D01*
X94944387Y-88004357D01*
X94949367Y-87987393D01*
X94994091Y-87867483D01*
X95000500Y-87807873D01*
X95000500Y-87584500D01*
X95020185Y-87517461D01*
X95072989Y-87471706D01*
X95124500Y-87460500D01*
X97418481Y-87460500D01*
X97485520Y-87480185D01*
X97506162Y-87496819D01*
X98763181Y-88753838D01*
X98796666Y-88815161D01*
X98799500Y-88841519D01*
X98799500Y-105862769D01*
X98779815Y-105929808D01*
X98763182Y-105950450D01*
X98657287Y-106056345D01*
X98565187Y-106205663D01*
X98565185Y-106205668D01*
X98547342Y-106259516D01*
X98510001Y-106372203D01*
X98510001Y-106372204D01*
X98510000Y-106372204D01*
X98499500Y-106474983D01*
X98499500Y-107525001D01*
X98499501Y-107525019D01*
X98510000Y-107627796D01*
X98510001Y-107627799D01*
X98511436Y-107632128D01*
X98565186Y-107794334D01*
X98657288Y-107943656D01*
X98781344Y-108067712D01*
X98930666Y-108159814D01*
X99097203Y-108214999D01*
X99199991Y-108225500D01*
X99800008Y-108225499D01*
X99800016Y-108225498D01*
X99800019Y-108225498D01*
X99856302Y-108219748D01*
X99902797Y-108214999D01*
X100069334Y-108159814D01*
X100218656Y-108067712D01*
X100342712Y-107943656D01*
X100344752Y-107940347D01*
X100346745Y-107938555D01*
X100347193Y-107937989D01*
X100347289Y-107938065D01*
X100396694Y-107893623D01*
X100465656Y-107882395D01*
X100529740Y-107910234D01*
X100555829Y-107940339D01*
X100557681Y-107943341D01*
X100557683Y-107943344D01*
X100681654Y-108067315D01*
X100830875Y-108159356D01*
X100830880Y-108159358D01*
X100997302Y-108214505D01*
X100997309Y-108214506D01*
X101100019Y-108224999D01*
X101650000Y-108224999D01*
X101699972Y-108224999D01*
X101699986Y-108224998D01*
X101802697Y-108214505D01*
X101969119Y-108159358D01*
X101969124Y-108159356D01*
X102118345Y-108067315D01*
X102242315Y-107943345D01*
X102334356Y-107794124D01*
X102334358Y-107794119D01*
X102389505Y-107627697D01*
X102389506Y-107627690D01*
X102399999Y-107524986D01*
X102400000Y-107524973D01*
X102400000Y-107250000D01*
X101650000Y-107250000D01*
X101650000Y-108224999D01*
X101100019Y-108224999D01*
X101149999Y-108224998D01*
X101150000Y-108224998D01*
X101150000Y-106750000D01*
X101650000Y-106750000D01*
X102399999Y-106750000D01*
X102399999Y-106475028D01*
X102399998Y-106475013D01*
X102389505Y-106372302D01*
X102334358Y-106205880D01*
X102334356Y-106205875D01*
X102242315Y-106056654D01*
X102118345Y-105932684D01*
X101969124Y-105840643D01*
X101969119Y-105840641D01*
X101802697Y-105785494D01*
X101802690Y-105785493D01*
X101699986Y-105775000D01*
X101650000Y-105775000D01*
X101650000Y-106750000D01*
X101150000Y-106750000D01*
X101150000Y-105775000D01*
X101149999Y-105774999D01*
X101100029Y-105775000D01*
X101100011Y-105775001D01*
X100997302Y-105785494D01*
X100830880Y-105840641D01*
X100830875Y-105840643D01*
X100681654Y-105932684D01*
X100557683Y-106056655D01*
X100557679Y-106056660D01*
X100555826Y-106059665D01*
X100554018Y-106061290D01*
X100553202Y-106062323D01*
X100553025Y-106062183D01*
X100503874Y-106106385D01*
X100434911Y-106117601D01*
X100370831Y-106089752D01*
X100344753Y-106059653D01*
X100342713Y-106056346D01*
X100342712Y-106056344D01*
X100236818Y-105950450D01*
X100203334Y-105889127D01*
X100200500Y-105862769D01*
X100200500Y-88431007D01*
X100196991Y-88413369D01*
X100196991Y-88413368D01*
X100173580Y-88295672D01*
X100173578Y-88295667D01*
X100120777Y-88168192D01*
X100044112Y-88053454D01*
X98206545Y-86215887D01*
X98091807Y-86139222D01*
X97964332Y-86086421D01*
X97964322Y-86086418D01*
X97828996Y-86059500D01*
X97828994Y-86059500D01*
X97828993Y-86059500D01*
X95124499Y-86059500D01*
X95057460Y-86039815D01*
X95011705Y-85987011D01*
X95000499Y-85935500D01*
X95000499Y-85712129D01*
X95000498Y-85712123D01*
X95000497Y-85712116D01*
X94994091Y-85652517D01*
X94949637Y-85533332D01*
X94944654Y-85463642D01*
X94949638Y-85446667D01*
X94967908Y-85397682D01*
X94994091Y-85327483D01*
X95000500Y-85267873D01*
X95000499Y-83172128D01*
X94994091Y-83112517D01*
X94972063Y-83053458D01*
X94943797Y-82977671D01*
X94943793Y-82977664D01*
X94857547Y-82862455D01*
X94857544Y-82862452D01*
X94742335Y-82776206D01*
X94742328Y-82776202D01*
X94607482Y-82725908D01*
X94607483Y-82725908D01*
X94547883Y-82719501D01*
X94547881Y-82719500D01*
X94547873Y-82719500D01*
X94547865Y-82719500D01*
X93465782Y-82719500D01*
X93398743Y-82699815D01*
X93378101Y-82683181D01*
X93064209Y-82369289D01*
X93064206Y-82369285D01*
X93064206Y-82369286D01*
X93057139Y-82362219D01*
X93057139Y-82362218D01*
X92917782Y-82222861D01*
X92917781Y-82222860D01*
X92917780Y-82222859D01*
X92753920Y-82113371D01*
X92753911Y-82113366D01*
X92681315Y-82083296D01*
X92625165Y-82060038D01*
X92571836Y-82037949D01*
X92571832Y-82037948D01*
X92571828Y-82037946D01*
X92475188Y-82018724D01*
X92378544Y-81999500D01*
X92378541Y-81999500D01*
X72901459Y-81999500D01*
X72901455Y-81999500D01*
X72804812Y-82018724D01*
X72708167Y-82037947D01*
X72708161Y-82037949D01*
X72654834Y-82060037D01*
X72654834Y-82060038D01*
X72609315Y-82078892D01*
X72526089Y-82113366D01*
X72526079Y-82113371D01*
X72362219Y-82222859D01*
X72292540Y-82292538D01*
X72222861Y-82362218D01*
X72222858Y-82362221D01*
X70386281Y-84198797D01*
X70324958Y-84232282D01*
X70259596Y-84228822D01*
X70202798Y-84210001D01*
X70100010Y-84199500D01*
X68899998Y-84199500D01*
X68899981Y-84199501D01*
X68797203Y-84210000D01*
X68797200Y-84210001D01*
X68630668Y-84265185D01*
X68630663Y-84265187D01*
X68481342Y-84357289D01*
X68357289Y-84481342D01*
X68265187Y-84630663D01*
X68265185Y-84630668D01*
X68244717Y-84692438D01*
X68204944Y-84749883D01*
X68140428Y-84776706D01*
X68117283Y-84777052D01*
X68079474Y-84774076D01*
X67400000Y-85453551D01*
X67400000Y-85447339D01*
X67372741Y-85345606D01*
X67320080Y-85254394D01*
X67245606Y-85179920D01*
X67154394Y-85127259D01*
X67052661Y-85100000D01*
X67046446Y-85100000D01*
X67725922Y-84420524D01*
X67725921Y-84420523D01*
X67681359Y-84388147D01*
X67681350Y-84388141D01*
X67499031Y-84295244D01*
X67304417Y-84232009D01*
X67102317Y-84200000D01*
X66897683Y-84200000D01*
X66695582Y-84232009D01*
X66500968Y-84295244D01*
X66318644Y-84388143D01*
X66274077Y-84420523D01*
X66274077Y-84420524D01*
X66953554Y-85100000D01*
X66947339Y-85100000D01*
X66845606Y-85127259D01*
X66754394Y-85179920D01*
X66679920Y-85254394D01*
X66627259Y-85345606D01*
X66600000Y-85447339D01*
X66600000Y-85453553D01*
X65920524Y-84774077D01*
X65920523Y-84774077D01*
X65888143Y-84818644D01*
X65795244Y-85000968D01*
X65732009Y-85195582D01*
X65700000Y-85397682D01*
X65700000Y-85602317D01*
X65732009Y-85804417D01*
X65795244Y-85999031D01*
X65888141Y-86181350D01*
X65888147Y-86181359D01*
X65920523Y-86225921D01*
X65920524Y-86225922D01*
X66600000Y-85546446D01*
X66600000Y-85552661D01*
X66627259Y-85654394D01*
X66679920Y-85745606D01*
X66754394Y-85820080D01*
X66845606Y-85872741D01*
X66947339Y-85900000D01*
X66953553Y-85900000D01*
X66274076Y-86579474D01*
X66318650Y-86611859D01*
X66500968Y-86704755D01*
X66695582Y-86767990D01*
X66897683Y-86800000D01*
X67102317Y-86800000D01*
X67304417Y-86767990D01*
X67499031Y-86704755D01*
X67681349Y-86611859D01*
X67725921Y-86579474D01*
X67046447Y-85900000D01*
X67052661Y-85900000D01*
X67154394Y-85872741D01*
X67245606Y-85820080D01*
X67320080Y-85745606D01*
X67372741Y-85654394D01*
X67400000Y-85552661D01*
X67400000Y-85546447D01*
X68079473Y-86225921D01*
X68117280Y-86222946D01*
X68185658Y-86237310D01*
X68235415Y-86286361D01*
X68244714Y-86307556D01*
X68265186Y-86369334D01*
X68338345Y-86487945D01*
X68357289Y-86518657D01*
X68463181Y-86624549D01*
X68496666Y-86685872D01*
X68499500Y-86712230D01*
X68499500Y-89034217D01*
X68479815Y-89101256D01*
X68463181Y-89121898D01*
X53862220Y-103722859D01*
X53862218Y-103722861D01*
X53826805Y-103758274D01*
X53722859Y-103862219D01*
X53613371Y-104026079D01*
X53613364Y-104026092D01*
X53537950Y-104208160D01*
X53537947Y-104208170D01*
X53499500Y-104401456D01*
X53499500Y-104401459D01*
X53499500Y-140098541D01*
X53499500Y-140098543D01*
X53499499Y-140098543D01*
X52500500Y-140098543D01*
X52500500Y-82874038D01*
X54399500Y-82874038D01*
X54399500Y-83125961D01*
X54438910Y-83374785D01*
X54516760Y-83614383D01*
X54631132Y-83838848D01*
X54779201Y-84042649D01*
X54779205Y-84042654D01*
X54957345Y-84220794D01*
X54957350Y-84220798D01*
X55093203Y-84319500D01*
X55161155Y-84368870D01*
X55259541Y-84419000D01*
X55385616Y-84483239D01*
X55385618Y-84483239D01*
X55385621Y-84483241D01*
X55625215Y-84561090D01*
X55874038Y-84600500D01*
X55874039Y-84600500D01*
X56125961Y-84600500D01*
X56125962Y-84600500D01*
X56374785Y-84561090D01*
X56614379Y-84483241D01*
X56838845Y-84368870D01*
X56838849Y-84368867D01*
X56840781Y-84367464D01*
X56840781Y-84367463D01*
X57042656Y-84220793D01*
X57220793Y-84042656D01*
X57368870Y-83838845D01*
X57483241Y-83614379D01*
X57561090Y-83374785D01*
X57600500Y-83125962D01*
X57600500Y-82874038D01*
X57561090Y-82625215D01*
X57483241Y-82385621D01*
X57483239Y-82385618D01*
X57483239Y-82385616D01*
X57441747Y-82304184D01*
X57368870Y-82161155D01*
X57295405Y-82060039D01*
X57220798Y-81957350D01*
X57220794Y-81957345D01*
X57042654Y-81779205D01*
X57042649Y-81779201D01*
X56838848Y-81631132D01*
X56838847Y-81631131D01*
X56838845Y-81631130D01*
X56768747Y-81595413D01*
X56614383Y-81516760D01*
X56374785Y-81438910D01*
X56125962Y-81399500D01*
X55874038Y-81399500D01*
X55749626Y-81419205D01*
X55625214Y-81438910D01*
X55385616Y-81516760D01*
X55161151Y-81631132D01*
X54957350Y-81779201D01*
X54957345Y-81779205D01*
X54779205Y-81957345D01*
X54779201Y-81957350D01*
X54631132Y-82161151D01*
X54516760Y-82385616D01*
X54438910Y-82625214D01*
X54399500Y-82874038D01*
X52500500Y-82874038D01*
X52500500Y-79624500D01*
X52520185Y-79557461D01*
X52572989Y-79511706D01*
X52624500Y-79500500D01*
X139375500Y-79500500D01*
X139442539Y-79520185D01*
G37*
%TD.AperFunction*%
%TD*%
M02*
