%TF.GenerationSoftware,KiCad,Pcbnew,10.0.5*%
%TF.CreationDate,2026-09-02T13:59:06-07:00*%
%TF.ProjectId,Kevin_PCB,4b657669-6e5f-4504-9342-2e6b69636164,rev?*%
%TF.SameCoordinates,Original*%
%TF.FileFunction,Copper,L2,Bot*%
%TF.FilePolarity,Positive*%
%FSLAX46Y46*%
G04 Gerber Fmt 4.6, Leading zero omitted, Abs format (unit mm)*
G04 Created by KiCad (PCBNEW 10.0.5) date 2026-09-02 13:59:06*
%MOMM*%
%LPD*%
G01*
G04 APERTURE LIST*
G04 Aperture macros list*
%AMRoundRect*
0 Rectangle with rounded corners*
0 $1 Rounding radius*
0 $2 $3 $4 $5 $6 $7 $8 $9 X,Y pos of 4 corners*
0 Add a 4 corners polygon primitive as box body*
4,1,4,$2,$3,$4,$5,$6,$7,$8,$9,$2,$3,0*
0 Add four circle primitives for the rounded corners*
1,1,$1+$1,$2,$3*
1,1,$1+$1,$4,$5*
1,1,$1+$1,$6,$7*
1,1,$1+$1,$8,$9*
0 Add four rect primitives between the rounded corners*
20,1,$1+$1,$2,$3,$4,$5,0*
20,1,$1+$1,$4,$5,$6,$7,0*
20,1,$1+$1,$6,$7,$8,$9,0*
20,1,$1+$1,$8,$9,$2,$3,0*%
G04 Aperture macros list end*
%TA.AperFunction,ComponentPad*%
%ADD10R,1.700000X1.700000*%
%TD*%
%TA.AperFunction,ComponentPad*%
%ADD11C,1.700000*%
%TD*%
%TA.AperFunction,ComponentPad*%
%ADD12RoundRect,0.250000X-1.050000X-1.050000X1.050000X-1.050000X1.050000X1.050000X-1.050000X1.050000X0*%
%TD*%
%TA.AperFunction,ComponentPad*%
%ADD13C,2.600000*%
%TD*%
%TA.AperFunction,ComponentPad*%
%ADD14RoundRect,0.250000X1.050000X-1.050000X1.050000X1.050000X-1.050000X1.050000X-1.050000X-1.050000X0*%
%TD*%
%TA.AperFunction,ComponentPad*%
%ADD15C,2.010000*%
%TD*%
%TA.AperFunction,ComponentPad*%
%ADD16RoundRect,0.250000X-0.550000X-0.550000X0.550000X-0.550000X0.550000X0.550000X-0.550000X0.550000X0*%
%TD*%
%TA.AperFunction,ComponentPad*%
%ADD17C,1.600000*%
%TD*%
%TA.AperFunction,ComponentPad*%
%ADD18R,2.000000X2.000000*%
%TD*%
%TA.AperFunction,ComponentPad*%
%ADD19RoundRect,0.250000X0.550000X0.550000X-0.550000X0.550000X-0.550000X-0.550000X0.550000X-0.550000X0*%
%TD*%
%TA.AperFunction,ComponentPad*%
%ADD20RoundRect,0.250000X-1.050000X1.050000X-1.050000X-1.050000X1.050000X-1.050000X1.050000X1.050000X0*%
%TD*%
%TA.AperFunction,ViaPad*%
%ADD21C,0.600000*%
%TD*%
%TA.AperFunction,Conductor*%
%ADD22C,0.500000*%
%TD*%
%TA.AperFunction,Conductor*%
%ADD23C,0.200000*%
%TD*%
%TA.AperFunction,Conductor*%
%ADD24C,1.000000*%
%TD*%
%TA.AperFunction,Conductor*%
%ADD25C,2.500000*%
%TD*%
%TA.AperFunction,Conductor*%
%ADD26C,0.300000*%
%TD*%
G04 APERTURE END LIST*
D10*
%TO.P,J17,1,Pin_1_1*%
%TO.N,/LCD_3V3*%
X60000000Y-116610000D03*
D11*
%TO.P,J17,2,Pin_2_2*%
%TO.N,/GND*%
X60000000Y-119150000D03*
%TO.P,J17,3,Pin_3_3*%
%TO.N,/LCD_MOSI*%
X60000000Y-121690000D03*
%TO.P,J17,4,Pin_4_4*%
%TO.N,/LCD_SCLK*%
X60000000Y-124230000D03*
%TO.P,J17,5,Pin_5_5*%
%TO.N,/LCD_CS*%
X60000000Y-126770000D03*
%TO.P,J17,6,Pin_6_6*%
%TO.N,/LCD_DC*%
X60000000Y-129310000D03*
%TO.P,J17,7,Pin_7_7*%
%TO.N,/LCD_RST*%
X60000000Y-131850000D03*
%TO.P,J17,8,Pin_8_8*%
%TO.N,/LCD_BL*%
X60000000Y-134390000D03*
%TD*%
D12*
%TO.P,J16,1,Pin_1_1*%
%TO.N,/MAIN_5V*%
X106500000Y-156500000D03*
D13*
%TO.P,J16,2,Pin_2_2*%
%TO.N,/GND*%
X111580000Y-156500000D03*
%TD*%
D14*
%TO.P,J15,1,Pin_1_1*%
%TO.N,/MAIN_5V*%
X72672500Y-159545000D03*
D13*
%TO.P,J15,2,Pin_2_2*%
%TO.N,/GND*%
X72672500Y-154465000D03*
%TD*%
D12*
%TO.P,J14,1,Pin_1_1*%
%TO.N,/BAT_5V_IN*%
X92420000Y-156672500D03*
D13*
%TO.P,J14,2,Pin_2_2*%
%TO.N,/GND*%
X97500000Y-156672500D03*
%TD*%
D15*
%TO.P,F1,1*%
%TO.N,/BAT_5V_IN*%
X85000000Y-133500000D03*
%TO.P,F1,2*%
%TO.N,/MAIN_5V*%
X79900000Y-132300000D03*
%TD*%
D16*
%TO.P,C4,1*%
%TO.N,/MAIN_5V*%
X80500000Y-118500000D03*
D17*
%TO.P,C4,2*%
%TO.N,/GND*%
X84000000Y-118500000D03*
%TD*%
D18*
%TO.P,J6,1,Pin_1_1*%
%TO.N,/MAIN_5V*%
X93500000Y-84220000D03*
%TO.P,J6,2,Pin_2_2*%
%TO.N,/PWMA*%
X108500000Y-84220000D03*
%TO.P,J6,3,Pin_3_3*%
%TO.N,/VCC*%
X93500000Y-86760000D03*
%TO.P,J6,4,Pin_4_4*%
%TO.N,/AIN2*%
X108500000Y-86760000D03*
%TO.P,J6,5,Pin_5_5*%
%TO.N,/GND*%
X93500000Y-89300000D03*
%TO.P,J6,6,Pin_6_6*%
%TO.N,/AIN1*%
X108500000Y-89300000D03*
%TO.P,J6,7,Pin_7_7*%
%TO.N,/A01*%
X93500000Y-91840000D03*
%TO.P,J6,8,Pin_8_8*%
%TO.N,/STBY*%
X108500000Y-91840000D03*
%TO.P,J6,9,Pin_9_9*%
%TO.N,/A02*%
X93500000Y-94380000D03*
%TO.P,J6,10,Pin_10_10*%
%TO.N,/BIN1*%
X108500000Y-94380000D03*
%TO.P,J6,11,Pin_11_11*%
%TO.N,/B02*%
X93500000Y-96920000D03*
%TO.P,J6,12,Pin_12_12*%
%TO.N,/BIN2*%
X108500000Y-96920000D03*
%TO.P,J6,13,Pin_13_13*%
%TO.N,/B01*%
X93500000Y-99460000D03*
%TO.P,J6,14,Pin_14_14*%
%TO.N,/PWMB*%
X108500000Y-99460000D03*
%TO.P,J6,15,Pin_15_15*%
%TO.N,/GND*%
X93500000Y-102000000D03*
%TO.P,J6,16,Pin_16_16*%
X108500000Y-102000000D03*
%TD*%
D14*
%TO.P,J3,1,Pin_1_1*%
%TO.N,/B01*%
X83500000Y-105500000D03*
D13*
%TO.P,J3,2,Pin_2_2*%
%TO.N,/B02*%
X83500000Y-100420000D03*
%TD*%
D18*
%TO.P,J5,1,Pin_1_1*%
%TO.N,unconnected-(J5-Pin_1-Pad1)*%
X114000000Y-85820000D03*
%TO.P,J5,2,Pin_2_2*%
%TO.N,unconnected-(J5-Pin_2-Pad2)*%
X137000000Y-85820000D03*
%TO.P,J5,3,Pin_3_3*%
%TO.N,unconnected-(J5-Pin_3-Pad3)*%
X114000000Y-88360000D03*
%TO.P,J5,4,Pin_4_4*%
%TO.N,unconnected-(J5-Pin_4-Pad4)*%
X137000000Y-88360000D03*
%TO.P,J5,5,Pin_5_5*%
%TO.N,unconnected-(J5-Pin_5-Pad5)*%
X114000000Y-90900000D03*
%TO.P,J5,6,Pin_6_6*%
%TO.N,unconnected-(J5-Pin_6-Pad6)*%
X137000000Y-90900000D03*
%TO.P,J5,7,Pin_7_7*%
%TO.N,unconnected-(J5-Pin_7-Pad7)*%
X114000000Y-93440000D03*
%TO.P,J5,8,Pin_8_8*%
%TO.N,unconnected-(J5-Pin_8-Pad8)*%
X137000000Y-93440000D03*
%TO.P,J5,9,Pin_9_9*%
%TO.N,/PI_TX*%
X114000000Y-95980000D03*
%TO.P,J5,10,Pin_10_10*%
%TO.N,unconnected-(J5-Pin_10-Pad10)*%
X137000000Y-95980000D03*
%TO.P,J5,11,Pin_11_11*%
%TO.N,/PI_RX*%
X114000000Y-98520000D03*
%TO.P,J5,12,Pin_12_12*%
%TO.N,unconnected-(J5-Pin_12-Pad12)*%
X137000000Y-98520000D03*
%TO.P,J5,13,Pin_13_13*%
%TO.N,/AIN1*%
X114000000Y-101060000D03*
%TO.P,J5,14,Pin_14_14*%
%TO.N,unconnected-(J5-Pin_14-Pad14)*%
X137000000Y-101060000D03*
%TO.P,J5,15,Pin_15_15*%
%TO.N,/AIN2*%
X114000000Y-103600000D03*
%TO.P,J5,16,Pin_16_16*%
%TO.N,unconnected-(J5-Pin_16-Pad16)*%
X137000000Y-103600000D03*
%TO.P,J5,17,Pin_17_17*%
%TO.N,/PWMA*%
X114000000Y-106140000D03*
%TO.P,J5,18,Pin_18_18*%
%TO.N,unconnected-(J5-Pin_18-Pad18)*%
X137000000Y-106140000D03*
%TO.P,J5,19,Pin_19_19*%
%TO.N,/BIN1*%
X114000000Y-108680000D03*
%TO.P,J5,20,Pin_20_20*%
%TO.N,unconnected-(J5-Pin_20-Pad20)*%
X137000000Y-108680000D03*
%TO.P,J5,21,Pin_21_21*%
%TO.N,/BIN2*%
X114000000Y-111220000D03*
%TO.P,J5,22,Pin_22_22*%
%TO.N,unconnected-(J5-Pin_22-Pad22)*%
X137000000Y-111220000D03*
%TO.P,J5,23,Pin_23_23*%
%TO.N,/PWMB*%
X114000000Y-113760000D03*
%TO.P,J5,24,Pin_24_24*%
%TO.N,unconnected-(J5-Pin_24-Pad24)*%
X137000000Y-113760000D03*
%TO.P,J5,25,Pin_25_25*%
%TO.N,/STBY*%
X114000000Y-116300000D03*
%TO.P,J5,26,Pin_26_26*%
%TO.N,unconnected-(J5-Pin_26-Pad26)*%
X137000000Y-116300000D03*
%TO.P,J5,27,Pin_27_27*%
%TO.N,unconnected-(J5-Pin_27-Pad27)*%
X114000000Y-118840000D03*
%TO.P,J5,28,Pin_28_28*%
%TO.N,unconnected-(J5-Pin_28-Pad28)*%
X137000000Y-118840000D03*
%TO.P,J5,29,Pin_29_29*%
%TO.N,unconnected-(J5-Pin_29-Pad29)*%
X114000000Y-121380000D03*
%TO.P,J5,30,Pin_30_30*%
%TO.N,unconnected-(J5-Pin_30-Pad30)*%
X137000000Y-121380000D03*
%TO.P,J5,31,Pin_31_31*%
%TO.N,unconnected-(J5-Pin_31-Pad31)*%
X114000000Y-123920000D03*
%TO.P,J5,32,Pin_32_32*%
%TO.N,unconnected-(J5-Pin_32-Pad32)*%
X137000000Y-123920000D03*
%TO.P,J5,33,Pin_33_33*%
%TO.N,unconnected-(J5-Pin_33-Pad33)*%
X114000000Y-126460000D03*
%TO.P,J5,34,Pin_34_34*%
%TO.N,unconnected-(J5-Pin_34-Pad34)*%
X137000000Y-126460000D03*
%TO.P,J5,35,Pin_35_35*%
%TO.N,unconnected-(J5-Pin_35-Pad35)*%
X114000000Y-129000000D03*
%TO.P,J5,36,Pin_36_36*%
%TO.N,unconnected-(J5-Pin_36-Pad36)*%
X137000000Y-129000000D03*
%TO.P,J5,37,Pin_37_37*%
%TO.N,unconnected-(J5-Pin_37-Pad37)*%
X114000000Y-131540000D03*
%TO.P,J5,38,Pin_38_38*%
%TO.N,unconnected-(J5-Pin_38-Pad38)*%
X137000000Y-131540000D03*
%TO.P,J5,39,Pin_39_39*%
%TO.N,unconnected-(J5-Pin_39-Pad39)*%
X114000000Y-134080000D03*
%TO.P,J5,40,Pin_40_40*%
%TO.N,unconnected-(J5-Pin_40-Pad40)*%
X137000000Y-134080000D03*
%TO.P,J5,41,Pin_41_41*%
%TO.N,unconnected-(J5-Pin_41-Pad41)*%
X114000000Y-136620000D03*
%TO.P,J5,42,Pin_42_42*%
%TO.N,unconnected-(J5-Pin_42-Pad42)*%
X137000000Y-136620000D03*
%TO.P,J5,43,Pin_43_43*%
%TO.N,unconnected-(J5-Pin_43-Pad43)*%
X114000000Y-139160000D03*
%TO.P,J5,44,Pin_44_44*%
%TO.N,unconnected-(J5-Pin_44-Pad44)*%
X137000000Y-139160000D03*
%TO.P,J5,45,Pin_45_45*%
%TO.N,unconnected-(J5-Pin_45-Pad45)*%
X114000000Y-141700000D03*
%TO.P,J5,46,Pin_46_46*%
%TO.N,/GND*%
X137000000Y-141700000D03*
%TO.P,J5,47,Pin_47_47*%
%TO.N,unconnected-(J5-Pin_47-Pad47)*%
X114000000Y-144240000D03*
%TO.P,J5,48,Pin_48_48*%
%TO.N,unconnected-(J5-Pin_48-Pad48)*%
X137000000Y-144240000D03*
%TD*%
D19*
%TO.P,C3,1*%
%TO.N,/MAIN_5V*%
X69500000Y-85500000D03*
D17*
%TO.P,C3,2*%
%TO.N,/GND*%
X67000000Y-85500000D03*
%TD*%
D10*
%TO.P,J1,1,Pin_1_1*%
%TO.N,/VCC*%
X71500000Y-97480000D03*
D11*
%TO.P,J1,2,Pin_2_2*%
%TO.N,unconnected-(J1-Pin_2-Pad2)*%
X68960000Y-97480000D03*
%TO.P,J1,3,Pin_3_3*%
%TO.N,unconnected-(J1-Pin_3-Pad3)*%
X71500000Y-100020000D03*
%TO.P,J1,4,Pin_4_4*%
%TO.N,unconnected-(J1-Pin_4-Pad4)*%
X68960000Y-100020000D03*
%TO.P,J1,5,Pin_5_5*%
%TO.N,unconnected-(J1-Pin_5-Pad5)*%
X71500000Y-102560000D03*
%TO.P,J1,6,Pin_6_6*%
%TO.N,/GND*%
X68960000Y-102560000D03*
%TO.P,J1,7,Pin_7_7*%
%TO.N,unconnected-(J1-Pin_7-Pad7)*%
X71500000Y-105100000D03*
%TO.P,J1,8,Pin_8_8*%
%TO.N,/PI_TX*%
X68960000Y-105100000D03*
%TO.P,J1,9,Pin_9_9*%
%TO.N,unconnected-(J1-Pin_9-Pad9)*%
X71500000Y-107640000D03*
%TO.P,J1,10,Pin_10_10*%
%TO.N,/PI_RX*%
X68960000Y-107640000D03*
%TO.P,J1,11,Pin_11_11*%
%TO.N,unconnected-(J1-Pin_11-Pad11)*%
X71500000Y-110180000D03*
%TO.P,J1,12,Pin_12_12*%
%TO.N,unconnected-(J1-Pin_12-Pad12)*%
X68960000Y-110180000D03*
%TO.P,J1,13,Pin_13_13*%
%TO.N,unconnected-(J1-Pin_13-Pad13)*%
X71500000Y-112720000D03*
%TO.P,J1,14,Pin_14_14*%
%TO.N,unconnected-(J1-Pin_14-Pad14)*%
X68960000Y-112720000D03*
%TO.P,J1,15,Pin_15_15*%
%TO.N,unconnected-(J1-Pin_15-Pad15)*%
X71500000Y-115260000D03*
%TO.P,J1,16,Pin_16_16*%
%TO.N,unconnected-(J1-Pin_16-Pad16)*%
X68960000Y-115260000D03*
%TO.P,J1,17,Pin_17_17*%
%TO.N,/LCD_3V3*%
X71500000Y-117800000D03*
%TO.P,J1,18,Pin_18_18*%
%TO.N,unconnected-(J1-Pin_18-Pad18)*%
X68960000Y-117800000D03*
%TO.P,J1,19,Pin_19_19*%
%TO.N,/LCD_MOSI*%
X71500000Y-120340000D03*
%TO.P,J1,20,Pin_20_20*%
%TO.N,/GND*%
X68960000Y-120340000D03*
%TO.P,J1,21,Pin_21_21*%
%TO.N,unconnected-(J1-Pin_21-Pad21)*%
X71500000Y-122880000D03*
%TO.P,J1,22,Pin_22_22*%
%TO.N,/LCD_DC*%
X68960000Y-122880000D03*
%TO.P,J1,23,Pin_23_23*%
%TO.N,/LCD_SCLK*%
X71500000Y-125420000D03*
%TO.P,J1,24,Pin_24_24*%
%TO.N,/LCD_CS*%
X68960000Y-125420000D03*
%TO.P,J1,25,Pin_25_25*%
%TO.N,unconnected-(J1-Pin_25-Pad25)*%
X71500000Y-127960000D03*
%TO.P,J1,26,Pin_26_26*%
%TO.N,unconnected-(J1-Pin_26-Pad26)*%
X68960000Y-127960000D03*
%TO.P,J1,27,Pin_27_27*%
%TO.N,unconnected-(J1-Pin_27-Pad27)*%
X71500000Y-130500000D03*
%TO.P,J1,28,Pin_28_28*%
%TO.N,unconnected-(J1-Pin_28-Pad28)*%
X68960000Y-130500000D03*
%TO.P,J1,29,Pin_29_29*%
%TO.N,/LCD_RST*%
X71500000Y-133040000D03*
%TO.P,J1,30,Pin_30_30*%
%TO.N,unconnected-(J1-Pin_30-Pad30)*%
X68960000Y-133040000D03*
%TO.P,J1,31,Pin_31_31*%
%TO.N,/LCD_BL*%
X71500000Y-135580000D03*
%TO.P,J1,32,Pin_32_32*%
%TO.N,unconnected-(J1-Pin_32-Pad32)*%
X68960000Y-135580000D03*
%TO.P,J1,33,Pin_33_33*%
%TO.N,unconnected-(J1-Pin_33-Pad33)*%
X71500000Y-138120000D03*
%TO.P,J1,34,Pin_34_34*%
%TO.N,unconnected-(J1-Pin_34-Pad34)*%
X68960000Y-138120000D03*
%TO.P,J1,35,Pin_35_35*%
%TO.N,unconnected-(J1-Pin_35-Pad35)*%
X71500000Y-140660000D03*
%TO.P,J1,36,Pin_36_36*%
%TO.N,unconnected-(J1-Pin_36-Pad36)*%
X68960000Y-140660000D03*
%TO.P,J1,37,Pin_37_37*%
%TO.N,unconnected-(J1-Pin_37-Pad37)*%
X71500000Y-143200000D03*
%TO.P,J1,38,Pin_38_38*%
%TO.N,unconnected-(J1-Pin_38-Pad38)*%
X68960000Y-143200000D03*
%TO.P,J1,39,Pin_39_39*%
%TO.N,unconnected-(J1-Pin_39-Pad39)*%
X71500000Y-145740000D03*
%TO.P,J1,40,Pin_40_40*%
%TO.N,unconnected-(J1-Pin_40-Pad40)*%
X68960000Y-145740000D03*
%TD*%
D20*
%TO.P,J2,1,Pin_1_1*%
%TO.N,/A01*%
X82827500Y-87455000D03*
D13*
%TO.P,J2,2,Pin_2_2*%
%TO.N,/A02*%
X82827500Y-92535000D03*
%TD*%
D21*
%TO.N,/LCD_DC*%
X64500000Y-124500000D03*
%TO.N,/PI_RX*%
X75500000Y-104000000D03*
X75500000Y-112500000D03*
%TD*%
%TO.N,/GND*%
D22*
X108500000Y-102000000D02*
X106000000Y-102000000D01*
X108500000Y-102000000D02*
X97000000Y-102000000D01*
D23*
X62350000Y-119150000D02*
X60000000Y-119150000D01*
X63000000Y-89500000D02*
X63000000Y-119000000D01*
X63000000Y-119000000D02*
X62500000Y-119000000D01*
X62500000Y-119000000D02*
X62350000Y-119150000D01*
X67000000Y-85500000D02*
X63000000Y-89500000D01*
D22*
X97000000Y-91500000D02*
X97000000Y-102000000D01*
X93500000Y-102000000D02*
X97000000Y-102000000D01*
X94800000Y-89300000D02*
X97000000Y-91500000D01*
X93500000Y-89300000D02*
X94800000Y-89300000D01*
D24*
X126380000Y-141700000D02*
X111580000Y-156500000D01*
X137000000Y-141700000D02*
X126380000Y-141700000D01*
D25*
X101827500Y-161000000D02*
X107080000Y-161000000D01*
X107080000Y-161000000D02*
X111580000Y-156500000D01*
X97500000Y-156672500D02*
X101827500Y-161000000D01*
X79207500Y-161000000D02*
X93172500Y-161000000D01*
X93172500Y-161000000D02*
X97500000Y-156672500D01*
X72672500Y-154465000D02*
X79207500Y-161000000D01*
%TO.N,/LCD_3V3*%
D22*
X57890000Y-116610000D02*
X60000000Y-116610000D01*
X56100000Y-118400000D02*
X57890000Y-116610000D01*
X62500000Y-142500000D02*
X56100000Y-136100000D01*
X62500000Y-149000000D02*
X62500000Y-142500000D01*
X76500000Y-149500000D02*
X75000000Y-151000000D01*
X56100000Y-136100000D02*
X56100000Y-118400000D01*
X76500000Y-122800000D02*
X76500000Y-149500000D01*
X71500000Y-117800000D02*
X76500000Y-122800000D01*
X75000000Y-151000000D02*
X64500000Y-151000000D01*
X64500000Y-151000000D02*
X62500000Y-149000000D01*
%TO.N,/LCD_BL*%
D26*
X73000000Y-149000000D02*
X66500000Y-149000000D01*
X74000000Y-148000000D02*
X73000000Y-149000000D01*
X65500000Y-148000000D02*
X65500000Y-142000000D01*
X74000000Y-138080000D02*
X74000000Y-148000000D01*
X66500000Y-149000000D02*
X65500000Y-148000000D01*
X65500000Y-142000000D02*
X60000000Y-136500000D01*
X60000000Y-136500000D02*
X60000000Y-134390000D01*
X71500000Y-135580000D02*
X74000000Y-138080000D01*
%TO.N,/LCD_DC*%
X66120000Y-122880000D02*
X64500000Y-124500000D01*
X68960000Y-122880000D02*
X66120000Y-122880000D01*
%TO.N,/LCD_CS*%
X68960000Y-125420000D02*
X67610000Y-126770000D01*
X67610000Y-126770000D02*
X60000000Y-126770000D01*
%TO.N,/LCD_RST*%
X59150000Y-131850000D02*
X60000000Y-131850000D01*
X57500000Y-133500000D02*
X59150000Y-131850000D01*
X57500000Y-136000000D02*
X57500000Y-133500000D01*
X64000000Y-142500000D02*
X57500000Y-136000000D01*
X74500000Y-150000000D02*
X65500000Y-150000000D01*
X75500000Y-149000000D02*
X74500000Y-150000000D01*
X64000000Y-148500000D02*
X64000000Y-142500000D01*
X75500000Y-137040000D02*
X75500000Y-149000000D01*
X71500000Y-133040000D02*
X75500000Y-137040000D01*
X65500000Y-150000000D02*
X64000000Y-148500000D01*
%TO.N,/PI_RX*%
X106000000Y-113000000D02*
X75500000Y-113000000D01*
X112000000Y-99000000D02*
X112000000Y-107000000D01*
X75500000Y-113000000D02*
X75500000Y-112500000D01*
X112500000Y-98500000D02*
X112000000Y-99000000D01*
X112000000Y-107000000D02*
X106000000Y-113000000D01*
X112520000Y-98520000D02*
X112500000Y-98500000D01*
X114000000Y-98520000D02*
X112520000Y-98520000D01*
%TO.N,/PI_TX*%
X112020000Y-95980000D02*
X114000000Y-95980000D01*
X110500000Y-97500000D02*
X112020000Y-95980000D01*
X110500000Y-106000000D02*
X110500000Y-97500000D01*
X77000000Y-111500000D02*
X105000000Y-111500000D01*
X74000000Y-108500000D02*
X77000000Y-111500000D01*
X74000000Y-93500000D02*
X74000000Y-108500000D01*
X66000000Y-104500000D02*
X66000000Y-94500000D01*
X68000000Y-92500000D02*
X73000000Y-92500000D01*
X66000000Y-94500000D02*
X68000000Y-92500000D01*
X66600000Y-105100000D02*
X66000000Y-104500000D01*
X68960000Y-105100000D02*
X66600000Y-105100000D01*
X105000000Y-111500000D02*
X110500000Y-106000000D01*
X73000000Y-92500000D02*
X74000000Y-93500000D01*
%TO.N,/PI_RX*%
X64500000Y-105280000D02*
X66860000Y-107640000D01*
X65500000Y-91500000D02*
X64500000Y-92500000D01*
X75000000Y-91500000D02*
X65500000Y-91500000D01*
X66860000Y-107640000D02*
X68960000Y-107640000D01*
X75500000Y-92000000D02*
X75000000Y-91500000D01*
X64500000Y-92500000D02*
X64500000Y-105280000D01*
X75500000Y-104000000D02*
X75500000Y-92000000D01*
%TD*%
%TA.AperFunction,Conductor*%
%TO.N,/GND*%
G36*
X58592540Y-117380185D02*
G01*
X58638295Y-117432989D01*
X58649501Y-117484500D01*
X58649501Y-117507876D01*
X58655908Y-117567483D01*
X58706202Y-117702328D01*
X58706206Y-117702335D01*
X58792452Y-117817544D01*
X58792455Y-117817547D01*
X58907664Y-117903793D01*
X58907671Y-117903797D01*
X58952618Y-117920561D01*
X59042517Y-117954091D01*
X59102127Y-117960500D01*
X59112685Y-117960499D01*
X59179723Y-117980179D01*
X59200372Y-117996818D01*
X59870591Y-118667037D01*
X59807007Y-118684075D01*
X59692993Y-118749901D01*
X59599901Y-118842993D01*
X59534075Y-118957007D01*
X59517037Y-119020591D01*
X58884728Y-118388282D01*
X58884727Y-118388282D01*
X58845380Y-118442439D01*
X58748904Y-118631782D01*
X58683242Y-118833869D01*
X58683242Y-118833872D01*
X58650000Y-119043753D01*
X58650000Y-119256246D01*
X58683242Y-119466127D01*
X58683242Y-119466130D01*
X58748904Y-119668217D01*
X58845375Y-119857550D01*
X58884728Y-119911716D01*
X59517037Y-119279408D01*
X59534075Y-119342993D01*
X59599901Y-119457007D01*
X59692993Y-119550099D01*
X59807007Y-119615925D01*
X59870590Y-119632962D01*
X59238282Y-120265269D01*
X59238282Y-120265270D01*
X59292452Y-120304626D01*
X59292451Y-120304626D01*
X59301495Y-120309234D01*
X59352292Y-120357208D01*
X59369087Y-120425029D01*
X59346550Y-120491164D01*
X59301499Y-120530202D01*
X59292182Y-120534949D01*
X59120213Y-120659890D01*
X58969890Y-120810213D01*
X58844951Y-120982179D01*
X58748444Y-121171585D01*
X58748443Y-121171587D01*
X58748443Y-121171588D01*
X58715598Y-121272672D01*
X58682753Y-121373760D01*
X58656697Y-121538274D01*
X58649500Y-121583713D01*
X58649500Y-121796287D01*
X58682754Y-122006243D01*
X58737952Y-122176125D01*
X58748444Y-122208414D01*
X58844951Y-122397820D01*
X58969890Y-122569786D01*
X59120213Y-122720109D01*
X59292182Y-122845050D01*
X59300946Y-122849516D01*
X59351742Y-122897491D01*
X59368536Y-122965312D01*
X59345998Y-123031447D01*
X59300946Y-123070484D01*
X59292182Y-123074949D01*
X59120213Y-123199890D01*
X58969890Y-123350213D01*
X58844951Y-123522179D01*
X58748444Y-123711585D01*
X58748443Y-123711587D01*
X58748443Y-123711588D01*
X58722770Y-123790602D01*
X58682753Y-123913760D01*
X58649500Y-124123713D01*
X58649500Y-124336286D01*
X58662941Y-124421153D01*
X58682754Y-124546243D01*
X58743594Y-124733489D01*
X58748444Y-124748414D01*
X58844951Y-124937820D01*
X58969890Y-125109786D01*
X59120213Y-125260109D01*
X59292182Y-125385050D01*
X59300946Y-125389516D01*
X59351742Y-125437491D01*
X59368536Y-125505312D01*
X59345998Y-125571447D01*
X59300946Y-125610484D01*
X59292182Y-125614949D01*
X59120213Y-125739890D01*
X58969890Y-125890213D01*
X58844951Y-126062179D01*
X58748444Y-126251585D01*
X58748443Y-126251587D01*
X58748443Y-126251588D01*
X58715598Y-126352672D01*
X58682753Y-126453760D01*
X58649500Y-126663713D01*
X58649500Y-126876286D01*
X58682753Y-127086239D01*
X58748444Y-127288414D01*
X58844951Y-127477820D01*
X58969890Y-127649786D01*
X59120213Y-127800109D01*
X59292182Y-127925050D01*
X59300946Y-127929516D01*
X59351742Y-127977491D01*
X59368536Y-128045312D01*
X59345998Y-128111447D01*
X59300946Y-128150484D01*
X59292182Y-128154949D01*
X59120213Y-128279890D01*
X58969890Y-128430213D01*
X58844951Y-128602179D01*
X58748444Y-128791585D01*
X58748443Y-128791587D01*
X58748443Y-128791588D01*
X58715598Y-128892672D01*
X58682753Y-128993760D01*
X58649500Y-129203713D01*
X58649500Y-129416286D01*
X58682753Y-129626239D01*
X58748444Y-129828414D01*
X58844951Y-130017820D01*
X58969890Y-130189786D01*
X59120213Y-130340109D01*
X59292182Y-130465050D01*
X59300946Y-130469516D01*
X59351742Y-130517491D01*
X59368536Y-130585312D01*
X59345998Y-130651447D01*
X59300946Y-130690484D01*
X59292182Y-130694949D01*
X59120213Y-130819890D01*
X58969890Y-130970213D01*
X58844951Y-131142180D01*
X58757336Y-131314134D01*
X58734532Y-131345520D01*
X57062181Y-133017872D01*
X57000858Y-133051357D01*
X56931166Y-133046373D01*
X56875233Y-133004501D01*
X56850816Y-132939037D01*
X56850500Y-132930191D01*
X56850500Y-118762229D01*
X56870185Y-118695190D01*
X56886819Y-118674548D01*
X58164548Y-117396819D01*
X58225871Y-117363334D01*
X58252229Y-117360500D01*
X58525501Y-117360500D01*
X58592540Y-117380185D01*
G37*
%TD.AperFunction*%
%TA.AperFunction,Conductor*%
G36*
X70075270Y-121101717D02*
G01*
X70075270Y-121101716D01*
X70114622Y-121047555D01*
X70119232Y-121038507D01*
X70167205Y-120987709D01*
X70235025Y-120970912D01*
X70301161Y-120993447D01*
X70340204Y-121038504D01*
X70344949Y-121047817D01*
X70469890Y-121219786D01*
X70620213Y-121370109D01*
X70792182Y-121495050D01*
X70800946Y-121499516D01*
X70851742Y-121547491D01*
X70868536Y-121615312D01*
X70845998Y-121681447D01*
X70800946Y-121720484D01*
X70792182Y-121724949D01*
X70620213Y-121849890D01*
X70469890Y-122000213D01*
X70344949Y-122172182D01*
X70340484Y-122180946D01*
X70292509Y-122231742D01*
X70224688Y-122248536D01*
X70158553Y-122225998D01*
X70119516Y-122180946D01*
X70115050Y-122172182D01*
X69990109Y-122000213D01*
X69839786Y-121849890D01*
X69667817Y-121724949D01*
X69658504Y-121720204D01*
X69607707Y-121672230D01*
X69590912Y-121604409D01*
X69613449Y-121538274D01*
X69658507Y-121499232D01*
X69667555Y-121494622D01*
X69721716Y-121455270D01*
X69721717Y-121455270D01*
X69089408Y-120822962D01*
X69152993Y-120805925D01*
X69267007Y-120740099D01*
X69360099Y-120647007D01*
X69425925Y-120532993D01*
X69442962Y-120469408D01*
X70075270Y-121101717D01*
G37*
%TD.AperFunction*%
%TA.AperFunction,Conductor*%
G36*
X70301444Y-118453999D02*
G01*
X70340486Y-118499056D01*
X70344951Y-118507820D01*
X70469890Y-118679786D01*
X70620213Y-118830109D01*
X70792182Y-118955050D01*
X70800946Y-118959516D01*
X70851742Y-119007491D01*
X70868536Y-119075312D01*
X70845998Y-119141447D01*
X70800946Y-119180484D01*
X70792182Y-119184949D01*
X70620213Y-119309890D01*
X70469890Y-119460213D01*
X70344949Y-119632182D01*
X70340202Y-119641499D01*
X70292227Y-119692293D01*
X70224405Y-119709087D01*
X70158271Y-119686548D01*
X70119234Y-119641495D01*
X70114626Y-119632452D01*
X70075270Y-119578282D01*
X70075269Y-119578282D01*
X69442962Y-120210590D01*
X69425925Y-120147007D01*
X69360099Y-120032993D01*
X69267007Y-119939901D01*
X69152993Y-119874075D01*
X69089409Y-119857037D01*
X69721716Y-119224728D01*
X69667547Y-119185373D01*
X69667547Y-119185372D01*
X69658500Y-119180763D01*
X69607706Y-119132788D01*
X69590912Y-119064966D01*
X69613451Y-118998832D01*
X69658508Y-118959793D01*
X69667816Y-118955051D01*
X69781107Y-118872741D01*
X69839786Y-118830109D01*
X69839788Y-118830106D01*
X69839792Y-118830104D01*
X69990104Y-118679792D01*
X69990106Y-118679788D01*
X69990109Y-118679786D01*
X70115048Y-118507820D01*
X70115047Y-118507820D01*
X70115051Y-118507816D01*
X70119514Y-118499054D01*
X70167488Y-118448259D01*
X70235308Y-118431463D01*
X70301444Y-118453999D01*
G37*
%TD.AperFunction*%
%TA.AperFunction,Conductor*%
G36*
X70075270Y-103321717D02*
G01*
X70075270Y-103321716D01*
X70114622Y-103267555D01*
X70119232Y-103258507D01*
X70167205Y-103207709D01*
X70235025Y-103190912D01*
X70301161Y-103213447D01*
X70340204Y-103258504D01*
X70344949Y-103267817D01*
X70469890Y-103439786D01*
X70620213Y-103590109D01*
X70792182Y-103715050D01*
X70800946Y-103719516D01*
X70851742Y-103767491D01*
X70868536Y-103835312D01*
X70845998Y-103901447D01*
X70800946Y-103940484D01*
X70792182Y-103944949D01*
X70620213Y-104069890D01*
X70469890Y-104220213D01*
X70344949Y-104392182D01*
X70340484Y-104400946D01*
X70292509Y-104451742D01*
X70224688Y-104468536D01*
X70158553Y-104445998D01*
X70119516Y-104400946D01*
X70115050Y-104392182D01*
X69990109Y-104220213D01*
X69839786Y-104069890D01*
X69667817Y-103944949D01*
X69658504Y-103940204D01*
X69607707Y-103892230D01*
X69590912Y-103824409D01*
X69613449Y-103758274D01*
X69658507Y-103719232D01*
X69667555Y-103714622D01*
X69721716Y-103675270D01*
X69721717Y-103675270D01*
X69089408Y-103042962D01*
X69152993Y-103025925D01*
X69267007Y-102960099D01*
X69360099Y-102867007D01*
X69425925Y-102752993D01*
X69442962Y-102689408D01*
X70075270Y-103321717D01*
G37*
%TD.AperFunction*%
%TA.AperFunction,Conductor*%
G36*
X70301444Y-100673999D02*
G01*
X70340486Y-100719056D01*
X70344951Y-100727820D01*
X70469890Y-100899786D01*
X70620213Y-101050109D01*
X70792182Y-101175050D01*
X70800946Y-101179516D01*
X70851742Y-101227491D01*
X70868536Y-101295312D01*
X70845998Y-101361447D01*
X70800946Y-101400484D01*
X70792182Y-101404949D01*
X70620213Y-101529890D01*
X70469890Y-101680213D01*
X70344949Y-101852182D01*
X70340202Y-101861499D01*
X70292227Y-101912293D01*
X70224405Y-101929087D01*
X70158271Y-101906548D01*
X70119234Y-101861495D01*
X70114626Y-101852452D01*
X70075270Y-101798282D01*
X70075269Y-101798282D01*
X69442962Y-102430590D01*
X69425925Y-102367007D01*
X69360099Y-102252993D01*
X69267007Y-102159901D01*
X69152993Y-102094075D01*
X69089409Y-102077037D01*
X69721716Y-101444728D01*
X69667547Y-101405373D01*
X69667547Y-101405372D01*
X69658500Y-101400763D01*
X69607706Y-101352788D01*
X69590912Y-101284966D01*
X69613451Y-101218832D01*
X69658508Y-101179793D01*
X69667816Y-101175051D01*
X69747007Y-101117515D01*
X69839786Y-101050109D01*
X69839788Y-101050106D01*
X69839792Y-101050104D01*
X69990104Y-100899792D01*
X69990106Y-100899788D01*
X69990109Y-100899786D01*
X70115048Y-100727820D01*
X70115047Y-100727820D01*
X70115051Y-100727816D01*
X70119514Y-100719054D01*
X70167488Y-100668259D01*
X70235308Y-100651463D01*
X70301444Y-100673999D01*
G37*
%TD.AperFunction*%
%TA.AperFunction,Conductor*%
G36*
X139442539Y-79520185D02*
G01*
X139488294Y-79572989D01*
X139499500Y-79624500D01*
X139499500Y-162875500D01*
X139479815Y-162942539D01*
X139427011Y-162988294D01*
X139375500Y-162999500D01*
X52624500Y-162999500D01*
X52557461Y-162979815D01*
X52511706Y-162927011D01*
X52500500Y-162875500D01*
X52500500Y-159374038D01*
X54399500Y-159374038D01*
X54399500Y-159625961D01*
X54438910Y-159874785D01*
X54516760Y-160114383D01*
X54631132Y-160338848D01*
X54779201Y-160542649D01*
X54779205Y-160542654D01*
X54957345Y-160720794D01*
X54957350Y-160720798D01*
X55135117Y-160849952D01*
X55161155Y-160868870D01*
X55304184Y-160941747D01*
X55385616Y-160983239D01*
X55385618Y-160983239D01*
X55385621Y-160983241D01*
X55625215Y-161061090D01*
X55874038Y-161100500D01*
X55874039Y-161100500D01*
X56125961Y-161100500D01*
X56125962Y-161100500D01*
X56374785Y-161061090D01*
X56614379Y-160983241D01*
X56838845Y-160868870D01*
X57042656Y-160720793D01*
X57220793Y-160542656D01*
X57368870Y-160338845D01*
X57483241Y-160114379D01*
X57561090Y-159874785D01*
X57600500Y-159625962D01*
X57600500Y-159374038D01*
X57561090Y-159125215D01*
X57483241Y-158885621D01*
X57483239Y-158885618D01*
X57483239Y-158885616D01*
X57441747Y-158804184D01*
X57368870Y-158661155D01*
X57356653Y-158644340D01*
X57262479Y-158514719D01*
X57220798Y-158457349D01*
X57208432Y-158444983D01*
X70872000Y-158444983D01*
X70872000Y-160645001D01*
X70872001Y-160645018D01*
X70882500Y-160747796D01*
X70882501Y-160747799D01*
X70922620Y-160868867D01*
X70937686Y-160914334D01*
X71029788Y-161063656D01*
X71153844Y-161187712D01*
X71303166Y-161279814D01*
X71469703Y-161334999D01*
X71572491Y-161345500D01*
X73772508Y-161345499D01*
X73875297Y-161334999D01*
X74041834Y-161279814D01*
X74191156Y-161187712D01*
X74315212Y-161063656D01*
X74407314Y-160914334D01*
X74462499Y-160747797D01*
X74473000Y-160645009D01*
X74472999Y-159374038D01*
X134399500Y-159374038D01*
X134399500Y-159625961D01*
X134438910Y-159874785D01*
X134516760Y-160114383D01*
X134631132Y-160338848D01*
X134779201Y-160542649D01*
X134779205Y-160542654D01*
X134957345Y-160720794D01*
X134957350Y-160720798D01*
X135135117Y-160849952D01*
X135161155Y-160868870D01*
X135304184Y-160941747D01*
X135385616Y-160983239D01*
X135385618Y-160983239D01*
X135385621Y-160983241D01*
X135625215Y-161061090D01*
X135874038Y-161100500D01*
X135874039Y-161100500D01*
X136125961Y-161100500D01*
X136125962Y-161100500D01*
X136374785Y-161061090D01*
X136614379Y-160983241D01*
X136838845Y-160868870D01*
X137042656Y-160720793D01*
X137220793Y-160542656D01*
X137368870Y-160338845D01*
X137483241Y-160114379D01*
X137561090Y-159874785D01*
X137600500Y-159625962D01*
X137600500Y-159374038D01*
X137561090Y-159125215D01*
X137483241Y-158885621D01*
X137483239Y-158885618D01*
X137483239Y-158885616D01*
X137441747Y-158804184D01*
X137368870Y-158661155D01*
X137349952Y-158635117D01*
X137220798Y-158457350D01*
X137220794Y-158457345D01*
X137042654Y-158279205D01*
X137042649Y-158279201D01*
X136838848Y-158131132D01*
X136838847Y-158131131D01*
X136838845Y-158131130D01*
X136768747Y-158095413D01*
X136614383Y-158016760D01*
X136374785Y-157938910D01*
X136364468Y-157937276D01*
X136125962Y-157899500D01*
X135874038Y-157899500D01*
X135749626Y-157919205D01*
X135625214Y-157938910D01*
X135385616Y-158016760D01*
X135161151Y-158131132D01*
X134957350Y-158279201D01*
X134957345Y-158279205D01*
X134779205Y-158457345D01*
X134779201Y-158457350D01*
X134631132Y-158661151D01*
X134516760Y-158885616D01*
X134438910Y-159125214D01*
X134399500Y-159374038D01*
X74472999Y-159374038D01*
X74472999Y-158444992D01*
X74462499Y-158342203D01*
X74407314Y-158175666D01*
X74315212Y-158026344D01*
X74191156Y-157902288D01*
X74041834Y-157810186D01*
X73875297Y-157755001D01*
X73875295Y-157755000D01*
X73772510Y-157744500D01*
X71572498Y-157744500D01*
X71572481Y-157744501D01*
X71469703Y-157755000D01*
X71469700Y-157755001D01*
X71303168Y-157810185D01*
X71303163Y-157810187D01*
X71153842Y-157902289D01*
X71029789Y-158026342D01*
X70937687Y-158175663D01*
X70937686Y-158175666D01*
X70882501Y-158342203D01*
X70882501Y-158342204D01*
X70882500Y-158342204D01*
X70872000Y-158444983D01*
X57208432Y-158444983D01*
X57042654Y-158279205D01*
X57042649Y-158279201D01*
X56838848Y-158131132D01*
X56838847Y-158131131D01*
X56838845Y-158131130D01*
X56768747Y-158095413D01*
X56614383Y-158016760D01*
X56374785Y-157938910D01*
X56364468Y-157937276D01*
X56125962Y-157899500D01*
X55874038Y-157899500D01*
X55749626Y-157919205D01*
X55625214Y-157938910D01*
X55385616Y-158016760D01*
X55161151Y-158131132D01*
X54957350Y-158279201D01*
X54957345Y-158279205D01*
X54779205Y-158457345D01*
X54779201Y-158457350D01*
X54631132Y-158661151D01*
X54516760Y-158885616D01*
X54438910Y-159125214D01*
X54399500Y-159374038D01*
X52500500Y-159374038D01*
X52500500Y-154347014D01*
X70872500Y-154347014D01*
X70872500Y-154582985D01*
X70903299Y-154816914D01*
X70964370Y-155044837D01*
X71054660Y-155262819D01*
X71054665Y-155262828D01*
X71172644Y-155467171D01*
X71172645Y-155467172D01*
X71235221Y-155548723D01*
X72071458Y-154712487D01*
X72096478Y-154772890D01*
X72167612Y-154879351D01*
X72258149Y-154969888D01*
X72364610Y-155041022D01*
X72425011Y-155066041D01*
X71588775Y-155902277D01*
X71670327Y-155964854D01*
X71670328Y-155964855D01*
X71874671Y-156082834D01*
X71874680Y-156082839D01*
X72092663Y-156173129D01*
X72092661Y-156173129D01*
X72320585Y-156234200D01*
X72554514Y-156264999D01*
X72554529Y-156265000D01*
X72790471Y-156265000D01*
X72790485Y-156264999D01*
X73024414Y-156234200D01*
X73252337Y-156173129D01*
X73470319Y-156082839D01*
X73470328Y-156082834D01*
X73674681Y-155964850D01*
X73756223Y-155902279D01*
X73756223Y-155902276D01*
X73426430Y-155572483D01*
X90619500Y-155572483D01*
X90619500Y-157772501D01*
X90619501Y-157772518D01*
X90630000Y-157875296D01*
X90630001Y-157875299D01*
X90677506Y-158018657D01*
X90685186Y-158041834D01*
X90777288Y-158191156D01*
X90901344Y-158315212D01*
X91050666Y-158407314D01*
X91217203Y-158462499D01*
X91319991Y-158473000D01*
X93520008Y-158472999D01*
X93622797Y-158462499D01*
X93789334Y-158407314D01*
X93938656Y-158315212D01*
X94062712Y-158191156D01*
X94154814Y-158041834D01*
X94209999Y-157875297D01*
X94220500Y-157772509D01*
X94220499Y-156554514D01*
X95700000Y-156554514D01*
X95700000Y-156790485D01*
X95730799Y-157024414D01*
X95791870Y-157252337D01*
X95882160Y-157470319D01*
X95882165Y-157470328D01*
X96000144Y-157674671D01*
X96000145Y-157674672D01*
X96062721Y-157756223D01*
X96898958Y-156919987D01*
X96923978Y-156980390D01*
X96995112Y-157086851D01*
X97085649Y-157177388D01*
X97192110Y-157248522D01*
X97252511Y-157273541D01*
X96416275Y-158109777D01*
X96497827Y-158172354D01*
X96497828Y-158172355D01*
X96702171Y-158290334D01*
X96702180Y-158290339D01*
X96920163Y-158380629D01*
X96920161Y-158380629D01*
X97148085Y-158441700D01*
X97382014Y-158472499D01*
X97382029Y-158472500D01*
X97617971Y-158472500D01*
X97617985Y-158472499D01*
X97851914Y-158441700D01*
X98079837Y-158380629D01*
X98297819Y-158290339D01*
X98297828Y-158290334D01*
X98502181Y-158172350D01*
X98583723Y-158109779D01*
X98583723Y-158109776D01*
X97747487Y-157273541D01*
X97807890Y-157248522D01*
X97914351Y-157177388D01*
X98004888Y-157086851D01*
X98076022Y-156980390D01*
X98101041Y-156919987D01*
X98937276Y-157756223D01*
X98937279Y-157756223D01*
X98999850Y-157674681D01*
X99117834Y-157470328D01*
X99117839Y-157470319D01*
X99208129Y-157252337D01*
X99269200Y-157024414D01*
X99299999Y-156790485D01*
X99300000Y-156790471D01*
X99300000Y-156554528D01*
X99299999Y-156554514D01*
X99269200Y-156320585D01*
X99208129Y-156092662D01*
X99117839Y-155874680D01*
X99117834Y-155874671D01*
X98999855Y-155670328D01*
X98999854Y-155670327D01*
X98937277Y-155588775D01*
X98101041Y-156425011D01*
X98076022Y-156364610D01*
X98004888Y-156258149D01*
X97914351Y-156167612D01*
X97807890Y-156096478D01*
X97747488Y-156071458D01*
X98418962Y-155399983D01*
X104699500Y-155399983D01*
X104699500Y-157600001D01*
X104699501Y-157600018D01*
X104710000Y-157702796D01*
X104710001Y-157702799D01*
X104758885Y-157850319D01*
X104765186Y-157869334D01*
X104857288Y-158018656D01*
X104981344Y-158142712D01*
X105130666Y-158234814D01*
X105297203Y-158289999D01*
X105399991Y-158300500D01*
X107600008Y-158300499D01*
X107702797Y-158289999D01*
X107869334Y-158234814D01*
X108018656Y-158142712D01*
X108142712Y-158018656D01*
X108234814Y-157869334D01*
X108289999Y-157702797D01*
X108300500Y-157600009D01*
X108300499Y-156382014D01*
X109780000Y-156382014D01*
X109780000Y-156617985D01*
X109810799Y-156851914D01*
X109871870Y-157079837D01*
X109962160Y-157297819D01*
X109962165Y-157297828D01*
X110080144Y-157502171D01*
X110080145Y-157502172D01*
X110142721Y-157583723D01*
X110978958Y-156747487D01*
X111003978Y-156807890D01*
X111075112Y-156914351D01*
X111165649Y-157004888D01*
X111272110Y-157076022D01*
X111332511Y-157101041D01*
X110496275Y-157937277D01*
X110577827Y-157999854D01*
X110577828Y-157999855D01*
X110782171Y-158117834D01*
X110782180Y-158117839D01*
X111000163Y-158208129D01*
X111000161Y-158208129D01*
X111228085Y-158269200D01*
X111462014Y-158299999D01*
X111462029Y-158300000D01*
X111697971Y-158300000D01*
X111697985Y-158299999D01*
X111931914Y-158269200D01*
X112159837Y-158208129D01*
X112377819Y-158117839D01*
X112377828Y-158117834D01*
X112582181Y-157999850D01*
X112663723Y-157937279D01*
X112663723Y-157937276D01*
X111827487Y-157101041D01*
X111887890Y-157076022D01*
X111994351Y-157004888D01*
X112084888Y-156914351D01*
X112156022Y-156807890D01*
X112181041Y-156747487D01*
X113017276Y-157583723D01*
X113017279Y-157583723D01*
X113079850Y-157502181D01*
X113197834Y-157297828D01*
X113197839Y-157297819D01*
X113288129Y-157079837D01*
X113349200Y-156851914D01*
X113379999Y-156617985D01*
X113380000Y-156617971D01*
X113380000Y-156382028D01*
X113379999Y-156382014D01*
X113349200Y-156148085D01*
X113288129Y-155920162D01*
X113197839Y-155702180D01*
X113197834Y-155702171D01*
X113079855Y-155497828D01*
X113079854Y-155497827D01*
X113017277Y-155416275D01*
X112181041Y-156252511D01*
X112156022Y-156192110D01*
X112084888Y-156085649D01*
X111994351Y-155995112D01*
X111887890Y-155923978D01*
X111827488Y-155898958D01*
X112663723Y-155062721D01*
X112582172Y-155000145D01*
X112582171Y-155000144D01*
X112377828Y-154882165D01*
X112377819Y-154882160D01*
X112159836Y-154791870D01*
X112159838Y-154791870D01*
X111931914Y-154730799D01*
X111697985Y-154700000D01*
X111462014Y-154700000D01*
X111228085Y-154730799D01*
X111000162Y-154791870D01*
X110782180Y-154882160D01*
X110782171Y-154882165D01*
X110577828Y-155000144D01*
X110577818Y-155000150D01*
X110496275Y-155062720D01*
X110496275Y-155062721D01*
X111332512Y-155898958D01*
X111272110Y-155923978D01*
X111165649Y-155995112D01*
X111075112Y-156085649D01*
X111003978Y-156192110D01*
X110978958Y-156252511D01*
X110142721Y-155416275D01*
X110142720Y-155416275D01*
X110080150Y-155497818D01*
X110080144Y-155497828D01*
X109962165Y-155702171D01*
X109962160Y-155702180D01*
X109871870Y-155920162D01*
X109810799Y-156148085D01*
X109780000Y-156382014D01*
X108300499Y-156382014D01*
X108300499Y-155399992D01*
X108289999Y-155297203D01*
X108248726Y-155172650D01*
X108241114Y-155149678D01*
X108241113Y-155149676D01*
X108234816Y-155130672D01*
X108234815Y-155130671D01*
X108234814Y-155130666D01*
X108142712Y-154981344D01*
X108018656Y-154857288D01*
X107912596Y-154791870D01*
X107869336Y-154765187D01*
X107869331Y-154765185D01*
X107867862Y-154764698D01*
X107702797Y-154710001D01*
X107702795Y-154710000D01*
X107600010Y-154699500D01*
X105399998Y-154699500D01*
X105399981Y-154699501D01*
X105297203Y-154710000D01*
X105297200Y-154710001D01*
X105130668Y-154765185D01*
X105130663Y-154765187D01*
X104981342Y-154857289D01*
X104857289Y-154981342D01*
X104765187Y-155130663D01*
X104765185Y-155130668D01*
X104751274Y-155172650D01*
X104710001Y-155297203D01*
X104710001Y-155297204D01*
X104710000Y-155297204D01*
X104699500Y-155399983D01*
X98418962Y-155399983D01*
X98509792Y-155309153D01*
X98583723Y-155235221D01*
X98502172Y-155172645D01*
X98502171Y-155172644D01*
X98297828Y-155054665D01*
X98297819Y-155054660D01*
X98079836Y-154964370D01*
X98079838Y-154964370D01*
X97851914Y-154903299D01*
X97617985Y-154872500D01*
X97382014Y-154872500D01*
X97148085Y-154903299D01*
X96920162Y-154964370D01*
X96702180Y-155054660D01*
X96702171Y-155054665D01*
X96497828Y-155172644D01*
X96497818Y-155172650D01*
X96416275Y-155235220D01*
X96416275Y-155235221D01*
X97252512Y-156071458D01*
X97192110Y-156096478D01*
X97085649Y-156167612D01*
X96995112Y-156258149D01*
X96923978Y-156364610D01*
X96898958Y-156425012D01*
X96062721Y-155588775D01*
X96062720Y-155588775D01*
X96000150Y-155670318D01*
X96000144Y-155670328D01*
X95882165Y-155874671D01*
X95882160Y-155874680D01*
X95791870Y-156092662D01*
X95730799Y-156320585D01*
X95700000Y-156554514D01*
X94220499Y-156554514D01*
X94220499Y-155572492D01*
X94209999Y-155469703D01*
X94154814Y-155303166D01*
X94062712Y-155153844D01*
X93938656Y-155029788D01*
X93789334Y-154937686D01*
X93622797Y-154882501D01*
X93622795Y-154882500D01*
X93520010Y-154872000D01*
X91319998Y-154872000D01*
X91319981Y-154872001D01*
X91217203Y-154882500D01*
X91217200Y-154882501D01*
X91050668Y-154937685D01*
X91050663Y-154937687D01*
X90901342Y-155029789D01*
X90777289Y-155153842D01*
X90685187Y-155303163D01*
X90685185Y-155303168D01*
X90678886Y-155322178D01*
X90630001Y-155469703D01*
X90630001Y-155469704D01*
X90630000Y-155469704D01*
X90619500Y-155572483D01*
X73426430Y-155572483D01*
X72919987Y-155066041D01*
X72980390Y-155041022D01*
X73086851Y-154969888D01*
X73177388Y-154879351D01*
X73248522Y-154772890D01*
X73273541Y-154712487D01*
X74109776Y-155548723D01*
X74109779Y-155548723D01*
X74151888Y-155493847D01*
X74151888Y-155493846D01*
X74172352Y-155467176D01*
X74290334Y-155262828D01*
X74290339Y-155262819D01*
X74380629Y-155044837D01*
X74441700Y-154816914D01*
X74472499Y-154582985D01*
X74472500Y-154582971D01*
X74472500Y-154347028D01*
X74472499Y-154347014D01*
X74441700Y-154113085D01*
X74380629Y-153885162D01*
X74290339Y-153667180D01*
X74290334Y-153667171D01*
X74172355Y-153462828D01*
X74172354Y-153462827D01*
X74109777Y-153381275D01*
X73273541Y-154217511D01*
X73248522Y-154157110D01*
X73177388Y-154050649D01*
X73086851Y-153960112D01*
X72980390Y-153888978D01*
X72919988Y-153863958D01*
X73756223Y-153027721D01*
X73674672Y-152965145D01*
X73674671Y-152965144D01*
X73470328Y-152847165D01*
X73470319Y-152847160D01*
X73252336Y-152756870D01*
X73252338Y-152756870D01*
X73024414Y-152695799D01*
X72790485Y-152665000D01*
X72554514Y-152665000D01*
X72320585Y-152695799D01*
X72092662Y-152756870D01*
X71874680Y-152847160D01*
X71874671Y-152847165D01*
X71670328Y-152965144D01*
X71670318Y-152965150D01*
X71588775Y-153027720D01*
X71588775Y-153027721D01*
X72425012Y-153863958D01*
X72364610Y-153888978D01*
X72258149Y-153960112D01*
X72167612Y-154050649D01*
X72096478Y-154157110D01*
X72071458Y-154217511D01*
X71235221Y-153381275D01*
X71235220Y-153381275D01*
X71172650Y-153462818D01*
X71172644Y-153462828D01*
X71054665Y-153667171D01*
X71054660Y-153667180D01*
X70964370Y-153885162D01*
X70903299Y-154113085D01*
X70872500Y-154347014D01*
X52500500Y-154347014D01*
X52500500Y-136173920D01*
X55349499Y-136173920D01*
X55378340Y-136318907D01*
X55378343Y-136318917D01*
X55434914Y-136455492D01*
X55467812Y-136504727D01*
X55467813Y-136504730D01*
X55517046Y-136578414D01*
X55517052Y-136578421D01*
X61713181Y-142774549D01*
X61746666Y-142835872D01*
X61749500Y-142862230D01*
X61749500Y-149073918D01*
X61749500Y-149073920D01*
X61749499Y-149073920D01*
X61778340Y-149218907D01*
X61778343Y-149218917D01*
X61834913Y-149355489D01*
X61834914Y-149355491D01*
X61834916Y-149355495D01*
X61847613Y-149374498D01*
X61847614Y-149374501D01*
X61917046Y-149478414D01*
X61917052Y-149478421D01*
X63917049Y-151478416D01*
X64021583Y-151582950D01*
X64021585Y-151582952D01*
X64144498Y-151665080D01*
X64144511Y-151665087D01*
X64281082Y-151721656D01*
X64281087Y-151721658D01*
X64281091Y-151721658D01*
X64281092Y-151721659D01*
X64426079Y-151750500D01*
X64426082Y-151750500D01*
X75073920Y-151750500D01*
X75171462Y-151731096D01*
X75218913Y-151721658D01*
X75355495Y-151665084D01*
X75404729Y-151632186D01*
X75478416Y-151582952D01*
X77082951Y-149978416D01*
X77165084Y-149855495D01*
X77221658Y-149718913D01*
X77250500Y-149573918D01*
X77250500Y-149426083D01*
X77250500Y-132181515D01*
X78394500Y-132181515D01*
X78394500Y-132418484D01*
X78421328Y-132587872D01*
X78431571Y-132652539D01*
X78504799Y-132877911D01*
X78612381Y-133089054D01*
X78751669Y-133280767D01*
X78919233Y-133448331D01*
X79110946Y-133587619D01*
X79322089Y-133695201D01*
X79547461Y-133768429D01*
X79781515Y-133805500D01*
X79781516Y-133805500D01*
X80018484Y-133805500D01*
X80018485Y-133805500D01*
X80252539Y-133768429D01*
X80477911Y-133695201D01*
X80689054Y-133587619D01*
X80880767Y-133448331D01*
X80947583Y-133381515D01*
X83494500Y-133381515D01*
X83494500Y-133618484D01*
X83524120Y-133805500D01*
X83531571Y-133852539D01*
X83604799Y-134077911D01*
X83712381Y-134289054D01*
X83851669Y-134480767D01*
X84019233Y-134648331D01*
X84210946Y-134787619D01*
X84422089Y-134895201D01*
X84647461Y-134968429D01*
X84881515Y-135005500D01*
X84881516Y-135005500D01*
X85118484Y-135005500D01*
X85118485Y-135005500D01*
X85352539Y-134968429D01*
X85577911Y-134895201D01*
X85789054Y-134787619D01*
X85980767Y-134648331D01*
X86148331Y-134480767D01*
X86287619Y-134289054D01*
X86395201Y-134077911D01*
X86468429Y-133852539D01*
X86505500Y-133618485D01*
X86505500Y-133381515D01*
X86468429Y-133147461D01*
X86395201Y-132922089D01*
X86287619Y-132710946D01*
X86148331Y-132519233D01*
X85980767Y-132351669D01*
X85789054Y-132212381D01*
X85577911Y-132104799D01*
X85352539Y-132031571D01*
X85352537Y-132031570D01*
X85352535Y-132031570D01*
X85189115Y-132005686D01*
X85118485Y-131994500D01*
X84881515Y-131994500D01*
X84827257Y-132003093D01*
X84647464Y-132031570D01*
X84422086Y-132104800D01*
X84210945Y-132212381D01*
X84101566Y-132291850D01*
X84019233Y-132351669D01*
X84019231Y-132351671D01*
X84019230Y-132351671D01*
X83851671Y-132519230D01*
X83851671Y-132519231D01*
X83851669Y-132519233D01*
X83823637Y-132557816D01*
X83712381Y-132710945D01*
X83604800Y-132922086D01*
X83604799Y-132922088D01*
X83604799Y-132922089D01*
X83601022Y-132933713D01*
X83531570Y-133147464D01*
X83494500Y-133381515D01*
X80947583Y-133381515D01*
X81048331Y-133280767D01*
X81187619Y-133089054D01*
X81295201Y-132877911D01*
X81368429Y-132652539D01*
X81405500Y-132418485D01*
X81405500Y-132181515D01*
X81368429Y-131947461D01*
X81295201Y-131722089D01*
X81187619Y-131510946D01*
X81048331Y-131319233D01*
X80880767Y-131151669D01*
X80689054Y-131012381D01*
X80477911Y-130904799D01*
X80252539Y-130831571D01*
X80252537Y-130831570D01*
X80252535Y-130831570D01*
X80089115Y-130805686D01*
X80018485Y-130794500D01*
X79781515Y-130794500D01*
X79727257Y-130803093D01*
X79547464Y-130831570D01*
X79322086Y-130904800D01*
X79110945Y-131012381D01*
X79001566Y-131091850D01*
X78919233Y-131151669D01*
X78919231Y-131151671D01*
X78919230Y-131151671D01*
X78751671Y-131319230D01*
X78751671Y-131319231D01*
X78751669Y-131319233D01*
X78707675Y-131379786D01*
X78612381Y-131510945D01*
X78504800Y-131722086D01*
X78431570Y-131947464D01*
X78394500Y-132181515D01*
X77250500Y-132181515D01*
X77250500Y-122726082D01*
X77250500Y-122726079D01*
X77221659Y-122581092D01*
X77221658Y-122581091D01*
X77221658Y-122581087D01*
X77221656Y-122581082D01*
X77165086Y-122444509D01*
X77165085Y-122444507D01*
X77132186Y-122395270D01*
X77132185Y-122395268D01*
X77082956Y-122321589D01*
X77082952Y-122321584D01*
X72870175Y-118108807D01*
X72868280Y-118105337D01*
X72864934Y-118103232D01*
X72851673Y-118074924D01*
X72836690Y-118047484D01*
X72836488Y-118042506D01*
X72835295Y-118039960D01*
X72835353Y-118014540D01*
X72834953Y-118004668D01*
X72835147Y-118003212D01*
X72850500Y-117906287D01*
X72850500Y-117899983D01*
X79199500Y-117899983D01*
X79199500Y-119100001D01*
X79199501Y-119100018D01*
X79210000Y-119202796D01*
X79210001Y-119202799D01*
X79227712Y-119256246D01*
X79265186Y-119369334D01*
X79357288Y-119518656D01*
X79481344Y-119642712D01*
X79630666Y-119734814D01*
X79797203Y-119789999D01*
X79899991Y-119800500D01*
X81100008Y-119800499D01*
X81202797Y-119789999D01*
X81369334Y-119734814D01*
X81518656Y-119642712D01*
X81642712Y-119518656D01*
X81734814Y-119369334D01*
X81789999Y-119202797D01*
X81800500Y-119100009D01*
X81800499Y-118397682D01*
X82700000Y-118397682D01*
X82700000Y-118602317D01*
X82732009Y-118804417D01*
X82795244Y-118999031D01*
X82888141Y-119181350D01*
X82888147Y-119181359D01*
X82920523Y-119225921D01*
X82920524Y-119225922D01*
X83600000Y-118546446D01*
X83600000Y-118552661D01*
X83627259Y-118654394D01*
X83679920Y-118745606D01*
X83754394Y-118820080D01*
X83845606Y-118872741D01*
X83947339Y-118900000D01*
X83953553Y-118900000D01*
X83274076Y-119579474D01*
X83318650Y-119611859D01*
X83500968Y-119704755D01*
X83695582Y-119767990D01*
X83897683Y-119800000D01*
X84102317Y-119800000D01*
X84304417Y-119767990D01*
X84499031Y-119704755D01*
X84681349Y-119611859D01*
X84725921Y-119579474D01*
X84046447Y-118900000D01*
X84052661Y-118900000D01*
X84154394Y-118872741D01*
X84245606Y-118820080D01*
X84320080Y-118745606D01*
X84372741Y-118654394D01*
X84400000Y-118552661D01*
X84400000Y-118546447D01*
X85079474Y-119225921D01*
X85111859Y-119181349D01*
X85204755Y-118999031D01*
X85267990Y-118804417D01*
X85300000Y-118602317D01*
X85300000Y-118397682D01*
X85267990Y-118195582D01*
X85204755Y-118000968D01*
X85111859Y-117818650D01*
X85079474Y-117774077D01*
X85079474Y-117774076D01*
X84400000Y-118453551D01*
X84400000Y-118447339D01*
X84372741Y-118345606D01*
X84320080Y-118254394D01*
X84245606Y-118179920D01*
X84154394Y-118127259D01*
X84052661Y-118100000D01*
X84046446Y-118100000D01*
X84725922Y-117420524D01*
X84725921Y-117420523D01*
X84681359Y-117388147D01*
X84681350Y-117388141D01*
X84499031Y-117295244D01*
X84304417Y-117232009D01*
X84102317Y-117200000D01*
X83897683Y-117200000D01*
X83695582Y-117232009D01*
X83500968Y-117295244D01*
X83318644Y-117388143D01*
X83274077Y-117420523D01*
X83274077Y-117420524D01*
X83953554Y-118100000D01*
X83947339Y-118100000D01*
X83845606Y-118127259D01*
X83754394Y-118179920D01*
X83679920Y-118254394D01*
X83627259Y-118345606D01*
X83600000Y-118447339D01*
X83600000Y-118453553D01*
X82920524Y-117774077D01*
X82920523Y-117774077D01*
X82888143Y-117818644D01*
X82795244Y-118000968D01*
X82732009Y-118195582D01*
X82700000Y-118397682D01*
X81800499Y-118397682D01*
X81800499Y-117899992D01*
X81789999Y-117797203D01*
X81734814Y-117630666D01*
X81714461Y-117597669D01*
X81674500Y-117532881D01*
X81674499Y-117532880D01*
X81659081Y-117507883D01*
X81642712Y-117481344D01*
X81518656Y-117357288D01*
X81369334Y-117265186D01*
X81202797Y-117210001D01*
X81202795Y-117210000D01*
X81100010Y-117199500D01*
X79899998Y-117199500D01*
X79899981Y-117199501D01*
X79797203Y-117210000D01*
X79797200Y-117210001D01*
X79630668Y-117265185D01*
X79630663Y-117265187D01*
X79481342Y-117357289D01*
X79357289Y-117481342D01*
X79265187Y-117630663D01*
X79265185Y-117630668D01*
X79241437Y-117702335D01*
X79210001Y-117797203D01*
X79210001Y-117797204D01*
X79210000Y-117797204D01*
X79199500Y-117899983D01*
X72850500Y-117899983D01*
X72850500Y-117693713D01*
X72817246Y-117483757D01*
X72751557Y-117281588D01*
X72655051Y-117092184D01*
X72655049Y-117092181D01*
X72655048Y-117092179D01*
X72530109Y-116920213D01*
X72379786Y-116769890D01*
X72207820Y-116644951D01*
X72207115Y-116644591D01*
X72199054Y-116640485D01*
X72148259Y-116592512D01*
X72131463Y-116524692D01*
X72153999Y-116458556D01*
X72199054Y-116419515D01*
X72207816Y-116415051D01*
X72229789Y-116399086D01*
X72379786Y-116290109D01*
X72379788Y-116290106D01*
X72379792Y-116290104D01*
X72530104Y-116139792D01*
X72530106Y-116139788D01*
X72530109Y-116139786D01*
X72655048Y-115967820D01*
X72655047Y-115967820D01*
X72655051Y-115967816D01*
X72751557Y-115778412D01*
X72817246Y-115576243D01*
X72850500Y-115366287D01*
X72850500Y-115153713D01*
X72817246Y-114943757D01*
X72751557Y-114741588D01*
X72655051Y-114552184D01*
X72655049Y-114552181D01*
X72655048Y-114552179D01*
X72530109Y-114380213D01*
X72379786Y-114229890D01*
X72207820Y-114104951D01*
X72207115Y-114104591D01*
X72199054Y-114100485D01*
X72148259Y-114052512D01*
X72131463Y-113984692D01*
X72153999Y-113918556D01*
X72199054Y-113879515D01*
X72207816Y-113875051D01*
X72229789Y-113859086D01*
X72379786Y-113750109D01*
X72379788Y-113750106D01*
X72379792Y-113750104D01*
X72530104Y-113599792D01*
X72530106Y-113599788D01*
X72530109Y-113599786D01*
X72655048Y-113427820D01*
X72655047Y-113427820D01*
X72655051Y-113427816D01*
X72751557Y-113238412D01*
X72817246Y-113036243D01*
X72850500Y-112826287D01*
X72850500Y-112613713D01*
X72817246Y-112403757D01*
X72751557Y-112201588D01*
X72655051Y-112012184D01*
X72655049Y-112012181D01*
X72655048Y-112012179D01*
X72530109Y-111840213D01*
X72379786Y-111689890D01*
X72207820Y-111564951D01*
X72207115Y-111564591D01*
X72199054Y-111560485D01*
X72148259Y-111512512D01*
X72131463Y-111444692D01*
X72153999Y-111378556D01*
X72199054Y-111339515D01*
X72207816Y-111335051D01*
X72229789Y-111319086D01*
X72379786Y-111210109D01*
X72379788Y-111210106D01*
X72379792Y-111210104D01*
X72530104Y-111059792D01*
X72530106Y-111059788D01*
X72530109Y-111059786D01*
X72655048Y-110887820D01*
X72655047Y-110887820D01*
X72655051Y-110887816D01*
X72751557Y-110698412D01*
X72817246Y-110496243D01*
X72850500Y-110286287D01*
X72850500Y-110073713D01*
X72817246Y-109863757D01*
X72751557Y-109661588D01*
X72655051Y-109472184D01*
X72655049Y-109472181D01*
X72655048Y-109472179D01*
X72530109Y-109300213D01*
X72379786Y-109149890D01*
X72207820Y-109024951D01*
X72207115Y-109024591D01*
X72199054Y-109020485D01*
X72148259Y-108972512D01*
X72131463Y-108904692D01*
X72153999Y-108838556D01*
X72199054Y-108799515D01*
X72207816Y-108795051D01*
X72352760Y-108689744D01*
X72379786Y-108670109D01*
X72379792Y-108670104D01*
X72530104Y-108519792D01*
X72530106Y-108519788D01*
X72530109Y-108519786D01*
X72655048Y-108347820D01*
X72655047Y-108347820D01*
X72655051Y-108347816D01*
X72751557Y-108158412D01*
X72817246Y-107956243D01*
X72850500Y-107746287D01*
X72850500Y-107533713D01*
X72817246Y-107323757D01*
X72751557Y-107121588D01*
X72655051Y-106932184D01*
X72655049Y-106932181D01*
X72655048Y-106932179D01*
X72530109Y-106760213D01*
X72379786Y-106609890D01*
X72207820Y-106484951D01*
X72207115Y-106484591D01*
X72199054Y-106480485D01*
X72148259Y-106432512D01*
X72131463Y-106364692D01*
X72153999Y-106298556D01*
X72199054Y-106259515D01*
X72207816Y-106255051D01*
X72249317Y-106224899D01*
X72379786Y-106130109D01*
X72379788Y-106130106D01*
X72379792Y-106130104D01*
X72530104Y-105979792D01*
X72530106Y-105979788D01*
X72530109Y-105979786D01*
X72655048Y-105807820D01*
X72655047Y-105807820D01*
X72655051Y-105807816D01*
X72751557Y-105618412D01*
X72817246Y-105416243D01*
X72850500Y-105206287D01*
X72850500Y-104993713D01*
X72817246Y-104783757D01*
X72751557Y-104581588D01*
X72655051Y-104392184D01*
X72655049Y-104392181D01*
X72655048Y-104392179D01*
X72530109Y-104220213D01*
X72379786Y-104069890D01*
X72207820Y-103944951D01*
X72207115Y-103944591D01*
X72199054Y-103940485D01*
X72148259Y-103892512D01*
X72131463Y-103824692D01*
X72153999Y-103758556D01*
X72199054Y-103719515D01*
X72207816Y-103715051D01*
X72337504Y-103620828D01*
X72379786Y-103590109D01*
X72379788Y-103590106D01*
X72379792Y-103590104D01*
X72530104Y-103439792D01*
X72530106Y-103439788D01*
X72530109Y-103439786D01*
X72655048Y-103267820D01*
X72655050Y-103267817D01*
X72655051Y-103267816D01*
X72751557Y-103078412D01*
X72817246Y-102876243D01*
X72850500Y-102666287D01*
X72850500Y-102453713D01*
X72817246Y-102243757D01*
X72751557Y-102041588D01*
X72655051Y-101852184D01*
X72655049Y-101852181D01*
X72655048Y-101852179D01*
X72530109Y-101680213D01*
X72379786Y-101529890D01*
X72207820Y-101404951D01*
X72199600Y-101400763D01*
X72199054Y-101400485D01*
X72148259Y-101352512D01*
X72131463Y-101284692D01*
X72153999Y-101218556D01*
X72199054Y-101179515D01*
X72207816Y-101175051D01*
X72229789Y-101159086D01*
X72379786Y-101050109D01*
X72379788Y-101050106D01*
X72379792Y-101050104D01*
X72530104Y-100899792D01*
X72530106Y-100899788D01*
X72530109Y-100899786D01*
X72655048Y-100727820D01*
X72655047Y-100727820D01*
X72655051Y-100727816D01*
X72751557Y-100538412D01*
X72817246Y-100336243D01*
X72850500Y-100126287D01*
X72850500Y-99913713D01*
X72817246Y-99703757D01*
X72751557Y-99501588D01*
X72655051Y-99312184D01*
X72655049Y-99312181D01*
X72655048Y-99312179D01*
X72530109Y-99140213D01*
X72416569Y-99026673D01*
X72383084Y-98965350D01*
X72388068Y-98895658D01*
X72429940Y-98839725D01*
X72460915Y-98822810D01*
X72592331Y-98773796D01*
X72707546Y-98687546D01*
X72793796Y-98572331D01*
X72844091Y-98437483D01*
X72850500Y-98377873D01*
X72850499Y-96582128D01*
X72844091Y-96522517D01*
X72842810Y-96519083D01*
X72793797Y-96387671D01*
X72793793Y-96387664D01*
X72707547Y-96272455D01*
X72707544Y-96272452D01*
X72592335Y-96186206D01*
X72592328Y-96186202D01*
X72457482Y-96135908D01*
X72457483Y-96135908D01*
X72397883Y-96129501D01*
X72397881Y-96129500D01*
X72397873Y-96129500D01*
X72397864Y-96129500D01*
X70602129Y-96129500D01*
X70602123Y-96129501D01*
X70542516Y-96135908D01*
X70407671Y-96186202D01*
X70407664Y-96186206D01*
X70292455Y-96272452D01*
X70292452Y-96272455D01*
X70206206Y-96387664D01*
X70206203Y-96387669D01*
X70157189Y-96519083D01*
X70115317Y-96575016D01*
X70049853Y-96599433D01*
X69981580Y-96584581D01*
X69953326Y-96563430D01*
X69839786Y-96449890D01*
X69667820Y-96324951D01*
X69478414Y-96228444D01*
X69478413Y-96228443D01*
X69478412Y-96228443D01*
X69276243Y-96162754D01*
X69276241Y-96162753D01*
X69276240Y-96162753D01*
X69114957Y-96137208D01*
X69066287Y-96129500D01*
X68853713Y-96129500D01*
X68805042Y-96137208D01*
X68643760Y-96162753D01*
X68441585Y-96228444D01*
X68252179Y-96324951D01*
X68080213Y-96449890D01*
X67929890Y-96600213D01*
X67804951Y-96772179D01*
X67708444Y-96961585D01*
X67642753Y-97163760D01*
X67609500Y-97373713D01*
X67609500Y-97586286D01*
X67638509Y-97769446D01*
X67642754Y-97796243D01*
X67707245Y-97994726D01*
X67708444Y-97998414D01*
X67804951Y-98187820D01*
X67929890Y-98359785D01*
X67929894Y-98359790D01*
X68080213Y-98510109D01*
X68252182Y-98635050D01*
X68260946Y-98639516D01*
X68311742Y-98687491D01*
X68328536Y-98755312D01*
X68305998Y-98821447D01*
X68260946Y-98860484D01*
X68252182Y-98864949D01*
X68080213Y-98989890D01*
X67929890Y-99140213D01*
X67804951Y-99312179D01*
X67708444Y-99501585D01*
X67642753Y-99703760D01*
X67609500Y-99913713D01*
X67609500Y-100126286D01*
X67637329Y-100301995D01*
X67642754Y-100336243D01*
X67708310Y-100538004D01*
X67708444Y-100538414D01*
X67804951Y-100727820D01*
X67929890Y-100899786D01*
X68080213Y-101050109D01*
X68252179Y-101175048D01*
X68252181Y-101175049D01*
X68252184Y-101175051D01*
X68261493Y-101179794D01*
X68312290Y-101227766D01*
X68329087Y-101295587D01*
X68306552Y-101361722D01*
X68261505Y-101400760D01*
X68252446Y-101405376D01*
X68252440Y-101405380D01*
X68198282Y-101444727D01*
X68198282Y-101444728D01*
X68830591Y-102077037D01*
X68767007Y-102094075D01*
X68652993Y-102159901D01*
X68559901Y-102252993D01*
X68494075Y-102367007D01*
X68477037Y-102430591D01*
X67844728Y-101798282D01*
X67844727Y-101798282D01*
X67805380Y-101852439D01*
X67708904Y-102041782D01*
X67643242Y-102243869D01*
X67643242Y-102243872D01*
X67610000Y-102453753D01*
X67610000Y-102666246D01*
X67643242Y-102876127D01*
X67643242Y-102876130D01*
X67708904Y-103078217D01*
X67805375Y-103267550D01*
X67844728Y-103321716D01*
X68477037Y-102689408D01*
X68494075Y-102752993D01*
X68559901Y-102867007D01*
X68652993Y-102960099D01*
X68767007Y-103025925D01*
X68830590Y-103042962D01*
X68198282Y-103675269D01*
X68198282Y-103675270D01*
X68252452Y-103714626D01*
X68252451Y-103714626D01*
X68261495Y-103719234D01*
X68312292Y-103767208D01*
X68329087Y-103835029D01*
X68306550Y-103901164D01*
X68261499Y-103940202D01*
X68252182Y-103944949D01*
X68080213Y-104069890D01*
X67929890Y-104220213D01*
X67802085Y-104396125D01*
X67800740Y-104395148D01*
X67754295Y-104437166D01*
X67700382Y-104449500D01*
X66920807Y-104449500D01*
X66853768Y-104429815D01*
X66833131Y-104413185D01*
X66686816Y-104266871D01*
X66653334Y-104205550D01*
X66650500Y-104179192D01*
X66650500Y-94820807D01*
X66670185Y-94753768D01*
X66686819Y-94733126D01*
X68233126Y-93186819D01*
X68294449Y-93153334D01*
X68320807Y-93150500D01*
X72679192Y-93150500D01*
X72746231Y-93170185D01*
X72766873Y-93186819D01*
X73313181Y-93733127D01*
X73346666Y-93794450D01*
X73349500Y-93820808D01*
X73349500Y-108564069D01*
X73349500Y-108564071D01*
X73349499Y-108564071D01*
X73370592Y-108670104D01*
X73372268Y-108678532D01*
X73374498Y-108689743D01*
X73418117Y-108795048D01*
X73423535Y-108808127D01*
X73494723Y-108914669D01*
X73494726Y-108914673D01*
X76585326Y-112005273D01*
X76585329Y-112005275D01*
X76585331Y-112005277D01*
X76608782Y-112020946D01*
X76691876Y-112076467D01*
X76775100Y-112110939D01*
X76829504Y-112154780D01*
X76851569Y-112221074D01*
X76834290Y-112288773D01*
X76783153Y-112336384D01*
X76727648Y-112349500D01*
X76386878Y-112349500D01*
X76319839Y-112329815D01*
X76274084Y-112277011D01*
X76272215Y-112272069D01*
X76272068Y-112272131D01*
X76266359Y-112258349D01*
X76242847Y-112201585D01*
X76209397Y-112120827D01*
X76209390Y-112120814D01*
X76121789Y-111989711D01*
X76121786Y-111989707D01*
X76010292Y-111878213D01*
X76010288Y-111878210D01*
X75879185Y-111790609D01*
X75879172Y-111790602D01*
X75733501Y-111730264D01*
X75733489Y-111730261D01*
X75578845Y-111699500D01*
X75578842Y-111699500D01*
X75421158Y-111699500D01*
X75421155Y-111699500D01*
X75266510Y-111730261D01*
X75266498Y-111730264D01*
X75120827Y-111790602D01*
X75120814Y-111790609D01*
X74989711Y-111878210D01*
X74989707Y-111878213D01*
X74878213Y-111989707D01*
X74878210Y-111989711D01*
X74790609Y-112120814D01*
X74790602Y-112120827D01*
X74730264Y-112266498D01*
X74730261Y-112266510D01*
X74699500Y-112421153D01*
X74699500Y-112578846D01*
X74730261Y-112733489D01*
X74730264Y-112733501D01*
X74790602Y-112879172D01*
X74790606Y-112879179D01*
X74828602Y-112936044D01*
X74849480Y-113002721D01*
X74849500Y-113004935D01*
X74849500Y-113064069D01*
X74849500Y-113064071D01*
X74849499Y-113064071D01*
X74874497Y-113189738D01*
X74874499Y-113189744D01*
X74923533Y-113308124D01*
X74923538Y-113308133D01*
X74994723Y-113414668D01*
X74994726Y-113414672D01*
X75085327Y-113505273D01*
X75085331Y-113505276D01*
X75191866Y-113576461D01*
X75191872Y-113576464D01*
X75191873Y-113576465D01*
X75310256Y-113625501D01*
X75310260Y-113625501D01*
X75310261Y-113625502D01*
X75435928Y-113650500D01*
X75435931Y-113650500D01*
X106064071Y-113650500D01*
X106148615Y-113633682D01*
X106189744Y-113625501D01*
X106308127Y-113576465D01*
X106414669Y-113505277D01*
X112287821Y-107632124D01*
X112349142Y-107598641D01*
X112418834Y-107603625D01*
X112474767Y-107645497D01*
X112499184Y-107710961D01*
X112499500Y-107719807D01*
X112499500Y-109727870D01*
X112499501Y-109727876D01*
X112505908Y-109787483D01*
X112550361Y-109906667D01*
X112555345Y-109976359D01*
X112550361Y-109993333D01*
X112505908Y-110112517D01*
X112499501Y-110172116D01*
X112499501Y-110172123D01*
X112499500Y-110172135D01*
X112499500Y-112267870D01*
X112499501Y-112267876D01*
X112505908Y-112327483D01*
X112550361Y-112446667D01*
X112555345Y-112516359D01*
X112550361Y-112533333D01*
X112505908Y-112652517D01*
X112499501Y-112712116D01*
X112499501Y-112712123D01*
X112499500Y-112712135D01*
X112499500Y-114807870D01*
X112499501Y-114807876D01*
X112505908Y-114867483D01*
X112550361Y-114986667D01*
X112555345Y-115056359D01*
X112550361Y-115073333D01*
X112505908Y-115192517D01*
X112499501Y-115252116D01*
X112499501Y-115252123D01*
X112499500Y-115252135D01*
X112499500Y-117347870D01*
X112499501Y-117347876D01*
X112505908Y-117407483D01*
X112550361Y-117526667D01*
X112555345Y-117596359D01*
X112550361Y-117613333D01*
X112505908Y-117732517D01*
X112499501Y-117792116D01*
X112499501Y-117792123D01*
X112499500Y-117792135D01*
X112499500Y-119887870D01*
X112499501Y-119887876D01*
X112505908Y-119947483D01*
X112550361Y-120066667D01*
X112555345Y-120136359D01*
X112550361Y-120153333D01*
X112505908Y-120272517D01*
X112501961Y-120309234D01*
X112499501Y-120332123D01*
X112499500Y-120332135D01*
X112499500Y-122427870D01*
X112499501Y-122427876D01*
X112505908Y-122487483D01*
X112550361Y-122606667D01*
X112555345Y-122676359D01*
X112550361Y-122693333D01*
X112505908Y-122812517D01*
X112502411Y-122845048D01*
X112499501Y-122872123D01*
X112499500Y-122872135D01*
X112499500Y-124967870D01*
X112499501Y-124967876D01*
X112505908Y-125027483D01*
X112550361Y-125146667D01*
X112555345Y-125216359D01*
X112550361Y-125233333D01*
X112505908Y-125352517D01*
X112502411Y-125385048D01*
X112499501Y-125412123D01*
X112499500Y-125412135D01*
X112499500Y-127507870D01*
X112499501Y-127507876D01*
X112505908Y-127567483D01*
X112550361Y-127686667D01*
X112555345Y-127756359D01*
X112550361Y-127773333D01*
X112505908Y-127892517D01*
X112502411Y-127925048D01*
X112499501Y-127952123D01*
X112499500Y-127952135D01*
X112499500Y-130047870D01*
X112499501Y-130047876D01*
X112505908Y-130107483D01*
X112550361Y-130226667D01*
X112555345Y-130296359D01*
X112550361Y-130313333D01*
X112505908Y-130432517D01*
X112502411Y-130465048D01*
X112499501Y-130492123D01*
X112499500Y-130492135D01*
X112499500Y-132587870D01*
X112499501Y-132587876D01*
X112505908Y-132647483D01*
X112550361Y-132766667D01*
X112555345Y-132836359D01*
X112550361Y-132853333D01*
X112505908Y-132972517D01*
X112499501Y-133032116D01*
X112499501Y-133032123D01*
X112499500Y-133032135D01*
X112499500Y-135127870D01*
X112499501Y-135127876D01*
X112505908Y-135187483D01*
X112550361Y-135306667D01*
X112555345Y-135376359D01*
X112550361Y-135393333D01*
X112505908Y-135512517D01*
X112502656Y-135542769D01*
X112499501Y-135572123D01*
X112499500Y-135572135D01*
X112499500Y-137667870D01*
X112499501Y-137667876D01*
X112505908Y-137727483D01*
X112550361Y-137846667D01*
X112555345Y-137916359D01*
X112550361Y-137933333D01*
X112505908Y-138052517D01*
X112502656Y-138082769D01*
X112499501Y-138112123D01*
X112499500Y-138112135D01*
X112499500Y-140207870D01*
X112499501Y-140207876D01*
X112505908Y-140267483D01*
X112550361Y-140386667D01*
X112555345Y-140456359D01*
X112550361Y-140473333D01*
X112505908Y-140592517D01*
X112499501Y-140652116D01*
X112499501Y-140652123D01*
X112499500Y-140652135D01*
X112499500Y-142747870D01*
X112499501Y-142747876D01*
X112505908Y-142807483D01*
X112550361Y-142926667D01*
X112555345Y-142996359D01*
X112550361Y-143013333D01*
X112505908Y-143132517D01*
X112499501Y-143192116D01*
X112499501Y-143192123D01*
X112499500Y-143192135D01*
X112499500Y-145287870D01*
X112499501Y-145287876D01*
X112505908Y-145347483D01*
X112556202Y-145482328D01*
X112556206Y-145482335D01*
X112642452Y-145597544D01*
X112642455Y-145597547D01*
X112757664Y-145683793D01*
X112757671Y-145683797D01*
X112892517Y-145734091D01*
X112892516Y-145734091D01*
X112899444Y-145734835D01*
X112952127Y-145740500D01*
X115047872Y-145740499D01*
X115107483Y-145734091D01*
X115242331Y-145683796D01*
X115357546Y-145597546D01*
X115443796Y-145482331D01*
X115494091Y-145347483D01*
X115500500Y-145287873D01*
X115500499Y-143192128D01*
X115494091Y-143132517D01*
X115449637Y-143013332D01*
X115444654Y-142943642D01*
X115449638Y-142926667D01*
X115494091Y-142807483D01*
X115500500Y-142747873D01*
X115500499Y-140652128D01*
X115494103Y-140592627D01*
X115494091Y-140592516D01*
X115449638Y-140473333D01*
X115444654Y-140403642D01*
X115449638Y-140386667D01*
X115494091Y-140267483D01*
X115500500Y-140207873D01*
X115500499Y-138112128D01*
X115494091Y-138052517D01*
X115449637Y-137933332D01*
X115444654Y-137863642D01*
X115449638Y-137846667D01*
X115459689Y-137819720D01*
X115494091Y-137727483D01*
X115500500Y-137667873D01*
X115500499Y-135572128D01*
X115494091Y-135512517D01*
X115449637Y-135393332D01*
X115444654Y-135323642D01*
X115449638Y-135306667D01*
X115459689Y-135279720D01*
X115494091Y-135187483D01*
X115500500Y-135127873D01*
X115500499Y-133032128D01*
X115494091Y-132972517D01*
X115478304Y-132930191D01*
X115449638Y-132853333D01*
X115444654Y-132783642D01*
X115449638Y-132766667D01*
X115494091Y-132647483D01*
X115500500Y-132587873D01*
X115500499Y-130492128D01*
X115494091Y-130432517D01*
X115449637Y-130313332D01*
X115444654Y-130243642D01*
X115449638Y-130226667D01*
X115494091Y-130107483D01*
X115500500Y-130047873D01*
X115500499Y-127952128D01*
X115494091Y-127892517D01*
X115449637Y-127773332D01*
X115444654Y-127703642D01*
X115449638Y-127686667D01*
X115494091Y-127567483D01*
X115500500Y-127507873D01*
X115500499Y-125412128D01*
X115494091Y-125352517D01*
X115449637Y-125233332D01*
X115444654Y-125163642D01*
X115449638Y-125146667D01*
X115458918Y-125121786D01*
X115494091Y-125027483D01*
X115500500Y-124967873D01*
X115500499Y-122872128D01*
X115494091Y-122812517D01*
X115449637Y-122693332D01*
X115444654Y-122623642D01*
X115449638Y-122606667D01*
X115459181Y-122581082D01*
X115494091Y-122487483D01*
X115500500Y-122427873D01*
X115500499Y-120332128D01*
X115494091Y-120272517D01*
X115449637Y-120153332D01*
X115444654Y-120083642D01*
X115449638Y-120066667D01*
X115462198Y-120032993D01*
X115494091Y-119947483D01*
X115500500Y-119887873D01*
X115500499Y-117792128D01*
X115494091Y-117732517D01*
X115482832Y-117702331D01*
X115449638Y-117613333D01*
X115444654Y-117543642D01*
X115449638Y-117526667D01*
X115456651Y-117507864D01*
X115494091Y-117407483D01*
X115500500Y-117347873D01*
X115500499Y-115252128D01*
X115494091Y-115192517D01*
X115449637Y-115073332D01*
X115444654Y-115003642D01*
X115449638Y-114986667D01*
X115494091Y-114867483D01*
X115500500Y-114807873D01*
X115500499Y-112712128D01*
X115494091Y-112652517D01*
X115449637Y-112533332D01*
X115444654Y-112463642D01*
X115449638Y-112446667D01*
X115494091Y-112327483D01*
X115500500Y-112267873D01*
X115500499Y-110172128D01*
X115494091Y-110112517D01*
X115449637Y-109993332D01*
X115444654Y-109923642D01*
X115449638Y-109906667D01*
X115494091Y-109787483D01*
X115500500Y-109727873D01*
X115500499Y-107632128D01*
X115494091Y-107572517D01*
X115449637Y-107453332D01*
X115444654Y-107383642D01*
X115449638Y-107366667D01*
X115494091Y-107247483D01*
X115500500Y-107187873D01*
X115500499Y-105092128D01*
X115494091Y-105032517D01*
X115485899Y-105010554D01*
X115450138Y-104914673D01*
X115449637Y-104913332D01*
X115444654Y-104843642D01*
X115449638Y-104826667D01*
X115456553Y-104808127D01*
X115494091Y-104707483D01*
X115500500Y-104647873D01*
X115500499Y-102552128D01*
X115494091Y-102492517D01*
X115449637Y-102373332D01*
X115444654Y-102303642D01*
X115449638Y-102286667D01*
X115463314Y-102250000D01*
X115494091Y-102167483D01*
X115500500Y-102107873D01*
X115500499Y-100012128D01*
X115494091Y-99952517D01*
X115449637Y-99833332D01*
X115444654Y-99763642D01*
X115449638Y-99746667D01*
X115494091Y-99627483D01*
X115500500Y-99567873D01*
X115500499Y-97472128D01*
X115494091Y-97412517D01*
X115449637Y-97293332D01*
X115444654Y-97223642D01*
X115449638Y-97206667D01*
X115494091Y-97087483D01*
X115500500Y-97027873D01*
X115500499Y-94932128D01*
X115494091Y-94872517D01*
X115474804Y-94820807D01*
X115469014Y-94805284D01*
X115449637Y-94753332D01*
X115444654Y-94683642D01*
X115449638Y-94666667D01*
X115494091Y-94547482D01*
X115500500Y-94487873D01*
X115500499Y-92392128D01*
X115494091Y-92332517D01*
X115449637Y-92213332D01*
X115444654Y-92143642D01*
X115449638Y-92126667D01*
X115465055Y-92085332D01*
X115494091Y-92007483D01*
X115500500Y-91947873D01*
X115500499Y-89852128D01*
X115494091Y-89792517D01*
X115449637Y-89673332D01*
X115444654Y-89603642D01*
X115449638Y-89586667D01*
X115494091Y-89467482D01*
X115500500Y-89407873D01*
X115500499Y-87312128D01*
X115494091Y-87252517D01*
X115449637Y-87133332D01*
X115444654Y-87063642D01*
X115449638Y-87046667D01*
X115494091Y-86927482D01*
X115500500Y-86867873D01*
X115500499Y-84772135D01*
X135499500Y-84772135D01*
X135499500Y-86867870D01*
X135499501Y-86867876D01*
X135505908Y-86927483D01*
X135550361Y-87046667D01*
X135555345Y-87116359D01*
X135550361Y-87133333D01*
X135505908Y-87252517D01*
X135499501Y-87312116D01*
X135499501Y-87312123D01*
X135499500Y-87312135D01*
X135499500Y-89407870D01*
X135499501Y-89407876D01*
X135505908Y-89467483D01*
X135550361Y-89586667D01*
X135555345Y-89656359D01*
X135550361Y-89673333D01*
X135505908Y-89792517D01*
X135505104Y-89800000D01*
X135499501Y-89852123D01*
X135499500Y-89852135D01*
X135499500Y-91947870D01*
X135499501Y-91947876D01*
X135505908Y-92007483D01*
X135550361Y-92126667D01*
X135555345Y-92196359D01*
X135550361Y-92213333D01*
X135505908Y-92332517D01*
X135499501Y-92392116D01*
X135499501Y-92392123D01*
X135499500Y-92392135D01*
X135499500Y-94487870D01*
X135499501Y-94487876D01*
X135505908Y-94547483D01*
X135550361Y-94666667D01*
X135555345Y-94736359D01*
X135550361Y-94753333D01*
X135505908Y-94872517D01*
X135499501Y-94932116D01*
X135499501Y-94932123D01*
X135499500Y-94932135D01*
X135499500Y-97027870D01*
X135499501Y-97027876D01*
X135505908Y-97087483D01*
X135550361Y-97206667D01*
X135555345Y-97276359D01*
X135550361Y-97293333D01*
X135505908Y-97412517D01*
X135499501Y-97472116D01*
X135499501Y-97472123D01*
X135499500Y-97472135D01*
X135499500Y-99567870D01*
X135499501Y-99567876D01*
X135505908Y-99627483D01*
X135550361Y-99746667D01*
X135555345Y-99816359D01*
X135550361Y-99833333D01*
X135505908Y-99952517D01*
X135499501Y-100012116D01*
X135499501Y-100012123D01*
X135499500Y-100012135D01*
X135499500Y-102107870D01*
X135499501Y-102107876D01*
X135505908Y-102167483D01*
X135550361Y-102286667D01*
X135555345Y-102356359D01*
X135550361Y-102373333D01*
X135505908Y-102492517D01*
X135505104Y-102500000D01*
X135499501Y-102552123D01*
X135499500Y-102552135D01*
X135499500Y-104647870D01*
X135499501Y-104647876D01*
X135505908Y-104707483D01*
X135550361Y-104826667D01*
X135555345Y-104896359D01*
X135550361Y-104913333D01*
X135505908Y-105032517D01*
X135499501Y-105092116D01*
X135499501Y-105092123D01*
X135499500Y-105092135D01*
X135499500Y-107187870D01*
X135499501Y-107187876D01*
X135505908Y-107247483D01*
X135550361Y-107366667D01*
X135555345Y-107436359D01*
X135550361Y-107453333D01*
X135505908Y-107572517D01*
X135503100Y-107598641D01*
X135499501Y-107632123D01*
X135499500Y-107632135D01*
X135499500Y-109727870D01*
X135499501Y-109727876D01*
X135505908Y-109787483D01*
X135550361Y-109906667D01*
X135555345Y-109976359D01*
X135550361Y-109993333D01*
X135505908Y-110112517D01*
X135499501Y-110172116D01*
X135499501Y-110172123D01*
X135499500Y-110172135D01*
X135499500Y-112267870D01*
X135499501Y-112267876D01*
X135505908Y-112327483D01*
X135550361Y-112446667D01*
X135555345Y-112516359D01*
X135550361Y-112533333D01*
X135505908Y-112652517D01*
X135499501Y-112712116D01*
X135499501Y-112712123D01*
X135499500Y-112712135D01*
X135499500Y-114807870D01*
X135499501Y-114807876D01*
X135505908Y-114867483D01*
X135550361Y-114986667D01*
X135555345Y-115056359D01*
X135550361Y-115073333D01*
X135505908Y-115192517D01*
X135499501Y-115252116D01*
X135499501Y-115252123D01*
X135499500Y-115252135D01*
X135499500Y-117347870D01*
X135499501Y-117347876D01*
X135505908Y-117407483D01*
X135550361Y-117526667D01*
X135555345Y-117596359D01*
X135550361Y-117613333D01*
X135505908Y-117732517D01*
X135499501Y-117792116D01*
X135499501Y-117792123D01*
X135499500Y-117792135D01*
X135499500Y-119887870D01*
X135499501Y-119887876D01*
X135505908Y-119947483D01*
X135550361Y-120066667D01*
X135555345Y-120136359D01*
X135550361Y-120153333D01*
X135505908Y-120272517D01*
X135501961Y-120309234D01*
X135499501Y-120332123D01*
X135499500Y-120332135D01*
X135499500Y-122427870D01*
X135499501Y-122427876D01*
X135505908Y-122487483D01*
X135550361Y-122606667D01*
X135555345Y-122676359D01*
X135550361Y-122693333D01*
X135505908Y-122812517D01*
X135502411Y-122845048D01*
X135499501Y-122872123D01*
X135499500Y-122872135D01*
X135499500Y-124967870D01*
X135499501Y-124967876D01*
X135505908Y-125027483D01*
X135550361Y-125146667D01*
X135555345Y-125216359D01*
X135550361Y-125233333D01*
X135505908Y-125352517D01*
X135502411Y-125385048D01*
X135499501Y-125412123D01*
X135499500Y-125412135D01*
X135499500Y-127507870D01*
X135499501Y-127507876D01*
X135505908Y-127567483D01*
X135550361Y-127686667D01*
X135555345Y-127756359D01*
X135550361Y-127773333D01*
X135505908Y-127892517D01*
X135502411Y-127925048D01*
X135499501Y-127952123D01*
X135499500Y-127952135D01*
X135499500Y-130047870D01*
X135499501Y-130047876D01*
X135505908Y-130107483D01*
X135550361Y-130226667D01*
X135555345Y-130296359D01*
X135550361Y-130313333D01*
X135505908Y-130432517D01*
X135502411Y-130465048D01*
X135499501Y-130492123D01*
X135499500Y-130492135D01*
X135499500Y-132587870D01*
X135499501Y-132587876D01*
X135505908Y-132647483D01*
X135550361Y-132766667D01*
X135555345Y-132836359D01*
X135550361Y-132853333D01*
X135505908Y-132972517D01*
X135499501Y-133032116D01*
X135499501Y-133032123D01*
X135499500Y-133032135D01*
X135499500Y-135127870D01*
X135499501Y-135127876D01*
X135505908Y-135187483D01*
X135550361Y-135306667D01*
X135555345Y-135376359D01*
X135550361Y-135393333D01*
X135505908Y-135512517D01*
X135502656Y-135542769D01*
X135499501Y-135572123D01*
X135499500Y-135572135D01*
X135499500Y-137667870D01*
X135499501Y-137667876D01*
X135505908Y-137727483D01*
X135550361Y-137846667D01*
X135555345Y-137916359D01*
X135550361Y-137933333D01*
X135505908Y-138052517D01*
X135502656Y-138082769D01*
X135499501Y-138112123D01*
X135499500Y-138112135D01*
X135499500Y-140207870D01*
X135499501Y-140207876D01*
X135505908Y-140267483D01*
X135550628Y-140387380D01*
X135555612Y-140457071D01*
X135550628Y-140474046D01*
X135506403Y-140592619D01*
X135506401Y-140592627D01*
X135500000Y-140652155D01*
X135500000Y-141450000D01*
X136566988Y-141450000D01*
X136534075Y-141507007D01*
X136500000Y-141634174D01*
X136500000Y-141765826D01*
X136534075Y-141892993D01*
X136566988Y-141950000D01*
X135500000Y-141950000D01*
X135500000Y-142747844D01*
X135506401Y-142807372D01*
X135506403Y-142807382D01*
X135550627Y-142925953D01*
X135555611Y-142995644D01*
X135550627Y-143012617D01*
X135505909Y-143132514D01*
X135505908Y-143132516D01*
X135499501Y-143192116D01*
X135499501Y-143192123D01*
X135499500Y-143192135D01*
X135499500Y-145287870D01*
X135499501Y-145287876D01*
X135505908Y-145347483D01*
X135556202Y-145482328D01*
X135556206Y-145482335D01*
X135642452Y-145597544D01*
X135642455Y-145597547D01*
X135757664Y-145683793D01*
X135757671Y-145683797D01*
X135892517Y-145734091D01*
X135892516Y-145734091D01*
X135899444Y-145734835D01*
X135952127Y-145740500D01*
X138047872Y-145740499D01*
X138107483Y-145734091D01*
X138242331Y-145683796D01*
X138357546Y-145597546D01*
X138443796Y-145482331D01*
X138494091Y-145347483D01*
X138500500Y-145287873D01*
X138500499Y-143192128D01*
X138494091Y-143132517D01*
X138449370Y-143012615D01*
X138444387Y-142942927D01*
X138449371Y-142925951D01*
X138493597Y-142807376D01*
X138493598Y-142807372D01*
X138499999Y-142747844D01*
X138500000Y-142747827D01*
X138500000Y-141950000D01*
X137433012Y-141950000D01*
X137465925Y-141892993D01*
X137500000Y-141765826D01*
X137500000Y-141634174D01*
X137465925Y-141507007D01*
X137433012Y-141450000D01*
X138500000Y-141450000D01*
X138500000Y-140652172D01*
X138499999Y-140652155D01*
X138493598Y-140592627D01*
X138493597Y-140592623D01*
X138449371Y-140474049D01*
X138444387Y-140404357D01*
X138449367Y-140387393D01*
X138494091Y-140267483D01*
X138500500Y-140207873D01*
X138500499Y-138112128D01*
X138494091Y-138052517D01*
X138449637Y-137933332D01*
X138444654Y-137863642D01*
X138449638Y-137846667D01*
X138459689Y-137819720D01*
X138494091Y-137727483D01*
X138500500Y-137667873D01*
X138500499Y-135572128D01*
X138494091Y-135512517D01*
X138449637Y-135393332D01*
X138444654Y-135323642D01*
X138449638Y-135306667D01*
X138459689Y-135279720D01*
X138494091Y-135187483D01*
X138500500Y-135127873D01*
X138500499Y-133032128D01*
X138494091Y-132972517D01*
X138478304Y-132930191D01*
X138449638Y-132853333D01*
X138444654Y-132783642D01*
X138449638Y-132766667D01*
X138494091Y-132647483D01*
X138500500Y-132587873D01*
X138500499Y-130492128D01*
X138494091Y-130432517D01*
X138449637Y-130313332D01*
X138444654Y-130243642D01*
X138449638Y-130226667D01*
X138494091Y-130107483D01*
X138500500Y-130047873D01*
X138500499Y-127952128D01*
X138494091Y-127892517D01*
X138449637Y-127773332D01*
X138444654Y-127703642D01*
X138449638Y-127686667D01*
X138494091Y-127567483D01*
X138500500Y-127507873D01*
X138500499Y-125412128D01*
X138494091Y-125352517D01*
X138449637Y-125233332D01*
X138444654Y-125163642D01*
X138449638Y-125146667D01*
X138458918Y-125121786D01*
X138494091Y-125027483D01*
X138500500Y-124967873D01*
X138500499Y-122872128D01*
X138494091Y-122812517D01*
X138449637Y-122693332D01*
X138444654Y-122623642D01*
X138449638Y-122606667D01*
X138459181Y-122581082D01*
X138494091Y-122487483D01*
X138500500Y-122427873D01*
X138500499Y-120332128D01*
X138494091Y-120272517D01*
X138449637Y-120153332D01*
X138444654Y-120083642D01*
X138449638Y-120066667D01*
X138462198Y-120032993D01*
X138494091Y-119947483D01*
X138500500Y-119887873D01*
X138500499Y-117792128D01*
X138494091Y-117732517D01*
X138482832Y-117702331D01*
X138449638Y-117613333D01*
X138444654Y-117543642D01*
X138449638Y-117526667D01*
X138456651Y-117507864D01*
X138494091Y-117407483D01*
X138500500Y-117347873D01*
X138500499Y-115252128D01*
X138494091Y-115192517D01*
X138449637Y-115073332D01*
X138444654Y-115003642D01*
X138449638Y-114986667D01*
X138494091Y-114867483D01*
X138500500Y-114807873D01*
X138500499Y-112712128D01*
X138494091Y-112652517D01*
X138449637Y-112533332D01*
X138444654Y-112463642D01*
X138449638Y-112446667D01*
X138494091Y-112327483D01*
X138500500Y-112267873D01*
X138500499Y-110172128D01*
X138494091Y-110112517D01*
X138449637Y-109993332D01*
X138444654Y-109923642D01*
X138449638Y-109906667D01*
X138494091Y-109787483D01*
X138500500Y-109727873D01*
X138500499Y-107632128D01*
X138494091Y-107572517D01*
X138449637Y-107453332D01*
X138444654Y-107383642D01*
X138449638Y-107366667D01*
X138494091Y-107247483D01*
X138500500Y-107187873D01*
X138500499Y-105092128D01*
X138494091Y-105032517D01*
X138485899Y-105010554D01*
X138450138Y-104914673D01*
X138449637Y-104913332D01*
X138444654Y-104843642D01*
X138449638Y-104826667D01*
X138456553Y-104808127D01*
X138494091Y-104707483D01*
X138500500Y-104647873D01*
X138500499Y-102552128D01*
X138494091Y-102492517D01*
X138449637Y-102373332D01*
X138444654Y-102303642D01*
X138449638Y-102286667D01*
X138463314Y-102250000D01*
X138494091Y-102167483D01*
X138500500Y-102107873D01*
X138500499Y-100012128D01*
X138494091Y-99952517D01*
X138449637Y-99833332D01*
X138444654Y-99763642D01*
X138449638Y-99746667D01*
X138494091Y-99627483D01*
X138500500Y-99567873D01*
X138500499Y-97472128D01*
X138494091Y-97412517D01*
X138449637Y-97293332D01*
X138444654Y-97223642D01*
X138449638Y-97206667D01*
X138494091Y-97087483D01*
X138500500Y-97027873D01*
X138500499Y-94932128D01*
X138494091Y-94872517D01*
X138474804Y-94820807D01*
X138469014Y-94805284D01*
X138449637Y-94753332D01*
X138444654Y-94683642D01*
X138449638Y-94666667D01*
X138494091Y-94547482D01*
X138500500Y-94487873D01*
X138500499Y-92392128D01*
X138494091Y-92332517D01*
X138449637Y-92213332D01*
X138444654Y-92143642D01*
X138449638Y-92126667D01*
X138465055Y-92085332D01*
X138494091Y-92007483D01*
X138500500Y-91947873D01*
X138500499Y-89852128D01*
X138494091Y-89792517D01*
X138449637Y-89673332D01*
X138444654Y-89603642D01*
X138449638Y-89586667D01*
X138494091Y-89467482D01*
X138500500Y-89407873D01*
X138500499Y-87312128D01*
X138494091Y-87252517D01*
X138449637Y-87133332D01*
X138444654Y-87063642D01*
X138449638Y-87046667D01*
X138494091Y-86927482D01*
X138500500Y-86867873D01*
X138500499Y-84772128D01*
X138494091Y-84712517D01*
X138463563Y-84630668D01*
X138443797Y-84577671D01*
X138443793Y-84577664D01*
X138357547Y-84462455D01*
X138357544Y-84462452D01*
X138242335Y-84376206D01*
X138242328Y-84376202D01*
X138107482Y-84325908D01*
X138107483Y-84325908D01*
X138047883Y-84319501D01*
X138047881Y-84319500D01*
X138047873Y-84319500D01*
X138047864Y-84319500D01*
X135952129Y-84319500D01*
X135952123Y-84319501D01*
X135892516Y-84325908D01*
X135757671Y-84376202D01*
X135757664Y-84376206D01*
X135642455Y-84462452D01*
X135642452Y-84462455D01*
X135556206Y-84577664D01*
X135556202Y-84577671D01*
X135505908Y-84712517D01*
X135499501Y-84772116D01*
X135499501Y-84772123D01*
X135499500Y-84772135D01*
X115500499Y-84772135D01*
X115500499Y-84772128D01*
X115494091Y-84712517D01*
X115463563Y-84630668D01*
X115443797Y-84577671D01*
X115443793Y-84577664D01*
X115357547Y-84462455D01*
X115357544Y-84462452D01*
X115242335Y-84376206D01*
X115242328Y-84376202D01*
X115107482Y-84325908D01*
X115107483Y-84325908D01*
X115047883Y-84319501D01*
X115047881Y-84319500D01*
X115047873Y-84319500D01*
X115047864Y-84319500D01*
X112952129Y-84319500D01*
X112952123Y-84319501D01*
X112892516Y-84325908D01*
X112757671Y-84376202D01*
X112757664Y-84376206D01*
X112642455Y-84462452D01*
X112642452Y-84462455D01*
X112556206Y-84577664D01*
X112556202Y-84577671D01*
X112505908Y-84712517D01*
X112499501Y-84772116D01*
X112499501Y-84772123D01*
X112499500Y-84772135D01*
X112499500Y-86867870D01*
X112499501Y-86867876D01*
X112505908Y-86927483D01*
X112550361Y-87046667D01*
X112555345Y-87116359D01*
X112550361Y-87133333D01*
X112505908Y-87252517D01*
X112499501Y-87312116D01*
X112499501Y-87312123D01*
X112499500Y-87312135D01*
X112499500Y-89407870D01*
X112499501Y-89407876D01*
X112505908Y-89467483D01*
X112550361Y-89586667D01*
X112555345Y-89656359D01*
X112550361Y-89673333D01*
X112505908Y-89792517D01*
X112505104Y-89800000D01*
X112499501Y-89852123D01*
X112499500Y-89852135D01*
X112499500Y-91947870D01*
X112499501Y-91947876D01*
X112505908Y-92007483D01*
X112550361Y-92126667D01*
X112555345Y-92196359D01*
X112550361Y-92213333D01*
X112505908Y-92332517D01*
X112499501Y-92392116D01*
X112499501Y-92392123D01*
X112499500Y-92392135D01*
X112499500Y-94487870D01*
X112499501Y-94487876D01*
X112505908Y-94547483D01*
X112550361Y-94666667D01*
X112555345Y-94736359D01*
X112550361Y-94753333D01*
X112505908Y-94872517D01*
X112499501Y-94932116D01*
X112499501Y-94932123D01*
X112499500Y-94932135D01*
X112499500Y-95205500D01*
X112479815Y-95272539D01*
X112427011Y-95318294D01*
X112375500Y-95329500D01*
X111955929Y-95329500D01*
X111830261Y-95354497D01*
X111830251Y-95354500D01*
X111781220Y-95374810D01*
X111711881Y-95403530D01*
X111711863Y-95403540D01*
X111605332Y-95474721D01*
X111605325Y-95474727D01*
X110212180Y-96867873D01*
X110150857Y-96901358D01*
X110081165Y-96896374D01*
X110025232Y-96854502D01*
X110000815Y-96789038D01*
X110000499Y-96780192D01*
X110000499Y-95872129D01*
X110000498Y-95872123D01*
X110000497Y-95872116D01*
X109994091Y-95812517D01*
X109949637Y-95693332D01*
X109944654Y-95623642D01*
X109949638Y-95606667D01*
X109994091Y-95487482D01*
X109995463Y-95474721D01*
X110000500Y-95427873D01*
X110000499Y-93332128D01*
X109994091Y-93272517D01*
X109949637Y-93153332D01*
X109944654Y-93083642D01*
X109949638Y-93066667D01*
X109994091Y-92947482D01*
X110000500Y-92887873D01*
X110000499Y-90792128D01*
X109994091Y-90732517D01*
X109949637Y-90613332D01*
X109944654Y-90543642D01*
X109949638Y-90526667D01*
X109994091Y-90407483D01*
X110000500Y-90347873D01*
X110000499Y-88252128D01*
X109994103Y-88192627D01*
X109994091Y-88192516D01*
X109949638Y-88073333D01*
X109944654Y-88003642D01*
X109949638Y-87986667D01*
X109994091Y-87867482D01*
X109994091Y-87867481D01*
X110000500Y-87807873D01*
X110000499Y-85712128D01*
X109994091Y-85652517D01*
X109949637Y-85533332D01*
X109944654Y-85463642D01*
X109949638Y-85446667D01*
X109967908Y-85397682D01*
X109994091Y-85327483D01*
X110000500Y-85267873D01*
X110000499Y-83172128D01*
X109994091Y-83112517D01*
X109943796Y-82977669D01*
X109943795Y-82977668D01*
X109943793Y-82977664D01*
X109857547Y-82862455D01*
X109857544Y-82862452D01*
X109742335Y-82776206D01*
X109742328Y-82776202D01*
X109607482Y-82725908D01*
X109607483Y-82725908D01*
X109547883Y-82719501D01*
X109547881Y-82719500D01*
X109547873Y-82719500D01*
X109547864Y-82719500D01*
X107452129Y-82719500D01*
X107452123Y-82719501D01*
X107392516Y-82725908D01*
X107257671Y-82776202D01*
X107257664Y-82776206D01*
X107142455Y-82862452D01*
X107142452Y-82862455D01*
X107056206Y-82977664D01*
X107056202Y-82977671D01*
X107005908Y-83112517D01*
X106999501Y-83172116D01*
X106999501Y-83172123D01*
X106999500Y-83172135D01*
X106999500Y-85267870D01*
X106999501Y-85267876D01*
X107005908Y-85327483D01*
X107050361Y-85446667D01*
X107055345Y-85516359D01*
X107050361Y-85533333D01*
X107005908Y-85652517D01*
X106999501Y-85712116D01*
X106999501Y-85712123D01*
X106999500Y-85712135D01*
X106999500Y-87807870D01*
X106999501Y-87807876D01*
X107005908Y-87867483D01*
X107050361Y-87986667D01*
X107055345Y-88056359D01*
X107050361Y-88073333D01*
X107005908Y-88192517D01*
X106999501Y-88252116D01*
X106999501Y-88252123D01*
X106999500Y-88252135D01*
X106999500Y-90347870D01*
X106999501Y-90347876D01*
X107005908Y-90407483D01*
X107050361Y-90526667D01*
X107055345Y-90596359D01*
X107050361Y-90613333D01*
X107005908Y-90732517D01*
X106999501Y-90792116D01*
X106999501Y-90792123D01*
X106999500Y-90792135D01*
X106999500Y-92887870D01*
X106999501Y-92887876D01*
X107005908Y-92947483D01*
X107050361Y-93066667D01*
X107055345Y-93136359D01*
X107050361Y-93153333D01*
X107005908Y-93272517D01*
X106999501Y-93332116D01*
X106999501Y-93332123D01*
X106999500Y-93332135D01*
X106999500Y-95427870D01*
X106999501Y-95427876D01*
X107005908Y-95487483D01*
X107050361Y-95606667D01*
X107055345Y-95676359D01*
X107050361Y-95693333D01*
X107005908Y-95812517D01*
X106999501Y-95872116D01*
X106999501Y-95872123D01*
X106999500Y-95872135D01*
X106999500Y-97967870D01*
X106999501Y-97967876D01*
X107005908Y-98027483D01*
X107050361Y-98146667D01*
X107055345Y-98216359D01*
X107050361Y-98233333D01*
X107005908Y-98352517D01*
X106999735Y-98409939D01*
X106999501Y-98412123D01*
X106999500Y-98412135D01*
X106999500Y-100507870D01*
X106999501Y-100507876D01*
X107005908Y-100567483D01*
X107050628Y-100687380D01*
X107055612Y-100757071D01*
X107050628Y-100774046D01*
X107006403Y-100892619D01*
X107006401Y-100892627D01*
X107000000Y-100952155D01*
X107000000Y-103047844D01*
X107006401Y-103107372D01*
X107006403Y-103107379D01*
X107056645Y-103242086D01*
X107056649Y-103242093D01*
X107142809Y-103357187D01*
X107142812Y-103357190D01*
X107257906Y-103443350D01*
X107257913Y-103443354D01*
X107392620Y-103493596D01*
X107392627Y-103493598D01*
X107452155Y-103499999D01*
X107452172Y-103500000D01*
X109547828Y-103500000D01*
X109547844Y-103499999D01*
X109607372Y-103493598D01*
X109607383Y-103493595D01*
X109682166Y-103465703D01*
X109751857Y-103460718D01*
X109813181Y-103494202D01*
X109846666Y-103555525D01*
X109849500Y-103581884D01*
X109849500Y-105679192D01*
X109829815Y-105746231D01*
X109813181Y-105766873D01*
X104766873Y-110813181D01*
X104705550Y-110846666D01*
X104679192Y-110849500D01*
X77320808Y-110849500D01*
X77253769Y-110829815D01*
X77233127Y-110813181D01*
X74686819Y-108266873D01*
X74653334Y-108205550D01*
X74650500Y-108179192D01*
X74650500Y-104578269D01*
X74670185Y-104511230D01*
X74722989Y-104465475D01*
X74792147Y-104455531D01*
X74855703Y-104484556D01*
X74874292Y-104505626D01*
X74874347Y-104505581D01*
X74875609Y-104507119D01*
X74877603Y-104509379D01*
X74878212Y-104510291D01*
X74989707Y-104621786D01*
X74989711Y-104621789D01*
X75120814Y-104709390D01*
X75120827Y-104709397D01*
X75266498Y-104769735D01*
X75266503Y-104769737D01*
X75421153Y-104800499D01*
X75421156Y-104800500D01*
X75421158Y-104800500D01*
X75578844Y-104800500D01*
X75578845Y-104800499D01*
X75733497Y-104769737D01*
X75879179Y-104709394D01*
X76010289Y-104621789D01*
X76121789Y-104510289D01*
X76195493Y-104399983D01*
X81699500Y-104399983D01*
X81699500Y-106600001D01*
X81699501Y-106600018D01*
X81710000Y-106702796D01*
X81710001Y-106702799D01*
X81765185Y-106869331D01*
X81765186Y-106869334D01*
X81857288Y-107018656D01*
X81981344Y-107142712D01*
X82130666Y-107234814D01*
X82297203Y-107289999D01*
X82399991Y-107300500D01*
X84600008Y-107300499D01*
X84702797Y-107289999D01*
X84869334Y-107234814D01*
X85018656Y-107142712D01*
X85142712Y-107018656D01*
X85234814Y-106869334D01*
X85289999Y-106702797D01*
X85300500Y-106600009D01*
X85300499Y-104399992D01*
X85299701Y-104392184D01*
X85289999Y-104297203D01*
X85289998Y-104297200D01*
X85234814Y-104130666D01*
X85142712Y-103981344D01*
X85018656Y-103857288D01*
X84925888Y-103800069D01*
X84869336Y-103765187D01*
X84869331Y-103765185D01*
X84848475Y-103758274D01*
X84702797Y-103710001D01*
X84702795Y-103710000D01*
X84600010Y-103699500D01*
X82399998Y-103699500D01*
X82399981Y-103699501D01*
X82297203Y-103710000D01*
X82297200Y-103710001D01*
X82130668Y-103765185D01*
X82130663Y-103765187D01*
X81981342Y-103857289D01*
X81857289Y-103981342D01*
X81765187Y-104130663D01*
X81765186Y-104130666D01*
X81710001Y-104297203D01*
X81710001Y-104297204D01*
X81710000Y-104297204D01*
X81699500Y-104399983D01*
X76195493Y-104399983D01*
X76209394Y-104379179D01*
X76269737Y-104233497D01*
X76300500Y-104078842D01*
X76300500Y-103921158D01*
X76300500Y-103921155D01*
X76300499Y-103921153D01*
X76294746Y-103892230D01*
X76269737Y-103766503D01*
X76269192Y-103765187D01*
X76209397Y-103620828D01*
X76209396Y-103620827D01*
X76209394Y-103620821D01*
X76171396Y-103563953D01*
X76150520Y-103497276D01*
X76150500Y-103495064D01*
X76150500Y-100301995D01*
X81699500Y-100301995D01*
X81699500Y-100538004D01*
X81699501Y-100538020D01*
X81728339Y-100757071D01*
X81730307Y-100772014D01*
X81730852Y-100774049D01*
X81791394Y-100999993D01*
X81881714Y-101218045D01*
X81881719Y-101218056D01*
X81933905Y-101308443D01*
X81999727Y-101422450D01*
X81999729Y-101422453D01*
X81999730Y-101422454D01*
X82143406Y-101609697D01*
X82143412Y-101609704D01*
X82310295Y-101776587D01*
X82310302Y-101776593D01*
X82408808Y-101852179D01*
X82497550Y-101920273D01*
X82628918Y-101996118D01*
X82701943Y-102038280D01*
X82701948Y-102038282D01*
X82701951Y-102038284D01*
X82920007Y-102128606D01*
X83147986Y-102189693D01*
X83381989Y-102220500D01*
X83381996Y-102220500D01*
X83618004Y-102220500D01*
X83618011Y-102220500D01*
X83852014Y-102189693D01*
X84079993Y-102128606D01*
X84298049Y-102038284D01*
X84502450Y-101920273D01*
X84689699Y-101776592D01*
X84856592Y-101609699D01*
X85000273Y-101422450D01*
X85118284Y-101218049D01*
X85208606Y-100999993D01*
X85269693Y-100772014D01*
X85300500Y-100538011D01*
X85300500Y-100301989D01*
X85269693Y-100067986D01*
X85208606Y-99840007D01*
X85118284Y-99621951D01*
X85118282Y-99621948D01*
X85118280Y-99621943D01*
X85048792Y-99501588D01*
X85000273Y-99417550D01*
X84856592Y-99230301D01*
X84856587Y-99230295D01*
X84689704Y-99063412D01*
X84689697Y-99063406D01*
X84502454Y-98919730D01*
X84502453Y-98919729D01*
X84502450Y-98919727D01*
X84399838Y-98860484D01*
X84298056Y-98801719D01*
X84298045Y-98801714D01*
X84079993Y-98711394D01*
X83852010Y-98650306D01*
X83618020Y-98619501D01*
X83618017Y-98619500D01*
X83618011Y-98619500D01*
X83381989Y-98619500D01*
X83381983Y-98619500D01*
X83381979Y-98619501D01*
X83147989Y-98650306D01*
X82920006Y-98711394D01*
X82701954Y-98801714D01*
X82701943Y-98801719D01*
X82497545Y-98919730D01*
X82310302Y-99063406D01*
X82310295Y-99063412D01*
X82143412Y-99230295D01*
X82143406Y-99230302D01*
X81999730Y-99417545D01*
X81881719Y-99621943D01*
X81881714Y-99621954D01*
X81791394Y-99840006D01*
X81730306Y-100067989D01*
X81699501Y-100301979D01*
X81699500Y-100301995D01*
X76150500Y-100301995D01*
X76150500Y-92416995D01*
X81027000Y-92416995D01*
X81027000Y-92653004D01*
X81027001Y-92653020D01*
X81049090Y-92820808D01*
X81057807Y-92887014D01*
X81110944Y-93085325D01*
X81118894Y-93114993D01*
X81209214Y-93333045D01*
X81209219Y-93333056D01*
X81268615Y-93435931D01*
X81327227Y-93537450D01*
X81327229Y-93537453D01*
X81327230Y-93537454D01*
X81470906Y-93724697D01*
X81470912Y-93724704D01*
X81637795Y-93891587D01*
X81637801Y-93891592D01*
X81825050Y-94035273D01*
X81956418Y-94111118D01*
X82029443Y-94153280D01*
X82029448Y-94153282D01*
X82029451Y-94153284D01*
X82247507Y-94243606D01*
X82475486Y-94304693D01*
X82709489Y-94335500D01*
X82709496Y-94335500D01*
X82945504Y-94335500D01*
X82945511Y-94335500D01*
X83179514Y-94304693D01*
X83407493Y-94243606D01*
X83625549Y-94153284D01*
X83829950Y-94035273D01*
X84017199Y-93891592D01*
X84184092Y-93724699D01*
X84327773Y-93537450D01*
X84445784Y-93333049D01*
X84536106Y-93114993D01*
X84597193Y-92887014D01*
X84628000Y-92653011D01*
X84628000Y-92416989D01*
X84597193Y-92182986D01*
X84536106Y-91955007D01*
X84445784Y-91736951D01*
X84445782Y-91736948D01*
X84445780Y-91736943D01*
X84403618Y-91663918D01*
X84327773Y-91532550D01*
X84184092Y-91345301D01*
X84184087Y-91345295D01*
X84017204Y-91178412D01*
X84017197Y-91178406D01*
X83829954Y-91034730D01*
X83829953Y-91034729D01*
X83829950Y-91034727D01*
X83748457Y-90987677D01*
X83625556Y-90916719D01*
X83625540Y-90916711D01*
X83593323Y-90903367D01*
X83593322Y-90903367D01*
X83407493Y-90826394D01*
X83179514Y-90765307D01*
X83179513Y-90765306D01*
X83179510Y-90765306D01*
X82945520Y-90734501D01*
X82945517Y-90734500D01*
X82945511Y-90734500D01*
X82709489Y-90734500D01*
X82709483Y-90734500D01*
X82709479Y-90734501D01*
X82475489Y-90765306D01*
X82247506Y-90826394D01*
X82029454Y-90916714D01*
X82029443Y-90916719D01*
X81825045Y-91034730D01*
X81637802Y-91178406D01*
X81637795Y-91178412D01*
X81470912Y-91345295D01*
X81470906Y-91345302D01*
X81327230Y-91532545D01*
X81209219Y-91736943D01*
X81209214Y-91736954D01*
X81118894Y-91955006D01*
X81057806Y-92182989D01*
X81027001Y-92416979D01*
X81027000Y-92416995D01*
X76150500Y-92416995D01*
X76150500Y-91935928D01*
X76125502Y-91810261D01*
X76125501Y-91810260D01*
X76125501Y-91810256D01*
X76076465Y-91691873D01*
X76066620Y-91677139D01*
X76005277Y-91585331D01*
X76005275Y-91585329D01*
X76005273Y-91585326D01*
X75414673Y-90994726D01*
X75308134Y-90923540D01*
X75308127Y-90923535D01*
X75291652Y-90916711D01*
X75189744Y-90874499D01*
X75189738Y-90874497D01*
X75064071Y-90849500D01*
X75064069Y-90849500D01*
X65435931Y-90849500D01*
X65435929Y-90849500D01*
X65310261Y-90874497D01*
X65310251Y-90874500D01*
X65261220Y-90894810D01*
X65191881Y-90923530D01*
X65191863Y-90923540D01*
X65085332Y-90994721D01*
X65085325Y-90994727D01*
X63994727Y-92085325D01*
X63994721Y-92085332D01*
X63929473Y-92182984D01*
X63929474Y-92182985D01*
X63923533Y-92191875D01*
X63874499Y-92310255D01*
X63874497Y-92310261D01*
X63849500Y-92435928D01*
X63849500Y-105344070D01*
X63863857Y-105416242D01*
X63863857Y-105416244D01*
X63874497Y-105469737D01*
X63874499Y-105469744D01*
X63923535Y-105588127D01*
X63984382Y-105679192D01*
X63994726Y-105694673D01*
X66445326Y-108145273D01*
X66445329Y-108145275D01*
X66445331Y-108145277D01*
X66551873Y-108216465D01*
X66670256Y-108265501D01*
X66670260Y-108265501D01*
X66670261Y-108265502D01*
X66795928Y-108290500D01*
X66795931Y-108290500D01*
X67700382Y-108290500D01*
X67767421Y-108310185D01*
X67801099Y-108344591D01*
X67802085Y-108343875D01*
X67929890Y-108519786D01*
X68080213Y-108670109D01*
X68252182Y-108795050D01*
X68260946Y-108799516D01*
X68311742Y-108847491D01*
X68328536Y-108915312D01*
X68305998Y-108981447D01*
X68260946Y-109020484D01*
X68252182Y-109024949D01*
X68080213Y-109149890D01*
X67929890Y-109300213D01*
X67804951Y-109472179D01*
X67708444Y-109661585D01*
X67642753Y-109863760D01*
X67609500Y-110073713D01*
X67609500Y-110286286D01*
X67642753Y-110496239D01*
X67708444Y-110698414D01*
X67804951Y-110887820D01*
X67929890Y-111059786D01*
X68080213Y-111210109D01*
X68252182Y-111335050D01*
X68260946Y-111339516D01*
X68311742Y-111387491D01*
X68328536Y-111455312D01*
X68305998Y-111521447D01*
X68260946Y-111560484D01*
X68252182Y-111564949D01*
X68080213Y-111689890D01*
X67929890Y-111840213D01*
X67804951Y-112012179D01*
X67708444Y-112201585D01*
X67642753Y-112403760D01*
X67609500Y-112613713D01*
X67609500Y-112826286D01*
X67637444Y-113002721D01*
X67642754Y-113036243D01*
X67651795Y-113064069D01*
X67708444Y-113238414D01*
X67804951Y-113427820D01*
X67929890Y-113599786D01*
X68080213Y-113750109D01*
X68252182Y-113875050D01*
X68260946Y-113879516D01*
X68311742Y-113927491D01*
X68328536Y-113995312D01*
X68305998Y-114061447D01*
X68260946Y-114100484D01*
X68252182Y-114104949D01*
X68080213Y-114229890D01*
X67929890Y-114380213D01*
X67804951Y-114552179D01*
X67708444Y-114741585D01*
X67642753Y-114943760D01*
X67633269Y-115003642D01*
X67609500Y-115153713D01*
X67609500Y-115366287D01*
X67642754Y-115576243D01*
X67686908Y-115712135D01*
X67708444Y-115778414D01*
X67804951Y-115967820D01*
X67929890Y-116139786D01*
X68080213Y-116290109D01*
X68252182Y-116415050D01*
X68260946Y-116419516D01*
X68311742Y-116467491D01*
X68328536Y-116535312D01*
X68305998Y-116601447D01*
X68260946Y-116640484D01*
X68252182Y-116644949D01*
X68080213Y-116769890D01*
X67929890Y-116920213D01*
X67804951Y-117092179D01*
X67708444Y-117281585D01*
X67642753Y-117483760D01*
X67633269Y-117543642D01*
X67609500Y-117693713D01*
X67609500Y-117906287D01*
X67618086Y-117960497D01*
X67641026Y-118105337D01*
X67642754Y-118116243D01*
X67687642Y-118254394D01*
X67708444Y-118318414D01*
X67804951Y-118507820D01*
X67929890Y-118679786D01*
X68080213Y-118830109D01*
X68252179Y-118955048D01*
X68252181Y-118955049D01*
X68252184Y-118955051D01*
X68261493Y-118959794D01*
X68312290Y-119007766D01*
X68329087Y-119075587D01*
X68306552Y-119141722D01*
X68261505Y-119180760D01*
X68252446Y-119185376D01*
X68252440Y-119185380D01*
X68198282Y-119224727D01*
X68198282Y-119224728D01*
X68830591Y-119857037D01*
X68767007Y-119874075D01*
X68652993Y-119939901D01*
X68559901Y-120032993D01*
X68494075Y-120147007D01*
X68477037Y-120210591D01*
X67844728Y-119578282D01*
X67844727Y-119578282D01*
X67805380Y-119632439D01*
X67708904Y-119821782D01*
X67643242Y-120023869D01*
X67643242Y-120023872D01*
X67610000Y-120233753D01*
X67610000Y-120446246D01*
X67643242Y-120656127D01*
X67643242Y-120656130D01*
X67708904Y-120858217D01*
X67805375Y-121047550D01*
X67844728Y-121101716D01*
X68477037Y-120469408D01*
X68494075Y-120532993D01*
X68559901Y-120647007D01*
X68652993Y-120740099D01*
X68767007Y-120805925D01*
X68830590Y-120822962D01*
X68198282Y-121455269D01*
X68198282Y-121455270D01*
X68252452Y-121494626D01*
X68252451Y-121494626D01*
X68261495Y-121499234D01*
X68312292Y-121547208D01*
X68329087Y-121615029D01*
X68306550Y-121681164D01*
X68261499Y-121720202D01*
X68252182Y-121724949D01*
X68080213Y-121849890D01*
X67929890Y-122000213D01*
X67802085Y-122176125D01*
X67800740Y-122175148D01*
X67754295Y-122217166D01*
X67700382Y-122229500D01*
X66055929Y-122229500D01*
X65930261Y-122254497D01*
X65930255Y-122254499D01*
X65811874Y-122303534D01*
X65705326Y-122374726D01*
X64397068Y-123682984D01*
X64335745Y-123716469D01*
X64333579Y-123716920D01*
X64266508Y-123730261D01*
X64266498Y-123730264D01*
X64120827Y-123790602D01*
X64120814Y-123790609D01*
X63989711Y-123878210D01*
X63989707Y-123878213D01*
X63878213Y-123989707D01*
X63878210Y-123989711D01*
X63790609Y-124120814D01*
X63790602Y-124120827D01*
X63730264Y-124266498D01*
X63730261Y-124266510D01*
X63699500Y-124421153D01*
X63699500Y-124578846D01*
X63730261Y-124733489D01*
X63730264Y-124733501D01*
X63790602Y-124879172D01*
X63790609Y-124879185D01*
X63878210Y-125010288D01*
X63878213Y-125010292D01*
X63989707Y-125121786D01*
X63989711Y-125121789D01*
X64120814Y-125209390D01*
X64120827Y-125209397D01*
X64266498Y-125269735D01*
X64266503Y-125269737D01*
X64421153Y-125300499D01*
X64421156Y-125300500D01*
X64421158Y-125300500D01*
X64578844Y-125300500D01*
X64578845Y-125300499D01*
X64733497Y-125269737D01*
X64879179Y-125209394D01*
X65010289Y-125121789D01*
X65121789Y-125010289D01*
X65209394Y-124879179D01*
X65269737Y-124733497D01*
X65283079Y-124666416D01*
X65315463Y-124604509D01*
X65316958Y-124602986D01*
X66353127Y-123566819D01*
X66414450Y-123533334D01*
X66440808Y-123530500D01*
X67700382Y-123530500D01*
X67767421Y-123550185D01*
X67801099Y-123584591D01*
X67802085Y-123583875D01*
X67929890Y-123759786D01*
X68080213Y-123910109D01*
X68252182Y-124035050D01*
X68260946Y-124039516D01*
X68311742Y-124087491D01*
X68328536Y-124155312D01*
X68305998Y-124221447D01*
X68260946Y-124260484D01*
X68252182Y-124264949D01*
X68080213Y-124389890D01*
X67929890Y-124540213D01*
X67804951Y-124712179D01*
X67708444Y-124901585D01*
X67642753Y-125103760D01*
X67609500Y-125313713D01*
X67609500Y-125526286D01*
X67643516Y-125741055D01*
X67641877Y-125741314D01*
X67638738Y-125803883D01*
X67609342Y-125850710D01*
X67376871Y-126083182D01*
X67315551Y-126116666D01*
X67289192Y-126119500D01*
X61259618Y-126119500D01*
X61192579Y-126099815D01*
X61158900Y-126065408D01*
X61157915Y-126066125D01*
X61030109Y-125890213D01*
X60879786Y-125739890D01*
X60707820Y-125614951D01*
X60707115Y-125614591D01*
X60699054Y-125610485D01*
X60648259Y-125562512D01*
X60631463Y-125494692D01*
X60653999Y-125428556D01*
X60699054Y-125389515D01*
X60707816Y-125385051D01*
X60806005Y-125313713D01*
X60879786Y-125260109D01*
X60879788Y-125260106D01*
X60879792Y-125260104D01*
X61030104Y-125109792D01*
X61030106Y-125109788D01*
X61030109Y-125109786D01*
X61155048Y-124937820D01*
X61155047Y-124937820D01*
X61155051Y-124937816D01*
X61251557Y-124748412D01*
X61317246Y-124546243D01*
X61350500Y-124336287D01*
X61350500Y-124123713D01*
X61317246Y-123913757D01*
X61251557Y-123711588D01*
X61155051Y-123522184D01*
X61155049Y-123522181D01*
X61155048Y-123522179D01*
X61030109Y-123350213D01*
X60879786Y-123199890D01*
X60707820Y-123074951D01*
X60707031Y-123074549D01*
X60699054Y-123070485D01*
X60648259Y-123022512D01*
X60631463Y-122954692D01*
X60653999Y-122888556D01*
X60699054Y-122849515D01*
X60707816Y-122845051D01*
X60806005Y-122773713D01*
X60879786Y-122720109D01*
X60879788Y-122720106D01*
X60879792Y-122720104D01*
X61030104Y-122569792D01*
X61030106Y-122569788D01*
X61030109Y-122569786D01*
X61155048Y-122397820D01*
X61155047Y-122397820D01*
X61155051Y-122397816D01*
X61251557Y-122208412D01*
X61317246Y-122006243D01*
X61350500Y-121796287D01*
X61350500Y-121583713D01*
X61317246Y-121373757D01*
X61251557Y-121171588D01*
X61155051Y-120982184D01*
X61155049Y-120982181D01*
X61155048Y-120982179D01*
X61030109Y-120810213D01*
X60879786Y-120659890D01*
X60707817Y-120534949D01*
X60698504Y-120530204D01*
X60647707Y-120482230D01*
X60630912Y-120414409D01*
X60653358Y-120348403D01*
X60732408Y-120235961D01*
X60129408Y-119632962D01*
X60192993Y-119615925D01*
X60307007Y-119550099D01*
X60400099Y-119457007D01*
X60465925Y-119342993D01*
X60482962Y-119279409D01*
X61115270Y-119911717D01*
X61115270Y-119911716D01*
X61154622Y-119857554D01*
X61251095Y-119668217D01*
X61316757Y-119466130D01*
X61316757Y-119466127D01*
X61350000Y-119256246D01*
X61350000Y-119043753D01*
X61316757Y-118833872D01*
X61316757Y-118833869D01*
X61251095Y-118631782D01*
X61154624Y-118442449D01*
X61115270Y-118388282D01*
X61115269Y-118388282D01*
X60482962Y-119020590D01*
X60465925Y-118957007D01*
X60400099Y-118842993D01*
X60307007Y-118749901D01*
X60192993Y-118684075D01*
X60129409Y-118667037D01*
X60799627Y-117996818D01*
X60860950Y-117963333D01*
X60887307Y-117960499D01*
X60897872Y-117960499D01*
X60957483Y-117954091D01*
X61092331Y-117903796D01*
X61207546Y-117817546D01*
X61293796Y-117702331D01*
X61344091Y-117567483D01*
X61350500Y-117507873D01*
X61350499Y-115712128D01*
X61344091Y-115652517D01*
X61293796Y-115517669D01*
X61293795Y-115517668D01*
X61293793Y-115517664D01*
X61207547Y-115402455D01*
X61207544Y-115402452D01*
X61092335Y-115316206D01*
X61092328Y-115316202D01*
X60957482Y-115265908D01*
X60957483Y-115265908D01*
X60897883Y-115259501D01*
X60897881Y-115259500D01*
X60897873Y-115259500D01*
X60897864Y-115259500D01*
X59102129Y-115259500D01*
X59102123Y-115259501D01*
X59042516Y-115265908D01*
X58907671Y-115316202D01*
X58907664Y-115316206D01*
X58792455Y-115402452D01*
X58792452Y-115402455D01*
X58706206Y-115517664D01*
X58706202Y-115517671D01*
X58655908Y-115652517D01*
X58649501Y-115712116D01*
X58649501Y-115712123D01*
X58649500Y-115712135D01*
X58649500Y-115735500D01*
X58629815Y-115802539D01*
X58577011Y-115848294D01*
X58525500Y-115859500D01*
X57816080Y-115859500D01*
X57671092Y-115888340D01*
X57671082Y-115888343D01*
X57534511Y-115944912D01*
X57534498Y-115944919D01*
X57411584Y-116027048D01*
X57411580Y-116027051D01*
X55517047Y-117921584D01*
X55504018Y-117941084D01*
X55491046Y-117960500D01*
X55477897Y-117980179D01*
X55434914Y-118044507D01*
X55378343Y-118181082D01*
X55378340Y-118181092D01*
X55349500Y-118326079D01*
X55349500Y-118326082D01*
X55349500Y-136173918D01*
X55349500Y-136173920D01*
X55349499Y-136173920D01*
X52500500Y-136173920D01*
X52500500Y-85397682D01*
X65700000Y-85397682D01*
X65700000Y-85602317D01*
X65732009Y-85804417D01*
X65795244Y-85999031D01*
X65888141Y-86181350D01*
X65888147Y-86181359D01*
X65920523Y-86225921D01*
X65920524Y-86225922D01*
X66600000Y-85546446D01*
X66600000Y-85552661D01*
X66627259Y-85654394D01*
X66679920Y-85745606D01*
X66754394Y-85820080D01*
X66845606Y-85872741D01*
X66947339Y-85900000D01*
X66953553Y-85900000D01*
X66274076Y-86579474D01*
X66318650Y-86611859D01*
X66500968Y-86704755D01*
X66695582Y-86767990D01*
X66897683Y-86800000D01*
X67102317Y-86800000D01*
X67304417Y-86767990D01*
X67499031Y-86704755D01*
X67681349Y-86611859D01*
X67725921Y-86579474D01*
X67046447Y-85900000D01*
X67052661Y-85900000D01*
X67154394Y-85872741D01*
X67245606Y-85820080D01*
X67320080Y-85745606D01*
X67372741Y-85654394D01*
X67400000Y-85552661D01*
X67400000Y-85546447D01*
X68079473Y-86225921D01*
X68117280Y-86222946D01*
X68185658Y-86237310D01*
X68235415Y-86286361D01*
X68244714Y-86307556D01*
X68265186Y-86369334D01*
X68357288Y-86518656D01*
X68481344Y-86642712D01*
X68630666Y-86734814D01*
X68797203Y-86789999D01*
X68899991Y-86800500D01*
X70100008Y-86800499D01*
X70202797Y-86789999D01*
X70369334Y-86734814D01*
X70518656Y-86642712D01*
X70642712Y-86518656D01*
X70734814Y-86369334D01*
X70739569Y-86354983D01*
X81027000Y-86354983D01*
X81027000Y-88555001D01*
X81027001Y-88555018D01*
X81037500Y-88657796D01*
X81037501Y-88657799D01*
X81084622Y-88800000D01*
X81092686Y-88824334D01*
X81184788Y-88973656D01*
X81308844Y-89097712D01*
X81458166Y-89189814D01*
X81624703Y-89244999D01*
X81727491Y-89255500D01*
X83927508Y-89255499D01*
X84030297Y-89244999D01*
X84196834Y-89189814D01*
X84346156Y-89097712D01*
X84470212Y-88973656D01*
X84562314Y-88824334D01*
X84617499Y-88657797D01*
X84628000Y-88555009D01*
X84627999Y-86354992D01*
X84617499Y-86252203D01*
X84562314Y-86085666D01*
X84470212Y-85936344D01*
X84346156Y-85812288D01*
X84196834Y-85720186D01*
X84030297Y-85665001D01*
X84030295Y-85665000D01*
X83927510Y-85654500D01*
X81727498Y-85654500D01*
X81727481Y-85654501D01*
X81624703Y-85665000D01*
X81624700Y-85665001D01*
X81458168Y-85720185D01*
X81458163Y-85720187D01*
X81308842Y-85812289D01*
X81184789Y-85936342D01*
X81092687Y-86085663D01*
X81092685Y-86085668D01*
X81087933Y-86100009D01*
X81037501Y-86252203D01*
X81037501Y-86252204D01*
X81037500Y-86252204D01*
X81027000Y-86354983D01*
X70739569Y-86354983D01*
X70789999Y-86202797D01*
X70800500Y-86100009D01*
X70800499Y-84899992D01*
X70789999Y-84797203D01*
X70734814Y-84630666D01*
X70642712Y-84481344D01*
X70518656Y-84357288D01*
X70369334Y-84265186D01*
X70202797Y-84210001D01*
X70202795Y-84210000D01*
X70100010Y-84199500D01*
X68899998Y-84199500D01*
X68899981Y-84199501D01*
X68797203Y-84210000D01*
X68797200Y-84210001D01*
X68630668Y-84265185D01*
X68630663Y-84265187D01*
X68481342Y-84357289D01*
X68357289Y-84481342D01*
X68265187Y-84630663D01*
X68265185Y-84630668D01*
X68244717Y-84692438D01*
X68204944Y-84749883D01*
X68140428Y-84776706D01*
X68117283Y-84777052D01*
X68079474Y-84774076D01*
X67400000Y-85453551D01*
X67400000Y-85447339D01*
X67372741Y-85345606D01*
X67320080Y-85254394D01*
X67245606Y-85179920D01*
X67154394Y-85127259D01*
X67052661Y-85100000D01*
X67046446Y-85100000D01*
X67725922Y-84420524D01*
X67725921Y-84420523D01*
X67681359Y-84388147D01*
X67681350Y-84388141D01*
X67499031Y-84295244D01*
X67304417Y-84232009D01*
X67102317Y-84200000D01*
X66897683Y-84200000D01*
X66695582Y-84232009D01*
X66500968Y-84295244D01*
X66318644Y-84388143D01*
X66274077Y-84420523D01*
X66274077Y-84420524D01*
X66953554Y-85100000D01*
X66947339Y-85100000D01*
X66845606Y-85127259D01*
X66754394Y-85179920D01*
X66679920Y-85254394D01*
X66627259Y-85345606D01*
X66600000Y-85447339D01*
X66600000Y-85453553D01*
X65920524Y-84774077D01*
X65920523Y-84774077D01*
X65888143Y-84818644D01*
X65795244Y-85000968D01*
X65732009Y-85195582D01*
X65700000Y-85397682D01*
X52500500Y-85397682D01*
X52500500Y-82874038D01*
X54399500Y-82874038D01*
X54399500Y-83125961D01*
X54438910Y-83374785D01*
X54516760Y-83614383D01*
X54631132Y-83838848D01*
X54779201Y-84042649D01*
X54779205Y-84042654D01*
X54957345Y-84220794D01*
X54957350Y-84220798D01*
X55018447Y-84265187D01*
X55161155Y-84368870D01*
X55262530Y-84420523D01*
X55385616Y-84483239D01*
X55385618Y-84483239D01*
X55385621Y-84483241D01*
X55625215Y-84561090D01*
X55874038Y-84600500D01*
X55874039Y-84600500D01*
X56125961Y-84600500D01*
X56125962Y-84600500D01*
X56374785Y-84561090D01*
X56614379Y-84483241D01*
X56838845Y-84368870D01*
X56838849Y-84368867D01*
X56840781Y-84367464D01*
X56840781Y-84367463D01*
X57042656Y-84220793D01*
X57220793Y-84042656D01*
X57368870Y-83838845D01*
X57483241Y-83614379D01*
X57561090Y-83374785D01*
X57593187Y-83172135D01*
X91999500Y-83172135D01*
X91999500Y-85267870D01*
X91999501Y-85267876D01*
X92005908Y-85327483D01*
X92050361Y-85446667D01*
X92055345Y-85516359D01*
X92050361Y-85533333D01*
X92005908Y-85652517D01*
X91999501Y-85712116D01*
X91999501Y-85712123D01*
X91999500Y-85712135D01*
X91999500Y-87807870D01*
X91999501Y-87807876D01*
X92005908Y-87867483D01*
X92050628Y-87987380D01*
X92055612Y-88057071D01*
X92050628Y-88074046D01*
X92006403Y-88192619D01*
X92006401Y-88192627D01*
X92000000Y-88252155D01*
X92000000Y-89050000D01*
X93066988Y-89050000D01*
X93034075Y-89107007D01*
X93000000Y-89234174D01*
X93000000Y-89365826D01*
X93034075Y-89492993D01*
X93066988Y-89550000D01*
X92000000Y-89550000D01*
X92000000Y-90347844D01*
X92006401Y-90407372D01*
X92006403Y-90407382D01*
X92050627Y-90525953D01*
X92052106Y-90546641D01*
X92058411Y-90566400D01*
X92055345Y-90591929D01*
X92055611Y-90595644D01*
X92054406Y-90599744D01*
X92054203Y-90601442D01*
X92052676Y-90607126D01*
X92005909Y-90732517D01*
X91999500Y-90792127D01*
X91999500Y-90805164D01*
X91999500Y-90805165D01*
X91999500Y-92887870D01*
X91999501Y-92887876D01*
X92005908Y-92947483D01*
X92050361Y-93066667D01*
X92055345Y-93136359D01*
X92050361Y-93153333D01*
X92005908Y-93272517D01*
X91999501Y-93332116D01*
X91999501Y-93332123D01*
X91999500Y-93332135D01*
X91999500Y-95427870D01*
X91999501Y-95427876D01*
X92005908Y-95487483D01*
X92050361Y-95606667D01*
X92055345Y-95676359D01*
X92050361Y-95693333D01*
X92005908Y-95812517D01*
X91999501Y-95872116D01*
X91999501Y-95872123D01*
X91999500Y-95872135D01*
X91999500Y-97967870D01*
X91999501Y-97967876D01*
X92005908Y-98027483D01*
X92050361Y-98146667D01*
X92055345Y-98216359D01*
X92050361Y-98233333D01*
X92005908Y-98352517D01*
X91999735Y-98409939D01*
X91999501Y-98412123D01*
X91999500Y-98412135D01*
X91999500Y-100507870D01*
X91999501Y-100507876D01*
X92005908Y-100567483D01*
X92050628Y-100687380D01*
X92055612Y-100757071D01*
X92050628Y-100774046D01*
X92006403Y-100892619D01*
X92006401Y-100892627D01*
X92000000Y-100952155D01*
X92000000Y-101750000D01*
X93066988Y-101750000D01*
X93034075Y-101807007D01*
X93000000Y-101934174D01*
X93000000Y-102065826D01*
X93034075Y-102192993D01*
X93066988Y-102250000D01*
X92000000Y-102250000D01*
X92000000Y-103047844D01*
X92006401Y-103107372D01*
X92006403Y-103107379D01*
X92056645Y-103242086D01*
X92056649Y-103242093D01*
X92142809Y-103357187D01*
X92142812Y-103357190D01*
X92257906Y-103443350D01*
X92257913Y-103443354D01*
X92392620Y-103493596D01*
X92392627Y-103493598D01*
X92452155Y-103499999D01*
X92452172Y-103500000D01*
X93250000Y-103500000D01*
X93250000Y-102433012D01*
X93307007Y-102465925D01*
X93434174Y-102500000D01*
X93565826Y-102500000D01*
X93692993Y-102465925D01*
X93750000Y-102433012D01*
X93750000Y-103500000D01*
X94547828Y-103500000D01*
X94547844Y-103499999D01*
X94607372Y-103493598D01*
X94607379Y-103493596D01*
X94742086Y-103443354D01*
X94742093Y-103443350D01*
X94857187Y-103357190D01*
X94857190Y-103357187D01*
X94943350Y-103242093D01*
X94943354Y-103242086D01*
X94993596Y-103107379D01*
X94993598Y-103107372D01*
X94999999Y-103047844D01*
X95000000Y-103047827D01*
X95000000Y-102250000D01*
X93933012Y-102250000D01*
X93965925Y-102192993D01*
X94000000Y-102065826D01*
X94000000Y-101934174D01*
X93965925Y-101807007D01*
X93933012Y-101750000D01*
X95000000Y-101750000D01*
X95000000Y-100952172D01*
X94999999Y-100952155D01*
X94993598Y-100892627D01*
X94993597Y-100892623D01*
X94949371Y-100774049D01*
X94944387Y-100704357D01*
X94949367Y-100687393D01*
X94994091Y-100567483D01*
X95000500Y-100507873D01*
X95000499Y-98412128D01*
X94994091Y-98352517D01*
X94949637Y-98233332D01*
X94944654Y-98163642D01*
X94949638Y-98146667D01*
X94994091Y-98027482D01*
X94997216Y-97998414D01*
X95000500Y-97967873D01*
X95000499Y-95872128D01*
X94994091Y-95812517D01*
X94949637Y-95693332D01*
X94944654Y-95623642D01*
X94949638Y-95606667D01*
X94994091Y-95487482D01*
X94995463Y-95474721D01*
X95000500Y-95427873D01*
X95000499Y-93332128D01*
X94994091Y-93272517D01*
X94949637Y-93153332D01*
X94944654Y-93083642D01*
X94949638Y-93066667D01*
X94994091Y-92947482D01*
X95000500Y-92887873D01*
X95000499Y-90792128D01*
X94994091Y-90732517D01*
X94949370Y-90612615D01*
X94944387Y-90542927D01*
X94949371Y-90525951D01*
X94993597Y-90407376D01*
X94993598Y-90407372D01*
X94999999Y-90347844D01*
X95000000Y-90347827D01*
X95000000Y-89550000D01*
X93933012Y-89550000D01*
X93965925Y-89492993D01*
X94000000Y-89365826D01*
X94000000Y-89234174D01*
X93965925Y-89107007D01*
X93933012Y-89050000D01*
X95000000Y-89050000D01*
X95000000Y-88252172D01*
X94999999Y-88252155D01*
X94993598Y-88192627D01*
X94993597Y-88192623D01*
X94949371Y-88074049D01*
X94944387Y-88004357D01*
X94949367Y-87987393D01*
X94994091Y-87867483D01*
X95000500Y-87807873D01*
X95000499Y-85712128D01*
X94994091Y-85652517D01*
X94949637Y-85533332D01*
X94944654Y-85463642D01*
X94949638Y-85446667D01*
X94967908Y-85397682D01*
X94994091Y-85327483D01*
X95000500Y-85267873D01*
X95000499Y-83172128D01*
X94994091Y-83112517D01*
X94943796Y-82977669D01*
X94943795Y-82977668D01*
X94943793Y-82977664D01*
X94857547Y-82862455D01*
X94857544Y-82862452D01*
X94742335Y-82776206D01*
X94742328Y-82776202D01*
X94607482Y-82725908D01*
X94607483Y-82725908D01*
X94547883Y-82719501D01*
X94547881Y-82719500D01*
X94547873Y-82719500D01*
X94547864Y-82719500D01*
X92452129Y-82719500D01*
X92452123Y-82719501D01*
X92392516Y-82725908D01*
X92257671Y-82776202D01*
X92257664Y-82776206D01*
X92142455Y-82862452D01*
X92142452Y-82862455D01*
X92056206Y-82977664D01*
X92056202Y-82977671D01*
X92005908Y-83112517D01*
X91999501Y-83172116D01*
X91999501Y-83172123D01*
X91999500Y-83172135D01*
X57593187Y-83172135D01*
X57600500Y-83125962D01*
X57600500Y-82874038D01*
X57561090Y-82625215D01*
X57483241Y-82385621D01*
X57483239Y-82385618D01*
X57483239Y-82385616D01*
X57441747Y-82304184D01*
X57368870Y-82161155D01*
X57349952Y-82135117D01*
X57220798Y-81957350D01*
X57220794Y-81957345D01*
X57042654Y-81779205D01*
X57042649Y-81779201D01*
X56838848Y-81631132D01*
X56838847Y-81631131D01*
X56838845Y-81631130D01*
X56768747Y-81595413D01*
X56614383Y-81516760D01*
X56374785Y-81438910D01*
X56125962Y-81399500D01*
X55874038Y-81399500D01*
X55749626Y-81419205D01*
X55625214Y-81438910D01*
X55385616Y-81516760D01*
X55161151Y-81631132D01*
X54957350Y-81779201D01*
X54957345Y-81779205D01*
X54779205Y-81957345D01*
X54779201Y-81957350D01*
X54631132Y-82161151D01*
X54516760Y-82385616D01*
X54438910Y-82625214D01*
X54399500Y-82874038D01*
X52500500Y-82874038D01*
X52500500Y-79624500D01*
X52520185Y-79557461D01*
X52572989Y-79511706D01*
X52624500Y-79500500D01*
X139375500Y-79500500D01*
X139442539Y-79520185D01*
G37*
%TD.AperFunction*%
%TD*%
M02*
