%TF.GenerationSoftware,KiCad,Pcbnew,10.0.5*%
%TF.CreationDate,2026-09-02T13:59:06-07:00*%
%TF.ProjectId,Kevin_PCB,4b657669-6e5f-4504-9342-2e6b69636164,rev?*%
%TF.SameCoordinates,Original*%
%TF.FileFunction,Legend,Top*%
%TF.FilePolarity,Positive*%
%FSLAX46Y46*%
G04 Gerber Fmt 4.6, Leading zero omitted, Abs format (unit mm)*
G04 Created by KiCad (PCBNEW 10.0.5) date 2026-09-02 13:59:06*
%MOMM*%
%LPD*%
G01*
G04 APERTURE LIST*
%ADD10C,0.150000*%
%ADD11C,0.100000*%
%ADD12C,0.158750*%
%ADD13C,0.120000*%
G04 APERTURE END LIST*
D10*
X59190476Y-113684819D02*
X59190476Y-114399104D01*
X59190476Y-114399104D02*
X59142857Y-114541961D01*
X59142857Y-114541961D02*
X59047619Y-114637200D01*
X59047619Y-114637200D02*
X58904762Y-114684819D01*
X58904762Y-114684819D02*
X58809524Y-114684819D01*
X60190476Y-114684819D02*
X59619048Y-114684819D01*
X59904762Y-114684819D02*
X59904762Y-113684819D01*
X59904762Y-113684819D02*
X59809524Y-113827676D01*
X59809524Y-113827676D02*
X59714286Y-113922914D01*
X59714286Y-113922914D02*
X59619048Y-113970533D01*
X60523810Y-113684819D02*
X61190476Y-113684819D01*
X61190476Y-113684819D02*
X60761905Y-114684819D01*
X108270476Y-152954819D02*
X108270476Y-153669104D01*
X108270476Y-153669104D02*
X108222857Y-153811961D01*
X108222857Y-153811961D02*
X108127619Y-153907200D01*
X108127619Y-153907200D02*
X107984762Y-153954819D01*
X107984762Y-153954819D02*
X107889524Y-153954819D01*
X109270476Y-153954819D02*
X108699048Y-153954819D01*
X108984762Y-153954819D02*
X108984762Y-152954819D01*
X108984762Y-152954819D02*
X108889524Y-153097676D01*
X108889524Y-153097676D02*
X108794286Y-153192914D01*
X108794286Y-153192914D02*
X108699048Y-153240533D01*
X110127619Y-152954819D02*
X109937143Y-152954819D01*
X109937143Y-152954819D02*
X109841905Y-153002438D01*
X109841905Y-153002438D02*
X109794286Y-153050057D01*
X109794286Y-153050057D02*
X109699048Y-153192914D01*
X109699048Y-153192914D02*
X109651429Y-153383390D01*
X109651429Y-153383390D02*
X109651429Y-153764342D01*
X109651429Y-153764342D02*
X109699048Y-153859580D01*
X109699048Y-153859580D02*
X109746667Y-153907200D01*
X109746667Y-153907200D02*
X109841905Y-153954819D01*
X109841905Y-153954819D02*
X110032381Y-153954819D01*
X110032381Y-153954819D02*
X110127619Y-153907200D01*
X110127619Y-153907200D02*
X110175238Y-153859580D01*
X110175238Y-153859580D02*
X110222857Y-153764342D01*
X110222857Y-153764342D02*
X110222857Y-153526247D01*
X110222857Y-153526247D02*
X110175238Y-153431009D01*
X110175238Y-153431009D02*
X110127619Y-153383390D01*
X110127619Y-153383390D02*
X110032381Y-153335771D01*
X110032381Y-153335771D02*
X109841905Y-153335771D01*
X109841905Y-153335771D02*
X109746667Y-153383390D01*
X109746667Y-153383390D02*
X109699048Y-153431009D01*
X109699048Y-153431009D02*
X109651429Y-153526247D01*
X65807319Y-157814523D02*
X66521604Y-157814523D01*
X66521604Y-157814523D02*
X66664461Y-157862142D01*
X66664461Y-157862142D02*
X66759700Y-157957380D01*
X66759700Y-157957380D02*
X66807319Y-158100237D01*
X66807319Y-158100237D02*
X66807319Y-158195475D01*
X66807319Y-156814523D02*
X66807319Y-157385951D01*
X66807319Y-157100237D02*
X65807319Y-157100237D01*
X65807319Y-157100237D02*
X65950176Y-157195475D01*
X65950176Y-157195475D02*
X66045414Y-157290713D01*
X66045414Y-157290713D02*
X66093033Y-157385951D01*
X65807319Y-155909761D02*
X65807319Y-156385951D01*
X65807319Y-156385951D02*
X66283509Y-156433570D01*
X66283509Y-156433570D02*
X66235890Y-156385951D01*
X66235890Y-156385951D02*
X66188271Y-156290713D01*
X66188271Y-156290713D02*
X66188271Y-156052618D01*
X66188271Y-156052618D02*
X66235890Y-155957380D01*
X66235890Y-155957380D02*
X66283509Y-155909761D01*
X66283509Y-155909761D02*
X66378747Y-155862142D01*
X66378747Y-155862142D02*
X66616842Y-155862142D01*
X66616842Y-155862142D02*
X66712080Y-155909761D01*
X66712080Y-155909761D02*
X66759700Y-155957380D01*
X66759700Y-155957380D02*
X66807319Y-156052618D01*
X66807319Y-156052618D02*
X66807319Y-156290713D01*
X66807319Y-156290713D02*
X66759700Y-156385951D01*
X66759700Y-156385951D02*
X66712080Y-156433570D01*
X94150476Y-149807319D02*
X94150476Y-150521604D01*
X94150476Y-150521604D02*
X94102857Y-150664461D01*
X94102857Y-150664461D02*
X94007619Y-150759700D01*
X94007619Y-150759700D02*
X93864762Y-150807319D01*
X93864762Y-150807319D02*
X93769524Y-150807319D01*
X95150476Y-150807319D02*
X94579048Y-150807319D01*
X94864762Y-150807319D02*
X94864762Y-149807319D01*
X94864762Y-149807319D02*
X94769524Y-149950176D01*
X94769524Y-149950176D02*
X94674286Y-150045414D01*
X94674286Y-150045414D02*
X94579048Y-150093033D01*
X96007619Y-150140652D02*
X96007619Y-150807319D01*
X95769524Y-149759700D02*
X95531429Y-150473985D01*
X95531429Y-150473985D02*
X96150476Y-150473985D01*
X82116666Y-135331009D02*
X81783333Y-135331009D01*
X81783333Y-135854819D02*
X81783333Y-134854819D01*
X81783333Y-134854819D02*
X82259523Y-134854819D01*
X83164285Y-135854819D02*
X82592857Y-135854819D01*
X82878571Y-135854819D02*
X82878571Y-134854819D01*
X82878571Y-134854819D02*
X82783333Y-134997676D01*
X82783333Y-134997676D02*
X82688095Y-135092914D01*
X82688095Y-135092914D02*
X82592857Y-135140533D01*
X82083333Y-113609580D02*
X82035714Y-113657200D01*
X82035714Y-113657200D02*
X81892857Y-113704819D01*
X81892857Y-113704819D02*
X81797619Y-113704819D01*
X81797619Y-113704819D02*
X81654762Y-113657200D01*
X81654762Y-113657200D02*
X81559524Y-113561961D01*
X81559524Y-113561961D02*
X81511905Y-113466723D01*
X81511905Y-113466723D02*
X81464286Y-113276247D01*
X81464286Y-113276247D02*
X81464286Y-113133390D01*
X81464286Y-113133390D02*
X81511905Y-112942914D01*
X81511905Y-112942914D02*
X81559524Y-112847676D01*
X81559524Y-112847676D02*
X81654762Y-112752438D01*
X81654762Y-112752438D02*
X81797619Y-112704819D01*
X81797619Y-112704819D02*
X81892857Y-112704819D01*
X81892857Y-112704819D02*
X82035714Y-112752438D01*
X82035714Y-112752438D02*
X82083333Y-112800057D01*
X82940476Y-113038152D02*
X82940476Y-113704819D01*
X82702381Y-112657200D02*
X82464286Y-113371485D01*
X82464286Y-113371485D02*
X83083333Y-113371485D01*
X136738095Y-155400057D02*
X136785714Y-155352438D01*
X136785714Y-155352438D02*
X136880952Y-155304819D01*
X136880952Y-155304819D02*
X137119047Y-155304819D01*
X137119047Y-155304819D02*
X137214285Y-155352438D01*
X137214285Y-155352438D02*
X137261904Y-155400057D01*
X137261904Y-155400057D02*
X137309523Y-155495295D01*
X137309523Y-155495295D02*
X137309523Y-155590533D01*
X137309523Y-155590533D02*
X137261904Y-155733390D01*
X137261904Y-155733390D02*
X136690476Y-156304819D01*
X136690476Y-156304819D02*
X137309523Y-156304819D01*
X137642857Y-155304819D02*
X138261904Y-155304819D01*
X138261904Y-155304819D02*
X137928571Y-155685771D01*
X137928571Y-155685771D02*
X138071428Y-155685771D01*
X138071428Y-155685771D02*
X138166666Y-155733390D01*
X138166666Y-155733390D02*
X138214285Y-155781009D01*
X138214285Y-155781009D02*
X138261904Y-155876247D01*
X138261904Y-155876247D02*
X138261904Y-156114342D01*
X138261904Y-156114342D02*
X138214285Y-156209580D01*
X138214285Y-156209580D02*
X138166666Y-156257200D01*
X138166666Y-156257200D02*
X138071428Y-156304819D01*
X138071428Y-156304819D02*
X137785714Y-156304819D01*
X137785714Y-156304819D02*
X137690476Y-156257200D01*
X137690476Y-156257200D02*
X137642857Y-156209580D01*
X52738095Y-79550057D02*
X52785714Y-79502438D01*
X52785714Y-79502438D02*
X52880952Y-79454819D01*
X52880952Y-79454819D02*
X53119047Y-79454819D01*
X53119047Y-79454819D02*
X53214285Y-79502438D01*
X53214285Y-79502438D02*
X53261904Y-79550057D01*
X53261904Y-79550057D02*
X53309523Y-79645295D01*
X53309523Y-79645295D02*
X53309523Y-79740533D01*
X53309523Y-79740533D02*
X53261904Y-79883390D01*
X53261904Y-79883390D02*
X52690476Y-80454819D01*
X52690476Y-80454819D02*
X53309523Y-80454819D01*
X54261904Y-80454819D02*
X53690476Y-80454819D01*
X53976190Y-80454819D02*
X53976190Y-79454819D01*
X53976190Y-79454819D02*
X53880952Y-79597676D01*
X53880952Y-79597676D02*
X53785714Y-79692914D01*
X53785714Y-79692914D02*
X53690476Y-79740533D01*
X100283333Y-105679580D02*
X100235714Y-105727200D01*
X100235714Y-105727200D02*
X100092857Y-105774819D01*
X100092857Y-105774819D02*
X99997619Y-105774819D01*
X99997619Y-105774819D02*
X99854762Y-105727200D01*
X99854762Y-105727200D02*
X99759524Y-105631961D01*
X99759524Y-105631961D02*
X99711905Y-105536723D01*
X99711905Y-105536723D02*
X99664286Y-105346247D01*
X99664286Y-105346247D02*
X99664286Y-105203390D01*
X99664286Y-105203390D02*
X99711905Y-105012914D01*
X99711905Y-105012914D02*
X99759524Y-104917676D01*
X99759524Y-104917676D02*
X99854762Y-104822438D01*
X99854762Y-104822438D02*
X99997619Y-104774819D01*
X99997619Y-104774819D02*
X100092857Y-104774819D01*
X100092857Y-104774819D02*
X100235714Y-104822438D01*
X100235714Y-104822438D02*
X100283333Y-104870057D01*
X101235714Y-105774819D02*
X100664286Y-105774819D01*
X100950000Y-105774819D02*
X100950000Y-104774819D01*
X100950000Y-104774819D02*
X100854762Y-104917676D01*
X100854762Y-104917676D02*
X100759524Y-105012914D01*
X100759524Y-105012914D02*
X100664286Y-105060533D01*
X53238095Y-155400057D02*
X53285714Y-155352438D01*
X53285714Y-155352438D02*
X53380952Y-155304819D01*
X53380952Y-155304819D02*
X53619047Y-155304819D01*
X53619047Y-155304819D02*
X53714285Y-155352438D01*
X53714285Y-155352438D02*
X53761904Y-155400057D01*
X53761904Y-155400057D02*
X53809523Y-155495295D01*
X53809523Y-155495295D02*
X53809523Y-155590533D01*
X53809523Y-155590533D02*
X53761904Y-155733390D01*
X53761904Y-155733390D02*
X53190476Y-156304819D01*
X53190476Y-156304819D02*
X53809523Y-156304819D01*
X54190476Y-155400057D02*
X54238095Y-155352438D01*
X54238095Y-155352438D02*
X54333333Y-155304819D01*
X54333333Y-155304819D02*
X54571428Y-155304819D01*
X54571428Y-155304819D02*
X54666666Y-155352438D01*
X54666666Y-155352438D02*
X54714285Y-155400057D01*
X54714285Y-155400057D02*
X54761904Y-155495295D01*
X54761904Y-155495295D02*
X54761904Y-155590533D01*
X54761904Y-155590533D02*
X54714285Y-155733390D01*
X54714285Y-155733390D02*
X54142857Y-156304819D01*
X54142857Y-156304819D02*
X54761904Y-156304819D01*
D11*
X100666666Y-92067419D02*
X100666666Y-92781704D01*
X100666666Y-92781704D02*
X100619047Y-92924561D01*
X100619047Y-92924561D02*
X100523809Y-93019800D01*
X100523809Y-93019800D02*
X100380952Y-93067419D01*
X100380952Y-93067419D02*
X100285714Y-93067419D01*
X101571428Y-92067419D02*
X101380952Y-92067419D01*
X101380952Y-92067419D02*
X101285714Y-92115038D01*
X101285714Y-92115038D02*
X101238095Y-92162657D01*
X101238095Y-92162657D02*
X101142857Y-92305514D01*
X101142857Y-92305514D02*
X101095238Y-92495990D01*
X101095238Y-92495990D02*
X101095238Y-92876942D01*
X101095238Y-92876942D02*
X101142857Y-92972180D01*
X101142857Y-92972180D02*
X101190476Y-93019800D01*
X101190476Y-93019800D02*
X101285714Y-93067419D01*
X101285714Y-93067419D02*
X101476190Y-93067419D01*
X101476190Y-93067419D02*
X101571428Y-93019800D01*
X101571428Y-93019800D02*
X101619047Y-92972180D01*
X101619047Y-92972180D02*
X101666666Y-92876942D01*
X101666666Y-92876942D02*
X101666666Y-92638847D01*
X101666666Y-92638847D02*
X101619047Y-92543609D01*
X101619047Y-92543609D02*
X101571428Y-92495990D01*
X101571428Y-92495990D02*
X101476190Y-92448371D01*
X101476190Y-92448371D02*
X101285714Y-92448371D01*
X101285714Y-92448371D02*
X101190476Y-92495990D01*
X101190476Y-92495990D02*
X101142857Y-92543609D01*
X101142857Y-92543609D02*
X101095238Y-92638847D01*
D12*
X87679047Y-80769271D02*
X88404761Y-80769271D01*
X88041904Y-82039271D02*
X88041904Y-80769271D01*
X89251428Y-81374033D02*
X89432856Y-81434509D01*
X89432856Y-81434509D02*
X89493333Y-81494985D01*
X89493333Y-81494985D02*
X89553809Y-81615937D01*
X89553809Y-81615937D02*
X89553809Y-81797366D01*
X89553809Y-81797366D02*
X89493333Y-81918318D01*
X89493333Y-81918318D02*
X89432856Y-81978795D01*
X89432856Y-81978795D02*
X89311904Y-82039271D01*
X89311904Y-82039271D02*
X88828094Y-82039271D01*
X88828094Y-82039271D02*
X88828094Y-80769271D01*
X88828094Y-80769271D02*
X89251428Y-80769271D01*
X89251428Y-80769271D02*
X89372380Y-80829747D01*
X89372380Y-80829747D02*
X89432856Y-80890223D01*
X89432856Y-80890223D02*
X89493333Y-81011175D01*
X89493333Y-81011175D02*
X89493333Y-81132128D01*
X89493333Y-81132128D02*
X89432856Y-81253080D01*
X89432856Y-81253080D02*
X89372380Y-81313556D01*
X89372380Y-81313556D02*
X89251428Y-81374033D01*
X89251428Y-81374033D02*
X88828094Y-81374033D01*
X90642380Y-80769271D02*
X90400475Y-80769271D01*
X90400475Y-80769271D02*
X90279523Y-80829747D01*
X90279523Y-80829747D02*
X90219047Y-80890223D01*
X90219047Y-80890223D02*
X90098094Y-81071652D01*
X90098094Y-81071652D02*
X90037618Y-81313556D01*
X90037618Y-81313556D02*
X90037618Y-81797366D01*
X90037618Y-81797366D02*
X90098094Y-81918318D01*
X90098094Y-81918318D02*
X90158571Y-81978795D01*
X90158571Y-81978795D02*
X90279523Y-82039271D01*
X90279523Y-82039271D02*
X90521428Y-82039271D01*
X90521428Y-82039271D02*
X90642380Y-81978795D01*
X90642380Y-81978795D02*
X90702856Y-81918318D01*
X90702856Y-81918318D02*
X90763333Y-81797366D01*
X90763333Y-81797366D02*
X90763333Y-81494985D01*
X90763333Y-81494985D02*
X90702856Y-81374033D01*
X90702856Y-81374033D02*
X90642380Y-81313556D01*
X90642380Y-81313556D02*
X90521428Y-81253080D01*
X90521428Y-81253080D02*
X90279523Y-81253080D01*
X90279523Y-81253080D02*
X90158571Y-81313556D01*
X90158571Y-81313556D02*
X90098094Y-81374033D01*
X90098094Y-81374033D02*
X90037618Y-81494985D01*
X91851904Y-80769271D02*
X91609999Y-80769271D01*
X91609999Y-80769271D02*
X91489047Y-80829747D01*
X91489047Y-80829747D02*
X91428571Y-80890223D01*
X91428571Y-80890223D02*
X91307618Y-81071652D01*
X91307618Y-81071652D02*
X91247142Y-81313556D01*
X91247142Y-81313556D02*
X91247142Y-81797366D01*
X91247142Y-81797366D02*
X91307618Y-81918318D01*
X91307618Y-81918318D02*
X91368095Y-81978795D01*
X91368095Y-81978795D02*
X91489047Y-82039271D01*
X91489047Y-82039271D02*
X91730952Y-82039271D01*
X91730952Y-82039271D02*
X91851904Y-81978795D01*
X91851904Y-81978795D02*
X91912380Y-81918318D01*
X91912380Y-81918318D02*
X91972857Y-81797366D01*
X91972857Y-81797366D02*
X91972857Y-81494985D01*
X91972857Y-81494985D02*
X91912380Y-81374033D01*
X91912380Y-81374033D02*
X91851904Y-81313556D01*
X91851904Y-81313556D02*
X91730952Y-81253080D01*
X91730952Y-81253080D02*
X91489047Y-81253080D01*
X91489047Y-81253080D02*
X91368095Y-81313556D01*
X91368095Y-81313556D02*
X91307618Y-81374033D01*
X91307618Y-81374033D02*
X91247142Y-81494985D01*
X93182381Y-82039271D02*
X92456666Y-82039271D01*
X92819523Y-82039271D02*
X92819523Y-80769271D01*
X92819523Y-80769271D02*
X92698571Y-80950699D01*
X92698571Y-80950699D02*
X92577619Y-81071652D01*
X92577619Y-81071652D02*
X92456666Y-81132128D01*
X93666190Y-80890223D02*
X93726666Y-80829747D01*
X93726666Y-80829747D02*
X93847619Y-80769271D01*
X93847619Y-80769271D02*
X94150000Y-80769271D01*
X94150000Y-80769271D02*
X94270952Y-80829747D01*
X94270952Y-80829747D02*
X94331428Y-80890223D01*
X94331428Y-80890223D02*
X94391905Y-81011175D01*
X94391905Y-81011175D02*
X94391905Y-81132128D01*
X94391905Y-81132128D02*
X94331428Y-81313556D01*
X94331428Y-81313556D02*
X93605714Y-82039271D01*
X93605714Y-82039271D02*
X94391905Y-82039271D01*
X94633810Y-82160223D02*
X95601429Y-82160223D01*
X95903809Y-82039271D02*
X95903809Y-80769271D01*
X95903809Y-80769271D02*
X96327143Y-81676414D01*
X96327143Y-81676414D02*
X96750476Y-80769271D01*
X96750476Y-80769271D02*
X96750476Y-82039271D01*
X97536667Y-82039271D02*
X97415715Y-81978795D01*
X97415715Y-81978795D02*
X97355238Y-81918318D01*
X97355238Y-81918318D02*
X97294762Y-81797366D01*
X97294762Y-81797366D02*
X97294762Y-81434509D01*
X97294762Y-81434509D02*
X97355238Y-81313556D01*
X97355238Y-81313556D02*
X97415715Y-81253080D01*
X97415715Y-81253080D02*
X97536667Y-81192604D01*
X97536667Y-81192604D02*
X97718096Y-81192604D01*
X97718096Y-81192604D02*
X97839048Y-81253080D01*
X97839048Y-81253080D02*
X97899524Y-81313556D01*
X97899524Y-81313556D02*
X97960000Y-81434509D01*
X97960000Y-81434509D02*
X97960000Y-81797366D01*
X97960000Y-81797366D02*
X97899524Y-81918318D01*
X97899524Y-81918318D02*
X97839048Y-81978795D01*
X97839048Y-81978795D02*
X97718096Y-82039271D01*
X97718096Y-82039271D02*
X97536667Y-82039271D01*
X99048572Y-82039271D02*
X99048572Y-80769271D01*
X99048572Y-81978795D02*
X98927620Y-82039271D01*
X98927620Y-82039271D02*
X98685715Y-82039271D01*
X98685715Y-82039271D02*
X98564763Y-81978795D01*
X98564763Y-81978795D02*
X98504286Y-81918318D01*
X98504286Y-81918318D02*
X98443810Y-81797366D01*
X98443810Y-81797366D02*
X98443810Y-81434509D01*
X98443810Y-81434509D02*
X98504286Y-81313556D01*
X98504286Y-81313556D02*
X98564763Y-81253080D01*
X98564763Y-81253080D02*
X98685715Y-81192604D01*
X98685715Y-81192604D02*
X98927620Y-81192604D01*
X98927620Y-81192604D02*
X99048572Y-81253080D01*
X100197620Y-81192604D02*
X100197620Y-82039271D01*
X99653334Y-81192604D02*
X99653334Y-81857842D01*
X99653334Y-81857842D02*
X99713811Y-81978795D01*
X99713811Y-81978795D02*
X99834763Y-82039271D01*
X99834763Y-82039271D02*
X100016192Y-82039271D01*
X100016192Y-82039271D02*
X100137144Y-81978795D01*
X100137144Y-81978795D02*
X100197620Y-81918318D01*
X100983811Y-82039271D02*
X100862859Y-81978795D01*
X100862859Y-81978795D02*
X100802382Y-81857842D01*
X100802382Y-81857842D02*
X100802382Y-80769271D01*
X101951430Y-81978795D02*
X101830478Y-82039271D01*
X101830478Y-82039271D02*
X101588573Y-82039271D01*
X101588573Y-82039271D02*
X101467620Y-81978795D01*
X101467620Y-81978795D02*
X101407144Y-81857842D01*
X101407144Y-81857842D02*
X101407144Y-81374033D01*
X101407144Y-81374033D02*
X101467620Y-81253080D01*
X101467620Y-81253080D02*
X101588573Y-81192604D01*
X101588573Y-81192604D02*
X101830478Y-81192604D01*
X101830478Y-81192604D02*
X101951430Y-81253080D01*
X101951430Y-81253080D02*
X102011906Y-81374033D01*
X102011906Y-81374033D02*
X102011906Y-81494985D01*
X102011906Y-81494985D02*
X101407144Y-81615937D01*
X102253811Y-82160223D02*
X103221430Y-82160223D01*
X103463334Y-80890223D02*
X103523810Y-80829747D01*
X103523810Y-80829747D02*
X103644763Y-80769271D01*
X103644763Y-80769271D02*
X103947144Y-80769271D01*
X103947144Y-80769271D02*
X104068096Y-80829747D01*
X104068096Y-80829747D02*
X104128572Y-80890223D01*
X104128572Y-80890223D02*
X104189049Y-81011175D01*
X104189049Y-81011175D02*
X104189049Y-81132128D01*
X104189049Y-81132128D02*
X104128572Y-81313556D01*
X104128572Y-81313556D02*
X103402858Y-82039271D01*
X103402858Y-82039271D02*
X104189049Y-82039271D01*
X104612382Y-82039271D02*
X105277620Y-81192604D01*
X104612382Y-81192604D02*
X105277620Y-82039271D01*
X105942858Y-81313556D02*
X105821906Y-81253080D01*
X105821906Y-81253080D02*
X105761429Y-81192604D01*
X105761429Y-81192604D02*
X105700953Y-81071652D01*
X105700953Y-81071652D02*
X105700953Y-81011175D01*
X105700953Y-81011175D02*
X105761429Y-80890223D01*
X105761429Y-80890223D02*
X105821906Y-80829747D01*
X105821906Y-80829747D02*
X105942858Y-80769271D01*
X105942858Y-80769271D02*
X106184763Y-80769271D01*
X106184763Y-80769271D02*
X106305715Y-80829747D01*
X106305715Y-80829747D02*
X106366191Y-80890223D01*
X106366191Y-80890223D02*
X106426668Y-81011175D01*
X106426668Y-81011175D02*
X106426668Y-81071652D01*
X106426668Y-81071652D02*
X106366191Y-81192604D01*
X106366191Y-81192604D02*
X106305715Y-81253080D01*
X106305715Y-81253080D02*
X106184763Y-81313556D01*
X106184763Y-81313556D02*
X105942858Y-81313556D01*
X105942858Y-81313556D02*
X105821906Y-81374033D01*
X105821906Y-81374033D02*
X105761429Y-81434509D01*
X105761429Y-81434509D02*
X105700953Y-81555461D01*
X105700953Y-81555461D02*
X105700953Y-81797366D01*
X105700953Y-81797366D02*
X105761429Y-81918318D01*
X105761429Y-81918318D02*
X105821906Y-81978795D01*
X105821906Y-81978795D02*
X105942858Y-82039271D01*
X105942858Y-82039271D02*
X106184763Y-82039271D01*
X106184763Y-82039271D02*
X106305715Y-81978795D01*
X106305715Y-81978795D02*
X106366191Y-81918318D01*
X106366191Y-81918318D02*
X106426668Y-81797366D01*
X106426668Y-81797366D02*
X106426668Y-81555461D01*
X106426668Y-81555461D02*
X106366191Y-81434509D01*
X106366191Y-81434509D02*
X106305715Y-81374033D01*
X106305715Y-81374033D02*
X106184763Y-81313556D01*
X106668573Y-82160223D02*
X107636192Y-82160223D01*
X108603811Y-82039271D02*
X107878096Y-82039271D01*
X108240953Y-82039271D02*
X108240953Y-80769271D01*
X108240953Y-80769271D02*
X108120001Y-80950699D01*
X108120001Y-80950699D02*
X107999049Y-81071652D01*
X107999049Y-81071652D02*
X107878096Y-81132128D01*
X109752858Y-80769271D02*
X109148096Y-80769271D01*
X109148096Y-80769271D02*
X109087620Y-81374033D01*
X109087620Y-81374033D02*
X109148096Y-81313556D01*
X109148096Y-81313556D02*
X109269049Y-81253080D01*
X109269049Y-81253080D02*
X109571430Y-81253080D01*
X109571430Y-81253080D02*
X109692382Y-81313556D01*
X109692382Y-81313556D02*
X109752858Y-81374033D01*
X109752858Y-81374033D02*
X109813335Y-81494985D01*
X109813335Y-81494985D02*
X109813335Y-81797366D01*
X109813335Y-81797366D02*
X109752858Y-81918318D01*
X109752858Y-81918318D02*
X109692382Y-81978795D01*
X109692382Y-81978795D02*
X109571430Y-82039271D01*
X109571430Y-82039271D02*
X109269049Y-82039271D01*
X109269049Y-82039271D02*
X109148096Y-81978795D01*
X109148096Y-81978795D02*
X109087620Y-81918318D01*
X110357620Y-82039271D02*
X110357620Y-81192604D01*
X110357620Y-81313556D02*
X110418097Y-81253080D01*
X110418097Y-81253080D02*
X110539049Y-81192604D01*
X110539049Y-81192604D02*
X110720478Y-81192604D01*
X110720478Y-81192604D02*
X110841430Y-81253080D01*
X110841430Y-81253080D02*
X110901906Y-81374033D01*
X110901906Y-81374033D02*
X110901906Y-82039271D01*
X110901906Y-81374033D02*
X110962382Y-81253080D01*
X110962382Y-81253080D02*
X111083335Y-81192604D01*
X111083335Y-81192604D02*
X111264763Y-81192604D01*
X111264763Y-81192604D02*
X111385716Y-81253080D01*
X111385716Y-81253080D02*
X111446192Y-81374033D01*
X111446192Y-81374033D02*
X111446192Y-82039271D01*
X112050953Y-82039271D02*
X112050953Y-81192604D01*
X112050953Y-81313556D02*
X112111430Y-81253080D01*
X112111430Y-81253080D02*
X112232382Y-81192604D01*
X112232382Y-81192604D02*
X112413811Y-81192604D01*
X112413811Y-81192604D02*
X112534763Y-81253080D01*
X112534763Y-81253080D02*
X112595239Y-81374033D01*
X112595239Y-81374033D02*
X112595239Y-82039271D01*
X112595239Y-81374033D02*
X112655715Y-81253080D01*
X112655715Y-81253080D02*
X112776668Y-81192604D01*
X112776668Y-81192604D02*
X112958096Y-81192604D01*
X112958096Y-81192604D02*
X113079049Y-81253080D01*
X113079049Y-81253080D02*
X113139525Y-81374033D01*
X113139525Y-81374033D02*
X113139525Y-82039271D01*
D10*
X82666666Y-96374819D02*
X82666666Y-97089104D01*
X82666666Y-97089104D02*
X82619047Y-97231961D01*
X82619047Y-97231961D02*
X82523809Y-97327200D01*
X82523809Y-97327200D02*
X82380952Y-97374819D01*
X82380952Y-97374819D02*
X82285714Y-97374819D01*
X83047619Y-96374819D02*
X83666666Y-96374819D01*
X83666666Y-96374819D02*
X83333333Y-96755771D01*
X83333333Y-96755771D02*
X83476190Y-96755771D01*
X83476190Y-96755771D02*
X83571428Y-96803390D01*
X83571428Y-96803390D02*
X83619047Y-96851009D01*
X83619047Y-96851009D02*
X83666666Y-96946247D01*
X83666666Y-96946247D02*
X83666666Y-97184342D01*
X83666666Y-97184342D02*
X83619047Y-97279580D01*
X83619047Y-97279580D02*
X83571428Y-97327200D01*
X83571428Y-97327200D02*
X83476190Y-97374819D01*
X83476190Y-97374819D02*
X83190476Y-97374819D01*
X83190476Y-97374819D02*
X83095238Y-97327200D01*
X83095238Y-97327200D02*
X83047619Y-97279580D01*
D11*
X125166666Y-113987419D02*
X125166666Y-114701704D01*
X125166666Y-114701704D02*
X125119047Y-114844561D01*
X125119047Y-114844561D02*
X125023809Y-114939800D01*
X125023809Y-114939800D02*
X124880952Y-114987419D01*
X124880952Y-114987419D02*
X124785714Y-114987419D01*
X126119047Y-113987419D02*
X125642857Y-113987419D01*
X125642857Y-113987419D02*
X125595238Y-114463609D01*
X125595238Y-114463609D02*
X125642857Y-114415990D01*
X125642857Y-114415990D02*
X125738095Y-114368371D01*
X125738095Y-114368371D02*
X125976190Y-114368371D01*
X125976190Y-114368371D02*
X126071428Y-114415990D01*
X126071428Y-114415990D02*
X126119047Y-114463609D01*
X126119047Y-114463609D02*
X126166666Y-114558847D01*
X126166666Y-114558847D02*
X126166666Y-114796942D01*
X126166666Y-114796942D02*
X126119047Y-114892180D01*
X126119047Y-114892180D02*
X126071428Y-114939800D01*
X126071428Y-114939800D02*
X125976190Y-114987419D01*
X125976190Y-114987419D02*
X125738095Y-114987419D01*
X125738095Y-114987419D02*
X125642857Y-114939800D01*
X125642857Y-114939800D02*
X125595238Y-114892180D01*
D10*
X68083333Y-90259580D02*
X68035714Y-90307200D01*
X68035714Y-90307200D02*
X67892857Y-90354819D01*
X67892857Y-90354819D02*
X67797619Y-90354819D01*
X67797619Y-90354819D02*
X67654762Y-90307200D01*
X67654762Y-90307200D02*
X67559524Y-90211961D01*
X67559524Y-90211961D02*
X67511905Y-90116723D01*
X67511905Y-90116723D02*
X67464286Y-89926247D01*
X67464286Y-89926247D02*
X67464286Y-89783390D01*
X67464286Y-89783390D02*
X67511905Y-89592914D01*
X67511905Y-89592914D02*
X67559524Y-89497676D01*
X67559524Y-89497676D02*
X67654762Y-89402438D01*
X67654762Y-89402438D02*
X67797619Y-89354819D01*
X67797619Y-89354819D02*
X67892857Y-89354819D01*
X67892857Y-89354819D02*
X68035714Y-89402438D01*
X68035714Y-89402438D02*
X68083333Y-89450057D01*
X68416667Y-89354819D02*
X69035714Y-89354819D01*
X69035714Y-89354819D02*
X68702381Y-89735771D01*
X68702381Y-89735771D02*
X68845238Y-89735771D01*
X68845238Y-89735771D02*
X68940476Y-89783390D01*
X68940476Y-89783390D02*
X68988095Y-89831009D01*
X68988095Y-89831009D02*
X69035714Y-89926247D01*
X69035714Y-89926247D02*
X69035714Y-90164342D01*
X69035714Y-90164342D02*
X68988095Y-90259580D01*
X68988095Y-90259580D02*
X68940476Y-90307200D01*
X68940476Y-90307200D02*
X68845238Y-90354819D01*
X68845238Y-90354819D02*
X68559524Y-90354819D01*
X68559524Y-90354819D02*
X68464286Y-90307200D01*
X68464286Y-90307200D02*
X68416667Y-90259580D01*
X69896666Y-94164819D02*
X69896666Y-94879104D01*
X69896666Y-94879104D02*
X69849047Y-95021961D01*
X69849047Y-95021961D02*
X69753809Y-95117200D01*
X69753809Y-95117200D02*
X69610952Y-95164819D01*
X69610952Y-95164819D02*
X69515714Y-95164819D01*
X70896666Y-95164819D02*
X70325238Y-95164819D01*
X70610952Y-95164819D02*
X70610952Y-94164819D01*
X70610952Y-94164819D02*
X70515714Y-94307676D01*
X70515714Y-94307676D02*
X70420476Y-94402914D01*
X70420476Y-94402914D02*
X70325238Y-94450533D01*
X59783333Y-143179580D02*
X59735714Y-143227200D01*
X59735714Y-143227200D02*
X59592857Y-143274819D01*
X59592857Y-143274819D02*
X59497619Y-143274819D01*
X59497619Y-143274819D02*
X59354762Y-143227200D01*
X59354762Y-143227200D02*
X59259524Y-143131961D01*
X59259524Y-143131961D02*
X59211905Y-143036723D01*
X59211905Y-143036723D02*
X59164286Y-142846247D01*
X59164286Y-142846247D02*
X59164286Y-142703390D01*
X59164286Y-142703390D02*
X59211905Y-142512914D01*
X59211905Y-142512914D02*
X59259524Y-142417676D01*
X59259524Y-142417676D02*
X59354762Y-142322438D01*
X59354762Y-142322438D02*
X59497619Y-142274819D01*
X59497619Y-142274819D02*
X59592857Y-142274819D01*
X59592857Y-142274819D02*
X59735714Y-142322438D01*
X59735714Y-142322438D02*
X59783333Y-142370057D01*
X60164286Y-142370057D02*
X60211905Y-142322438D01*
X60211905Y-142322438D02*
X60307143Y-142274819D01*
X60307143Y-142274819D02*
X60545238Y-142274819D01*
X60545238Y-142274819D02*
X60640476Y-142322438D01*
X60640476Y-142322438D02*
X60688095Y-142370057D01*
X60688095Y-142370057D02*
X60735714Y-142465295D01*
X60735714Y-142465295D02*
X60735714Y-142560533D01*
X60735714Y-142560533D02*
X60688095Y-142703390D01*
X60688095Y-142703390D02*
X60116667Y-143274819D01*
X60116667Y-143274819D02*
X60735714Y-143274819D01*
%TO.C,J17*%
D13*
X58620000Y-115230000D02*
X60000000Y-115230000D01*
X58620000Y-116610000D02*
X58620000Y-115230000D01*
X58620000Y-117880000D02*
X58620000Y-135770000D01*
X58620000Y-117880000D02*
X61380000Y-117880000D01*
X58620000Y-135770000D02*
X61380000Y-135770000D01*
X61380000Y-117880000D02*
X61380000Y-135770000D01*
%TO.C,J16*%
X103840000Y-151180000D02*
X114240000Y-151180000D01*
X103840000Y-154200000D02*
X114240000Y-154200000D01*
X103840000Y-159100000D02*
X114240000Y-159100000D01*
X103840000Y-160600000D02*
X114240000Y-160600000D01*
X103840000Y-161220000D02*
X103840000Y-151180000D01*
X106200000Y-161220000D02*
X103840000Y-161220000D01*
X114240000Y-151180000D02*
X114240000Y-161220000D01*
X114240000Y-161220000D02*
X106800000Y-161220000D01*
X106500000Y-161220000D02*
X106940000Y-161830000D01*
X106060000Y-161830000D01*
X106500000Y-161220000D01*
G36*
X106940000Y-161830000D02*
G01*
X106060000Y-161830000D01*
X106500000Y-161220000D01*
X106940000Y-161830000D01*
G37*
%TO.C,J15*%
X67352500Y-162205000D02*
X67352500Y-151805000D01*
X70372500Y-162205000D02*
X70372500Y-151805000D01*
X75272500Y-162205000D02*
X75272500Y-151805000D01*
X76772500Y-162205000D02*
X76772500Y-151805000D01*
X77392500Y-162205000D02*
X67352500Y-162205000D01*
X77392500Y-159845000D02*
X77392500Y-162205000D01*
X67352500Y-151805000D02*
X77392500Y-151805000D01*
X77392500Y-151805000D02*
X77392500Y-159245000D01*
X77392500Y-159545000D02*
X78002500Y-159105000D01*
X78002500Y-159985000D01*
X77392500Y-159545000D01*
G36*
X78002500Y-159985000D02*
G01*
X77392500Y-159545000D01*
X78002500Y-159105000D01*
X78002500Y-159985000D01*
G37*
%TO.C,J14*%
X89760000Y-151352500D02*
X100160000Y-151352500D01*
X89760000Y-154372500D02*
X100160000Y-154372500D01*
X89760000Y-159272500D02*
X100160000Y-159272500D01*
X89760000Y-160772500D02*
X100160000Y-160772500D01*
X89760000Y-161392500D02*
X89760000Y-151352500D01*
X92120000Y-161392500D02*
X89760000Y-161392500D01*
X100160000Y-151352500D02*
X100160000Y-161392500D01*
X100160000Y-161392500D02*
X92720000Y-161392500D01*
X92420000Y-161392500D02*
X92860000Y-162002500D01*
X91980000Y-162002500D01*
X92420000Y-161392500D01*
G36*
X92860000Y-162002500D02*
G01*
X91980000Y-162002500D01*
X92420000Y-161392500D01*
X92860000Y-162002500D01*
G37*
%TO.C,F1*%
X86100000Y-134500000D02*
X85838000Y-134500000D01*
X86100000Y-134202000D02*
X86100000Y-134500000D01*
X86100000Y-131300000D02*
X86100000Y-132798000D01*
X84162000Y-134500000D02*
X78800000Y-134500000D01*
X80738000Y-131300000D02*
X86100000Y-131300000D01*
X78800000Y-134500000D02*
X78800000Y-133002000D01*
X78800000Y-131598000D02*
X78800000Y-131300000D01*
X78800000Y-131300000D02*
X79062000Y-131300000D01*
%TO.C,C4*%
X77840302Y-116185000D02*
X78640302Y-116185000D01*
X78240302Y-115785000D02*
X78240302Y-116585000D01*
X82250000Y-114420000D02*
X82250000Y-122580000D01*
X82290000Y-114420000D02*
X82290000Y-122580000D01*
X82330000Y-114421000D02*
X82330000Y-122579000D01*
X82370000Y-114422000D02*
X82370000Y-122578000D01*
X82410000Y-114423000D02*
X82410000Y-122577000D01*
X82450000Y-114425000D02*
X82450000Y-122575000D01*
X82490000Y-114427000D02*
X82490000Y-122573000D01*
X82530000Y-114430000D02*
X82530000Y-122570000D01*
X82570000Y-114432000D02*
X82570000Y-122568000D01*
X82610000Y-114436000D02*
X82610000Y-122564000D01*
X82650000Y-114439000D02*
X82650000Y-122561000D01*
X82690000Y-114444000D02*
X82690000Y-122556000D01*
X82730000Y-114448000D02*
X82730000Y-122552000D01*
X82770000Y-114453000D02*
X82770000Y-122547000D01*
X82810000Y-114458000D02*
X82810000Y-122542000D01*
X82850000Y-114464000D02*
X82850000Y-122536000D01*
X82890000Y-114470000D02*
X82890000Y-122530000D01*
X82930000Y-114477000D02*
X82930000Y-122523000D01*
X82970000Y-114483000D02*
X82970000Y-117460000D01*
X82970000Y-119540000D02*
X82970000Y-122517000D01*
X83010000Y-114491000D02*
X83010000Y-117460000D01*
X83010000Y-119540000D02*
X83010000Y-122509000D01*
X83050000Y-114498000D02*
X83050000Y-117460000D01*
X83050000Y-119540000D02*
X83050000Y-122502000D01*
X83090000Y-114507000D02*
X83090000Y-117460000D01*
X83090000Y-119540000D02*
X83090000Y-122493000D01*
X83130000Y-114515000D02*
X83130000Y-117460000D01*
X83130000Y-119540000D02*
X83130000Y-122485000D01*
X83170000Y-114524000D02*
X83170000Y-117460000D01*
X83170000Y-119540000D02*
X83170000Y-122476000D01*
X83210000Y-114533000D02*
X83210000Y-117460000D01*
X83210000Y-119540000D02*
X83210000Y-122467000D01*
X83250000Y-114543000D02*
X83250000Y-117460000D01*
X83250000Y-119540000D02*
X83250000Y-122457000D01*
X83290000Y-114553000D02*
X83290000Y-117460000D01*
X83290000Y-119540000D02*
X83290000Y-122447000D01*
X83330000Y-114564000D02*
X83330000Y-117460000D01*
X83330000Y-119540000D02*
X83330000Y-122436000D01*
X83370000Y-114575000D02*
X83370000Y-117460000D01*
X83370000Y-119540000D02*
X83370000Y-122425000D01*
X83410000Y-114587000D02*
X83410000Y-117460000D01*
X83410000Y-119540000D02*
X83410000Y-122413000D01*
X83450000Y-114599000D02*
X83450000Y-117460000D01*
X83450000Y-119540000D02*
X83450000Y-122401000D01*
X83490000Y-114611000D02*
X83490000Y-117460000D01*
X83490000Y-119540000D02*
X83490000Y-122389000D01*
X83530000Y-114624000D02*
X83530000Y-117460000D01*
X83530000Y-119540000D02*
X83530000Y-122376000D01*
X83570000Y-114637000D02*
X83570000Y-117460000D01*
X83570000Y-119540000D02*
X83570000Y-122363000D01*
X83610000Y-114651000D02*
X83610000Y-117460000D01*
X83610000Y-119540000D02*
X83610000Y-122349000D01*
X83650000Y-114665000D02*
X83650000Y-117460000D01*
X83650000Y-119540000D02*
X83650000Y-122335000D01*
X83690000Y-114680000D02*
X83690000Y-117460000D01*
X83690000Y-119540000D02*
X83690000Y-122320000D01*
X83730000Y-114695000D02*
X83730000Y-117460000D01*
X83730000Y-119540000D02*
X83730000Y-122305000D01*
X83770000Y-114711000D02*
X83770000Y-117460000D01*
X83770000Y-119540000D02*
X83770000Y-122289000D01*
X83810000Y-114727000D02*
X83810000Y-117460000D01*
X83810000Y-119540000D02*
X83810000Y-122273000D01*
X83850000Y-114743000D02*
X83850000Y-117460000D01*
X83850000Y-119540000D02*
X83850000Y-122257000D01*
X83890000Y-114760000D02*
X83890000Y-117460000D01*
X83890000Y-119540000D02*
X83890000Y-122240000D01*
X83930000Y-114778000D02*
X83930000Y-117460000D01*
X83930000Y-119540000D02*
X83930000Y-122222000D01*
X83970000Y-114796000D02*
X83970000Y-117460000D01*
X83970000Y-119540000D02*
X83970000Y-122204000D01*
X84010000Y-114815000D02*
X84010000Y-117460000D01*
X84010000Y-119540000D02*
X84010000Y-122185000D01*
X84050000Y-114834000D02*
X84050000Y-117460000D01*
X84050000Y-119540000D02*
X84050000Y-122166000D01*
X84090000Y-114854000D02*
X84090000Y-117460000D01*
X84090000Y-119540000D02*
X84090000Y-122146000D01*
X84130000Y-114874000D02*
X84130000Y-117460000D01*
X84130000Y-119540000D02*
X84130000Y-122126000D01*
X84170000Y-114895000D02*
X84170000Y-117460000D01*
X84170000Y-119540000D02*
X84170000Y-122105000D01*
X84210000Y-114916000D02*
X84210000Y-117460000D01*
X84210000Y-119540000D02*
X84210000Y-122084000D01*
X84250000Y-114938000D02*
X84250000Y-117460000D01*
X84250000Y-119540000D02*
X84250000Y-122062000D01*
X84290000Y-114961000D02*
X84290000Y-117460000D01*
X84290000Y-119540000D02*
X84290000Y-122039000D01*
X84330000Y-114984000D02*
X84330000Y-117460000D01*
X84330000Y-119540000D02*
X84330000Y-122016000D01*
X84370000Y-115007000D02*
X84370000Y-117460000D01*
X84370000Y-119540000D02*
X84370000Y-121993000D01*
X84410000Y-115032000D02*
X84410000Y-117460000D01*
X84410000Y-119540000D02*
X84410000Y-121968000D01*
X84450000Y-115057000D02*
X84450000Y-117460000D01*
X84450000Y-119540000D02*
X84450000Y-121943000D01*
X84490000Y-115082000D02*
X84490000Y-117460000D01*
X84490000Y-119540000D02*
X84490000Y-121918000D01*
X84530000Y-115108000D02*
X84530000Y-117460000D01*
X84530000Y-119540000D02*
X84530000Y-121892000D01*
X84570000Y-115135000D02*
X84570000Y-117460000D01*
X84570000Y-119540000D02*
X84570000Y-121865000D01*
X84610000Y-115163000D02*
X84610000Y-117460000D01*
X84610000Y-119540000D02*
X84610000Y-121837000D01*
X84650000Y-115191000D02*
X84650000Y-117460000D01*
X84650000Y-119540000D02*
X84650000Y-121809000D01*
X84690000Y-115220000D02*
X84690000Y-117460000D01*
X84690000Y-119540000D02*
X84690000Y-121780000D01*
X84730000Y-115250000D02*
X84730000Y-117460000D01*
X84730000Y-119540000D02*
X84730000Y-121750000D01*
X84770000Y-115281000D02*
X84770000Y-117460000D01*
X84770000Y-119540000D02*
X84770000Y-121719000D01*
X84810000Y-115312000D02*
X84810000Y-117460000D01*
X84810000Y-119540000D02*
X84810000Y-121688000D01*
X84850000Y-115344000D02*
X84850000Y-117460000D01*
X84850000Y-119540000D02*
X84850000Y-121656000D01*
X84890000Y-115377000D02*
X84890000Y-117460000D01*
X84890000Y-119540000D02*
X84890000Y-121623000D01*
X84930000Y-115411000D02*
X84930000Y-117460000D01*
X84930000Y-119540000D02*
X84930000Y-121589000D01*
X84970000Y-115445000D02*
X84970000Y-117460000D01*
X84970000Y-119540000D02*
X84970000Y-121555000D01*
X85010000Y-115481000D02*
X85010000Y-117460000D01*
X85010000Y-119540000D02*
X85010000Y-121519000D01*
X85050000Y-115518000D02*
X85050000Y-121482000D01*
X85090000Y-115555000D02*
X85090000Y-121445000D01*
X85130000Y-115594000D02*
X85130000Y-121406000D01*
X85170000Y-115633000D02*
X85170000Y-121367000D01*
X85210000Y-115674000D02*
X85210000Y-121326000D01*
X85250000Y-115716000D02*
X85250000Y-121284000D01*
X85290000Y-115759000D02*
X85290000Y-121241000D01*
X85330000Y-115804000D02*
X85330000Y-121196000D01*
X85370000Y-115849000D02*
X85370000Y-121151000D01*
X85410000Y-115896000D02*
X85410000Y-121104000D01*
X85450000Y-115945000D02*
X85450000Y-121055000D01*
X85490000Y-115995000D02*
X85490000Y-121005000D01*
X85530000Y-116047000D02*
X85530000Y-120953000D01*
X85570000Y-116100000D02*
X85570000Y-120900000D01*
X85610000Y-116156000D02*
X85610000Y-120844000D01*
X85650000Y-116213000D02*
X85650000Y-120787000D01*
X85690000Y-116273000D02*
X85690000Y-120727000D01*
X85730000Y-116335000D02*
X85730000Y-120665000D01*
X85770000Y-116399000D02*
X85770000Y-120601000D01*
X85810000Y-116466000D02*
X85810000Y-120534000D01*
X85850000Y-116536000D02*
X85850000Y-120464000D01*
X85890000Y-116610000D02*
X85890000Y-120390000D01*
X85930000Y-116687000D02*
X85930000Y-120313000D01*
X85970000Y-116769000D02*
X85970000Y-120231000D01*
X86010000Y-116856000D02*
X86010000Y-120144000D01*
X86050000Y-116948000D02*
X86050000Y-120052000D01*
X86090000Y-117047000D02*
X86090000Y-119953000D01*
X86130000Y-117154000D02*
X86130000Y-119846000D01*
X86170000Y-117272000D02*
X86170000Y-119728000D01*
X86210000Y-117403000D02*
X86210000Y-119597000D01*
X86250000Y-117553000D02*
X86250000Y-119447000D01*
X86290000Y-117732000D02*
X86290000Y-119268000D01*
X86330000Y-117967000D02*
X86330000Y-119033000D01*
X86370000Y-118500000D02*
G75*
G02*
X78130000Y-118500000I-4120000J0D01*
G01*
X78130000Y-118500000D02*
G75*
G02*
X86370000Y-118500000I4120000J0D01*
G01*
%TO.C,C1*%
X100188748Y-106265000D02*
X100711252Y-106265000D01*
X100188748Y-107735000D02*
X100711252Y-107735000D01*
%TO.C,J6*%
D11*
X95500000Y-83610000D02*
X95500000Y-85110000D01*
%TO.C,J3*%
D13*
X88220000Y-97760000D02*
X88220000Y-105200000D01*
X78180000Y-97760000D02*
X88220000Y-97760000D01*
X88220000Y-105800000D02*
X88220000Y-108160000D01*
X88220000Y-108160000D02*
X78180000Y-108160000D01*
X87600000Y-108160000D02*
X87600000Y-97760000D01*
X86100000Y-108160000D02*
X86100000Y-97760000D01*
X81200000Y-108160000D02*
X81200000Y-97760000D01*
X78180000Y-108160000D02*
X78180000Y-97760000D01*
X88220000Y-105500000D02*
X88830000Y-105060000D01*
X88830000Y-105940000D01*
X88220000Y-105500000D01*
G36*
X88830000Y-105940000D02*
G01*
X88220000Y-105500000D01*
X88830000Y-105060000D01*
X88830000Y-105940000D01*
G37*
%TO.C,J5*%
D11*
X116500000Y-82030000D02*
X117000000Y-82030000D01*
X117000000Y-85530000D01*
X116500000Y-85530000D01*
X116500000Y-82030000D01*
%TO.C,C3*%
D13*
X65010000Y-85902000D02*
X65010000Y-85098000D01*
X65050000Y-86133000D02*
X65050000Y-84867000D01*
X65090000Y-86301000D02*
X65090000Y-84699000D01*
X65130000Y-86439000D02*
X65130000Y-84561000D01*
X65170000Y-86558000D02*
X65170000Y-84442000D01*
X65210000Y-86665000D02*
X65210000Y-84335000D01*
X65250000Y-86761000D02*
X65250000Y-84239000D01*
X65290000Y-86850000D02*
X65290000Y-84150000D01*
X65330000Y-86932000D02*
X65330000Y-84068000D01*
X65370000Y-87009000D02*
X65370000Y-83991000D01*
X65410000Y-87081000D02*
X65410000Y-83919000D01*
X65450000Y-87149000D02*
X65450000Y-83851000D01*
X65490000Y-87214000D02*
X65490000Y-83786000D01*
X65530000Y-87275000D02*
X65530000Y-83725000D01*
X65570000Y-87334000D02*
X65570000Y-83666000D01*
X65610000Y-87390000D02*
X65610000Y-83610000D01*
X65650000Y-87443000D02*
X65650000Y-83557000D01*
X65690000Y-87495000D02*
X65690000Y-83505000D01*
X65730000Y-87544000D02*
X65730000Y-83456000D01*
X65770000Y-87591000D02*
X65770000Y-83409000D01*
X65810000Y-87637000D02*
X65810000Y-83363000D01*
X65850000Y-87681000D02*
X65850000Y-83319000D01*
X65890000Y-87723000D02*
X65890000Y-83277000D01*
X65930000Y-87764000D02*
X65930000Y-83236000D01*
X65970000Y-84460000D02*
X65970000Y-83196000D01*
X65970000Y-87804000D02*
X65970000Y-86540000D01*
X66010000Y-84460000D02*
X66010000Y-83158000D01*
X66010000Y-87842000D02*
X66010000Y-86540000D01*
X66050000Y-84460000D02*
X66050000Y-83121000D01*
X66050000Y-87879000D02*
X66050000Y-86540000D01*
X66090000Y-84460000D02*
X66090000Y-83085000D01*
X66090000Y-87915000D02*
X66090000Y-86540000D01*
X66130000Y-84460000D02*
X66130000Y-83050000D01*
X66130000Y-87950000D02*
X66130000Y-86540000D01*
X66170000Y-84460000D02*
X66170000Y-83017000D01*
X66170000Y-87983000D02*
X66170000Y-86540000D01*
X66210000Y-84460000D02*
X66210000Y-82984000D01*
X66210000Y-88016000D02*
X66210000Y-86540000D01*
X66250000Y-84460000D02*
X66250000Y-82953000D01*
X66250000Y-88047000D02*
X66250000Y-86540000D01*
X66290000Y-84460000D02*
X66290000Y-82923000D01*
X66290000Y-88077000D02*
X66290000Y-86540000D01*
X66330000Y-84460000D02*
X66330000Y-82893000D01*
X66330000Y-88107000D02*
X66330000Y-86540000D01*
X66370000Y-84460000D02*
X66370000Y-82864000D01*
X66370000Y-88136000D02*
X66370000Y-86540000D01*
X66410000Y-84460000D02*
X66410000Y-82837000D01*
X66410000Y-88163000D02*
X66410000Y-86540000D01*
X66450000Y-84460000D02*
X66450000Y-82810000D01*
X66450000Y-88190000D02*
X66450000Y-86540000D01*
X66490000Y-84460000D02*
X66490000Y-82784000D01*
X66490000Y-88216000D02*
X66490000Y-86540000D01*
X66530000Y-84460000D02*
X66530000Y-82759000D01*
X66530000Y-88241000D02*
X66530000Y-86540000D01*
X66570000Y-84460000D02*
X66570000Y-82735000D01*
X66570000Y-88265000D02*
X66570000Y-86540000D01*
X66610000Y-84460000D02*
X66610000Y-82711000D01*
X66610000Y-88289000D02*
X66610000Y-86540000D01*
X66650000Y-84460000D02*
X66650000Y-82688000D01*
X66650000Y-88312000D02*
X66650000Y-86540000D01*
X66690000Y-84460000D02*
X66690000Y-82666000D01*
X66690000Y-88334000D02*
X66690000Y-86540000D01*
X66730000Y-84460000D02*
X66730000Y-82645000D01*
X66730000Y-88355000D02*
X66730000Y-86540000D01*
X66770000Y-84460000D02*
X66770000Y-82624000D01*
X66770000Y-88376000D02*
X66770000Y-86540000D01*
X66810000Y-84460000D02*
X66810000Y-82604000D01*
X66810000Y-88396000D02*
X66810000Y-86540000D01*
X66850000Y-84460000D02*
X66850000Y-82585000D01*
X66850000Y-88415000D02*
X66850000Y-86540000D01*
X66890000Y-84460000D02*
X66890000Y-82566000D01*
X66890000Y-88434000D02*
X66890000Y-86540000D01*
X66930000Y-84460000D02*
X66930000Y-82548000D01*
X66930000Y-88452000D02*
X66930000Y-86540000D01*
X66970000Y-84460000D02*
X66970000Y-82531000D01*
X66970000Y-88469000D02*
X66970000Y-86540000D01*
X67010000Y-84460000D02*
X67010000Y-82514000D01*
X67010000Y-88486000D02*
X67010000Y-86540000D01*
X67050000Y-84460000D02*
X67050000Y-82498000D01*
X67050000Y-88502000D02*
X67050000Y-86540000D01*
X67090000Y-84460000D02*
X67090000Y-82483000D01*
X67090000Y-88517000D02*
X67090000Y-86540000D01*
X67130000Y-84460000D02*
X67130000Y-82468000D01*
X67130000Y-88532000D02*
X67130000Y-86540000D01*
X67170000Y-84460000D02*
X67170000Y-82453000D01*
X67170000Y-88547000D02*
X67170000Y-86540000D01*
X67210000Y-84460000D02*
X67210000Y-82440000D01*
X67210000Y-88560000D02*
X67210000Y-86540000D01*
X67250000Y-84460000D02*
X67250000Y-82427000D01*
X67250000Y-88573000D02*
X67250000Y-86540000D01*
X67290000Y-84460000D02*
X67290000Y-82414000D01*
X67290000Y-88586000D02*
X67290000Y-86540000D01*
X67330000Y-84460000D02*
X67330000Y-82402000D01*
X67330000Y-88598000D02*
X67330000Y-86540000D01*
X67370000Y-84460000D02*
X67370000Y-82391000D01*
X67370000Y-88609000D02*
X67370000Y-86540000D01*
X67410000Y-84460000D02*
X67410000Y-82380000D01*
X67410000Y-88620000D02*
X67410000Y-86540000D01*
X67450000Y-84460000D02*
X67450000Y-82369000D01*
X67450000Y-88631000D02*
X67450000Y-86540000D01*
X67490000Y-84460000D02*
X67490000Y-82360000D01*
X67490000Y-88640000D02*
X67490000Y-86540000D01*
X67530000Y-84460000D02*
X67530000Y-82350000D01*
X67530000Y-88650000D02*
X67530000Y-86540000D01*
X67570000Y-84460000D02*
X67570000Y-82341000D01*
X67570000Y-88659000D02*
X67570000Y-86540000D01*
X67610000Y-84460000D02*
X67610000Y-82333000D01*
X67610000Y-88667000D02*
X67610000Y-86540000D01*
X67650000Y-84460000D02*
X67650000Y-82326000D01*
X67650000Y-88674000D02*
X67650000Y-86540000D01*
X67690000Y-84460000D02*
X67690000Y-82318000D01*
X67690000Y-88682000D02*
X67690000Y-86540000D01*
X67730000Y-84460000D02*
X67730000Y-82312000D01*
X67730000Y-88688000D02*
X67730000Y-86540000D01*
X67770000Y-84460000D02*
X67770000Y-82305000D01*
X67770000Y-88695000D02*
X67770000Y-86540000D01*
X67810000Y-84460000D02*
X67810000Y-82300000D01*
X67810000Y-88700000D02*
X67810000Y-86540000D01*
X67850000Y-84460000D02*
X67850000Y-82295000D01*
X67850000Y-88705000D02*
X67850000Y-86540000D01*
X67890000Y-84460000D02*
X67890000Y-82290000D01*
X67890000Y-88710000D02*
X67890000Y-86540000D01*
X67930000Y-84460000D02*
X67930000Y-82286000D01*
X67930000Y-88714000D02*
X67930000Y-86540000D01*
X67970000Y-84460000D02*
X67970000Y-82282000D01*
X67970000Y-88718000D02*
X67970000Y-86540000D01*
X68010000Y-84460000D02*
X68010000Y-82279000D01*
X68010000Y-88721000D02*
X68010000Y-86540000D01*
X68050000Y-88724000D02*
X68050000Y-82276000D01*
X68090000Y-88726000D02*
X68090000Y-82274000D01*
X68130000Y-88728000D02*
X68130000Y-82272000D01*
X68170000Y-88729000D02*
X68170000Y-82271000D01*
X68210000Y-88730000D02*
X68210000Y-82270000D01*
X68250000Y-88730000D02*
X68250000Y-82270000D01*
X71435241Y-87654000D02*
X71435241Y-87024000D01*
X71750241Y-87339000D02*
X71120241Y-87339000D01*
X71520000Y-85500000D02*
G75*
G02*
X64980000Y-85500000I-3270000J0D01*
G01*
X64980000Y-85500000D02*
G75*
G02*
X71520000Y-85500000I3270000J0D01*
G01*
%TO.C,J1*%
X67630000Y-96150000D02*
X67630000Y-147070000D01*
X67630000Y-96150000D02*
X70230000Y-96150000D01*
X67630000Y-147070000D02*
X72830000Y-147070000D01*
X70230000Y-96150000D02*
X70230000Y-98750000D01*
X70230000Y-98750000D02*
X72830000Y-98750000D01*
X71500000Y-96150000D02*
X72830000Y-96150000D01*
X72830000Y-96150000D02*
X72830000Y-97480000D01*
X72830000Y-98750000D02*
X72830000Y-147070000D01*
%TO.C,J2*%
X78107500Y-95195000D02*
X78107500Y-87755000D01*
X88147500Y-95195000D02*
X78107500Y-95195000D01*
X78107500Y-87155000D02*
X78107500Y-84795000D01*
X78107500Y-84795000D02*
X88147500Y-84795000D01*
X78727500Y-84795000D02*
X78727500Y-95195000D01*
X80227500Y-84795000D02*
X80227500Y-95195000D01*
X85127500Y-84795000D02*
X85127500Y-95195000D01*
X88147500Y-84795000D02*
X88147500Y-95195000D01*
X78107500Y-87455000D02*
X77497500Y-87895000D01*
X77497500Y-87015000D01*
X78107500Y-87455000D01*
G36*
X78107500Y-87455000D02*
G01*
X77497500Y-87895000D01*
X77497500Y-87015000D01*
X78107500Y-87455000D01*
G37*
%TO.C,C2*%
X59688748Y-143765000D02*
X60211252Y-143765000D01*
X59688748Y-145235000D02*
X60211252Y-145235000D01*
%TD*%
M02*
