M48
; DRILL file KiCad 10.0.5 date 2026-08-24T16:36:18
; FORMAT={-:-/ absolute / metric / decimal}
; #@! TF.CreationDate,2026-08-24T16:36:18-07:00
; #@! TF.GenerationSoftware,Kicad,Pcbnew,10.0.5
; #@! TF.FileFunction,Plated,1,2,PTH
FMAT,2
METRIC
; #@! TA.AperFunction,Plated,PTH,ViaDrill
T1C0.300
; #@! TA.AperFunction,Plated,PTH,ComponentDrill
T2C0.800
; #@! TA.AperFunction,Plated,PTH,ComponentDrill
T3C1.000
; #@! TA.AperFunction,Plated,PTH,ComponentDrill
T4C1.300
%
G90
G05
T1
X87.0Y-162.0
X91.4Y-124.0
X91.5Y-115.0
X93.0Y-162.0
T2
X74.682Y-154.5
X77.182Y-154.5
T3
X80.5Y-95.74
X80.5Y-98.28
X80.5Y-100.82
X80.5Y-103.36
X80.5Y-105.9
X80.5Y-108.44
X80.5Y-110.98
X80.5Y-113.52
X80.5Y-116.06
X80.5Y-118.6
X80.5Y-121.14
X80.5Y-123.68
X80.5Y-126.22
X80.5Y-128.76
X80.5Y-131.3
X80.5Y-133.84
X80.5Y-136.38
X80.5Y-138.92
X80.5Y-141.46
X80.5Y-144.0
X83.04Y-95.74
X83.04Y-98.28
X83.04Y-100.82
X83.04Y-103.36
X83.04Y-105.9
X83.04Y-108.44
X83.04Y-110.98
X83.04Y-113.52
X83.04Y-116.06
X83.04Y-118.6
X83.04Y-121.14
X83.04Y-123.68
X83.04Y-126.22
X83.04Y-128.76
X83.04Y-131.3
X83.04Y-133.84
X83.04Y-136.38
X83.04Y-138.92
X83.04Y-141.46
X83.04Y-144.0
X93.5Y-77.26
X93.5Y-79.8
X93.5Y-82.34
X93.5Y-84.88
X93.5Y-87.42
X93.5Y-89.96
X93.5Y-92.5
X93.5Y-95.04
X98.38Y-119.0
X98.42Y-112.5
X98.42Y-125.0
X98.46Y-136.0
X98.5Y-101.0
X98.5Y-131.0
X98.54Y-107.0
X100.92Y-119.0
X100.96Y-112.5
X100.96Y-125.0
X101.0Y-136.0
X101.04Y-101.0
X101.04Y-131.0
X101.08Y-107.0
X103.46Y-119.0
X103.5Y-112.5
X103.5Y-125.0
X103.54Y-136.0
X103.58Y-101.0
X103.58Y-131.0
X103.62Y-107.0
X108.5Y-77.26
X108.5Y-79.8
X108.5Y-82.34
X108.5Y-84.88
X108.5Y-87.42
X108.5Y-89.96
X108.5Y-92.5
X108.5Y-95.04
X125.0Y-79.0
X125.0Y-81.54
X125.0Y-84.08
X125.0Y-86.62
X125.0Y-89.16
X125.0Y-91.7
X125.0Y-94.24
X125.0Y-96.78
X125.0Y-99.32
X125.0Y-101.86
X125.0Y-104.4
X125.0Y-106.94
X125.0Y-109.48
X125.0Y-112.02
X125.0Y-114.56
X125.0Y-117.1
X125.0Y-119.64
X125.0Y-122.18
X125.0Y-124.72
X125.0Y-127.26
X125.0Y-129.8
X125.0Y-132.34
X125.0Y-134.88
X125.0Y-137.42
X148.0Y-79.0
X148.0Y-81.54
X148.0Y-84.08
X148.0Y-86.62
X148.0Y-89.16
X148.0Y-91.7
X148.0Y-94.24
X148.0Y-96.78
X148.0Y-99.32
X148.0Y-101.86
X148.0Y-104.4
X148.0Y-106.94
X148.0Y-109.48
X148.0Y-112.02
X148.0Y-114.56
X148.0Y-117.1
X148.0Y-119.64
X148.0Y-122.18
X148.0Y-124.72
X148.0Y-127.26
X148.0Y-129.8
X148.0Y-132.34
X148.0Y-134.88
X148.0Y-137.42
T4
X103.5Y-159.5
X108.58Y-159.5
X117.0Y-159.5
X122.08Y-159.5
X134.455Y-158.672
X139.535Y-158.672
M30
