%TF.GenerationSoftware,KiCad,Pcbnew,10.0.5*%
%TF.CreationDate,2026-08-24T16:35:42-07:00*%
%TF.ProjectId,Kevin_PCB,4b657669-6e5f-4504-9342-2e6b69636164,rev?*%
%TF.SameCoordinates,Original*%
%TF.FileFunction,Copper,L2,Bot*%
%TF.FilePolarity,Positive*%
%FSLAX46Y46*%
G04 Gerber Fmt 4.6, Leading zero omitted, Abs format (unit mm)*
G04 Created by KiCad (PCBNEW 10.0.5) date 2026-08-24 16:35:42*
%MOMM*%
%LPD*%
G01*
G04 APERTURE LIST*
G04 Aperture macros list*
%AMRoundRect*
0 Rectangle with rounded corners*
0 $1 Rounding radius*
0 $2 $3 $4 $5 $6 $7 $8 $9 X,Y pos of 4 corners*
0 Add a 4 corners polygon primitive as box body*
4,1,4,$2,$3,$4,$5,$6,$7,$8,$9,$2,$3,0*
0 Add four circle primitives for the rounded corners*
1,1,$1+$1,$2,$3*
1,1,$1+$1,$4,$5*
1,1,$1+$1,$6,$7*
1,1,$1+$1,$8,$9*
0 Add four rect primitives between the rounded corners*
20,1,$1+$1,$2,$3,$4,$5,0*
20,1,$1+$1,$4,$5,$6,$7,0*
20,1,$1+$1,$6,$7,$8,$9,0*
20,1,$1+$1,$8,$9,$2,$3,0*%
G04 Aperture macros list end*
%TA.AperFunction,ComponentPad*%
%ADD10R,1.700000X1.700000*%
%TD*%
%TA.AperFunction,ComponentPad*%
%ADD11C,1.700000*%
%TD*%
%TA.AperFunction,ComponentPad*%
%ADD12R,2.000000X2.000000*%
%TD*%
%TA.AperFunction,ComponentPad*%
%ADD13RoundRect,0.250000X1.050000X1.050000X-1.050000X1.050000X-1.050000X-1.050000X1.050000X-1.050000X0*%
%TD*%
%TA.AperFunction,ComponentPad*%
%ADD14C,2.600000*%
%TD*%
%TA.AperFunction,ComponentPad*%
%ADD15RoundRect,0.250000X-1.050000X-1.050000X1.050000X-1.050000X1.050000X1.050000X-1.050000X1.050000X0*%
%TD*%
%TA.AperFunction,ComponentPad*%
%ADD16RoundRect,0.250000X0.550000X0.550000X-0.550000X0.550000X-0.550000X-0.550000X0.550000X-0.550000X0*%
%TD*%
%TA.AperFunction,ComponentPad*%
%ADD17C,1.600000*%
%TD*%
%TA.AperFunction,ViaPad*%
%ADD18C,0.600000*%
%TD*%
%TA.AperFunction,Conductor*%
%ADD19C,0.400000*%
%TD*%
%TA.AperFunction,Conductor*%
%ADD20C,0.600000*%
%TD*%
G04 APERTURE END LIST*
D10*
%TO.P,J11,1,Pin_1_1*%
%TO.N,/PI_BIN2*%
X98420000Y-112500000D03*
D11*
%TO.P,J11,2,Pin_2_2*%
%TO.N,/BIN2*%
X100960000Y-112500000D03*
%TO.P,J11,3,Pin_3_3*%
%TO.N,/FPGA_BIN2*%
X103500000Y-112500000D03*
%TD*%
D10*
%TO.P,J8,1,Pin_1_1*%
%TO.N,/PI_AIN2*%
X98500000Y-131000000D03*
D11*
%TO.P,J8,2,Pin_2_2*%
%TO.N,/AIN2*%
X101040000Y-131000000D03*
%TO.P,J8,3,Pin_3_3*%
%TO.N,/FPGA_AIN2*%
X103580000Y-131000000D03*
%TD*%
D12*
%TO.P,J6,1,Pin_1_1*%
%TO.N,/VM*%
X93500000Y-77260000D03*
%TO.P,J6,2,Pin_2_2*%
%TO.N,/PWMA*%
X108500000Y-77260000D03*
%TO.P,J6,3,Pin_3_3*%
%TO.N,/VCC*%
X93500000Y-79800000D03*
%TO.P,J6,4,Pin_4_4*%
%TO.N,/AIN2*%
X108500000Y-79800000D03*
%TO.P,J6,5,Pin_5_5*%
%TO.N,/GND*%
X93500000Y-82340000D03*
%TO.P,J6,6,Pin_6_6*%
%TO.N,/AIN1*%
X108500000Y-82340000D03*
%TO.P,J6,7,Pin_7_7*%
%TO.N,/A01*%
X93500000Y-84880000D03*
%TO.P,J6,8,Pin_8_8*%
%TO.N,/STBY*%
X108500000Y-84880000D03*
%TO.P,J6,9,Pin_9_9*%
%TO.N,/A02*%
X93500000Y-87420000D03*
%TO.P,J6,10,Pin_10_10*%
%TO.N,/BIN1*%
X108500000Y-87420000D03*
%TO.P,J6,11,Pin_11_11*%
%TO.N,/B02*%
X93500000Y-89960000D03*
%TO.P,J6,12,Pin_12_12*%
%TO.N,/BIN2*%
X108500000Y-89960000D03*
%TO.P,J6,13,Pin_13_13*%
%TO.N,/B01*%
X93500000Y-92500000D03*
%TO.P,J6,14,Pin_14_14*%
%TO.N,/PWMB*%
X108500000Y-92500000D03*
%TO.P,J6,15,Pin_15_15*%
%TO.N,/GND*%
X93500000Y-95040000D03*
%TO.P,J6,16,Pin_16_16*%
X108500000Y-95040000D03*
%TD*%
D10*
%TO.P,J7,1,Pin_1_1*%
%TO.N,/PI_AIN1*%
X98460000Y-136000000D03*
D11*
%TO.P,J7,2,Pin_2_2*%
%TO.N,/AIN1*%
X101000000Y-136000000D03*
%TO.P,J7,3,Pin_3_3*%
%TO.N,/FPGA_AIN1*%
X103540000Y-136000000D03*
%TD*%
D13*
%TO.P,J3,1,Pin_1_1*%
%TO.N,/B01*%
X108580000Y-159500000D03*
D14*
%TO.P,J3,2,Pin_2_2*%
%TO.N,/B02*%
X103500000Y-159500000D03*
%TD*%
D10*
%TO.P,J10,1,Pin_1_1*%
%TO.N,/PI_BIN1*%
X98380000Y-119000000D03*
D11*
%TO.P,J10,2,Pin_2_2*%
%TO.N,/BIN1*%
X100920000Y-119000000D03*
%TO.P,J10,3,Pin_3_3*%
%TO.N,/FPGA_BIN1*%
X103460000Y-119000000D03*
%TD*%
D15*
%TO.P,J4,1,Pin_1_1*%
%TO.N,/VM*%
X134455000Y-158672500D03*
D14*
%TO.P,J4,2,Pin_2_2*%
%TO.N,/GND*%
X139535000Y-158672500D03*
%TD*%
D12*
%TO.P,J5,1,Pin_1_1*%
%TO.N,unconnected-(J5-Pin_1-Pad1)*%
X125000000Y-79000000D03*
%TO.P,J5,2,Pin_2_2*%
%TO.N,unconnected-(J5-Pin_2-Pad2)*%
X148000000Y-79000000D03*
%TO.P,J5,3,Pin_3_3*%
%TO.N,unconnected-(J5-Pin_3-Pad3)*%
X125000000Y-81540000D03*
%TO.P,J5,4,Pin_4_4*%
%TO.N,unconnected-(J5-Pin_4-Pad4)*%
X148000000Y-81540000D03*
%TO.P,J5,5,Pin_5_5*%
%TO.N,unconnected-(J5-Pin_5-Pad5)*%
X125000000Y-84080000D03*
%TO.P,J5,6,Pin_6_6*%
%TO.N,unconnected-(J5-Pin_6-Pad6)*%
X148000000Y-84080000D03*
%TO.P,J5,7,Pin_7_7*%
%TO.N,unconnected-(J5-Pin_7-Pad7)*%
X125000000Y-86620000D03*
%TO.P,J5,8,Pin_8_8*%
%TO.N,unconnected-(J5-Pin_8-Pad8)*%
X148000000Y-86620000D03*
%TO.P,J5,9,Pin_9_9*%
%TO.N,/PI_TX*%
X125000000Y-89160000D03*
%TO.P,J5,10,Pin_10_10*%
%TO.N,unconnected-(J5-Pin_10-Pad10)*%
X148000000Y-89160000D03*
%TO.P,J5,11,Pin_11_11*%
%TO.N,/PI_RX*%
X125000000Y-91700000D03*
%TO.P,J5,12,Pin_12_12*%
%TO.N,unconnected-(J5-Pin_12-Pad12)*%
X148000000Y-91700000D03*
%TO.P,J5,13,Pin_13_13*%
%TO.N,/FPGA_AIN1*%
X125000000Y-94240000D03*
%TO.P,J5,14,Pin_14_14*%
%TO.N,unconnected-(J5-Pin_14-Pad14)*%
X148000000Y-94240000D03*
%TO.P,J5,15,Pin_15_15*%
%TO.N,/FPGA_AIN2*%
X125000000Y-96780000D03*
%TO.P,J5,16,Pin_16_16*%
%TO.N,unconnected-(J5-Pin_16-Pad16)*%
X148000000Y-96780000D03*
%TO.P,J5,17,Pin_17_17*%
%TO.N,/FPGA_PWMA*%
X125000000Y-99320000D03*
%TO.P,J5,18,Pin_18_18*%
%TO.N,unconnected-(J5-Pin_18-Pad18)*%
X148000000Y-99320000D03*
%TO.P,J5,19,Pin_19_19*%
%TO.N,/FPGA_BIN1*%
X125000000Y-101860000D03*
%TO.P,J5,20,Pin_20_20*%
%TO.N,unconnected-(J5-Pin_20-Pad20)*%
X148000000Y-101860000D03*
%TO.P,J5,21,Pin_21_21*%
%TO.N,/FPGA_BIN2*%
X125000000Y-104400000D03*
%TO.P,J5,22,Pin_22_22*%
%TO.N,unconnected-(J5-Pin_22-Pad22)*%
X148000000Y-104400000D03*
%TO.P,J5,23,Pin_23_23*%
%TO.N,/FPGA_PWMB*%
X125000000Y-106940000D03*
%TO.P,J5,24,Pin_24_24*%
%TO.N,unconnected-(J5-Pin_24-Pad24)*%
X148000000Y-106940000D03*
%TO.P,J5,25,Pin_25_25*%
%TO.N,/FPGA_STBY*%
X125000000Y-109480000D03*
%TO.P,J5,26,Pin_26_26*%
%TO.N,unconnected-(J5-Pin_26-Pad26)*%
X148000000Y-109480000D03*
%TO.P,J5,27,Pin_27_27*%
%TO.N,unconnected-(J5-Pin_27-Pad27)*%
X125000000Y-112020000D03*
%TO.P,J5,28,Pin_28_28*%
%TO.N,unconnected-(J5-Pin_28-Pad28)*%
X148000000Y-112020000D03*
%TO.P,J5,29,Pin_29_29*%
%TO.N,unconnected-(J5-Pin_29-Pad29)*%
X125000000Y-114560000D03*
%TO.P,J5,30,Pin_30_30*%
%TO.N,unconnected-(J5-Pin_30-Pad30)*%
X148000000Y-114560000D03*
%TO.P,J5,31,Pin_31_31*%
%TO.N,unconnected-(J5-Pin_31-Pad31)*%
X125000000Y-117100000D03*
%TO.P,J5,32,Pin_32_32*%
%TO.N,unconnected-(J5-Pin_32-Pad32)*%
X148000000Y-117100000D03*
%TO.P,J5,33,Pin_33_33*%
%TO.N,unconnected-(J5-Pin_33-Pad33)*%
X125000000Y-119640000D03*
%TO.P,J5,34,Pin_34_34*%
%TO.N,unconnected-(J5-Pin_34-Pad34)*%
X148000000Y-119640000D03*
%TO.P,J5,35,Pin_35_35*%
%TO.N,unconnected-(J5-Pin_35-Pad35)*%
X125000000Y-122180000D03*
%TO.P,J5,36,Pin_36_36*%
%TO.N,unconnected-(J5-Pin_36-Pad36)*%
X148000000Y-122180000D03*
%TO.P,J5,37,Pin_37_37*%
%TO.N,unconnected-(J5-Pin_37-Pad37)*%
X125000000Y-124720000D03*
%TO.P,J5,38,Pin_38_38*%
%TO.N,unconnected-(J5-Pin_38-Pad38)*%
X148000000Y-124720000D03*
%TO.P,J5,39,Pin_39_39*%
%TO.N,unconnected-(J5-Pin_39-Pad39)*%
X125000000Y-127260000D03*
%TO.P,J5,40,Pin_40_40*%
%TO.N,unconnected-(J5-Pin_40-Pad40)*%
X148000000Y-127260000D03*
%TO.P,J5,41,Pin_41_41*%
%TO.N,unconnected-(J5-Pin_41-Pad41)*%
X125000000Y-129800000D03*
%TO.P,J5,42,Pin_42_42*%
%TO.N,unconnected-(J5-Pin_42-Pad42)*%
X148000000Y-129800000D03*
%TO.P,J5,43,Pin_43_43*%
%TO.N,unconnected-(J5-Pin_43-Pad43)*%
X125000000Y-132340000D03*
%TO.P,J5,44,Pin_44_44*%
%TO.N,unconnected-(J5-Pin_44-Pad44)*%
X148000000Y-132340000D03*
%TO.P,J5,45,Pin_45_45*%
%TO.N,unconnected-(J5-Pin_45-Pad45)*%
X125000000Y-134880000D03*
%TO.P,J5,46,Pin_46_46*%
%TO.N,/GND*%
X148000000Y-134880000D03*
%TO.P,J5,47,Pin_47_47*%
%TO.N,unconnected-(J5-Pin_47-Pad47)*%
X125000000Y-137420000D03*
%TO.P,J5,48,Pin_48_48*%
%TO.N,unconnected-(J5-Pin_48-Pad48)*%
X148000000Y-137420000D03*
%TD*%
D16*
%TO.P,C3,1*%
%TO.N,/VM*%
X77182380Y-154500000D03*
D17*
%TO.P,C3,2*%
%TO.N,/GND*%
X74682380Y-154500000D03*
%TD*%
D10*
%TO.P,J1,1,Pin_1_1*%
%TO.N,/VCC*%
X83040000Y-95740000D03*
D11*
%TO.P,J1,2,Pin_2_2*%
%TO.N,unconnected-(J1-Pin_2-Pad2)*%
X80500000Y-95740000D03*
%TO.P,J1,3,Pin_3_3*%
%TO.N,unconnected-(J1-Pin_3-Pad3)*%
X83040000Y-98280000D03*
%TO.P,J1,4,Pin_4_4*%
%TO.N,unconnected-(J1-Pin_4-Pad4)*%
X80500000Y-98280000D03*
%TO.P,J1,5,Pin_5_5*%
%TO.N,unconnected-(J1-Pin_5-Pad5)*%
X83040000Y-100820000D03*
%TO.P,J1,6,Pin_6_6*%
%TO.N,/GND*%
X80500000Y-100820000D03*
%TO.P,J1,7,Pin_7_7*%
%TO.N,unconnected-(J1-Pin_7-Pad7)*%
X83040000Y-103360000D03*
%TO.P,J1,8,Pin_8_8*%
%TO.N,/PI_TX*%
X80500000Y-103360000D03*
%TO.P,J1,9,Pin_9_9*%
%TO.N,unconnected-(J1-Pin_9-Pad9)*%
X83040000Y-105900000D03*
%TO.P,J1,10,Pin_10_10*%
%TO.N,/PI_RX*%
X80500000Y-105900000D03*
%TO.P,J1,11,Pin_11_11*%
%TO.N,/PI_AIN1*%
X83040000Y-108440000D03*
%TO.P,J1,12,Pin_12_12*%
%TO.N,/PI_PWMA*%
X80500000Y-108440000D03*
%TO.P,J1,13,Pin_13_13*%
%TO.N,/PI_AIN2*%
X83040000Y-110980000D03*
%TO.P,J1,14,Pin_14_14*%
%TO.N,unconnected-(J1-Pin_14-Pad14)*%
X80500000Y-110980000D03*
%TO.P,J1,15,Pin_15_15*%
%TO.N,/PI_BIN1*%
X83040000Y-113520000D03*
%TO.P,J1,16,Pin_16_16*%
%TO.N,/PI_BIN2*%
X80500000Y-113520000D03*
%TO.P,J1,17,Pin_17_17*%
%TO.N,unconnected-(J1-Pin_17-Pad17)*%
X83040000Y-116060000D03*
%TO.P,J1,18,Pin_18_18*%
%TO.N,/PI_STBY*%
X80500000Y-116060000D03*
%TO.P,J1,19,Pin_19_19*%
%TO.N,unconnected-(J1-Pin_19-Pad19)*%
X83040000Y-118600000D03*
%TO.P,J1,20,Pin_20_20*%
%TO.N,unconnected-(J1-Pin_20-Pad20)*%
X80500000Y-118600000D03*
%TO.P,J1,21,Pin_21_21*%
%TO.N,unconnected-(J1-Pin_21-Pad21)*%
X83040000Y-121140000D03*
%TO.P,J1,22,Pin_22_22*%
%TO.N,unconnected-(J1-Pin_22-Pad22)*%
X80500000Y-121140000D03*
%TO.P,J1,23,Pin_23_23*%
%TO.N,unconnected-(J1-Pin_23-Pad23)*%
X83040000Y-123680000D03*
%TO.P,J1,24,Pin_24_24*%
%TO.N,unconnected-(J1-Pin_24-Pad24)*%
X80500000Y-123680000D03*
%TO.P,J1,25,Pin_25_25*%
%TO.N,unconnected-(J1-Pin_25-Pad25)*%
X83040000Y-126220000D03*
%TO.P,J1,26,Pin_26_26*%
%TO.N,unconnected-(J1-Pin_26-Pad26)*%
X80500000Y-126220000D03*
%TO.P,J1,27,Pin_27_27*%
%TO.N,unconnected-(J1-Pin_27-Pad27)*%
X83040000Y-128760000D03*
%TO.P,J1,28,Pin_28_28*%
%TO.N,unconnected-(J1-Pin_28-Pad28)*%
X80500000Y-128760000D03*
%TO.P,J1,29,Pin_29_29*%
%TO.N,unconnected-(J1-Pin_29-Pad29)*%
X83040000Y-131300000D03*
%TO.P,J1,30,Pin_30_30*%
%TO.N,unconnected-(J1-Pin_30-Pad30)*%
X80500000Y-131300000D03*
%TO.P,J1,31,Pin_31_31*%
%TO.N,unconnected-(J1-Pin_31-Pad31)*%
X83040000Y-133840000D03*
%TO.P,J1,32,Pin_32_32*%
%TO.N,unconnected-(J1-Pin_32-Pad32)*%
X80500000Y-133840000D03*
%TO.P,J1,33,Pin_33_33*%
%TO.N,unconnected-(J1-Pin_33-Pad33)*%
X83040000Y-136380000D03*
%TO.P,J1,34,Pin_34_34*%
%TO.N,unconnected-(J1-Pin_34-Pad34)*%
X80500000Y-136380000D03*
%TO.P,J1,35,Pin_35_35*%
%TO.N,/PI_PWMB*%
X83040000Y-138920000D03*
%TO.P,J1,36,Pin_36_36*%
%TO.N,unconnected-(J1-Pin_36-Pad36)*%
X80500000Y-138920000D03*
%TO.P,J1,37,Pin_37_37*%
%TO.N,unconnected-(J1-Pin_37-Pad37)*%
X83040000Y-141460000D03*
%TO.P,J1,38,Pin_38_38*%
%TO.N,unconnected-(J1-Pin_38-Pad38)*%
X80500000Y-141460000D03*
%TO.P,J1,39,Pin_39_39*%
%TO.N,unconnected-(J1-Pin_39-Pad39)*%
X83040000Y-144000000D03*
%TO.P,J1,40,Pin_40_40*%
%TO.N,unconnected-(J1-Pin_40-Pad40)*%
X80500000Y-144000000D03*
%TD*%
D13*
%TO.P,J2,1,Pin_1_1*%
%TO.N,/A01*%
X122080000Y-159500000D03*
D14*
%TO.P,J2,2,Pin_2_2*%
%TO.N,/A02*%
X117000000Y-159500000D03*
%TD*%
D10*
%TO.P,J12,1,Pin_1_1*%
%TO.N,/PI_PWMB*%
X98540000Y-107000000D03*
D11*
%TO.P,J12,2,Pin_2_2*%
%TO.N,/PWMB*%
X101080000Y-107000000D03*
%TO.P,J12,3,Pin_3_3*%
%TO.N,/FPGA_PWMB*%
X103620000Y-107000000D03*
%TD*%
D10*
%TO.P,J9,1,Pin_1_1*%
%TO.N,/PI_PWMA*%
X98420000Y-125000000D03*
D11*
%TO.P,J9,2,Pin_2_2*%
%TO.N,/PWMA*%
X100960000Y-125000000D03*
%TO.P,J9,3,Pin_3_3*%
%TO.N,/FPGA_PWMA*%
X103500000Y-125000000D03*
%TD*%
D10*
%TO.P,J13,1,Pin_1_1*%
%TO.N,/PI_STBY*%
X98500000Y-101000000D03*
D11*
%TO.P,J13,2,Pin_2_2*%
%TO.N,/STBY*%
X101040000Y-101000000D03*
%TO.P,J13,3,Pin_3_3*%
%TO.N,/FPGA_STBY*%
X103580000Y-101000000D03*
%TD*%
D18*
%TO.N,/GND*%
X93000000Y-162000000D03*
X87000000Y-162000000D03*
%TO.N,/PI_PWMB*%
X91500000Y-115000000D03*
X91400000Y-124000000D03*
%TD*%
%TO.N,/PI_BIN1*%
D19*
X91020000Y-121500000D02*
X83040000Y-113520000D01*
X92500000Y-121500000D02*
X91020000Y-121500000D01*
X92500000Y-139500000D02*
X92500000Y-121500000D01*
X106000000Y-128500000D02*
X106500000Y-129000000D01*
X106500000Y-140500000D02*
X93500000Y-140500000D01*
X93500000Y-140500000D02*
X92500000Y-139500000D01*
X95500000Y-121880000D02*
X95500000Y-128500000D01*
X95500000Y-128500000D02*
X106000000Y-128500000D01*
X98380000Y-119000000D02*
X95500000Y-121880000D01*
X106500000Y-129000000D02*
X106500000Y-140500000D01*
%TO.N,/GND*%
D20*
X147880000Y-135000000D02*
X148000000Y-134880000D01*
X145000000Y-135000000D02*
X147880000Y-135000000D01*
X144327500Y-158672500D02*
X144500000Y-158500000D01*
X139535000Y-158672500D02*
X144327500Y-158672500D01*
X144500000Y-158500000D02*
X144500000Y-135500000D01*
X144500000Y-135500000D02*
X145000000Y-135000000D01*
X71000000Y-158500000D02*
X74500000Y-158500000D01*
X71000000Y-100500000D02*
X71000000Y-158500000D01*
X74000000Y-97500000D02*
X71000000Y-100500000D01*
X74500000Y-158500000D02*
X74682380Y-158682380D01*
X77500000Y-101000000D02*
X77680000Y-100820000D01*
X74000000Y-97500000D02*
X77500000Y-101000000D01*
X91000000Y-90000000D02*
X78500000Y-90000000D01*
X77680000Y-100820000D02*
X80500000Y-100820000D01*
X91000000Y-90000000D02*
X91000000Y-82500000D01*
X78500000Y-90000000D02*
X74000000Y-94500000D01*
X74000000Y-94500000D02*
X74000000Y-97500000D01*
X93500000Y-95040000D02*
X108500000Y-95040000D01*
X93000000Y-163000000D02*
X93000000Y-162000000D01*
X87000000Y-163000000D02*
X87000000Y-162000000D01*
%TO.N,/PI_PWMB*%
D19*
X86420000Y-138920000D02*
X83040000Y-138920000D01*
X86500000Y-139000000D02*
X86420000Y-138920000D01*
X91400000Y-134100000D02*
X86500000Y-139000000D01*
X91400000Y-124000000D02*
X91400000Y-134100000D01*
X91500000Y-114040000D02*
X91500000Y-115000000D01*
X98540000Y-107000000D02*
X91500000Y-114040000D01*
%TO.N,/PI_AIN1*%
X93500000Y-119500000D02*
X93500000Y-118900000D01*
X94500000Y-120500000D02*
X93500000Y-119500000D01*
X94500000Y-136000000D02*
X94500000Y-120500000D01*
X98460000Y-136000000D02*
X94500000Y-136000000D01*
X93500000Y-118900000D02*
X83040000Y-108440000D01*
%TO.N,/PI_AIN2*%
X94500000Y-139000000D02*
X93500000Y-138000000D01*
X93500000Y-121440000D02*
X83040000Y-110980000D01*
X105500000Y-139000000D02*
X94500000Y-139000000D01*
X93500000Y-138000000D02*
X93500000Y-121440000D01*
X105500000Y-133500000D02*
X105500000Y-139000000D01*
X98500000Y-133500000D02*
X105500000Y-133500000D01*
X98500000Y-131000000D02*
X98500000Y-133500000D01*
%TO.N,/PI_PWMA*%
X98420000Y-123580000D02*
X98420000Y-125000000D01*
X99500000Y-122500000D02*
X98420000Y-123580000D01*
X106000000Y-122500000D02*
X99500000Y-122500000D01*
X107500000Y-121000000D02*
X106000000Y-122500000D01*
X107500000Y-118500000D02*
X107500000Y-121000000D01*
X105000000Y-116000000D02*
X107500000Y-118500000D01*
X96000000Y-116000000D02*
X105000000Y-116000000D01*
X96000000Y-110500000D02*
X96000000Y-116000000D01*
X105000000Y-109000000D02*
X97500000Y-109000000D01*
X106000000Y-108000000D02*
X105000000Y-109000000D01*
X106000000Y-107000000D02*
X106000000Y-108000000D01*
X103500000Y-104500000D02*
X106000000Y-107000000D01*
X96000000Y-104500000D02*
X103500000Y-104500000D01*
X96000000Y-98000000D02*
X96000000Y-104500000D01*
X97500000Y-96500000D02*
X96000000Y-98000000D01*
X107500000Y-96500000D02*
X97500000Y-96500000D01*
X113000000Y-102000000D02*
X107500000Y-96500000D01*
X113000000Y-149000000D02*
X113000000Y-102000000D01*
X74000000Y-149000000D02*
X113000000Y-149000000D01*
X74000000Y-114940000D02*
X74000000Y-149000000D01*
X97500000Y-109000000D02*
X96000000Y-110500000D01*
X80500000Y-108440000D02*
X74000000Y-114940000D01*
%TO.N,/PI_BIN2*%
X98420000Y-110080000D02*
X98420000Y-112500000D01*
X98500000Y-110000000D02*
X98420000Y-110080000D01*
X105500000Y-110000000D02*
X98500000Y-110000000D01*
X107000000Y-108500000D02*
X105500000Y-110000000D01*
X107000000Y-106500000D02*
X107000000Y-108500000D01*
X97000000Y-103500000D02*
X104000000Y-103500000D01*
X97000000Y-99000000D02*
X97000000Y-103500000D01*
X98500000Y-97500000D02*
X97000000Y-99000000D01*
X112000000Y-148000000D02*
X112000000Y-103000000D01*
X75000000Y-148000000D02*
X112000000Y-148000000D01*
X75000000Y-116000000D02*
X75000000Y-148000000D01*
X80500000Y-113520000D02*
X77480000Y-113520000D01*
X112000000Y-103000000D02*
X106500000Y-97500000D01*
X77480000Y-113520000D02*
X75000000Y-116000000D01*
X106500000Y-97500000D02*
X98500000Y-97500000D01*
X104000000Y-103500000D02*
X107000000Y-106500000D01*
%TO.N,/PI_STBY*%
X106000000Y-98500000D02*
X99000000Y-98500000D01*
X98500000Y-99000000D02*
X98500000Y-101000000D01*
X111000000Y-103500000D02*
X106000000Y-98500000D01*
X111000000Y-147000000D02*
X111000000Y-103500000D01*
X76000000Y-147000000D02*
X111000000Y-147000000D01*
X99000000Y-98500000D02*
X98500000Y-99000000D01*
X76000000Y-118000000D02*
X76000000Y-147000000D01*
X77940000Y-116060000D02*
X76000000Y-118000000D01*
X80500000Y-116060000D02*
X77940000Y-116060000D01*
%TO.N,/PI_RX*%
X118500000Y-150000000D02*
X127500000Y-141000000D01*
X73000000Y-150000000D02*
X118500000Y-150000000D01*
X73000000Y-113400000D02*
X73000000Y-150000000D01*
X80500000Y-105900000D02*
X73000000Y-113400000D01*
X127500000Y-141000000D02*
X127500000Y-93000000D01*
%TO.N,/GND*%
D20*
X139535000Y-166465000D02*
X139535000Y-158672500D01*
X139000000Y-167000000D02*
X139535000Y-166465000D01*
X93000000Y-167000000D02*
X139000000Y-167000000D01*
X93000000Y-163000000D02*
X93000000Y-167000000D01*
X87000000Y-163000000D02*
X93000000Y-163000000D01*
X79500000Y-163500000D02*
X86500000Y-163500000D01*
X86500000Y-163500000D02*
X87000000Y-163000000D01*
X74682380Y-158682380D02*
X79500000Y-163500000D01*
X74682380Y-154500000D02*
X74682380Y-158682380D01*
X91000000Y-82500000D02*
X91160000Y-82340000D01*
X91040000Y-95040000D02*
X91000000Y-95000000D01*
X91160000Y-82340000D02*
X93500000Y-82340000D01*
X91000000Y-95000000D02*
X91000000Y-90000000D01*
X93500000Y-95040000D02*
X91040000Y-95040000D01*
%TO.N,/PI_TX*%
D19*
X72000000Y-111860000D02*
X80500000Y-103360000D01*
X72000000Y-151000000D02*
X72000000Y-111860000D01*
X119000000Y-151000000D02*
X72000000Y-151000000D01*
X128500000Y-141500000D02*
X119000000Y-151000000D01*
X128500000Y-91500000D02*
X128500000Y-141500000D01*
X125000000Y-89160000D02*
X126160000Y-89160000D01*
X126160000Y-89160000D02*
X128500000Y-91500000D01*
%TO.N,/PI_RX*%
X126200000Y-91700000D02*
X125000000Y-91700000D01*
X127500000Y-93000000D02*
X126200000Y-91700000D01*
%TD*%
%TA.AperFunction,Conductor*%
%TO.N,/GND*%
G36*
X81615270Y-101581717D02*
G01*
X81615270Y-101581716D01*
X81654622Y-101527555D01*
X81659232Y-101518507D01*
X81707205Y-101467709D01*
X81775025Y-101450912D01*
X81841161Y-101473447D01*
X81880204Y-101518504D01*
X81884949Y-101527817D01*
X82009890Y-101699786D01*
X82160213Y-101850109D01*
X82332182Y-101975050D01*
X82340946Y-101979516D01*
X82391742Y-102027491D01*
X82408536Y-102095312D01*
X82385998Y-102161447D01*
X82340946Y-102200484D01*
X82332182Y-102204949D01*
X82160213Y-102329890D01*
X82009890Y-102480213D01*
X81884949Y-102652182D01*
X81880484Y-102660946D01*
X81832509Y-102711742D01*
X81764688Y-102728536D01*
X81698553Y-102705998D01*
X81659516Y-102660946D01*
X81655050Y-102652182D01*
X81530109Y-102480213D01*
X81379786Y-102329890D01*
X81207817Y-102204949D01*
X81198504Y-102200204D01*
X81147707Y-102152230D01*
X81130912Y-102084409D01*
X81153449Y-102018274D01*
X81198507Y-101979232D01*
X81207555Y-101974622D01*
X81261716Y-101935270D01*
X81261717Y-101935270D01*
X80629408Y-101302962D01*
X80692993Y-101285925D01*
X80807007Y-101220099D01*
X80900099Y-101127007D01*
X80965925Y-101012993D01*
X80982962Y-100949408D01*
X81615270Y-101581717D01*
G37*
%TD.AperFunction*%
%TA.AperFunction,Conductor*%
G36*
X81841444Y-98933999D02*
G01*
X81880486Y-98979056D01*
X81884951Y-98987820D01*
X82009890Y-99159786D01*
X82160213Y-99310109D01*
X82332182Y-99435050D01*
X82340946Y-99439516D01*
X82391742Y-99487491D01*
X82408536Y-99555312D01*
X82385998Y-99621447D01*
X82340946Y-99660484D01*
X82332182Y-99664949D01*
X82160213Y-99789890D01*
X82009890Y-99940213D01*
X81884949Y-100112182D01*
X81880202Y-100121499D01*
X81832227Y-100172293D01*
X81764405Y-100189087D01*
X81698271Y-100166548D01*
X81659234Y-100121495D01*
X81654626Y-100112452D01*
X81615270Y-100058282D01*
X81615269Y-100058282D01*
X80982962Y-100690590D01*
X80965925Y-100627007D01*
X80900099Y-100512993D01*
X80807007Y-100419901D01*
X80692993Y-100354075D01*
X80629409Y-100337037D01*
X81261716Y-99704728D01*
X81207547Y-99665373D01*
X81207547Y-99665372D01*
X81198500Y-99660763D01*
X81147706Y-99612788D01*
X81130912Y-99544966D01*
X81153451Y-99478832D01*
X81198508Y-99439793D01*
X81207816Y-99435051D01*
X81336553Y-99341519D01*
X81379786Y-99310109D01*
X81379788Y-99310106D01*
X81379792Y-99310104D01*
X81530104Y-99159792D01*
X81530106Y-99159788D01*
X81530109Y-99159786D01*
X81655048Y-98987820D01*
X81655047Y-98987820D01*
X81655051Y-98987816D01*
X81659514Y-98979054D01*
X81707488Y-98928259D01*
X81775308Y-98911463D01*
X81841444Y-98933999D01*
G37*
%TD.AperFunction*%
%TA.AperFunction,Conductor*%
G36*
X149442539Y-72520185D02*
G01*
X149488294Y-72572989D01*
X149499500Y-72624500D01*
X149499500Y-77500998D01*
X149479815Y-77568037D01*
X149427011Y-77613792D01*
X149357853Y-77623736D01*
X149301189Y-77600265D01*
X149242331Y-77556204D01*
X149242328Y-77556202D01*
X149107482Y-77505908D01*
X149107483Y-77505908D01*
X149047883Y-77499501D01*
X149047881Y-77499500D01*
X149047873Y-77499500D01*
X149047864Y-77499500D01*
X146952129Y-77499500D01*
X146952123Y-77499501D01*
X146892516Y-77505908D01*
X146757671Y-77556202D01*
X146757664Y-77556206D01*
X146642455Y-77642452D01*
X146642452Y-77642455D01*
X146556206Y-77757664D01*
X146556202Y-77757671D01*
X146505908Y-77892517D01*
X146500499Y-77942834D01*
X146499501Y-77952123D01*
X146499500Y-77952135D01*
X146499500Y-80047870D01*
X146499501Y-80047876D01*
X146505908Y-80107483D01*
X146550361Y-80226667D01*
X146555345Y-80296359D01*
X146550361Y-80313333D01*
X146505908Y-80432517D01*
X146500499Y-80482834D01*
X146499501Y-80492123D01*
X146499500Y-80492135D01*
X146499500Y-82587870D01*
X146499501Y-82587876D01*
X146505908Y-82647483D01*
X146550361Y-82766667D01*
X146555345Y-82836359D01*
X146550361Y-82853333D01*
X146505908Y-82972517D01*
X146500499Y-83022834D01*
X146499501Y-83032123D01*
X146499500Y-83032135D01*
X146499500Y-85127870D01*
X146499501Y-85127876D01*
X146505908Y-85187483D01*
X146550361Y-85306667D01*
X146555345Y-85376359D01*
X146550361Y-85393333D01*
X146505908Y-85512517D01*
X146500499Y-85562834D01*
X146499501Y-85572123D01*
X146499500Y-85572135D01*
X146499500Y-87667870D01*
X146499501Y-87667876D01*
X146505908Y-87727483D01*
X146550361Y-87846667D01*
X146555345Y-87916359D01*
X146550361Y-87933333D01*
X146505908Y-88052517D01*
X146500499Y-88102834D01*
X146499501Y-88112123D01*
X146499500Y-88112135D01*
X146499500Y-90207870D01*
X146499501Y-90207876D01*
X146505908Y-90267483D01*
X146550361Y-90386667D01*
X146555345Y-90456359D01*
X146550361Y-90473333D01*
X146505908Y-90592517D01*
X146499501Y-90652116D01*
X146499500Y-90652135D01*
X146499500Y-92747870D01*
X146499501Y-92747876D01*
X146505908Y-92807483D01*
X146550361Y-92926667D01*
X146555345Y-92996359D01*
X146550361Y-93013333D01*
X146505908Y-93132517D01*
X146499501Y-93192116D01*
X146499500Y-93192135D01*
X146499500Y-95287870D01*
X146499501Y-95287876D01*
X146505908Y-95347483D01*
X146550361Y-95466667D01*
X146555345Y-95536359D01*
X146550361Y-95553333D01*
X146505908Y-95672517D01*
X146500499Y-95722834D01*
X146499501Y-95732123D01*
X146499500Y-95732135D01*
X146499500Y-97827870D01*
X146499501Y-97827876D01*
X146505908Y-97887483D01*
X146550361Y-98006667D01*
X146555345Y-98076359D01*
X146550361Y-98093333D01*
X146505908Y-98212517D01*
X146500499Y-98262834D01*
X146499501Y-98272123D01*
X146499500Y-98272135D01*
X146499500Y-100367870D01*
X146499501Y-100367876D01*
X146505908Y-100427483D01*
X146550361Y-100546667D01*
X146555345Y-100616359D01*
X146550361Y-100633333D01*
X146505908Y-100752517D01*
X146500499Y-100802834D01*
X146499501Y-100812123D01*
X146499500Y-100812135D01*
X146499500Y-102907870D01*
X146499501Y-102907876D01*
X146505908Y-102967483D01*
X146550361Y-103086667D01*
X146555345Y-103156359D01*
X146550361Y-103173333D01*
X146505908Y-103292517D01*
X146500499Y-103342834D01*
X146499501Y-103352123D01*
X146499500Y-103352135D01*
X146499500Y-105447870D01*
X146499501Y-105447876D01*
X146505908Y-105507483D01*
X146550361Y-105626667D01*
X146555345Y-105696359D01*
X146550361Y-105713333D01*
X146505908Y-105832517D01*
X146499501Y-105892116D01*
X146499501Y-105892123D01*
X146499500Y-105892135D01*
X146499500Y-107987870D01*
X146499501Y-107987876D01*
X146505908Y-108047483D01*
X146550361Y-108166667D01*
X146555345Y-108236359D01*
X146550361Y-108253333D01*
X146505908Y-108372517D01*
X146499501Y-108432116D01*
X146499501Y-108432123D01*
X146499500Y-108432135D01*
X146499500Y-110527870D01*
X146499501Y-110527876D01*
X146505908Y-110587483D01*
X146550361Y-110706667D01*
X146555345Y-110776359D01*
X146550361Y-110793333D01*
X146505908Y-110912517D01*
X146499973Y-110967725D01*
X146499501Y-110972123D01*
X146499500Y-110972135D01*
X146499500Y-113067870D01*
X146499501Y-113067876D01*
X146505908Y-113127483D01*
X146550361Y-113246667D01*
X146555345Y-113316359D01*
X146550361Y-113333333D01*
X146505908Y-113452517D01*
X146501042Y-113497781D01*
X146499501Y-113512123D01*
X146499500Y-113512135D01*
X146499500Y-115607870D01*
X146499501Y-115607876D01*
X146505908Y-115667483D01*
X146550361Y-115786667D01*
X146555345Y-115856359D01*
X146550361Y-115873333D01*
X146505908Y-115992517D01*
X146501042Y-116037781D01*
X146499501Y-116052123D01*
X146499500Y-116052135D01*
X146499500Y-118147870D01*
X146499501Y-118147876D01*
X146505908Y-118207483D01*
X146550361Y-118326667D01*
X146555345Y-118396359D01*
X146550361Y-118413333D01*
X146505908Y-118532517D01*
X146502073Y-118568192D01*
X146499501Y-118592123D01*
X146499500Y-118592135D01*
X146499500Y-120687870D01*
X146499501Y-120687876D01*
X146505908Y-120747483D01*
X146550361Y-120866667D01*
X146555345Y-120936359D01*
X146550361Y-120953333D01*
X146505908Y-121072517D01*
X146500499Y-121122834D01*
X146499501Y-121132123D01*
X146499500Y-121132135D01*
X146499500Y-123227870D01*
X146499501Y-123227876D01*
X146505908Y-123287483D01*
X146550361Y-123406667D01*
X146555345Y-123476359D01*
X146550361Y-123493333D01*
X146505908Y-123612517D01*
X146500499Y-123662834D01*
X146499501Y-123672123D01*
X146499500Y-123672135D01*
X146499500Y-125767870D01*
X146499501Y-125767876D01*
X146505908Y-125827483D01*
X146550361Y-125946667D01*
X146555345Y-126016359D01*
X146550361Y-126033333D01*
X146505908Y-126152517D01*
X146499992Y-126207547D01*
X146499501Y-126212123D01*
X146499500Y-126212135D01*
X146499500Y-128307870D01*
X146499501Y-128307876D01*
X146505908Y-128367483D01*
X146550361Y-128486667D01*
X146555345Y-128556359D01*
X146550361Y-128573333D01*
X146505908Y-128692517D01*
X146500499Y-128742834D01*
X146499501Y-128752123D01*
X146499500Y-128752135D01*
X146499500Y-130847870D01*
X146499501Y-130847876D01*
X146505908Y-130907483D01*
X146550361Y-131026667D01*
X146555345Y-131096359D01*
X146550361Y-131113333D01*
X146505908Y-131232517D01*
X146500499Y-131282834D01*
X146499501Y-131292123D01*
X146499500Y-131292135D01*
X146499500Y-133387870D01*
X146499501Y-133387876D01*
X146505908Y-133447483D01*
X146550628Y-133567380D01*
X146555612Y-133637071D01*
X146550628Y-133654046D01*
X146506403Y-133772619D01*
X146506401Y-133772627D01*
X146500000Y-133832155D01*
X146500000Y-134630000D01*
X147566988Y-134630000D01*
X147534075Y-134687007D01*
X147500000Y-134814174D01*
X147500000Y-134945826D01*
X147534075Y-135072993D01*
X147566988Y-135130000D01*
X146500000Y-135130000D01*
X146500000Y-135927844D01*
X146506401Y-135987372D01*
X146506403Y-135987382D01*
X146550627Y-136105953D01*
X146555611Y-136175644D01*
X146550627Y-136192617D01*
X146505909Y-136312514D01*
X146505908Y-136312516D01*
X146500499Y-136362834D01*
X146499501Y-136372123D01*
X146499500Y-136372135D01*
X146499500Y-138467870D01*
X146499501Y-138467876D01*
X146505908Y-138527483D01*
X146556202Y-138662328D01*
X146556206Y-138662335D01*
X146642452Y-138777544D01*
X146642455Y-138777547D01*
X146757664Y-138863793D01*
X146757671Y-138863797D01*
X146892517Y-138914091D01*
X146892516Y-138914091D01*
X146899444Y-138914835D01*
X146952127Y-138920500D01*
X149047872Y-138920499D01*
X149107483Y-138914091D01*
X149242331Y-138863796D01*
X149301189Y-138819734D01*
X149366652Y-138795317D01*
X149434925Y-138810168D01*
X149484331Y-138859573D01*
X149499500Y-138919001D01*
X149499500Y-171375500D01*
X149479815Y-171442539D01*
X149427011Y-171488294D01*
X149375500Y-171499500D01*
X70624500Y-171499500D01*
X70557461Y-171479815D01*
X70511706Y-171427011D01*
X70500500Y-171375500D01*
X70500500Y-167374038D01*
X71899500Y-167374038D01*
X71899500Y-167625961D01*
X71938910Y-167874785D01*
X72016760Y-168114383D01*
X72131132Y-168338848D01*
X72279201Y-168542649D01*
X72279205Y-168542654D01*
X72457345Y-168720794D01*
X72457350Y-168720798D01*
X72635117Y-168849952D01*
X72661155Y-168868870D01*
X72804184Y-168941747D01*
X72885616Y-168983239D01*
X72885618Y-168983239D01*
X72885621Y-168983241D01*
X73125215Y-169061090D01*
X73374038Y-169100500D01*
X73374039Y-169100500D01*
X73625961Y-169100500D01*
X73625962Y-169100500D01*
X73874785Y-169061090D01*
X74114379Y-168983241D01*
X74338845Y-168868870D01*
X74542656Y-168720793D01*
X74720793Y-168542656D01*
X74868870Y-168338845D01*
X74983241Y-168114379D01*
X75061090Y-167874785D01*
X75100500Y-167625962D01*
X75100500Y-167374038D01*
X144899500Y-167374038D01*
X144899500Y-167625961D01*
X144938910Y-167874785D01*
X145016760Y-168114383D01*
X145131132Y-168338848D01*
X145279201Y-168542649D01*
X145279205Y-168542654D01*
X145457345Y-168720794D01*
X145457350Y-168720798D01*
X145635117Y-168849952D01*
X145661155Y-168868870D01*
X145804184Y-168941747D01*
X145885616Y-168983239D01*
X145885618Y-168983239D01*
X145885621Y-168983241D01*
X146125215Y-169061090D01*
X146374038Y-169100500D01*
X146374039Y-169100500D01*
X146625961Y-169100500D01*
X146625962Y-169100500D01*
X146874785Y-169061090D01*
X147114379Y-168983241D01*
X147338845Y-168868870D01*
X147542656Y-168720793D01*
X147720793Y-168542656D01*
X147868870Y-168338845D01*
X147983241Y-168114379D01*
X148061090Y-167874785D01*
X148100500Y-167625962D01*
X148100500Y-167374038D01*
X148061090Y-167125215D01*
X147983241Y-166885621D01*
X147983239Y-166885618D01*
X147983239Y-166885616D01*
X147941747Y-166804184D01*
X147868870Y-166661155D01*
X147849952Y-166635117D01*
X147720798Y-166457350D01*
X147720794Y-166457345D01*
X147542654Y-166279205D01*
X147542649Y-166279201D01*
X147338848Y-166131132D01*
X147338847Y-166131131D01*
X147338845Y-166131130D01*
X147268747Y-166095413D01*
X147114383Y-166016760D01*
X146874785Y-165938910D01*
X146625962Y-165899500D01*
X146374038Y-165899500D01*
X146249626Y-165919205D01*
X146125214Y-165938910D01*
X145885616Y-166016760D01*
X145661151Y-166131132D01*
X145457350Y-166279201D01*
X145457345Y-166279205D01*
X145279205Y-166457345D01*
X145279201Y-166457350D01*
X145131132Y-166661151D01*
X145016760Y-166885616D01*
X144938910Y-167125214D01*
X144899500Y-167374038D01*
X75100500Y-167374038D01*
X75061090Y-167125215D01*
X74983241Y-166885621D01*
X74983239Y-166885618D01*
X74983239Y-166885616D01*
X74941747Y-166804184D01*
X74868870Y-166661155D01*
X74849952Y-166635117D01*
X74720798Y-166457350D01*
X74720794Y-166457345D01*
X74542654Y-166279205D01*
X74542649Y-166279201D01*
X74338848Y-166131132D01*
X74338847Y-166131131D01*
X74338845Y-166131130D01*
X74268747Y-166095413D01*
X74114383Y-166016760D01*
X73874785Y-165938910D01*
X73625962Y-165899500D01*
X73374038Y-165899500D01*
X73249626Y-165919205D01*
X73125214Y-165938910D01*
X72885616Y-166016760D01*
X72661151Y-166131132D01*
X72457350Y-166279201D01*
X72457345Y-166279205D01*
X72279205Y-166457345D01*
X72279201Y-166457350D01*
X72131132Y-166661151D01*
X72016760Y-166885616D01*
X71938910Y-167125214D01*
X71899500Y-167374038D01*
X70500500Y-167374038D01*
X70500500Y-159381995D01*
X101699500Y-159381995D01*
X101699500Y-159618004D01*
X101699501Y-159618020D01*
X101719839Y-159772508D01*
X101730307Y-159852014D01*
X101781168Y-160041831D01*
X101791394Y-160079993D01*
X101881714Y-160298045D01*
X101881719Y-160298056D01*
X101944799Y-160407312D01*
X101999727Y-160502450D01*
X101999729Y-160502453D01*
X101999730Y-160502454D01*
X102143406Y-160689697D01*
X102143412Y-160689704D01*
X102310295Y-160856587D01*
X102310302Y-160856593D01*
X102326909Y-160869336D01*
X102497550Y-161000273D01*
X102628918Y-161076118D01*
X102701943Y-161118280D01*
X102701948Y-161118282D01*
X102701951Y-161118284D01*
X102920007Y-161208606D01*
X103147986Y-161269693D01*
X103381989Y-161300500D01*
X103381996Y-161300500D01*
X103618004Y-161300500D01*
X103618011Y-161300500D01*
X103852014Y-161269693D01*
X104079993Y-161208606D01*
X104298049Y-161118284D01*
X104502450Y-161000273D01*
X104689699Y-160856592D01*
X104856592Y-160689699D01*
X105000273Y-160502450D01*
X105118284Y-160298049D01*
X105208606Y-160079993D01*
X105269693Y-159852014D01*
X105300500Y-159618011D01*
X105300500Y-159381989D01*
X105269693Y-159147986D01*
X105208606Y-158920007D01*
X105118284Y-158701951D01*
X105118282Y-158701948D01*
X105118280Y-158701943D01*
X105033161Y-158554514D01*
X105000273Y-158497550D01*
X104925414Y-158399992D01*
X104925407Y-158399983D01*
X106779500Y-158399983D01*
X106779500Y-160600001D01*
X106779501Y-160600018D01*
X106790000Y-160702796D01*
X106790001Y-160702799D01*
X106840962Y-160856587D01*
X106845186Y-160869334D01*
X106937288Y-161018656D01*
X107061344Y-161142712D01*
X107210666Y-161234814D01*
X107377203Y-161289999D01*
X107479991Y-161300500D01*
X109680008Y-161300499D01*
X109782797Y-161289999D01*
X109949334Y-161234814D01*
X110098656Y-161142712D01*
X110222712Y-161018656D01*
X110314814Y-160869334D01*
X110369999Y-160702797D01*
X110380500Y-160600009D01*
X110380499Y-159381995D01*
X115199500Y-159381995D01*
X115199500Y-159618004D01*
X115199501Y-159618020D01*
X115219839Y-159772508D01*
X115230307Y-159852014D01*
X115281168Y-160041831D01*
X115291394Y-160079993D01*
X115381714Y-160298045D01*
X115381719Y-160298056D01*
X115444799Y-160407312D01*
X115499727Y-160502450D01*
X115499729Y-160502453D01*
X115499730Y-160502454D01*
X115643406Y-160689697D01*
X115643412Y-160689704D01*
X115810295Y-160856587D01*
X115810302Y-160856593D01*
X115826909Y-160869336D01*
X115997550Y-161000273D01*
X116128918Y-161076118D01*
X116201943Y-161118280D01*
X116201948Y-161118282D01*
X116201951Y-161118284D01*
X116420007Y-161208606D01*
X116647986Y-161269693D01*
X116881989Y-161300500D01*
X116881996Y-161300500D01*
X117118004Y-161300500D01*
X117118011Y-161300500D01*
X117352014Y-161269693D01*
X117579993Y-161208606D01*
X117798049Y-161118284D01*
X118002450Y-161000273D01*
X118189699Y-160856592D01*
X118356592Y-160689699D01*
X118500273Y-160502450D01*
X118618284Y-160298049D01*
X118708606Y-160079993D01*
X118769693Y-159852014D01*
X118800500Y-159618011D01*
X118800500Y-159381989D01*
X118769693Y-159147986D01*
X118708606Y-158920007D01*
X118618284Y-158701951D01*
X118618282Y-158701948D01*
X118618280Y-158701943D01*
X118533161Y-158554514D01*
X118500273Y-158497550D01*
X118425414Y-158399992D01*
X118425407Y-158399983D01*
X120279500Y-158399983D01*
X120279500Y-160600001D01*
X120279501Y-160600018D01*
X120290000Y-160702796D01*
X120290001Y-160702799D01*
X120340962Y-160856587D01*
X120345186Y-160869334D01*
X120437288Y-161018656D01*
X120561344Y-161142712D01*
X120710666Y-161234814D01*
X120877203Y-161289999D01*
X120979991Y-161300500D01*
X123180008Y-161300499D01*
X123282797Y-161289999D01*
X123449334Y-161234814D01*
X123598656Y-161142712D01*
X123722712Y-161018656D01*
X123814814Y-160869334D01*
X123869999Y-160702797D01*
X123880500Y-160600009D01*
X123880499Y-158399992D01*
X123872387Y-158320585D01*
X123869999Y-158297203D01*
X123869998Y-158297200D01*
X123857058Y-158258149D01*
X123814814Y-158130666D01*
X123722712Y-157981344D01*
X123598656Y-157857288D01*
X123449334Y-157765186D01*
X123282797Y-157710001D01*
X123282795Y-157710000D01*
X123180010Y-157699500D01*
X120979998Y-157699500D01*
X120979981Y-157699501D01*
X120877203Y-157710000D01*
X120877200Y-157710001D01*
X120710668Y-157765185D01*
X120710663Y-157765187D01*
X120561342Y-157857289D01*
X120437289Y-157981342D01*
X120345187Y-158130663D01*
X120345185Y-158130668D01*
X120340962Y-158143412D01*
X120290001Y-158297203D01*
X120290001Y-158297204D01*
X120290000Y-158297204D01*
X120279500Y-158399983D01*
X118425407Y-158399983D01*
X118356593Y-158310302D01*
X118356587Y-158310295D01*
X118189704Y-158143412D01*
X118189697Y-158143406D01*
X118002454Y-157999730D01*
X118002453Y-157999729D01*
X118002450Y-157999727D01*
X117920957Y-157952677D01*
X117798056Y-157881719D01*
X117798045Y-157881714D01*
X117579993Y-157791394D01*
X117352010Y-157730306D01*
X117118020Y-157699501D01*
X117118017Y-157699500D01*
X117118011Y-157699500D01*
X116881989Y-157699500D01*
X116881983Y-157699500D01*
X116881979Y-157699501D01*
X116647989Y-157730306D01*
X116420006Y-157791394D01*
X116201954Y-157881714D01*
X116201943Y-157881719D01*
X115997545Y-157999730D01*
X115810302Y-158143406D01*
X115810295Y-158143412D01*
X115643412Y-158310295D01*
X115643406Y-158310302D01*
X115499730Y-158497545D01*
X115381719Y-158701943D01*
X115381714Y-158701954D01*
X115291394Y-158920006D01*
X115230306Y-159147989D01*
X115199501Y-159381979D01*
X115199500Y-159381995D01*
X110380499Y-159381995D01*
X110380499Y-158399992D01*
X110372387Y-158320585D01*
X110369999Y-158297203D01*
X110369998Y-158297200D01*
X110357058Y-158258149D01*
X110314814Y-158130666D01*
X110222712Y-157981344D01*
X110098656Y-157857288D01*
X109949334Y-157765186D01*
X109782797Y-157710001D01*
X109782795Y-157710000D01*
X109680010Y-157699500D01*
X107479998Y-157699500D01*
X107479981Y-157699501D01*
X107377203Y-157710000D01*
X107377200Y-157710001D01*
X107210668Y-157765185D01*
X107210663Y-157765187D01*
X107061342Y-157857289D01*
X106937289Y-157981342D01*
X106845187Y-158130663D01*
X106845185Y-158130668D01*
X106840962Y-158143412D01*
X106790001Y-158297203D01*
X106790001Y-158297204D01*
X106790000Y-158297204D01*
X106779500Y-158399983D01*
X104925407Y-158399983D01*
X104856593Y-158310302D01*
X104856587Y-158310295D01*
X104689704Y-158143412D01*
X104689697Y-158143406D01*
X104502454Y-157999730D01*
X104502453Y-157999729D01*
X104502450Y-157999727D01*
X104420957Y-157952677D01*
X104298056Y-157881719D01*
X104298045Y-157881714D01*
X104079993Y-157791394D01*
X103852010Y-157730306D01*
X103618020Y-157699501D01*
X103618017Y-157699500D01*
X103618011Y-157699500D01*
X103381989Y-157699500D01*
X103381983Y-157699500D01*
X103381979Y-157699501D01*
X103147989Y-157730306D01*
X102920006Y-157791394D01*
X102701954Y-157881714D01*
X102701943Y-157881719D01*
X102497545Y-157999730D01*
X102310302Y-158143406D01*
X102310295Y-158143412D01*
X102143412Y-158310295D01*
X102143406Y-158310302D01*
X101999730Y-158497545D01*
X101881719Y-158701943D01*
X101881714Y-158701954D01*
X101791394Y-158920006D01*
X101730306Y-159147989D01*
X101699501Y-159381979D01*
X101699500Y-159381995D01*
X70500500Y-159381995D01*
X70500500Y-157572483D01*
X132654500Y-157572483D01*
X132654500Y-159772501D01*
X132654501Y-159772518D01*
X132665000Y-159875296D01*
X132665001Y-159875299D01*
X132720185Y-160041831D01*
X132720187Y-160041836D01*
X132755069Y-160098388D01*
X132812288Y-160191156D01*
X132936344Y-160315212D01*
X133085666Y-160407314D01*
X133252203Y-160462499D01*
X133354991Y-160473000D01*
X135555008Y-160472999D01*
X135657797Y-160462499D01*
X135824334Y-160407314D01*
X135973656Y-160315212D01*
X136097712Y-160191156D01*
X136189814Y-160041834D01*
X136244999Y-159875297D01*
X136255500Y-159772509D01*
X136255499Y-158554514D01*
X137735000Y-158554514D01*
X137735000Y-158790485D01*
X137765799Y-159024414D01*
X137826870Y-159252337D01*
X137917160Y-159470319D01*
X137917165Y-159470328D01*
X138035144Y-159674671D01*
X138035145Y-159674672D01*
X138097721Y-159756223D01*
X138933958Y-158919987D01*
X138958978Y-158980390D01*
X139030112Y-159086851D01*
X139120649Y-159177388D01*
X139227110Y-159248522D01*
X139287511Y-159273541D01*
X138451275Y-160109777D01*
X138532827Y-160172354D01*
X138532828Y-160172355D01*
X138737171Y-160290334D01*
X138737180Y-160290339D01*
X138955163Y-160380629D01*
X138955161Y-160380629D01*
X139183085Y-160441700D01*
X139417014Y-160472499D01*
X139417029Y-160472500D01*
X139652971Y-160472500D01*
X139652985Y-160472499D01*
X139886914Y-160441700D01*
X140114837Y-160380629D01*
X140332819Y-160290339D01*
X140332828Y-160290334D01*
X140537181Y-160172350D01*
X140618723Y-160109779D01*
X140618723Y-160109776D01*
X139782487Y-159273541D01*
X139842890Y-159248522D01*
X139949351Y-159177388D01*
X140039888Y-159086851D01*
X140111022Y-158980390D01*
X140136041Y-158919987D01*
X140972276Y-159756223D01*
X140972279Y-159756223D01*
X141034850Y-159674681D01*
X141152834Y-159470328D01*
X141152839Y-159470319D01*
X141243129Y-159252337D01*
X141304200Y-159024414D01*
X141334999Y-158790485D01*
X141335000Y-158790471D01*
X141335000Y-158554528D01*
X141334999Y-158554514D01*
X141304200Y-158320585D01*
X141243129Y-158092662D01*
X141152839Y-157874680D01*
X141152834Y-157874671D01*
X141034855Y-157670328D01*
X141034854Y-157670327D01*
X140972277Y-157588775D01*
X140136041Y-158425011D01*
X140111022Y-158364610D01*
X140039888Y-158258149D01*
X139949351Y-158167612D01*
X139842890Y-158096478D01*
X139782488Y-158071458D01*
X140618723Y-157235221D01*
X140537172Y-157172645D01*
X140537171Y-157172644D01*
X140332828Y-157054665D01*
X140332819Y-157054660D01*
X140114836Y-156964370D01*
X140114838Y-156964370D01*
X139886914Y-156903299D01*
X139652985Y-156872500D01*
X139417014Y-156872500D01*
X139183085Y-156903299D01*
X138955162Y-156964370D01*
X138737180Y-157054660D01*
X138737171Y-157054665D01*
X138532828Y-157172644D01*
X138532818Y-157172650D01*
X138451275Y-157235220D01*
X138451275Y-157235221D01*
X139287512Y-158071458D01*
X139227110Y-158096478D01*
X139120649Y-158167612D01*
X139030112Y-158258149D01*
X138958978Y-158364610D01*
X138933958Y-158425012D01*
X138097721Y-157588775D01*
X138097720Y-157588775D01*
X138035150Y-157670318D01*
X138035144Y-157670328D01*
X137917165Y-157874671D01*
X137917160Y-157874680D01*
X137826870Y-158092662D01*
X137765799Y-158320585D01*
X137735000Y-158554514D01*
X136255499Y-158554514D01*
X136255499Y-157572492D01*
X136244999Y-157469703D01*
X136189814Y-157303166D01*
X136097712Y-157153844D01*
X135973656Y-157029788D01*
X135824334Y-156937686D01*
X135657797Y-156882501D01*
X135657795Y-156882500D01*
X135555010Y-156872000D01*
X133354998Y-156872000D01*
X133354981Y-156872001D01*
X133252203Y-156882500D01*
X133252200Y-156882501D01*
X133085668Y-156937685D01*
X133085663Y-156937687D01*
X132936342Y-157029789D01*
X132812289Y-157153842D01*
X132720187Y-157303163D01*
X132720185Y-157303168D01*
X132713886Y-157322178D01*
X132665001Y-157469703D01*
X132665001Y-157469704D01*
X132665000Y-157469704D01*
X132654500Y-157572483D01*
X70500500Y-157572483D01*
X70500500Y-154397682D01*
X73382380Y-154397682D01*
X73382380Y-154602317D01*
X73414389Y-154804417D01*
X73477624Y-154999031D01*
X73570521Y-155181350D01*
X73570527Y-155181359D01*
X73602903Y-155225921D01*
X73602904Y-155225922D01*
X74282380Y-154546446D01*
X74282380Y-154552661D01*
X74309639Y-154654394D01*
X74362300Y-154745606D01*
X74436774Y-154820080D01*
X74527986Y-154872741D01*
X74629719Y-154900000D01*
X74635933Y-154900000D01*
X73956456Y-155579474D01*
X74001030Y-155611859D01*
X74183348Y-155704755D01*
X74377962Y-155767990D01*
X74580063Y-155800000D01*
X74784697Y-155800000D01*
X74986797Y-155767990D01*
X75181411Y-155704755D01*
X75363729Y-155611859D01*
X75408301Y-155579474D01*
X74728827Y-154900000D01*
X74735041Y-154900000D01*
X74836774Y-154872741D01*
X74927986Y-154820080D01*
X75002460Y-154745606D01*
X75055121Y-154654394D01*
X75082380Y-154552661D01*
X75082380Y-154546448D01*
X75761853Y-155225921D01*
X75799660Y-155222946D01*
X75868038Y-155237310D01*
X75917795Y-155286361D01*
X75927094Y-155307556D01*
X75947566Y-155369334D01*
X76039668Y-155518656D01*
X76163724Y-155642712D01*
X76313046Y-155734814D01*
X76479583Y-155789999D01*
X76582371Y-155800500D01*
X77782388Y-155800499D01*
X77885177Y-155789999D01*
X78051714Y-155734814D01*
X78201036Y-155642712D01*
X78325092Y-155518656D01*
X78417194Y-155369334D01*
X78472379Y-155202797D01*
X78482880Y-155100009D01*
X78482879Y-153899992D01*
X78472379Y-153797203D01*
X78417194Y-153630666D01*
X78325092Y-153481344D01*
X78201036Y-153357288D01*
X78051714Y-153265186D01*
X77885177Y-153210001D01*
X77885175Y-153210000D01*
X77782390Y-153199500D01*
X76582378Y-153199500D01*
X76582361Y-153199501D01*
X76479583Y-153210000D01*
X76479580Y-153210001D01*
X76313048Y-153265185D01*
X76313043Y-153265187D01*
X76163722Y-153357289D01*
X76039669Y-153481342D01*
X75947567Y-153630663D01*
X75947565Y-153630668D01*
X75927097Y-153692438D01*
X75887324Y-153749883D01*
X75822808Y-153776706D01*
X75799663Y-153777052D01*
X75761854Y-153774076D01*
X75082380Y-154453551D01*
X75082380Y-154447339D01*
X75055121Y-154345606D01*
X75002460Y-154254394D01*
X74927986Y-154179920D01*
X74836774Y-154127259D01*
X74735041Y-154100000D01*
X74728826Y-154100000D01*
X75408302Y-153420524D01*
X75408301Y-153420523D01*
X75363739Y-153388147D01*
X75363730Y-153388141D01*
X75181411Y-153295244D01*
X74986797Y-153232009D01*
X74784697Y-153200000D01*
X74580063Y-153200000D01*
X74377962Y-153232009D01*
X74183348Y-153295244D01*
X74001024Y-153388143D01*
X73956457Y-153420523D01*
X73956457Y-153420524D01*
X74635934Y-154100000D01*
X74629719Y-154100000D01*
X74527986Y-154127259D01*
X74436774Y-154179920D01*
X74362300Y-154254394D01*
X74309639Y-154345606D01*
X74282380Y-154447339D01*
X74282380Y-154453553D01*
X73602904Y-153774077D01*
X73602903Y-153774077D01*
X73570523Y-153818644D01*
X73477624Y-154000968D01*
X73414389Y-154195582D01*
X73382380Y-154397682D01*
X70500500Y-154397682D01*
X70500500Y-151068995D01*
X71299499Y-151068995D01*
X71326418Y-151204322D01*
X71326421Y-151204332D01*
X71379221Y-151331804D01*
X71379228Y-151331817D01*
X71455885Y-151446541D01*
X71455888Y-151446545D01*
X71553454Y-151544111D01*
X71553458Y-151544114D01*
X71668182Y-151620771D01*
X71668195Y-151620778D01*
X71795667Y-151673578D01*
X71795672Y-151673580D01*
X71795676Y-151673580D01*
X71795677Y-151673581D01*
X71931004Y-151700500D01*
X71931007Y-151700500D01*
X119068996Y-151700500D01*
X119160040Y-151682389D01*
X119204328Y-151673580D01*
X119268069Y-151647177D01*
X119331807Y-151620777D01*
X119331808Y-151620776D01*
X119331811Y-151620775D01*
X119446543Y-151544114D01*
X129044114Y-141946543D01*
X129120775Y-141831811D01*
X129173580Y-141704328D01*
X129200500Y-141568994D01*
X129200500Y-141431006D01*
X129200500Y-91431007D01*
X129195956Y-91408165D01*
X129192843Y-91392517D01*
X129173581Y-91295679D01*
X129173580Y-91295672D01*
X129146378Y-91230000D01*
X129120777Y-91168192D01*
X129044112Y-91053454D01*
X126606546Y-88615888D01*
X126606542Y-88615885D01*
X126555608Y-88581852D01*
X126510803Y-88528240D01*
X126500499Y-88478750D01*
X126500499Y-88112129D01*
X126500498Y-88112123D01*
X126500497Y-88112116D01*
X126494091Y-88052517D01*
X126449637Y-87933332D01*
X126444654Y-87863642D01*
X126449638Y-87846667D01*
X126494091Y-87727482D01*
X126500500Y-87667873D01*
X126500499Y-85572128D01*
X126494091Y-85512517D01*
X126449637Y-85393332D01*
X126444654Y-85323642D01*
X126449638Y-85306667D01*
X126494091Y-85187482D01*
X126500500Y-85127873D01*
X126500499Y-83032128D01*
X126494091Y-82972517D01*
X126449637Y-82853332D01*
X126444654Y-82783642D01*
X126449638Y-82766667D01*
X126494091Y-82647483D01*
X126500500Y-82587873D01*
X126500499Y-80492128D01*
X126494091Y-80432517D01*
X126449637Y-80313332D01*
X126444654Y-80243642D01*
X126449638Y-80226667D01*
X126494091Y-80107482D01*
X126500500Y-80047873D01*
X126500499Y-77952128D01*
X126494091Y-77892517D01*
X126485271Y-77868870D01*
X126443797Y-77757671D01*
X126443793Y-77757664D01*
X126357547Y-77642455D01*
X126357544Y-77642452D01*
X126242335Y-77556206D01*
X126242328Y-77556202D01*
X126107482Y-77505908D01*
X126107483Y-77505908D01*
X126047883Y-77499501D01*
X126047881Y-77499500D01*
X126047873Y-77499500D01*
X126047864Y-77499500D01*
X123952129Y-77499500D01*
X123952123Y-77499501D01*
X123892516Y-77505908D01*
X123757671Y-77556202D01*
X123757664Y-77556206D01*
X123642455Y-77642452D01*
X123642452Y-77642455D01*
X123556206Y-77757664D01*
X123556202Y-77757671D01*
X123505908Y-77892517D01*
X123500499Y-77942834D01*
X123499501Y-77952123D01*
X123499500Y-77952135D01*
X123499500Y-80047870D01*
X123499501Y-80047876D01*
X123505908Y-80107483D01*
X123550361Y-80226667D01*
X123555345Y-80296359D01*
X123550361Y-80313333D01*
X123505908Y-80432517D01*
X123500499Y-80482834D01*
X123499501Y-80492123D01*
X123499500Y-80492135D01*
X123499500Y-82587870D01*
X123499501Y-82587876D01*
X123505908Y-82647483D01*
X123550361Y-82766667D01*
X123555345Y-82836359D01*
X123550361Y-82853333D01*
X123505908Y-82972517D01*
X123500499Y-83022834D01*
X123499501Y-83032123D01*
X123499500Y-83032135D01*
X123499500Y-85127870D01*
X123499501Y-85127876D01*
X123505908Y-85187483D01*
X123550361Y-85306667D01*
X123555345Y-85376359D01*
X123550361Y-85393333D01*
X123505908Y-85512517D01*
X123500499Y-85562834D01*
X123499501Y-85572123D01*
X123499500Y-85572135D01*
X123499500Y-87667870D01*
X123499501Y-87667876D01*
X123505908Y-87727483D01*
X123550361Y-87846667D01*
X123555345Y-87916359D01*
X123550361Y-87933333D01*
X123505908Y-88052517D01*
X123500499Y-88102834D01*
X123499501Y-88112123D01*
X123499500Y-88112135D01*
X123499500Y-90207870D01*
X123499501Y-90207876D01*
X123505908Y-90267483D01*
X123550361Y-90386667D01*
X123555345Y-90456359D01*
X123550361Y-90473333D01*
X123505908Y-90592517D01*
X123499501Y-90652116D01*
X123499500Y-90652135D01*
X123499500Y-92747870D01*
X123499501Y-92747876D01*
X123505908Y-92807483D01*
X123550361Y-92926667D01*
X123555345Y-92996359D01*
X123550361Y-93013333D01*
X123505908Y-93132517D01*
X123499501Y-93192116D01*
X123499500Y-93192135D01*
X123499500Y-95287870D01*
X123499501Y-95287876D01*
X123505908Y-95347483D01*
X123550361Y-95466667D01*
X123555345Y-95536359D01*
X123550361Y-95553333D01*
X123505908Y-95672517D01*
X123500499Y-95722834D01*
X123499501Y-95732123D01*
X123499500Y-95732135D01*
X123499500Y-97827870D01*
X123499501Y-97827876D01*
X123505908Y-97887483D01*
X123550361Y-98006667D01*
X123555345Y-98076359D01*
X123550361Y-98093333D01*
X123505908Y-98212517D01*
X123500499Y-98262834D01*
X123499501Y-98272123D01*
X123499500Y-98272135D01*
X123499500Y-100367870D01*
X123499501Y-100367876D01*
X123505908Y-100427483D01*
X123550361Y-100546667D01*
X123555345Y-100616359D01*
X123550361Y-100633333D01*
X123505908Y-100752517D01*
X123500499Y-100802834D01*
X123499501Y-100812123D01*
X123499500Y-100812135D01*
X123499500Y-102907870D01*
X123499501Y-102907876D01*
X123505908Y-102967483D01*
X123550361Y-103086667D01*
X123555345Y-103156359D01*
X123550361Y-103173333D01*
X123505908Y-103292517D01*
X123500499Y-103342834D01*
X123499501Y-103352123D01*
X123499500Y-103352135D01*
X123499500Y-105447870D01*
X123499501Y-105447876D01*
X123505908Y-105507483D01*
X123550361Y-105626667D01*
X123555345Y-105696359D01*
X123550361Y-105713333D01*
X123505908Y-105832517D01*
X123499501Y-105892116D01*
X123499501Y-105892123D01*
X123499500Y-105892135D01*
X123499500Y-107987870D01*
X123499501Y-107987876D01*
X123505908Y-108047483D01*
X123550361Y-108166667D01*
X123555345Y-108236359D01*
X123550361Y-108253333D01*
X123505908Y-108372517D01*
X123499501Y-108432116D01*
X123499501Y-108432123D01*
X123499500Y-108432135D01*
X123499500Y-110527870D01*
X123499501Y-110527876D01*
X123505908Y-110587483D01*
X123550361Y-110706667D01*
X123555345Y-110776359D01*
X123550361Y-110793333D01*
X123505908Y-110912517D01*
X123499973Y-110967725D01*
X123499501Y-110972123D01*
X123499500Y-110972135D01*
X123499500Y-113067870D01*
X123499501Y-113067876D01*
X123505908Y-113127483D01*
X123550361Y-113246667D01*
X123555345Y-113316359D01*
X123550361Y-113333333D01*
X123505908Y-113452517D01*
X123501042Y-113497781D01*
X123499501Y-113512123D01*
X123499500Y-113512135D01*
X123499500Y-115607870D01*
X123499501Y-115607876D01*
X123505908Y-115667483D01*
X123550361Y-115786667D01*
X123555345Y-115856359D01*
X123550361Y-115873333D01*
X123505908Y-115992517D01*
X123501042Y-116037781D01*
X123499501Y-116052123D01*
X123499500Y-116052135D01*
X123499500Y-118147870D01*
X123499501Y-118147876D01*
X123505908Y-118207483D01*
X123550361Y-118326667D01*
X123555345Y-118396359D01*
X123550361Y-118413333D01*
X123505908Y-118532517D01*
X123502073Y-118568192D01*
X123499501Y-118592123D01*
X123499500Y-118592135D01*
X123499500Y-120687870D01*
X123499501Y-120687876D01*
X123505908Y-120747483D01*
X123550361Y-120866667D01*
X123555345Y-120936359D01*
X123550361Y-120953333D01*
X123505908Y-121072517D01*
X123500499Y-121122834D01*
X123499501Y-121132123D01*
X123499500Y-121132135D01*
X123499500Y-123227870D01*
X123499501Y-123227876D01*
X123505908Y-123287483D01*
X123550361Y-123406667D01*
X123555345Y-123476359D01*
X123550361Y-123493333D01*
X123505908Y-123612517D01*
X123500499Y-123662834D01*
X123499501Y-123672123D01*
X123499500Y-123672135D01*
X123499500Y-125767870D01*
X123499501Y-125767876D01*
X123505908Y-125827483D01*
X123550361Y-125946667D01*
X123555345Y-126016359D01*
X123550361Y-126033333D01*
X123505908Y-126152517D01*
X123499992Y-126207547D01*
X123499501Y-126212123D01*
X123499500Y-126212135D01*
X123499500Y-128307870D01*
X123499501Y-128307876D01*
X123505908Y-128367483D01*
X123550361Y-128486667D01*
X123555345Y-128556359D01*
X123550361Y-128573333D01*
X123505908Y-128692517D01*
X123500499Y-128742834D01*
X123499501Y-128752123D01*
X123499500Y-128752135D01*
X123499500Y-130847870D01*
X123499501Y-130847876D01*
X123505908Y-130907483D01*
X123550361Y-131026667D01*
X123555345Y-131096359D01*
X123550361Y-131113333D01*
X123505908Y-131232517D01*
X123500499Y-131282834D01*
X123499501Y-131292123D01*
X123499500Y-131292135D01*
X123499500Y-133387870D01*
X123499501Y-133387876D01*
X123505908Y-133447483D01*
X123550361Y-133566667D01*
X123555345Y-133636359D01*
X123550361Y-133653333D01*
X123505908Y-133772517D01*
X123500210Y-133825520D01*
X123499501Y-133832123D01*
X123499500Y-133832135D01*
X123499500Y-135927870D01*
X123499501Y-135927876D01*
X123505908Y-135987483D01*
X123550361Y-136106667D01*
X123555345Y-136176359D01*
X123550361Y-136193333D01*
X123505908Y-136312517D01*
X123500499Y-136362834D01*
X123499501Y-136372123D01*
X123499500Y-136372135D01*
X123499500Y-138467870D01*
X123499501Y-138467876D01*
X123505908Y-138527483D01*
X123556202Y-138662328D01*
X123556206Y-138662335D01*
X123642452Y-138777544D01*
X123642455Y-138777547D01*
X123757664Y-138863793D01*
X123757671Y-138863797D01*
X123892517Y-138914091D01*
X123892516Y-138914091D01*
X123899444Y-138914835D01*
X123952127Y-138920500D01*
X126047872Y-138920499D01*
X126107483Y-138914091D01*
X126242331Y-138863796D01*
X126357546Y-138777546D01*
X126443796Y-138662331D01*
X126494091Y-138527483D01*
X126500500Y-138467873D01*
X126500499Y-136372128D01*
X126494091Y-136312517D01*
X126449637Y-136193332D01*
X126444654Y-136123642D01*
X126449638Y-136106667D01*
X126494091Y-135987483D01*
X126500500Y-135927873D01*
X126500499Y-133832128D01*
X126494091Y-133772517D01*
X126449637Y-133653332D01*
X126444654Y-133583642D01*
X126449638Y-133566667D01*
X126494091Y-133447483D01*
X126500500Y-133387873D01*
X126500499Y-131292128D01*
X126494091Y-131232517D01*
X126449637Y-131113332D01*
X126444654Y-131043642D01*
X126449638Y-131026667D01*
X126494091Y-130907483D01*
X126500500Y-130847873D01*
X126500499Y-128752128D01*
X126494091Y-128692517D01*
X126485018Y-128668192D01*
X126449638Y-128573333D01*
X126444654Y-128503642D01*
X126449638Y-128486667D01*
X126494091Y-128367483D01*
X126500500Y-128307873D01*
X126500499Y-126212128D01*
X126494091Y-126152517D01*
X126449637Y-126033332D01*
X126444654Y-125963642D01*
X126449638Y-125946667D01*
X126465185Y-125904984D01*
X126494091Y-125827483D01*
X126500500Y-125767873D01*
X126500499Y-123672128D01*
X126494091Y-123612517D01*
X126449637Y-123493332D01*
X126444654Y-123423642D01*
X126449638Y-123406667D01*
X126460251Y-123378213D01*
X126494091Y-123287483D01*
X126500500Y-123227873D01*
X126500499Y-121132128D01*
X126494091Y-121072517D01*
X126449637Y-120953332D01*
X126444654Y-120883642D01*
X126449638Y-120866667D01*
X126494091Y-120747483D01*
X126500500Y-120687873D01*
X126500499Y-118592128D01*
X126494091Y-118532517D01*
X126449637Y-118413332D01*
X126444654Y-118343642D01*
X126449638Y-118326667D01*
X126494091Y-118207483D01*
X126500500Y-118147873D01*
X126500499Y-116052128D01*
X126494091Y-115992517D01*
X126449637Y-115873332D01*
X126444654Y-115803642D01*
X126449638Y-115786667D01*
X126494091Y-115667483D01*
X126500500Y-115607873D01*
X126500499Y-113512128D01*
X126494091Y-113452517D01*
X126449637Y-113333332D01*
X126444654Y-113263642D01*
X126449638Y-113246667D01*
X126464127Y-113207820D01*
X126494091Y-113127483D01*
X126500500Y-113067873D01*
X126500499Y-110972128D01*
X126494091Y-110912517D01*
X126449637Y-110793332D01*
X126444654Y-110723642D01*
X126449638Y-110706667D01*
X126451938Y-110700500D01*
X126494091Y-110587483D01*
X126500500Y-110527873D01*
X126500499Y-108432128D01*
X126494091Y-108372517D01*
X126449637Y-108253332D01*
X126444654Y-108183642D01*
X126449638Y-108166667D01*
X126494091Y-108047483D01*
X126500500Y-107987873D01*
X126500499Y-105892128D01*
X126494091Y-105832517D01*
X126479148Y-105792454D01*
X126449638Y-105713333D01*
X126444654Y-105643642D01*
X126449638Y-105626667D01*
X126463841Y-105588587D01*
X126494091Y-105507483D01*
X126500500Y-105447873D01*
X126500499Y-103352128D01*
X126494091Y-103292517D01*
X126449637Y-103173332D01*
X126444654Y-103103642D01*
X126449638Y-103086667D01*
X126494091Y-102967483D01*
X126500500Y-102907873D01*
X126500499Y-100812128D01*
X126494091Y-100752517D01*
X126449637Y-100633332D01*
X126444654Y-100563642D01*
X126449638Y-100546667D01*
X126494091Y-100427483D01*
X126500500Y-100367873D01*
X126500499Y-98272128D01*
X126494091Y-98212517D01*
X126449637Y-98093332D01*
X126444654Y-98023642D01*
X126449638Y-98006667D01*
X126494091Y-97887483D01*
X126500500Y-97827873D01*
X126500499Y-95732128D01*
X126494091Y-95672517D01*
X126449637Y-95553332D01*
X126444654Y-95483642D01*
X126449638Y-95466667D01*
X126494091Y-95347483D01*
X126500500Y-95287873D01*
X126500499Y-93290517D01*
X126520184Y-93223479D01*
X126572987Y-93177724D01*
X126642146Y-93167780D01*
X126705702Y-93196805D01*
X126712180Y-93202837D01*
X126763181Y-93253838D01*
X126796666Y-93315161D01*
X126799500Y-93341519D01*
X126799500Y-140658481D01*
X126779815Y-140725520D01*
X126763181Y-140746162D01*
X118246162Y-149263181D01*
X118184839Y-149296666D01*
X118158481Y-149299500D01*
X113805744Y-149299500D01*
X113738705Y-149279815D01*
X113692950Y-149227011D01*
X113683006Y-149157853D01*
X113684127Y-149151309D01*
X113700499Y-149068997D01*
X113700500Y-149068995D01*
X113700500Y-101931004D01*
X113673581Y-101795677D01*
X113673580Y-101795676D01*
X113673580Y-101795672D01*
X113637189Y-101707816D01*
X113620778Y-101668195D01*
X113620776Y-101668191D01*
X113620775Y-101668189D01*
X113573301Y-101597139D01*
X113544114Y-101553457D01*
X113544112Y-101553454D01*
X113544109Y-101553451D01*
X108742338Y-96751681D01*
X108708853Y-96690358D01*
X108713837Y-96620666D01*
X108755709Y-96564733D01*
X108821173Y-96540316D01*
X108830019Y-96540000D01*
X109547828Y-96540000D01*
X109547844Y-96539999D01*
X109607372Y-96533598D01*
X109607379Y-96533596D01*
X109742086Y-96483354D01*
X109742093Y-96483350D01*
X109857187Y-96397190D01*
X109857190Y-96397187D01*
X109943350Y-96282093D01*
X109943354Y-96282086D01*
X109993596Y-96147379D01*
X109993598Y-96147372D01*
X109999999Y-96087844D01*
X110000000Y-96087827D01*
X110000000Y-95290000D01*
X108933012Y-95290000D01*
X108965925Y-95232993D01*
X109000000Y-95105826D01*
X109000000Y-94974174D01*
X108965925Y-94847007D01*
X108933012Y-94790000D01*
X110000000Y-94790000D01*
X110000000Y-93992172D01*
X109999999Y-93992155D01*
X109993598Y-93932627D01*
X109993597Y-93932623D01*
X109949371Y-93814049D01*
X109944387Y-93744357D01*
X109949367Y-93727393D01*
X109994091Y-93607483D01*
X110000500Y-93547873D01*
X110000499Y-91452128D01*
X109994091Y-91392517D01*
X109949637Y-91273332D01*
X109944654Y-91203642D01*
X109949638Y-91186667D01*
X109983781Y-91095125D01*
X109994091Y-91067483D01*
X110000500Y-91007873D01*
X110000499Y-88912128D01*
X109994091Y-88852517D01*
X109949637Y-88733332D01*
X109944654Y-88663642D01*
X109949638Y-88646667D01*
X109961119Y-88615885D01*
X109994091Y-88527483D01*
X110000500Y-88467873D01*
X110000499Y-86372128D01*
X109994091Y-86312517D01*
X109949637Y-86193332D01*
X109944654Y-86123642D01*
X109949638Y-86106667D01*
X109994091Y-85987482D01*
X110000500Y-85927873D01*
X110000499Y-83832128D01*
X109994091Y-83772517D01*
X109949637Y-83653332D01*
X109944654Y-83583642D01*
X109949638Y-83566667D01*
X109994091Y-83447483D01*
X110000500Y-83387873D01*
X110000499Y-81292128D01*
X109994103Y-81232627D01*
X109994091Y-81232516D01*
X109949638Y-81113333D01*
X109944654Y-81043642D01*
X109949638Y-81026667D01*
X109994091Y-80907482D01*
X109994091Y-80907481D01*
X110000500Y-80847873D01*
X110000499Y-78752128D01*
X109994091Y-78692517D01*
X109949637Y-78573332D01*
X109944654Y-78503642D01*
X109949638Y-78486667D01*
X109994091Y-78367482D01*
X110000500Y-78307873D01*
X110000499Y-76212128D01*
X109994091Y-76152517D01*
X109943796Y-76017669D01*
X109943795Y-76017668D01*
X109943793Y-76017664D01*
X109857547Y-75902455D01*
X109857544Y-75902452D01*
X109742335Y-75816206D01*
X109742328Y-75816202D01*
X109607482Y-75765908D01*
X109607483Y-75765908D01*
X109547883Y-75759501D01*
X109547881Y-75759500D01*
X109547873Y-75759500D01*
X109547864Y-75759500D01*
X107452129Y-75759500D01*
X107452123Y-75759501D01*
X107392516Y-75765908D01*
X107257671Y-75816202D01*
X107257664Y-75816206D01*
X107142455Y-75902452D01*
X107142452Y-75902455D01*
X107056206Y-76017664D01*
X107056202Y-76017671D01*
X107005908Y-76152517D01*
X106999501Y-76212116D01*
X106999501Y-76212123D01*
X106999500Y-76212135D01*
X106999500Y-78307870D01*
X106999501Y-78307876D01*
X107005908Y-78367483D01*
X107050361Y-78486667D01*
X107055345Y-78556359D01*
X107050361Y-78573333D01*
X107005908Y-78692517D01*
X106999501Y-78752116D01*
X106999501Y-78752123D01*
X106999500Y-78752135D01*
X106999500Y-80847870D01*
X106999501Y-80847876D01*
X107005908Y-80907483D01*
X107050361Y-81026667D01*
X107055345Y-81096359D01*
X107050361Y-81113333D01*
X107005908Y-81232517D01*
X106999501Y-81292116D01*
X106999501Y-81292123D01*
X106999500Y-81292135D01*
X106999500Y-83387870D01*
X106999501Y-83387876D01*
X107005908Y-83447483D01*
X107050361Y-83566667D01*
X107055345Y-83636359D01*
X107050361Y-83653333D01*
X107005908Y-83772517D01*
X106999501Y-83832116D01*
X106999501Y-83832123D01*
X106999500Y-83832135D01*
X106999500Y-85927870D01*
X106999501Y-85927876D01*
X107005908Y-85987483D01*
X107050361Y-86106667D01*
X107055345Y-86176359D01*
X107050361Y-86193333D01*
X107005908Y-86312517D01*
X106999501Y-86372116D01*
X106999501Y-86372123D01*
X106999500Y-86372135D01*
X106999500Y-88467870D01*
X106999501Y-88467876D01*
X107005908Y-88527483D01*
X107050361Y-88646667D01*
X107055345Y-88716359D01*
X107050361Y-88733333D01*
X107005908Y-88852517D01*
X106999501Y-88912116D01*
X106999501Y-88912123D01*
X106999500Y-88912135D01*
X106999500Y-91007870D01*
X106999501Y-91007876D01*
X107005908Y-91067483D01*
X107050361Y-91186667D01*
X107055345Y-91256359D01*
X107050361Y-91273333D01*
X107005908Y-91392517D01*
X106999501Y-91452116D01*
X106999501Y-91452123D01*
X106999500Y-91452135D01*
X106999500Y-93547870D01*
X106999501Y-93547876D01*
X107005908Y-93607483D01*
X107050628Y-93727380D01*
X107055612Y-93797071D01*
X107050628Y-93814046D01*
X107006403Y-93932619D01*
X107006401Y-93932627D01*
X107000000Y-93992155D01*
X107000000Y-94790000D01*
X108066988Y-94790000D01*
X108034075Y-94847007D01*
X108000000Y-94974174D01*
X108000000Y-95105826D01*
X108034075Y-95232993D01*
X108066988Y-95290000D01*
X107000000Y-95290000D01*
X107000000Y-95675500D01*
X106980315Y-95742539D01*
X106927511Y-95788294D01*
X106876000Y-95799500D01*
X97431003Y-95799500D01*
X97322590Y-95821065D01*
X97322589Y-95821065D01*
X97306379Y-95824289D01*
X97295669Y-95826420D01*
X97266408Y-95838541D01*
X97168188Y-95879225D01*
X97168188Y-95879226D01*
X97053456Y-95955886D01*
X97053453Y-95955889D01*
X95455888Y-97553453D01*
X95455887Y-97553454D01*
X95379222Y-97668192D01*
X95326421Y-97795667D01*
X95326418Y-97795679D01*
X95318165Y-97837173D01*
X95308158Y-97887483D01*
X95299500Y-97931007D01*
X95299500Y-104568993D01*
X95299500Y-104568995D01*
X95299499Y-104568995D01*
X95326418Y-104704322D01*
X95326421Y-104704332D01*
X95379221Y-104831804D01*
X95379228Y-104831817D01*
X95455885Y-104946541D01*
X95455888Y-104946545D01*
X95553454Y-105044111D01*
X95553458Y-105044114D01*
X95668182Y-105120771D01*
X95668195Y-105120778D01*
X95795667Y-105173578D01*
X95795672Y-105173580D01*
X95795676Y-105173580D01*
X95795677Y-105173581D01*
X95931004Y-105200500D01*
X95931007Y-105200500D01*
X96068993Y-105200500D01*
X103158481Y-105200500D01*
X103225520Y-105220185D01*
X103246162Y-105236819D01*
X103466915Y-105457572D01*
X103500400Y-105518895D01*
X103495416Y-105588587D01*
X103453544Y-105644520D01*
X103398633Y-105667726D01*
X103303759Y-105682753D01*
X103101585Y-105748444D01*
X102912179Y-105844951D01*
X102740213Y-105969890D01*
X102589890Y-106120213D01*
X102464949Y-106292182D01*
X102460484Y-106300946D01*
X102412509Y-106351742D01*
X102344688Y-106368536D01*
X102278553Y-106345998D01*
X102239516Y-106300946D01*
X102235050Y-106292182D01*
X102110109Y-106120213D01*
X101959786Y-105969890D01*
X101787820Y-105844951D01*
X101598414Y-105748444D01*
X101598413Y-105748443D01*
X101598412Y-105748443D01*
X101396243Y-105682754D01*
X101396241Y-105682753D01*
X101396240Y-105682753D01*
X101234957Y-105657208D01*
X101186287Y-105649500D01*
X100973713Y-105649500D01*
X100925042Y-105657208D01*
X100763760Y-105682753D01*
X100561585Y-105748444D01*
X100372179Y-105844951D01*
X100200215Y-105969889D01*
X100086673Y-106083431D01*
X100025350Y-106116915D01*
X99955658Y-106111931D01*
X99899725Y-106070059D01*
X99882810Y-106039082D01*
X99833797Y-105907671D01*
X99833793Y-105907664D01*
X99747547Y-105792455D01*
X99747544Y-105792452D01*
X99632335Y-105706206D01*
X99632328Y-105706202D01*
X99497482Y-105655908D01*
X99497483Y-105655908D01*
X99437883Y-105649501D01*
X99437881Y-105649500D01*
X99437873Y-105649500D01*
X99437864Y-105649500D01*
X97642129Y-105649500D01*
X97642123Y-105649501D01*
X97582516Y-105655908D01*
X97447671Y-105706202D01*
X97447664Y-105706206D01*
X97332455Y-105792452D01*
X97332452Y-105792455D01*
X97246206Y-105907664D01*
X97246202Y-105907671D01*
X97195908Y-106042517D01*
X97189501Y-106102116D01*
X97189500Y-106102135D01*
X97189500Y-107308480D01*
X97169815Y-107375519D01*
X97153181Y-107396161D01*
X90955888Y-113593453D01*
X90955887Y-113593454D01*
X90879224Y-113708190D01*
X90826421Y-113835668D01*
X90826420Y-113835670D01*
X90826420Y-113835672D01*
X90823471Y-113850499D01*
X90823471Y-113850500D01*
X90799500Y-113971004D01*
X90799500Y-114574684D01*
X90790061Y-114622136D01*
X90730264Y-114766498D01*
X90730261Y-114766508D01*
X90713619Y-114850175D01*
X90681234Y-114912086D01*
X90620518Y-114946660D01*
X90550749Y-114942920D01*
X90504321Y-114913664D01*
X84400507Y-108809850D01*
X84367022Y-108748527D01*
X84365715Y-108702771D01*
X84366076Y-108700496D01*
X84390500Y-108546287D01*
X84390500Y-108333713D01*
X84357246Y-108123757D01*
X84291557Y-107921588D01*
X84195051Y-107732184D01*
X84195049Y-107732181D01*
X84195048Y-107732179D01*
X84070109Y-107560213D01*
X83919786Y-107409890D01*
X83747820Y-107284951D01*
X83747115Y-107284591D01*
X83739054Y-107280485D01*
X83688259Y-107232512D01*
X83671463Y-107164692D01*
X83693999Y-107098556D01*
X83739054Y-107059515D01*
X83747816Y-107055051D01*
X83769789Y-107039086D01*
X83919786Y-106930109D01*
X83919788Y-106930106D01*
X83919792Y-106930104D01*
X84070104Y-106779792D01*
X84070106Y-106779788D01*
X84070109Y-106779786D01*
X84195048Y-106607820D01*
X84195047Y-106607820D01*
X84195051Y-106607816D01*
X84291557Y-106418412D01*
X84357246Y-106216243D01*
X84390500Y-106006287D01*
X84390500Y-105793713D01*
X84357246Y-105583757D01*
X84291557Y-105381588D01*
X84195051Y-105192184D01*
X84195049Y-105192181D01*
X84195048Y-105192179D01*
X84070109Y-105020213D01*
X83919786Y-104869890D01*
X83747820Y-104744951D01*
X83747115Y-104744591D01*
X83739054Y-104740485D01*
X83688259Y-104692512D01*
X83671463Y-104624692D01*
X83693999Y-104558556D01*
X83739054Y-104519515D01*
X83747816Y-104515051D01*
X83769789Y-104499086D01*
X83919786Y-104390109D01*
X83919788Y-104390106D01*
X83919792Y-104390104D01*
X84070104Y-104239792D01*
X84070106Y-104239788D01*
X84070109Y-104239786D01*
X84195048Y-104067820D01*
X84195047Y-104067820D01*
X84195051Y-104067816D01*
X84291557Y-103878412D01*
X84357246Y-103676243D01*
X84390500Y-103466287D01*
X84390500Y-103253713D01*
X84357246Y-103043757D01*
X84291557Y-102841588D01*
X84195051Y-102652184D01*
X84195049Y-102652181D01*
X84195048Y-102652179D01*
X84070109Y-102480213D01*
X83919786Y-102329890D01*
X83747820Y-102204951D01*
X83747115Y-102204591D01*
X83739054Y-102200485D01*
X83688259Y-102152512D01*
X83671463Y-102084692D01*
X83693999Y-102018556D01*
X83739054Y-101979515D01*
X83747816Y-101975051D01*
X83844256Y-101904984D01*
X83919786Y-101850109D01*
X83919788Y-101850106D01*
X83919792Y-101850104D01*
X84070104Y-101699792D01*
X84070106Y-101699788D01*
X84070109Y-101699786D01*
X84195048Y-101527820D01*
X84195050Y-101527817D01*
X84195051Y-101527816D01*
X84291557Y-101338412D01*
X84357246Y-101136243D01*
X84390500Y-100926287D01*
X84390500Y-100713713D01*
X84357246Y-100503757D01*
X84291557Y-100301588D01*
X84195051Y-100112184D01*
X84195049Y-100112181D01*
X84195048Y-100112179D01*
X84070109Y-99940213D01*
X83919786Y-99789890D01*
X83747820Y-99664951D01*
X83739600Y-99660763D01*
X83739054Y-99660485D01*
X83688259Y-99612512D01*
X83671463Y-99544692D01*
X83693999Y-99478556D01*
X83739054Y-99439515D01*
X83747816Y-99435051D01*
X83876553Y-99341519D01*
X83919786Y-99310109D01*
X83919788Y-99310106D01*
X83919792Y-99310104D01*
X84070104Y-99159792D01*
X84070106Y-99159788D01*
X84070109Y-99159786D01*
X84195048Y-98987820D01*
X84195047Y-98987820D01*
X84195051Y-98987816D01*
X84291557Y-98798412D01*
X84357246Y-98596243D01*
X84390500Y-98386287D01*
X84390500Y-98173713D01*
X84357246Y-97963757D01*
X84291557Y-97761588D01*
X84195051Y-97572184D01*
X84195049Y-97572181D01*
X84195048Y-97572179D01*
X84070109Y-97400213D01*
X83956569Y-97286673D01*
X83923084Y-97225350D01*
X83928068Y-97155658D01*
X83969940Y-97099725D01*
X84000915Y-97082810D01*
X84132331Y-97033796D01*
X84247546Y-96947546D01*
X84333796Y-96832331D01*
X84384091Y-96697483D01*
X84390500Y-96637873D01*
X84390499Y-94842128D01*
X84384091Y-94782517D01*
X84382810Y-94779083D01*
X84333797Y-94647671D01*
X84333793Y-94647664D01*
X84247547Y-94532455D01*
X84247544Y-94532452D01*
X84132335Y-94446206D01*
X84132328Y-94446202D01*
X83997482Y-94395908D01*
X83997483Y-94395908D01*
X83937883Y-94389501D01*
X83937881Y-94389500D01*
X83937873Y-94389500D01*
X83937864Y-94389500D01*
X82142129Y-94389500D01*
X82142123Y-94389501D01*
X82082516Y-94395908D01*
X81947671Y-94446202D01*
X81947664Y-94446206D01*
X81832455Y-94532452D01*
X81832452Y-94532455D01*
X81746206Y-94647664D01*
X81746203Y-94647669D01*
X81697189Y-94779083D01*
X81655317Y-94835016D01*
X81589853Y-94859433D01*
X81521580Y-94844581D01*
X81493326Y-94823430D01*
X81379786Y-94709890D01*
X81207820Y-94584951D01*
X81018414Y-94488444D01*
X81018413Y-94488443D01*
X81018412Y-94488443D01*
X80816243Y-94422754D01*
X80816241Y-94422753D01*
X80816240Y-94422753D01*
X80654957Y-94397208D01*
X80606287Y-94389500D01*
X80393713Y-94389500D01*
X80345042Y-94397208D01*
X80183760Y-94422753D01*
X79981585Y-94488444D01*
X79792179Y-94584951D01*
X79620213Y-94709890D01*
X79469890Y-94860213D01*
X79344951Y-95032179D01*
X79248444Y-95221585D01*
X79182753Y-95423760D01*
X79169094Y-95510000D01*
X79149500Y-95633713D01*
X79149500Y-95846287D01*
X79182754Y-96056243D01*
X79193016Y-96087827D01*
X79248444Y-96258414D01*
X79344951Y-96447820D01*
X79469890Y-96619786D01*
X79620213Y-96770109D01*
X79792182Y-96895050D01*
X79800946Y-96899516D01*
X79851742Y-96947491D01*
X79868536Y-97015312D01*
X79845998Y-97081447D01*
X79800946Y-97120484D01*
X79792182Y-97124949D01*
X79620213Y-97249890D01*
X79469890Y-97400213D01*
X79344951Y-97572179D01*
X79248444Y-97761585D01*
X79182753Y-97963760D01*
X79149500Y-98173713D01*
X79149500Y-98386286D01*
X79182753Y-98596239D01*
X79248444Y-98798414D01*
X79344951Y-98987820D01*
X79469890Y-99159786D01*
X79620213Y-99310109D01*
X79792179Y-99435048D01*
X79792181Y-99435049D01*
X79792184Y-99435051D01*
X79801493Y-99439794D01*
X79852290Y-99487766D01*
X79869087Y-99555587D01*
X79846552Y-99621722D01*
X79801505Y-99660760D01*
X79792446Y-99665376D01*
X79792440Y-99665380D01*
X79738282Y-99704727D01*
X79738282Y-99704728D01*
X80370591Y-100337037D01*
X80307007Y-100354075D01*
X80192993Y-100419901D01*
X80099901Y-100512993D01*
X80034075Y-100627007D01*
X80017037Y-100690591D01*
X79384728Y-100058282D01*
X79384727Y-100058282D01*
X79345380Y-100112439D01*
X79248904Y-100301782D01*
X79183242Y-100503869D01*
X79183242Y-100503872D01*
X79150000Y-100713753D01*
X79150000Y-100926246D01*
X79183242Y-101136127D01*
X79183242Y-101136130D01*
X79248904Y-101338217D01*
X79345375Y-101527550D01*
X79384728Y-101581716D01*
X80017037Y-100949408D01*
X80034075Y-101012993D01*
X80099901Y-101127007D01*
X80192993Y-101220099D01*
X80307007Y-101285925D01*
X80370590Y-101302962D01*
X79738282Y-101935269D01*
X79738282Y-101935270D01*
X79792452Y-101974626D01*
X79792451Y-101974626D01*
X79801495Y-101979234D01*
X79852292Y-102027208D01*
X79869087Y-102095029D01*
X79846550Y-102161164D01*
X79801499Y-102200202D01*
X79792182Y-102204949D01*
X79620213Y-102329890D01*
X79469890Y-102480213D01*
X79344951Y-102652179D01*
X79248444Y-102841585D01*
X79182753Y-103043760D01*
X79149500Y-103253713D01*
X79149500Y-103466287D01*
X79149499Y-103466287D01*
X79174284Y-103622771D01*
X79165329Y-103692064D01*
X79139492Y-103729849D01*
X71455890Y-111413451D01*
X71455884Y-111413458D01*
X71428854Y-111453913D01*
X71428854Y-111453914D01*
X71379228Y-111528183D01*
X71379221Y-111528195D01*
X71326421Y-111655667D01*
X71326418Y-111655677D01*
X71299500Y-111791004D01*
X71299500Y-111791007D01*
X71299500Y-150931006D01*
X71299500Y-150931007D01*
X71299500Y-151068993D01*
X71299500Y-151068995D01*
X71299499Y-151068995D01*
X70500500Y-151068995D01*
X70500500Y-76374038D01*
X72399500Y-76374038D01*
X72399500Y-76625961D01*
X72438910Y-76874785D01*
X72516760Y-77114383D01*
X72631132Y-77338848D01*
X72779201Y-77542649D01*
X72779205Y-77542654D01*
X72957345Y-77720794D01*
X72957350Y-77720798D01*
X73008102Y-77757671D01*
X73161155Y-77868870D01*
X73304184Y-77941747D01*
X73385616Y-77983239D01*
X73385618Y-77983239D01*
X73385621Y-77983241D01*
X73625215Y-78061090D01*
X73874038Y-78100500D01*
X73874039Y-78100500D01*
X74125961Y-78100500D01*
X74125962Y-78100500D01*
X74374785Y-78061090D01*
X74614379Y-77983241D01*
X74838845Y-77868870D01*
X75042656Y-77720793D01*
X75220793Y-77542656D01*
X75368870Y-77338845D01*
X75483241Y-77114379D01*
X75561090Y-76874785D01*
X75600500Y-76625962D01*
X75600500Y-76374038D01*
X75574857Y-76212135D01*
X91999500Y-76212135D01*
X91999500Y-78307870D01*
X91999501Y-78307876D01*
X92005908Y-78367483D01*
X92050361Y-78486667D01*
X92055345Y-78556359D01*
X92050361Y-78573333D01*
X92005908Y-78692517D01*
X91999501Y-78752116D01*
X91999501Y-78752123D01*
X91999500Y-78752135D01*
X91999500Y-80847870D01*
X91999501Y-80847876D01*
X92005908Y-80907483D01*
X92050628Y-81027380D01*
X92055612Y-81097071D01*
X92050628Y-81114046D01*
X92006403Y-81232619D01*
X92006401Y-81232627D01*
X92000000Y-81292155D01*
X92000000Y-82090000D01*
X93066988Y-82090000D01*
X93034075Y-82147007D01*
X93000000Y-82274174D01*
X93000000Y-82405826D01*
X93034075Y-82532993D01*
X93066988Y-82590000D01*
X92000000Y-82590000D01*
X92000000Y-83387844D01*
X92006401Y-83447372D01*
X92006403Y-83447382D01*
X92050627Y-83565953D01*
X92052106Y-83586641D01*
X92058411Y-83606400D01*
X92055345Y-83631929D01*
X92055611Y-83635644D01*
X92054406Y-83639744D01*
X92054203Y-83641442D01*
X92052676Y-83647126D01*
X92005909Y-83772517D01*
X91999500Y-83832127D01*
X91999500Y-83845164D01*
X91999500Y-83845165D01*
X91999500Y-85927870D01*
X91999501Y-85927876D01*
X92005908Y-85987483D01*
X92050361Y-86106667D01*
X92055345Y-86176359D01*
X92050361Y-86193333D01*
X92005908Y-86312517D01*
X91999501Y-86372116D01*
X91999501Y-86372123D01*
X91999500Y-86372135D01*
X91999500Y-88467870D01*
X91999501Y-88467876D01*
X92005908Y-88527483D01*
X92050361Y-88646667D01*
X92055345Y-88716359D01*
X92050361Y-88733333D01*
X92005908Y-88852517D01*
X91999501Y-88912116D01*
X91999501Y-88912123D01*
X91999500Y-88912135D01*
X91999500Y-91007870D01*
X91999501Y-91007876D01*
X92005908Y-91067483D01*
X92050361Y-91186667D01*
X92055345Y-91256359D01*
X92050361Y-91273333D01*
X92005908Y-91392517D01*
X91999501Y-91452116D01*
X91999501Y-91452123D01*
X91999500Y-91452135D01*
X91999500Y-93547870D01*
X91999501Y-93547876D01*
X92005908Y-93607483D01*
X92050628Y-93727380D01*
X92055612Y-93797071D01*
X92050628Y-93814046D01*
X92006403Y-93932619D01*
X92006401Y-93932627D01*
X92000000Y-93992155D01*
X92000000Y-94790000D01*
X93066988Y-94790000D01*
X93034075Y-94847007D01*
X93000000Y-94974174D01*
X93000000Y-95105826D01*
X93034075Y-95232993D01*
X93066988Y-95290000D01*
X92000000Y-95290000D01*
X92000000Y-96087844D01*
X92006401Y-96147372D01*
X92006403Y-96147379D01*
X92056645Y-96282086D01*
X92056649Y-96282093D01*
X92142809Y-96397187D01*
X92142812Y-96397190D01*
X92257906Y-96483350D01*
X92257913Y-96483354D01*
X92392620Y-96533596D01*
X92392627Y-96533598D01*
X92452155Y-96539999D01*
X92452172Y-96540000D01*
X93250000Y-96540000D01*
X93250000Y-95473012D01*
X93307007Y-95505925D01*
X93434174Y-95540000D01*
X93565826Y-95540000D01*
X93692993Y-95505925D01*
X93750000Y-95473012D01*
X93750000Y-96540000D01*
X94547828Y-96540000D01*
X94547844Y-96539999D01*
X94607372Y-96533598D01*
X94607379Y-96533596D01*
X94742086Y-96483354D01*
X94742093Y-96483350D01*
X94857187Y-96397190D01*
X94857190Y-96397187D01*
X94943350Y-96282093D01*
X94943354Y-96282086D01*
X94993596Y-96147379D01*
X94993598Y-96147372D01*
X94999999Y-96087844D01*
X95000000Y-96087827D01*
X95000000Y-95290000D01*
X93933012Y-95290000D01*
X93965925Y-95232993D01*
X94000000Y-95105826D01*
X94000000Y-94974174D01*
X93965925Y-94847007D01*
X93933012Y-94790000D01*
X95000000Y-94790000D01*
X95000000Y-93992172D01*
X94999999Y-93992155D01*
X94993598Y-93932627D01*
X94993597Y-93932623D01*
X94949371Y-93814049D01*
X94944387Y-93744357D01*
X94949367Y-93727393D01*
X94994091Y-93607483D01*
X95000500Y-93547873D01*
X95000499Y-91452128D01*
X94994091Y-91392517D01*
X94949637Y-91273332D01*
X94944654Y-91203642D01*
X94949638Y-91186667D01*
X94983781Y-91095125D01*
X94994091Y-91067483D01*
X95000500Y-91007873D01*
X95000499Y-88912128D01*
X94994091Y-88852517D01*
X94949637Y-88733332D01*
X94944654Y-88663642D01*
X94949638Y-88646667D01*
X94961119Y-88615885D01*
X94994091Y-88527483D01*
X95000500Y-88467873D01*
X95000499Y-86372128D01*
X94994091Y-86312517D01*
X94949637Y-86193332D01*
X94944654Y-86123642D01*
X94949638Y-86106667D01*
X94994091Y-85987482D01*
X95000500Y-85927873D01*
X95000499Y-83832128D01*
X94994091Y-83772517D01*
X94949370Y-83652615D01*
X94944387Y-83582927D01*
X94949371Y-83565951D01*
X94993597Y-83447376D01*
X94993598Y-83447372D01*
X94999999Y-83387844D01*
X95000000Y-83387827D01*
X95000000Y-82590000D01*
X93933012Y-82590000D01*
X93965925Y-82532993D01*
X94000000Y-82405826D01*
X94000000Y-82274174D01*
X93965925Y-82147007D01*
X93933012Y-82090000D01*
X95000000Y-82090000D01*
X95000000Y-81292172D01*
X94999999Y-81292155D01*
X94993598Y-81232627D01*
X94993597Y-81232623D01*
X94949371Y-81114049D01*
X94944387Y-81044357D01*
X94949367Y-81027393D01*
X94994091Y-80907483D01*
X95000500Y-80847873D01*
X95000499Y-78752128D01*
X94994091Y-78692517D01*
X94949637Y-78573332D01*
X94944654Y-78503642D01*
X94949638Y-78486667D01*
X94994091Y-78367482D01*
X95000500Y-78307873D01*
X95000499Y-76212128D01*
X94994091Y-76152517D01*
X94943796Y-76017669D01*
X94943795Y-76017668D01*
X94943793Y-76017664D01*
X94857547Y-75902455D01*
X94857544Y-75902452D01*
X94742335Y-75816206D01*
X94742328Y-75816202D01*
X94607482Y-75765908D01*
X94607483Y-75765908D01*
X94547883Y-75759501D01*
X94547881Y-75759500D01*
X94547873Y-75759500D01*
X94547864Y-75759500D01*
X92452129Y-75759500D01*
X92452123Y-75759501D01*
X92392516Y-75765908D01*
X92257671Y-75816202D01*
X92257664Y-75816206D01*
X92142455Y-75902452D01*
X92142452Y-75902455D01*
X92056206Y-76017664D01*
X92056202Y-76017671D01*
X92005908Y-76152517D01*
X91999501Y-76212116D01*
X91999501Y-76212123D01*
X91999500Y-76212135D01*
X75574857Y-76212135D01*
X75561090Y-76125215D01*
X75483241Y-75885621D01*
X75483239Y-75885618D01*
X75483239Y-75885616D01*
X75422244Y-75765908D01*
X75368870Y-75661155D01*
X75349952Y-75635117D01*
X75220798Y-75457350D01*
X75220794Y-75457345D01*
X75042654Y-75279205D01*
X75042649Y-75279201D01*
X74838848Y-75131132D01*
X74838847Y-75131131D01*
X74838845Y-75131130D01*
X74768747Y-75095413D01*
X74614383Y-75016760D01*
X74374785Y-74938910D01*
X74125962Y-74899500D01*
X73874038Y-74899500D01*
X73749626Y-74919205D01*
X73625214Y-74938910D01*
X73385616Y-75016760D01*
X73161151Y-75131132D01*
X72957350Y-75279201D01*
X72957345Y-75279205D01*
X72779205Y-75457345D01*
X72779201Y-75457350D01*
X72631132Y-75661151D01*
X72516760Y-75885616D01*
X72438910Y-76125214D01*
X72399500Y-76374038D01*
X70500500Y-76374038D01*
X70500500Y-72624500D01*
X70520185Y-72557461D01*
X70572989Y-72511706D01*
X70624500Y-72500500D01*
X149375500Y-72500500D01*
X149442539Y-72520185D01*
G37*
%TD.AperFunction*%
%TD*%
M02*
